<?xml version="1.0" encoding="UTF-8" standalone="no"?>
<!-- Created with Inkscape (http://www.inkscape.org/) -->

<svg
   width="166.45326mm"
   height="102.78364mm"
   viewBox="0 0 166.45326 102.78364"
   version="1.1"
   id="svg95"
   inkscape:version="1.1.1 (3bf5ae0d25, 2021-09-20)"
   sodipodi:docname="pineapplewake-logo-neg-1.svg"
   xmlns:inkscape="http://www.inkscape.org/namespaces/inkscape"
   xmlns:sodipodi="http://sodipodi.sourceforge.net/DTD/sodipodi-0.dtd"
   xmlns="http://www.w3.org/2000/svg"
   xmlns:svg="http://www.w3.org/2000/svg">
  <sodipodi:namedview
     id="namedview97"
     pagecolor="#ffffff"
     bordercolor="#999999"
     borderopacity="1"
     inkscape:pageshadow="0"
     inkscape:pageopacity="0"
     inkscape:pagecheckerboard="0"
     inkscape:document-units="mm"
     showgrid="false"
     fit-margin-top="0"
     fit-margin-left="0"
     fit-margin-right="0"
     fit-margin-bottom="0"
     inkscape:zoom="0.66368547"
     inkscape:cx="1037.389"
     inkscape:cy="523.5914"
     inkscape:window-width="1920"
     inkscape:window-height="1002"
     inkscape:window-x="1912"
     inkscape:window-y="-8"
     inkscape:window-maximized="1"
     inkscape:current-layer="layer1" />
  <defs
     id="defs92" />
  <g
     inkscape:label="Ebene 1"
     inkscape:groupmode="layer"
     id="layer1"
     transform="translate(169.3367,-10.00147)">
    <g
       id="g3319"
       transform="translate(-9.92231,-253.7825)">
      <path
         style="color:#000000;font-style:normal;font-variant:normal;font-weight:normal;font-stretch:normal;font-size:medium;line-height:normal;font-family:sans-serif;font-variant-ligatures:normal;font-variant-position:normal;font-variant-caps:normal;font-variant-numeric:normal;font-variant-alternates:normal;font-feature-settings:normal;text-indent:0;text-align:start;text-decoration:none;text-decoration-line:none;text-decoration-style:solid;text-decoration-color:#000000;letter-spacing:normal;word-spacing:normal;text-transform:none;writing-mode:lr-tb;direction:ltr;text-orientation:mixed;dominant-baseline:auto;baseline-shift:baseline;text-anchor:start;white-space:normal;shape-padding:0;clip-rule:nonzero;display:inline;overflow:visible;visibility:visible;isolation:auto;mix-blend-mode:normal;color-interpolation:sRGB;color-interpolation-filters:linearRGB;solid-color:#000000;solid-opacity:1;vector-effect:none;fill:#ffffff;fill-opacity:1;fill-rule:evenodd;stroke:none;stroke-width:1.5;stroke-linecap:round;stroke-linejoin:miter;stroke-miterlimit:4;stroke-dasharray:none;stroke-dashoffset:0;stroke-opacity:1;color-rendering:auto;image-rendering:auto;shape-rendering:auto;text-rendering:auto;enable-background:accumulate"
         d="m -158.52936,342.45287 c -1.01424,-0.0143 -1.01424,1.51434 0,1.5 H 6.2781981 c 1.01424,0.0143 1.01424,-1.51434 0,-1.5 z"
         id="path4882-5"
         inkscape:connector-curvature="0"
         sodipodi:nodetypes="ccccc" />
      <path
         id="path9133"
         d="m -76.210527,313.52833 c -5.700567,-3e-5 -10.396128,1.27381 -15.657484,4.57109 0.538664,0.49889 1.423904,1.23983 2.606636,2.1363 2.390526,1.81191 5.990966,4.26309 10.467585,6.76272 0.82062,0.45821 1.680119,0.91763 2.557708,1.37543 8.078233,-4.21681 13.867576,-8.63858 15.649505,-10.2952 -5.247981,-3.28204 -9.935377,-4.55031 -15.62395,-4.55034 z m 16.949379,5.41444 c -0.03604,0.0358 -0.05889,0.064 -0.09843,0.10214 -1.776677,1.71362 -7.276785,5.95537 -15.189793,10.18824 3.736249,1.86077 7.905244,3.65083 12.383624,5.12446 4.217409,-2.41773 7.56147,-4.78546 9.760452,-6.53446 0.505479,-0.40206 0.942972,-0.76714 1.323278,-1.09609 -1.160286,-1.80661 -2.514319,-3.45484 -4.093811,-4.73444 -1.418972,-1.14953 -2.77251,-2.16124 -4.085296,-3.04987 z m -33.932293,0.0229 c -1.302623,0.88334 -2.645082,1.88697 -4.052316,3.027 -1.498954,1.21435 -2.795313,2.76044 -3.915553,4.45882 0.44222,0.39348 0.98168,0.85116 1.636125,1.3717 2.163264,1.7206 5.439441,4.04014 9.560414,6.41687 4.348049,-1.45135 8.404021,-3.19325 12.044123,-5.00686 -0.552688,-0.29591 -1.096449,-0.59211 -1.625497,-0.88751 -4.544101,-2.53729 -8.195107,-5.02169 -10.645836,-6.87925 -1.225359,-0.92878 -2.149014,-1.69859 -2.747129,-2.25441 -0.09802,-0.091 -0.173669,-0.167 -0.254331,-0.24636 z m -8.795799,8.81868 c -1.78446,3.06032 -3.0402,6.43621 -3.89161,9.24806 0.0505,0.0546 0.0989,0.10786 0.1676,0.17612 0.13161,0.13094 0.30111,0.2889 0.48845,0.45918 4.60039,-0.50242 9.065669,-1.49911 13.286526,-2.79234 -3.628858,-2.16698 -6.538135,-4.24492 -8.548376,-5.84383 -0.57623,-0.45832 -1.07665,-0.87523 -1.50259,-1.24719 z m 51.718614,0.27988 c -0.352187,0.30003 -0.734563,0.61798 -1.173774,0.96731 -2.043611,1.62544 -5.019011,3.74651 -8.732475,5.95237 4.246496,1.28001 8.735914,2.25452 13.35732,2.72744 0.145282,-0.13128 0.259458,-0.24072 0.376713,-0.35224 -0.826571,-2.78952 -2.059292,-6.188 -3.827784,-9.29488 z m -25.964396,2.05009 c -3.583307,1.8343 -7.600286,3.62051 -11.924427,5.14148 3.564784,1.94837 7.675152,3.88248 12.194213,5.51447 4.427443,-1.59894 8.4603,-3.4881 11.974416,-5.39635 -4.448284,-1.54504 -8.570832,-3.37865 -12.244202,-5.2596 z m -13.897899,5.80871 c -4.259438,1.38421 -8.786334,2.48962 -13.481809,3.10628 0.0215,0.0172 0.0393,0.0321 0.0612,0.0495 1.40908,1.12073 3.35021,2.52566 5.716657,4.02678 h 14.201734 c 1.838425,-0.45539 3.63134,-0.97321 5.36919,-1.54196 -4.42834,-1.7134 -8.421895,-3.68802 -11.866953,-5.64058 z m 28.130502,0.11493 c -3.399013,1.91519 -7.320761,3.84573 -11.662663,5.52564 1.737397,0.5686 3.529725,1.0866 5.367615,1.54197 h 14.140543 c 2.364208,-1.50018 4.303022,-2.90428 5.711863,-4.02465 -4.71741,-0.58939 -9.272292,-1.6704 -13.557358,-3.04296 z m -43.737961,3.23503 c -0.26363,0.026 -0.52837,0.0473 -0.79281,0.0702 -0.58212,2.2519 -0.83111,3.76233 -0.83111,3.76233 h 6.71006 c -1.52722,-1.0353 -2.82794,-1.99735 -3.86023,-2.81843 -0.46454,-0.36949 -0.86863,-0.70603 -1.22591,-1.01415 z m 59.438001,0.041 c -0.346524,0.2977 -0.733152,0.61935 -1.178027,0.97318 -1.032292,0.82107 -2.333803,1.78317 -3.861288,2.81843 h 6.284917 c 0,0 -0.248338,-1.50767 -0.829506,-3.75649 -0.138661,-0.0119 -0.277631,-0.0224 -0.416096,-0.0351 z m -29.662857,3.10043 c -0.672672,0.23783 -1.355475,0.4677 -2.045341,0.69118 h 4.091711 c -0.690248,-0.22361 -1.37337,-0.45322 -2.04637,-0.69118 z"
         style="fill:#ffffff;fill-opacity:1;fill-rule:evenodd;stroke:none;stroke-width:1.54445;stroke-linecap:butt;stroke-linejoin:miter;stroke-miterlimit:7.5;stroke-dasharray:none;stroke-opacity:1"
         inkscape:connector-curvature="0" />
      <path
         inkscape:connector-curvature="0"
         id="path4674"
         d="m -76.377616,263.78397 c -1.455452,3.15484 -5.40534,12.11597 -8.390892,22.64634 3.557566,2.14616 6.55394,5.64821 8.529749,9.50879 1.925172,-3.77274 4.847298,-7.18792 8.296712,-9.3465 -2.99136,-10.6054 -6.975895,-19.64516 -8.435569,-22.80863 z m -27.770804,18.14868 c 3.23103,2.31415 8.241786,6.85068 9.740771,13.56321 5.625023,0.95511 11.887628,3.59384 15.870331,7.51563 0.240904,-1.73613 0.741111,-3.51058 1.456307,-5.24311 -5.406,-11.04679 -14.067419,-14.06474 -27.067229,-15.83575 z m 55.851286,0 c -12.237436,2.33401 -26.174647,4.92144 -28.830705,22.73352 0.343672,0.47836 0.64867,0.97754 0.910393,1.49727 2.78e-4,-10e-4 5.46e-4,-0.002 10e-4,-0.002 v -5.4e-4 c 7.447128,-8.82626 13.247931,-9.34112 18.17967,-10.6659 1.499294,-6.71245 6.509851,-11.24808 9.740786,-13.56215 z m -54.155566,14.61194 -0.001,5.4e-4 c -3.21463,0.005 -6.25894,0.20582 -8.55848,0.40916 4.13192,1.47691 10.39107,4.77751 13.427558,11.83453 1.347464,3.13164 3.299993,5.83048 5.463392,7.80133 5.069329,-3.22796 9.595494,-4.57934 14.965775,-4.71795 0.937298,-11.27452 -16.999007,-15.2371 -25.296635,-15.32717 z m 26.847537,15.31952 c 5.514245,0.0902 10.119445,1.4285 15.289298,4.71797 2.15965,-1.97005 4.108329,-4.66585 5.453805,-7.79284 3.091255,-7.18433 9.324474,-10.29384 13.449905,-11.73023 -14.780946,-4.10857 -35.386005,4.32333 -34.193008,14.8051 z"
         style="fill:#ffffff;fill-opacity:1;fill-rule:evenodd;stroke:none;stroke-width:1.54445;stroke-linecap:butt;stroke-linejoin:miter;stroke-miterlimit:4;stroke-dasharray:none;stroke-opacity:1"
         inkscape:export-xdpi="300"
         inkscape:export-ydpi="300"
         sodipodi:nodetypes="cccccccccccccccccccccccccccccscc" />
      <g
         aria-label="PINEAPPLEWAKEPARK"
         transform="matrix(0.26458333,0,0,0.26458333,-132.12458,232.36438)"
         id="flowRoot8509"
         style="font-size:96px;line-height:125%;font-family:'Gill Sans MT Condensed';-inkscape-font-specification:'Gill Sans MT Condensed, ';letter-spacing:0px;word-spacing:0px;fill:#ffffff;fill-opacity:1;stroke-width:1px">
        <path
           d="m -103.14258,506.38106 v -64.125 h 8.718752 q 8.859375,0 14.0625,4.73438 5.25,4.73437 5.25,13.03125 0,8.48437 -4.828125,13.35937 -4.828125,4.875 -13.21875,4.875 h -1.734375 v 28.125 z m 8.250002,-35.8125 h 1.453125 q 10.078125,0 10.078125,-11.01562 0,-9.89063 -11.53125,-9.60938 z"
           style="letter-spacing:2.29px;fill:#ffffff;fill-opacity:1"
           id="path189" />
        <path
           d="m -65.415077,506.38106 v -64.125 h 8.25 v 64.125 z"
           style="letter-spacing:2.29px;fill:#ffffff;fill-opacity:1"
           id="path191" />
        <path
           d="m -43.812576,506.38106 v -64.125 h 6.703125 l 14.203125,39.5625 h 0.1875 v -39.5625 h 7.59375 v 64.125 h -6.703125 l -14.203125,-39.9375 h -0.1875 v 39.9375 z"
           style="letter-spacing:2.29px;fill:#ffffff;fill-opacity:1"
           id="path193" />
        <path
           d="m -1.5850754,506.38106 v -64.125 H 21.24305 v 7.6875 H 6.6649246 v 19.17188 H 20.0243 v 7.6875 H 6.6649246 v 21.89062 H 22.039925 v 7.6875 z"
           style="letter-spacing:2.29px;fill:#ffffff;fill-opacity:1"
           id="path195" />
        <path
           d="m 30.704926,506.38106 12.09375,-64.5 h 8.578125 l 12,64.5 h -7.96875 l -2.296875,-14.20312 h -11.90625 l -2.53125,14.20312 z m 11.71875,-21.89062 h 9.234375 l -4.5,-26.85938 h -0.234375 z"
           style="letter-spacing:2.29px;fill:#ffffff;fill-opacity:1"
           id="path197" />
        <path
           d="m 72.276169,506.38106 v -64.125 h 8.71875 q 8.859375,0 14.0625,4.73438 5.250001,4.73437 5.250001,13.03125 0,8.48437 -4.828126,13.35937 -4.828125,4.875 -13.21875,4.875 h -1.734375 v 28.125 z m 8.25,-35.8125 h 1.453125 q 10.078125,0 10.078125,-11.01562 0,-9.89063 -11.53125,-9.60938 z"
           style="letter-spacing:2.29px;fill:#ffffff;fill-opacity:1"
           id="path199" />
        <path
           d="m 110.56618,506.38106 v -64.125 h 8.71875 q 8.85937,0 14.0625,4.73438 5.25,4.73437 5.25,13.03125 0,8.48437 -4.82813,13.35937 -4.82812,4.875 -13.21875,4.875 h -1.73437 v 28.125 z m 8.25,-35.8125 h 1.45312 q 10.07813,0 10.07813,-11.01562 0,-9.89063 -11.53125,-9.60938 z"
           style="letter-spacing:2.29px;fill:#ffffff;fill-opacity:1"
           id="path201" />
        <path
           d="m 148.57492,506.38106 v -64.125 h 8.25 v 56.4375 h 15.84375 v 7.6875 z"
           style="letter-spacing:2.29px;fill:#ffffff;fill-opacity:1"
           id="path203" />
        <path
           d="m 180.81805,506.38106 v -64.125 h 22.82813 v 7.6875 h -14.57813 v 19.17188 h 13.35938 v 7.6875 h -13.35938 v 21.89062 h 15.375 v 7.6875 z"
           style="letter-spacing:2.29px;fill:#ffffff;fill-opacity:1"
           id="path205" />
        <path
           d="m 227.12366,507.22481 -13.73438,-64.96875 h 8.67188 l 7.59375,43.07813 h 0.1875 l 8.625,-43.07813 h 5.95312 l 8.15625,44.0625 h 0.1875 l 8.0625,-44.0625 h 8.67188 l -13.73438,64.96875 h -5.67187 l -8.67188,-42.89062 h -0.1875 l -8.4375,42.89062 z"
           style="letter-spacing:2.29px;fill:#ffffff;fill-opacity:1"
           id="path207" />
        <path
           d="m 271.46054,506.38106 12.09375,-64.5 h 8.57813 l 12,64.5 h -7.96875 l -2.29688,-14.20312 h -11.90625 l -2.53125,14.20312 z m 11.71875,-21.89062 h 9.23438 l -4.5,-26.85938 h -0.23438 z"
           style="letter-spacing:2.29px;fill:#ffffff;fill-opacity:1"
           id="path209" />
        <path
           d="m 312.8443,506.38106 v -64.125 h 8.25 v 64.125 z m 19.96875,0 -11.4375,-32.53125 9.04687,-31.59375 h 8.4375 l -10.07812,30.51563 12.5625,33.60937 z"
           style="letter-spacing:2.29px;fill:#ffffff;fill-opacity:1"
           id="path211" />
        <path
           d="m 348.93118,506.38106 v -64.125 h 22.82813 v 7.6875 h -14.57813 v 19.17188 h 13.35938 v 7.6875 h -13.35938 v 21.89062 h 15.375 v 7.6875 z"
           style="letter-spacing:2.29px;fill:#ffffff;fill-opacity:1"
           id="path213" />
        <path
           d="m 386.51804,506.38106 v -64.125 h 8.71875 q 8.85937,0 14.0625,4.73438 5.25,4.73437 5.25,13.03125 0,8.48437 -4.82813,13.35937 -4.82812,4.875 -13.21875,4.875 h -1.73437 v 28.125 z m 8.25,-35.8125 h 1.45312 q 10.07813,0 10.07813,-11.01562 0,-9.89063 -11.53125,-9.60938 z"
           style="font-stretch:condensed;-inkscape-font-specification:'Gill Sans MT Condensed,  Condensed';fill:#ffffff;fill-opacity:1"
           id="path215" />
        <path
           d="m 417.12054,506.38106 12.09375,-64.5 h 8.57813 l 12,64.5 h -7.96875 l -2.29688,-14.20312 h -11.90625 l -2.53125,14.20312 z m 11.71875,-21.89062 h 9.23438 l -4.5,-26.85938 h -0.23438 z"
           style="font-stretch:condensed;-inkscape-font-specification:'Gill Sans MT Condensed,  Condensed';fill:#ffffff;fill-opacity:1"
           id="path217" />
        <path
           d="m 458.41052,506.38106 v -64.125 h 6.89063 q 8.25,0 12.5625,4.875 4.35937,4.82813 4.35937,12.89063 0,9.14062 -6.65625,13.73437 5.15625,3.65625 8.76563,19.45313 l 2.95312,13.17187 h -8.625 l -2.48437,-11.0625 q -2.67188,-11.625 -4.64063,-14.76562 -1.96875,-3.1875 -4.875,-2.85938 v 28.6875 z m 8.25,-36.375 h 0.375 q 6.9375,0 6.9375,-9.70312 0,-10.3125 -7.3125,-10.35938 z"
           style="font-stretch:condensed;-inkscape-font-specification:'Gill Sans MT Condensed,  Condensed';fill:#ffffff;fill-opacity:1"
           id="path219" />
        <path
           d="m 495.85681,506.38106 v -64.125 h 8.25 v 64.125 z m 19.96875,0 -11.4375,-32.53125 9.04688,-31.59375 h 8.4375 l -10.07813,30.51563 12.5625,33.60937 z"
           style="font-stretch:condensed;-inkscape-font-specification:'Gill Sans MT Condensed,  Condensed';fill:#ffffff;fill-opacity:1"
           id="path221" />
      </g>
    </g>
  </g>
</svg>
