<?xml version="1.0" encoding="UTF-8" standalone="no"?>
<!-- Created with Inkscape (http://www.inkscape.org/) -->

<svg
   width="415.40134mm"
   height="293.41205mm"
   viewBox="0 0 415.40134 293.41205"
   version="1.1"
   id="svg5"
   inkscape:version="1.1.1 (3bf5ae0d25, 2021-09-20)"
   sodipodi:docname="logo-variations.svg"
   inkscape:export-filename="D:\WORKSPACE\Visual Studio\portfolio3\img\pineapplewake\pineapplewake-logo-variationen-2.png"
   inkscape:export-xdpi="100"
   inkscape:export-ydpi="100"
   xmlns:inkscape="http://www.inkscape.org/namespaces/inkscape"
   xmlns:sodipodi="http://sodipodi.sourceforge.net/DTD/sodipodi-0.dtd"
   xmlns="http://www.w3.org/2000/svg"
   xmlns:svg="http://www.w3.org/2000/svg">
  <sodipodi:namedview
     id="namedview7"
     pagecolor="#ffffff"
     bordercolor="#999999"
     borderopacity="1"
     inkscape:pageshadow="0"
     inkscape:pageopacity="0"
     inkscape:pagecheckerboard="0"
     inkscape:document-units="mm"
     showgrid="false"
     inkscape:zoom="0.46929649"
     inkscape:cx="1475.613"
     inkscape:cy="687.19883"
     inkscape:window-width="1920"
     inkscape:window-height="1002"
     inkscape:window-x="1912"
     inkscape:window-y="-8"
     inkscape:window-maximized="1"
     inkscape:current-layer="layer1"
     fit-margin-top="0"
     fit-margin-left="0"
     fit-margin-right="0"
     fit-margin-bottom="0"
     inkscape:snap-bbox="true"
     inkscape:bbox-paths="true"
     inkscape:snap-midpoints="true"
     inkscape:object-nodes="true"
     inkscape:snap-smooth-nodes="true"
     inkscape:snap-intersection-paths="true"
     inkscape:object-paths="true"
     inkscape:snap-object-midpoints="true"
     inkscape:snap-center="true"
     inkscape:bbox-nodes="true"
     inkscape:snap-bbox-edge-midpoints="true"
     inkscape:snap-bbox-midpoints="true"
     inkscape:snap-page="true" />
  <defs
     id="defs2" />
  <g
     inkscape:label="Ebene 1"
     inkscape:groupmode="layer"
     id="layer1"
     transform="translate(379.52213,-85.711426)">
    <g
       id="g2357"
       transform="translate(-16.69877,10.224155)">
      <g
         id="g4892"
         transform="translate(-354.14249,-17.616986)"
         inkscape:export-filename="D:\Web- &amp; Grafikdesign gewerbliche Aufträge\Kundenaufträge\Silke Künzel (Pineapplewake)\Grafik\PineapplePark\Logos\Park\g4892.png"
         inkscape:export-xdpi="300"
         inkscape:export-ydpi="300">
        <g
           aria-label="PINEAPPLEWAKEPARK"
           transform="matrix(0.26458333,0,0,0.26458333,227.24459,93.43695)"
           id="flowRoot7913"
           style="font-size:96px;line-height:125%;font-family:'Gill Sans MT Condensed';-inkscape-font-specification:'Gill Sans MT Condensed, ';letter-spacing:0px;word-spacing:0px;fill:#000000;stroke-width:1px">
          <path
             d="m -103.14258,506.38106 v -64.125 h 8.718752 q 8.859375,0 14.0625,4.73438 5.25,4.73437 5.25,13.03125 0,8.48437 -4.828125,13.35937 -4.828125,4.875 -13.21875,4.875 h -1.734375 v 28.125 z m 8.250002,-35.8125 h 1.453125 q 10.078125,0 10.078125,-11.01562 0,-9.89063 -11.53125,-9.60938 z"
             style="letter-spacing:2.29px;fill:#000000"
             id="path8530" />
          <path
             d="m -65.415077,506.38106 v -64.125 h 8.25 v 64.125 z"
             style="letter-spacing:2.29px;fill:#000000"
             id="path8532" />
          <path
             d="m -43.812576,506.38106 v -64.125 h 6.703125 l 14.203125,39.5625 h 0.1875 v -39.5625 h 7.59375 v 64.125 h -6.703125 l -14.203125,-39.9375 h -0.1875 v 39.9375 z"
             style="letter-spacing:2.29px;fill:#000000"
             id="path8534" />
          <path
             d="m -1.5850754,506.38106 v -64.125 H 21.24305 v 7.6875 H 6.6649246 v 19.17188 H 20.0243 v 7.6875 H 6.6649246 v 21.89062 H 22.039925 v 7.6875 z"
             style="letter-spacing:2.29px;fill:#000000"
             id="path8536" />
          <path
             d="m 30.704926,506.38106 12.09375,-64.5 h 8.578125 l 12,64.5 h -7.96875 l -2.296875,-14.20312 h -11.90625 l -2.53125,14.20312 z m 11.71875,-21.89062 h 9.234375 l -4.5,-26.85938 h -0.234375 z"
             style="letter-spacing:2.29px;fill:#000000"
             id="path8538" />
          <path
             d="m 72.276169,506.38106 v -64.125 h 8.71875 q 8.859375,0 14.0625,4.73438 5.250001,4.73437 5.250001,13.03125 0,8.48437 -4.828126,13.35937 -4.828125,4.875 -13.21875,4.875 h -1.734375 v 28.125 z m 8.25,-35.8125 h 1.453125 q 10.078125,0 10.078125,-11.01562 0,-9.89063 -11.53125,-9.60938 z"
             style="letter-spacing:2.29px;fill:#000000"
             id="path8540" />
          <path
             d="m 110.56618,506.38106 v -64.125 h 8.71875 q 8.85937,0 14.0625,4.73438 5.25,4.73437 5.25,13.03125 0,8.48437 -4.82813,13.35937 -4.82812,4.875 -13.21875,4.875 h -1.73437 v 28.125 z m 8.25,-35.8125 h 1.45312 q 10.07813,0 10.07813,-11.01562 0,-9.89063 -11.53125,-9.60938 z"
             style="letter-spacing:2.29px;fill:#000000"
             id="path8542" />
          <path
             d="m 148.57492,506.38106 v -64.125 h 8.25 v 56.4375 h 15.84375 v 7.6875 z"
             style="letter-spacing:2.29px;fill:#000000"
             id="path8544" />
          <path
             d="m 180.81805,506.38106 v -64.125 h 22.82813 v 7.6875 h -14.57813 v 19.17188 h 13.35938 v 7.6875 h -13.35938 v 21.89062 h 15.375 v 7.6875 z"
             style="letter-spacing:2.29px;fill:#000000"
             id="path8546" />
          <path
             d="m 227.12366,507.22481 -13.73438,-64.96875 h 8.67188 l 7.59375,43.07813 h 0.1875 l 8.625,-43.07813 h 5.95312 l 8.15625,44.0625 h 0.1875 l 8.0625,-44.0625 h 8.67188 l -13.73438,64.96875 h -5.67187 l -8.67188,-42.89062 h -0.1875 l -8.4375,42.89062 z"
             style="letter-spacing:2.29px;fill:#000000"
             id="path8548" />
          <path
             d="m 271.46054,506.38106 12.09375,-64.5 h 8.57813 l 12,64.5 h -7.96875 l -2.29688,-14.20312 h -11.90625 l -2.53125,14.20312 z m 11.71875,-21.89062 h 9.23438 l -4.5,-26.85938 h -0.23438 z"
             style="letter-spacing:2.29px;fill:#000000"
             id="path8550" />
          <path
             d="m 312.8443,506.38106 v -64.125 h 8.25 v 64.125 z m 19.96875,0 -11.4375,-32.53125 9.04687,-31.59375 h 8.4375 l -10.07812,30.51563 12.5625,33.60937 z"
             style="letter-spacing:2.29px;fill:#000000"
             id="path8552" />
          <path
             d="m 348.93118,506.38106 v -64.125 h 22.82813 v 7.6875 h -14.57813 v 19.17188 h 13.35938 v 7.6875 h -13.35938 v 21.89062 h 15.375 v 7.6875 z"
             style="letter-spacing:2.29px;fill:#000000"
             id="path8554" />
          <path
             style="color:#000000;-inkscape-font-specification:'Gill Sans MT Condensed,  Condensed';fill:#000000;stroke-width:0.956866px;-inkscape-stroke:none"
             d="m 385.07227,442.25607 v 64.12499 h 1.38297 9.27711 v -26.91187 h 0.2766 c 5.62037,0 10.26976,-1.67953 13.63161,-5.074 3.36225,-3.39489 5.01981,-8.08216 5.01981,-13.75683 0,-5.58186 -1.83169,-10.20248 -5.47582,-13.49144 -3.60819,-3.28312 -8.48874,-4.89085 -14.38663,-4.89085 z m 2.76594,2.76594 h 6.95971 c 5.40507,0 9.49516,1.41425 12.52522,4.17134 l 0.002,0.002 0.004,0.002 c 3.05057,2.75096 4.56567,6.44039 4.56567,11.44128 0,5.14987 -1.42236,8.98471 -4.21993,11.80945 -2.79798,2.82515 -6.58098,4.25544 -11.66555,4.25544 h -3.04253 v 26.91187 h -5.12821 z m 6.47753,4.58997 -1.34932,0.0337 v 22.46767 h 1.38297 1.39044 c 3.46647,0 6.33572,-0.98804 8.25297,-3.08364 1.91726,-2.09562 2.77342,-5.11539 2.77342,-8.83981 0,-3.42346 -1.05799,-6.26279 -3.25559,-8.09411 -2.19759,-1.83133 -5.31936,-2.57827 -9.19489,-2.48374 z m 1.41661,2.89676 c 2.67337,0.12475 4.75173,0.66804 6.00658,1.71377 1.48036,1.23363 2.26135,3.08145 2.26135,5.96732 0,3.30257 -0.75108,5.55304 -2.04829,6.97092 -1.29722,1.41789 -3.24969,2.1866 -6.21216,2.1866 h -0.008 z"
             id="path8556" />
          <path
             style="color:#000000;-inkscape-font-specification:'Gill Sans MT Condensed,  Condensed';fill:#000000;stroke-width:0.956866px;-inkscape-stroke:none"
             d="m 426.16145,441.89724 -12.08978,64.48382 h 1.66704 8.78373 l 2.42207,-13.59049 h 9.05659 l 2.1978,13.59049 h 10.46573 l -11.99634,-64.48382 z m 2.29685,2.76594 h 5.91127 l 10.96658,58.95194 h -4.78245 l -2.19781,-13.59049 h -13.72878 l -2.42207,13.59049 h -4.80116 z m 1.62779,12.30471 -4.76937,28.46677 h 1.63526 10.46947 l -4.76938,-28.46677 z m 1.28393,9.08462 2.78463,16.61621 h -5.56927 z"
             id="path8558" />
          <path
             style="color:#000000;-inkscape-font-specification:'Gill Sans MT Condensed,  Condensed';fill:#000000;stroke-width:0.956866px;-inkscape-stroke:none"
             d="m 453.86385,442.25589 v 64.12499 h 1.38298 9.27711 v -27.22771 c 0.72395,0.24081 1.39866,0.7151 2.10436,1.85767 l 0.004,0.004 0.002,0.004 c 0.99751,1.59126 2.57088,6.33457 4.26479,13.7045 l 2.6183,11.65807 h 11.08806 l -3.20513,-14.29132 v -0.004 c -2.07743,-9.09214 -4.48367,-15.03883 -7.75772,-18.23279 3.74862,-3.17025 5.77297,-7.65558 5.77297,-13.21485 0,-5.38665 -1.48613,-9.88734 -4.51708,-13.25035 l -0.004,-0.004 c -3.04098,-3.43501 -7.52104,-5.1282 -13.05412,-5.1282 z m 2.76595,2.76593 h 5.21043 c 4.99029,0 8.52434,1.41745 10.98528,4.19938 l 0.004,0.004 0.006,0.006 c 2.52422,2.79565 3.81438,6.51381 3.81438,11.40764 0,5.49512 -1.87801,9.31705 -5.7711,12.00382 l -1.62779,1.12319 1.61284,1.14376 c 2.64667,1.87672 5.56419,7.83346 7.83995,17.7936 l 2.44637,10.91239 h -5.41789 l -2.13612,-9.50886 v -0.004 c -1.71434,-7.45882 -3.1025,-12.13285 -4.61614,-14.54922 -1.42702,-2.30732 -3.61044,-3.64799 -5.99349,-3.37894 l -1.22786,0.1383 v 27.30247 h -5.1282 z m 5.1282,4.58063 v 21.97242 h 1.38298 0.35882 c 2.53521,0 4.74362,-0.99627 6.10375,-2.89864 1.36015,-1.90236 1.91748,-4.50923 1.91748,-7.76893 0,-3.4527 -0.58597,-6.20454 -2.00157,-8.20998 -1.4156,-2.00544 -3.71167,-3.06849 -6.36915,-3.08552 z m 2.76594,3.0444 c 1.14602,0.25415 2.07556,0.71345 2.73417,1.64648 0.91676,1.29875 1.49697,3.48823 1.49697,6.61397 0,2.93002 -0.54905,4.96733 -1.40165,6.15983 -0.66409,0.92882 -1.60589,1.36197 -2.82949,1.5549 z"
             id="path8560" />
          <path
             id="path8562"
             style="color:#000000;-inkscape-font-specification:'Gill Sans MT Condensed,  Condensed';fill:#000000;stroke-width:0.956866px;-inkscape-stroke:none"
             d="m 489.69654,442.25606 v 64.125 h 1.38297 9.27712 v -25.17007 l 8.84914,25.17007 h 0.98116 10.15737 l -12.54953,-33.57068 10.09195,-30.55432 h -11.03013 l -6.49996,22.69755 v -22.69755 z m 2.76594,2.76595 h 5.12821 v 26.55304 h 3.7471 l 7.60447,-26.55304 h 5.117 l -9.19676,27.84443 11.49361,30.74867 h -5.18988 l -9.58548,-27.25947 h -3.99006 v 27.25947 h -5.12821 z" />
        </g>
      </g>
      <path
         style="color:#000000;font-style:normal;font-variant:normal;font-weight:normal;font-stretch:normal;font-size:medium;line-height:normal;font-family:sans-serif;font-variant-ligatures:normal;font-variant-position:normal;font-variant-caps:normal;font-variant-numeric:normal;font-variant-alternates:normal;font-feature-settings:normal;text-indent:0;text-align:start;text-decoration:none;text-decoration-line:none;text-decoration-style:solid;text-decoration-color:#000000;letter-spacing:normal;word-spacing:normal;text-transform:none;writing-mode:lr-tb;direction:ltr;text-orientation:mixed;dominant-baseline:auto;baseline-shift:baseline;text-anchor:start;white-space:normal;shape-padding:0;clip-rule:nonzero;display:inline;overflow:visible;visibility:visible;isolation:auto;mix-blend-mode:normal;color-interpolation:sRGB;color-interpolation-filters:linearRGB;solid-color:#000000;solid-opacity:1;vector-effect:none;fill:#000000;fill-opacity:1;fill-rule:evenodd;stroke:none;stroke-width:1.5;stroke-linecap:butt;stroke-linejoin:miter;stroke-miterlimit:7.5;stroke-dasharray:none;stroke-dashoffset:0;stroke-opacity:1;color-rendering:auto;image-rendering:auto;shape-rendering:auto;text-rendering:auto;enable-background:accumulate"
         d="m -71.4064,156.90867 c -7.48859,-3e-5 -13.36243,2.27844 -20.90234,8.38672 -3.92959,3.18347 -6.40303,8.42258 -7.94922,12.85742 -1.02366,2.92097 -1.78823,5.92752 -2.28906,8.98047 h 62.2793 c -0.67838,-3.44233 -1.39068,-6.36247 -2.28907,-8.98047 -1.54631,-4.43483 -4.01964,-9.67396 -7.94921,-12.85742 -7.53992,-6.10828 -13.41198,-8.38669 -20.9004,-8.38672 z m 0,1.5 c 7.19239,3e-5 12.56687,2.06578 19.95704,8.05274 3.53544,2.86416 5.97522,7.87969 7.47656,12.18555 1.21884,3.49563 1.71503,5.98131 1.90234,6.98632 h -58.67383 c 0.18728,-1.00501 0.68362,-3.4907 1.90235,-6.98632 1.50121,-4.30586 3.94111,-9.3214 7.47656,-12.18555 7.39015,-5.98696 12.76644,-8.05277 19.95898,-8.05274 z"
         id="path4878"
         inkscape:connector-curvature="0"
         sodipodi:nodetypes="sscccccsscsccccs"
         inkscape:export-filename="D:\Web- &amp; Grafikdesign gewerbliche Aufträge\Kundenaufträge\Silke Künzel (Pineapplewake)\Grafik\PineapplePark\Logos\Park\path4878.png"
         inkscape:export-xdpi="300"
         inkscape:export-ydpi="300" />
      <path
         sodipodi:nodetypes="ccccccccccccscccccccccccccccccccccccccccc"
         inkscape:connector-curvature="0"
         id="path4880"
         d="m -56.21869,162.88064 c -2.21777,1.89243 -8.10226,5.48369 -15.21338,9.19568 -5.07428,-2.84881 -10.63376,-6.12498 -14.60014,-9.46505 -0.43165,0.26798 -0.86743,0.5496 -1.30897,0.84749 4.64118,3.63751 9.47868,6.88393 14.27252,9.45214 -3.53515,1.76129 -7.47384,3.45377 -11.69645,4.86327 -3.58361,-2.19019 -7.23408,-4.47235 -10.29756,-7.06469 -0.27544,0.42179 -0.54289,0.85189 -0.79685,1.29191 3.02312,2.42026 6.43009,4.73943 9.17773,6.38979 -4.09943,1.25604 -8.43659,2.22349 -12.90464,2.71146 -0.0149,-0.0135 -0.0241,-0.0233 -0.0388,-0.0367 -0.17483,0.58582 -0.31895,1.11363 -0.44855,1.60766 0.34394,0.29633 0.73136,0.61898 1.17719,0.97358 0.74792,0.59488 1.64173,1.26644 2.66133,1.98593 h 2.66237 c -1.7749,-1.17241 -3.26018,-2.26105 -4.39043,-3.16002 -0.021,-0.0167 -0.0382,-0.031 -0.0589,-0.0475 4.55997,-0.5989 8.95618,-1.67313 13.09274,-3.01739 3.34599,1.89645 7.22484,3.81408 11.52591,5.47822 -0.7959,0.26048 -1.60466,0.50902 -2.4231,0.74673 h 9.31467 c -0.81829,-0.2377 -1.6268,-0.48629 -2.42259,-0.74673 4.21691,-1.63157 8.0258,-3.50653 11.32696,-5.3666 4.16146,1.33294 8.58536,2.38348 13.16665,2.9559 -1.12985,0.89848 -2.61308,1.98613 -4.38579,3.15743 h 2.66081 c 1.01968,-0.71938 1.91402,-1.39112 2.66187,-1.98593 0.309,-0.24578 0.5811,-0.47107 0.8387,-0.68781 -0.14184,-0.5545 -0.30975,-1.17024 -0.5121,-1.85054 -4.37724,-0.47079 -8.63059,-1.39868 -12.65816,-2.61276 3.13554,-1.95649 6.32244,-4.00903 9.03046,-6.22545 -0.24885,-0.44156 -0.50864,-0.8755 -0.77875,-1.30018 -3.40471,2.65976 -7.11768,5.14802 -10.18285,6.9174 -4.34948,-1.43121 -8.39849,-3.16974 -12.02718,-4.97695 7.10355,-3.79988 12.79156,-7.3145 14.88576,-9.18328 -0.442,-0.29772 -0.87841,-0.57923 -1.31052,-0.84698 z m -15.21235,10.88654 c 3.56764,1.8268 7.57153,3.60712 11.89178,5.10769 -3.41312,1.8534 -7.32954,3.6891 -11.62978,5.24206 -4.38895,-1.585 -8.38103,-3.46399 -11.8432,-5.35626 4.19971,-1.4772 8.101,-3.21198 11.5812,-4.99349 z"
         style="color:#000000;font-style:normal;font-variant:normal;font-weight:normal;font-stretch:normal;font-size:medium;line-height:normal;font-family:sans-serif;font-variant-ligatures:normal;font-variant-position:normal;font-variant-caps:normal;font-variant-numeric:normal;font-variant-alternates:normal;font-feature-settings:normal;text-indent:0;text-align:start;text-decoration:none;text-decoration-line:none;text-decoration-style:solid;text-decoration-color:#000000;letter-spacing:normal;word-spacing:normal;text-transform:none;writing-mode:lr-tb;direction:ltr;text-orientation:mixed;dominant-baseline:auto;baseline-shift:baseline;text-anchor:start;white-space:normal;shape-padding:0;clip-rule:nonzero;display:inline;overflow:visible;visibility:visible;isolation:auto;mix-blend-mode:normal;color-interpolation:sRGB;color-interpolation-filters:linearRGB;solid-color:#000000;solid-opacity:1;vector-effect:none;fill:#000000;fill-opacity:1;fill-rule:evenodd;stroke:none;stroke-width:1.5;stroke-linecap:butt;stroke-linejoin:miter;stroke-miterlimit:7.5;stroke-dasharray:none;stroke-dashoffset:0;stroke-opacity:1;color-rendering:auto;image-rendering:auto;shape-rendering:auto;text-rendering:auto;enable-background:accumulate"
         inkscape:export-filename="D:\Web- &amp; Grafikdesign gewerbliche Aufträge\Kundenaufträge\Silke Künzel (Pineapplewake)\Grafik\PineapplePark\Logos\Park\path4878.png"
         inkscape:export-xdpi="300"
         inkscape:export-ydpi="300" />
      <path
         style="color:#000000;font-style:normal;font-variant:normal;font-weight:normal;font-stretch:normal;font-size:medium;line-height:normal;font-family:sans-serif;font-variant-ligatures:normal;font-variant-position:normal;font-variant-caps:normal;font-variant-numeric:normal;font-variant-alternates:normal;font-feature-settings:normal;text-indent:0;text-align:start;text-decoration:none;text-decoration-line:none;text-decoration-style:solid;text-decoration-color:#000000;letter-spacing:normal;word-spacing:normal;text-transform:none;writing-mode:lr-tb;direction:ltr;text-orientation:mixed;dominant-baseline:auto;baseline-shift:baseline;text-anchor:start;white-space:normal;shape-padding:0;clip-rule:nonzero;display:inline;overflow:visible;visibility:visible;isolation:auto;mix-blend-mode:normal;color-interpolation:sRGB;color-interpolation-filters:linearRGB;solid-color:#000000;solid-opacity:1;vector-effect:none;fill:#000000;fill-opacity:1;fill-rule:evenodd;stroke:none;stroke-width:1.5;stroke-linecap:round;stroke-linejoin:miter;stroke-miterlimit:4;stroke-dasharray:none;stroke-dashoffset:0;stroke-opacity:1;color-rendering:auto;image-rendering:auto;shape-rendering:auto;text-rendering:auto;enable-background:accumulate"
         d="m -153.30268,185.90845 c -1.01424,-0.0143 -1.01424,1.51434 0,1.5 H 11.50488 c 1.01424,0.0143 1.01424,-1.51434 0,-1.5 z"
         id="path4882"
         inkscape:connector-curvature="0"
         sodipodi:nodetypes="ccccc" />
      <path
         style="color:#000000;font-style:normal;font-variant:normal;font-weight:normal;font-stretch:normal;font-size:medium;line-height:normal;font-family:sans-serif;font-variant-ligatures:normal;font-variant-position:normal;font-variant-caps:normal;font-variant-numeric:normal;font-variant-alternates:normal;font-feature-settings:normal;text-indent:0;text-align:start;text-decoration:none;text-decoration-line:none;text-decoration-style:solid;text-decoration-color:#000000;letter-spacing:normal;word-spacing:normal;text-transform:none;writing-mode:lr-tb;direction:ltr;text-orientation:mixed;dominant-baseline:auto;baseline-shift:baseline;text-anchor:start;white-space:normal;shape-padding:0;clip-rule:nonzero;display:inline;overflow:visible;visibility:visible;isolation:auto;mix-blend-mode:normal;color-interpolation:sRGB;color-interpolation-filters:linearRGB;solid-color:#000000;solid-opacity:1;vector-effect:none;fill:#000000;fill-opacity:1;fill-rule:evenodd;stroke:none;stroke-width:1.5;stroke-linecap:butt;stroke-linejoin:miter;stroke-miterlimit:4;stroke-dasharray:none;stroke-dashoffset:0;stroke-opacity:1;color-rendering:auto;image-rendering:auto;shape-rendering:auto;text-rendering:auto;enable-background:accumulate"
         d="m -70.91178,107.30835 -0.67437,1.38853 c 0,0 -5.20451,10.71912 -8.8253,23.35723 -9.71247,-5.03227 -20.53519,-5.46528 -20.53519,-5.46528 l -3.3817,-0.14108 3.00601,1.55649 c 0,0 9.08411,4.77957 11.32696,13.40435 -2.04182,-0.21261 -4.1737,-0.28832 -6.24303,-0.28525 -6.52232,0.01 -12.40441,0.82836 -12.40441,0.82836 l -5.07772,0.70591 5.06739,0.77877 c 0,0 11.52274,1.80483 15.76803,11.67112 1.38571,3.22051 3.36906,6.01239 5.63841,8.08167 0.44076,-0.2995 0.87753,-0.58738 1.30949,-0.85834 -2.20654,-1.93188 -4.20764,-4.64694 -5.57124,-7.81604 -2.9491,-6.85389 -9.02808,-10.0595 -13.04107,-11.49388 2.23335,-0.19752 5.19005,-0.39278 8.31216,-0.39741 l 10e-4,-5.3e-4 c 8.72597,0.032 20.33583,2.59094 24.70035,11.49129 -0.14487,1.27582 -0.23736,2.62229 -0.0711,3.78026 0.29495,-0.007 0.59146,-0.0124 0.89192,-0.0124 0.21013,0 0.41841,0.002 0.62582,0.006 1.11983,-12.5263 17.66431,-15.55957 27.77232,-15.20728 2.97828,0.10818 3.68089,0.26086 5.36557,0.44133 -4.00669,1.39505 -10.06049,4.41506 -13.06277,11.3926 -1.3557,3.15072 -3.34099,5.8534 -5.53248,7.78298 0.43254,0.27039 0.86973,0.55676 1.31103,0.85577 2.25328,-2.06566 4.22249,-4.84315 5.60017,-8.045 4.24527,-9.86627 15.76803,-11.67216 15.76803,-11.67216 l 5.06636,-0.7772 -5.07824,-0.70694 c 0,0 -4.1778,-0.58038 -9.38496,-0.76947 -2.93769,-0.10668 -6.19965,-0.0991 -9.25886,0.2212 2.24512,-8.62156 11.32489,-13.39919 11.32489,-13.39919 l 3.00498,-1.55649 -3.38171,0.14108 c 0,0 -11.01792,0.44161 -20.79666,5.60326 -3.62251,-12.69784 -8.86535,-23.49482 -8.86535,-23.49482 z m 0,3.49694 c 1.41767,3.07242 5.28753,11.85199 8.19278,22.15214 -3.35013,2.09645 -6.18815,5.41332 -8.0579,9.07748 -1.91898,-3.74946 -4.82908,-7.15071 -8.28425,-9.2351 2.89963,-10.22728 6.73581,-18.93048 8.14937,-21.99452 z m -26.97148,17.62631 c 10.17835,1.42743 21.03633,4.17691 26.28816,15.37969 -0.69459,1.68267 -1.18038,3.40604 -1.41438,5.0922 -4.13793,-3.9483 -9.74384,-6.45842 -15.41353,-7.2993 -1.45585,-6.51933 -6.32238,-10.92528 -9.46042,-13.17283 z m 54.24373,0 h 10e-4 c -3.13791,2.24747 -8.00427,6.65255 -9.46041,13.1718 -5.51783,1.28764 -14.18481,4.0256 -17.65639,10.35893 v 5.3e-4 c -2.6e-4,5.3e-4 -7.9e-4,0.001 -0.001,0.002 -0.25419,-0.50477 -0.5504,-0.98962 -0.88418,-1.45418 2.47202,-15.1557 13.38784,-19.56306 28.00087,-22.07939 z"
         id="path4894"
         inkscape:connector-curvature="0"
         inkscape:export-xdpi="300"
         inkscape:export-ydpi="300"
         sodipodi:nodetypes="ccccccccccccccccccccsccccccccccsccccccccccccccccccccccccccc"
         inkscape:export-filename="D:\Web- &amp; Grafikdesign gewerbliche Aufträge\Kundenaufträge\Silke Künzel (Pineapplewake)\Grafik\PineapplePark\Logos\Park\path4878.png" />
    </g>
    <g
       id="g1870"
       transform="translate(-180.41058,-32.321322)"
       inkscape:export-filename="D:\WORKSPACE\Visual Studio\portfolio3\img\pineapplewake\pineapplewake-logo-variationen-2.png"
       inkscape:export-xdpi="100"
       inkscape:export-ydpi="100">
      <path
         style="color:#000000;font-style:normal;font-variant:normal;font-weight:normal;font-stretch:normal;font-size:medium;line-height:normal;font-family:sans-serif;font-variant-ligatures:normal;font-variant-position:normal;font-variant-caps:normal;font-variant-numeric:normal;font-variant-alternates:normal;font-feature-settings:normal;text-indent:0;text-align:start;text-decoration:none;text-decoration-line:none;text-decoration-style:solid;text-decoration-color:#000000;letter-spacing:normal;word-spacing:normal;text-transform:none;writing-mode:lr-tb;direction:ltr;text-orientation:mixed;dominant-baseline:auto;baseline-shift:baseline;text-anchor:start;white-space:normal;shape-padding:0;clip-rule:nonzero;display:inline;overflow:visible;visibility:visible;opacity:1;isolation:auto;mix-blend-mode:normal;color-interpolation:sRGB;color-interpolation-filters:linearRGB;solid-color:#000000;solid-opacity:1;vector-effect:none;fill:#000000;fill-opacity:1;fill-rule:evenodd;stroke:none;stroke-width:2.2994;stroke-linecap:butt;stroke-linejoin:miter;stroke-miterlimit:7.5;stroke-dasharray:none;stroke-dashoffset:0;stroke-opacity:1;color-rendering:auto;image-rendering:auto;shape-rendering:auto;text-rendering:auto;enable-background:accumulate"
         d="m -117.91264,206.23653 c -11.47946,-4e-5 -20.48363,3.49269 -32.04176,12.85623 -6.02378,4.88003 -9.81538,12.9112 -12.18558,19.7095 -1.5692,4.47763 -2.74122,9.08645 -3.50896,13.76641 h 95.46964 c -1.039907,-5.27685 -2.131811,-9.75321 -3.508978,-13.76641 -2.370381,-6.79827 -6.161816,-14.82948 -12.185561,-19.7095 -11.558146,-9.36354 -20.559581,-12.85619 -32.038801,-12.85623 z m 0,2.2994 c 11.02543,4e-5 19.26411,3.16669 30.592697,12.34426 5.419574,4.39055 9.159579,12.07899 11.461024,18.67956 1.868394,5.35855 2.629017,9.16892 2.916149,10.70952 h -89.94272 c 0.28709,-1.5406 1.04794,-5.35099 2.91616,-10.70952 2.30125,-6.60057 6.04144,-14.28902 11.46103,-18.67956 11.32857,-9.17757 19.57002,-12.34431 30.59566,-12.34426 z"
         id="path1724"
         inkscape:connector-curvature="0"
         sodipodi:nodetypes="sscccccsscsccccs"
         inkscape:export-filename="D:\Web- &amp; Grafikdesign gewerbliche Aufträge\Kundenaufträge\Silke Künzel (Pineapplewake)\Grafik\PineapplePark\Logos\Park\path4878.png"
         inkscape:export-xdpi="300"
         inkscape:export-ydpi="300" />
      <path
         sodipodi:nodetypes="ccccccccccccscccccccccccccccccccccccccccc"
         inkscape:connector-curvature="0"
         id="path1726"
         d="m -94.630974,215.39113 c -3.399681,2.90096 -12.420166,8.40609 -23.321006,14.09631 -7.7785,-4.36702 -16.30078,-9.38915 -22.38095,-14.50923 -0.6617,0.41079 -1.32971,0.84249 -2.00656,1.29914 7.1146,5.57604 14.53013,10.55256 21.87874,14.48944 -5.41913,2.69992 -11.45686,5.29437 -17.92982,7.45504 -5.49341,-3.3574 -11.08931,-6.85579 -15.7854,-10.82966 -0.42223,0.64657 -0.83222,1.30589 -1.22152,1.9804 4.63422,3.71009 9.85686,7.26521 14.0688,9.79509 -6.28413,1.92542 -12.93268,3.40845 -19.78188,4.15647 -0.0228,-0.0207 -0.0369,-0.0357 -0.0595,-0.0562 -0.268,0.89802 -0.48892,1.70711 -0.68759,2.46442 0.52723,0.45425 1.12112,0.94885 1.80454,1.49243 1.14651,0.9119 2.51666,1.94136 4.07963,3.04429 h 4.08122 c -2.7208,-1.79722 -4.99762,-3.46603 -6.73021,-4.84408 -0.0322,-0.0257 -0.0585,-0.0476 -0.0903,-0.0728 6.9901,-0.91806 13.72918,-2.56478 20.07022,-4.62544 5.12916,2.90712 11.07516,5.84671 17.66838,8.39772 -1.22005,0.3993 -2.45983,0.78029 -3.71443,1.14468 h 14.27871 c -1.25438,-0.36438 -2.49377,-0.74545 -3.71365,-1.14468 6.46422,-2.50108 12.30297,-5.37526 17.363405,-8.22662 6.379212,2.0433 13.160729,3.65371 20.183514,4.53119 -1.731978,1.3773 -4.005662,3.04459 -6.723098,4.84011 h 4.078829 c 1.563095,-1.10276 2.934053,-2.13249 4.080453,-3.04428 0.473674,-0.37677 0.890785,-0.72212 1.285666,-1.05437 -0.21743,-0.85001 -0.474824,-1.79389 -0.785012,-2.83674 -6.709991,-0.7217 -13.230068,-2.14407 -19.404035,-4.00517 4.806551,-2.99916 9.691836,-6.14555 13.843035,-9.54317 -0.38147,-0.67688 -0.779708,-1.34208 -1.193768,-1.99307 -5.219173,4.07721 -10.910882,7.89154 -15.609565,10.60387 -6.667434,-2.19395 -12.874274,-4.85899 -18.436794,-7.62931 10.88923,-5.82494 19.608534,-11.2126 22.81879,-14.0773 -0.677554,-0.45639 -1.346539,-0.88792 -2.008933,-1.29836 z M -117.9504,232.0794 c 5.46893,2.80035 11.60661,5.52946 18.229232,7.82972 -5.232062,2.84113 -11.235652,5.65513 -17.827612,8.0357 -6.72794,-2.42969 -12.8475,-5.31004 -18.15476,-8.21076 6.43785,-2.26444 12.41824,-4.92373 17.75314,-7.65466 z"
         style="color:#000000;font-style:normal;font-variant:normal;font-weight:normal;font-stretch:normal;font-size:medium;line-height:normal;font-family:sans-serif;font-variant-ligatures:normal;font-variant-position:normal;font-variant-caps:normal;font-variant-numeric:normal;font-variant-alternates:normal;font-feature-settings:normal;text-indent:0;text-align:start;text-decoration:none;text-decoration-line:none;text-decoration-style:solid;text-decoration-color:#000000;letter-spacing:normal;word-spacing:normal;text-transform:none;writing-mode:lr-tb;direction:ltr;text-orientation:mixed;dominant-baseline:auto;baseline-shift:baseline;text-anchor:start;white-space:normal;shape-padding:0;clip-rule:nonzero;display:inline;overflow:visible;visibility:visible;opacity:1;isolation:auto;mix-blend-mode:normal;color-interpolation:sRGB;color-interpolation-filters:linearRGB;solid-color:#000000;solid-opacity:1;vector-effect:none;fill:#000000;fill-opacity:1;fill-rule:evenodd;stroke:none;stroke-width:2.2994;stroke-linecap:butt;stroke-linejoin:miter;stroke-miterlimit:7.5;stroke-dasharray:none;stroke-dashoffset:0;stroke-opacity:1;color-rendering:auto;image-rendering:auto;shape-rendering:auto;text-rendering:auto;enable-background:accumulate"
         inkscape:export-filename="D:\Web- &amp; Grafikdesign gewerbliche Aufträge\Kundenaufträge\Silke Künzel (Pineapplewake)\Grafik\PineapplePark\Logos\Park\path4878.png"
         inkscape:export-xdpi="300"
         inkscape:export-ydpi="300" />
      <path
         style="color:#000000;font-style:normal;font-variant:normal;font-weight:normal;font-stretch:normal;font-size:medium;line-height:normal;font-family:sans-serif;font-variant-ligatures:normal;font-variant-position:normal;font-variant-caps:normal;font-variant-numeric:normal;font-variant-alternates:normal;font-feature-settings:normal;text-indent:0;text-align:start;text-decoration:none;text-decoration-line:none;text-decoration-style:solid;text-decoration-color:#000000;letter-spacing:normal;word-spacing:normal;text-transform:none;writing-mode:lr-tb;direction:ltr;text-orientation:mixed;dominant-baseline:auto;baseline-shift:baseline;text-anchor:start;white-space:normal;shape-padding:0;clip-rule:nonzero;display:inline;overflow:visible;visibility:visible;opacity:1;isolation:auto;mix-blend-mode:normal;color-interpolation:sRGB;color-interpolation-filters:linearRGB;solid-color:#000000;solid-opacity:1;vector-effect:none;fill:#000000;fill-opacity:1;fill-rule:evenodd;stroke:none;stroke-width:2.2994;stroke-linecap:butt;stroke-linejoin:miter;stroke-miterlimit:4;stroke-dasharray:none;stroke-dashoffset:0;stroke-opacity:1;color-rendering:auto;image-rendering:auto;shape-rendering:auto;text-rendering:auto;enable-background:accumulate"
         d="m -117.15441,130.20285 -1.03377,2.12851 c 0,0 -7.97814,16.43164 -13.52854,35.80493 -14.88851,-7.7141 -31.47895,-8.37787 -31.47895,-8.37787 l -5.1839,-0.21626 4.60799,2.38598 c 0,0 13.92528,7.32673 17.3634,20.5479 -3.12995,-0.32592 -6.39797,-0.44198 -9.5701,-0.43727 -9.99824,0.0153 -19.01507,1.26981 -19.01507,1.26981 l -7.78377,1.08211 7.76794,1.1938 c 0,0 17.66353,2.76667 24.17125,17.89098 2.12419,4.93681 5.16452,9.21655 8.64327,12.38861 0.67565,-0.45911 1.34519,-0.90041 2.00735,-1.31577 -3.38246,-2.96143 -6.45001,-7.12342 -8.5403,-11.98142 -4.52076,-10.50651 -13.8394,-15.42048 -19.99101,-17.61928 3.42356,-0.30279 7.95596,-0.6021 12.74193,-0.60921 l 0.001,-8.1e-4 c 13.37627,0.049 31.17335,3.97172 37.86384,17.61532 -0.22207,1.95573 -0.36385,4.01977 -0.10896,5.79486 0.45213,-0.011 0.90667,-0.019 1.36725,-0.019 0.32211,0 0.64139,0.003 0.95934,0.009 1.71661,-19.20191 27.078095,-23.85169 42.572941,-23.31166 4.565486,0.16583 5.642536,0.39988 8.225029,0.67653 -6.141965,2.13851 -15.422001,6.76796 -20.024278,17.46402 -2.07819,4.82983 -5.121495,8.97284 -8.480886,11.93074 0.663053,0.41449 1.333233,0.85347 2.009714,1.31185 3.45411,-3.16652 6.472766,-7.42421 8.584649,-12.33241 6.507691,-15.12428 24.171245,-17.89257 24.171245,-17.89257 l 7.766362,-1.1914 -7.784574,-1.08368 c 0,0 -6.404263,-0.88968 -14.386461,-1.17955 -4.503266,-0.16352 -9.503613,-0.15191 -14.19316,0.33909 3.441606,-13.21622 17.360234,-20.53999 17.360234,-20.53999 l 4.606416,-2.38598 -5.183916,0.21626 c 0,0 -16.889671,0.67696 -31.879765,8.58939 -5.55305,-19.46486 -13.58994,-36.01585 -13.58994,-36.01585 z m 0,5.36054 c 2.17318,4.7098 8.10539,18.16824 12.55893,33.95763 -5.13551,3.2137 -9.48598,8.29823 -12.35217,13.91512 -2.94166,-5.74766 -7.40263,-10.96151 -12.69915,-14.15674 4.44492,-15.67767 10.3255,-29.01905 12.49239,-33.71601 z m -41.34532,27.01986 c 15.60267,2.18814 32.24716,6.40291 40.29784,23.57595 -1.06476,2.57941 -1.80945,5.22122 -2.16814,7.80598 -6.34315,-6.05247 -14.93661,-9.90029 -23.62783,-11.1893 -2.23171,-9.99366 -9.69174,-16.74766 -14.50214,-20.19299 z m 83.15169,0 h 0.0015 c -4.810188,3.44521 -12.269965,10.19788 -14.502121,20.19141 -8.458428,1.97386 -21.744279,6.17095 -27.065969,15.87949 v 8.1e-4 c -4e-4,8.1e-4 -10e-4,0.001 -10e-4,0.003 -0.38966,-0.77378 -0.84372,-1.51701 -1.35539,-2.22915 3.78943,-23.23259 20.522597,-29.98876 42.923306,-33.8461 z"
         id="path1728"
         inkscape:connector-curvature="0"
         inkscape:export-xdpi="300"
         inkscape:export-ydpi="300"
         sodipodi:nodetypes="ccccccccccccccccccccsccccccccccsccccccccccccccccccccccccccc"
         inkscape:export-filename="D:\Web- &amp; Grafikdesign gewerbliche Aufträge\Kundenaufträge\Silke Künzel (Pineapplewake)\Grafik\PineapplePark\Logos\Park\path4878.png" />
    </g>
    <g
       id="g3319"
       transform="translate(-11.472089)">
      <path
         style="color:#000000;font-style:normal;font-variant:normal;font-weight:normal;font-stretch:normal;font-size:medium;line-height:normal;font-family:sans-serif;font-variant-ligatures:normal;font-variant-position:normal;font-variant-caps:normal;font-variant-numeric:normal;font-variant-alternates:normal;font-feature-settings:normal;text-indent:0;text-align:start;text-decoration:none;text-decoration-line:none;text-decoration-style:solid;text-decoration-color:#000000;letter-spacing:normal;word-spacing:normal;text-transform:none;writing-mode:lr-tb;direction:ltr;text-orientation:mixed;dominant-baseline:auto;baseline-shift:baseline;text-anchor:start;white-space:normal;shape-padding:0;clip-rule:nonzero;display:inline;overflow:visible;visibility:visible;isolation:auto;mix-blend-mode:normal;color-interpolation:sRGB;color-interpolation-filters:linearRGB;solid-color:#000000;solid-opacity:1;vector-effect:none;fill:#ffffff;fill-opacity:1;fill-rule:evenodd;stroke:none;stroke-width:1.5;stroke-linecap:round;stroke-linejoin:miter;stroke-miterlimit:4;stroke-dasharray:none;stroke-dashoffset:0;stroke-opacity:1;color-rendering:auto;image-rendering:auto;shape-rendering:auto;text-rendering:auto;enable-background:accumulate"
         d="m -158.52936,342.45287 c -1.01424,-0.0143 -1.01424,1.51434 0,1.5 H 6.2781981 c 1.01424,0.0143 1.01424,-1.51434 0,-1.5 z"
         id="path4882-5"
         inkscape:connector-curvature="0"
         sodipodi:nodetypes="ccccc" />
      <path
         id="path9133"
         d="m -76.210527,313.52833 c -5.700567,-3e-5 -10.396128,1.27381 -15.657484,4.57109 0.538664,0.49889 1.423904,1.23983 2.606636,2.1363 2.390526,1.81191 5.990966,4.26309 10.467585,6.76272 0.82062,0.45821 1.680119,0.91763 2.557708,1.37543 8.078233,-4.21681 13.867576,-8.63858 15.649505,-10.2952 -5.247981,-3.28204 -9.935377,-4.55031 -15.62395,-4.55034 z m 16.949379,5.41444 c -0.03604,0.0358 -0.05889,0.064 -0.09843,0.10214 -1.776677,1.71362 -7.276785,5.95537 -15.189793,10.18824 3.736249,1.86077 7.905244,3.65083 12.383624,5.12446 4.217409,-2.41773 7.56147,-4.78546 9.760452,-6.53446 0.505479,-0.40206 0.942972,-0.76714 1.323278,-1.09609 -1.160286,-1.80661 -2.514319,-3.45484 -4.093811,-4.73444 -1.418972,-1.14953 -2.77251,-2.16124 -4.085296,-3.04987 z m -33.932293,0.0229 c -1.302623,0.88334 -2.645082,1.88697 -4.052316,3.027 -1.498954,1.21435 -2.795313,2.76044 -3.915553,4.45882 0.44222,0.39348 0.98168,0.85116 1.636125,1.3717 2.163264,1.7206 5.439441,4.04014 9.560414,6.41687 4.348049,-1.45135 8.404021,-3.19325 12.044123,-5.00686 -0.552688,-0.29591 -1.096449,-0.59211 -1.625497,-0.88751 -4.544101,-2.53729 -8.195107,-5.02169 -10.645836,-6.87925 -1.225359,-0.92878 -2.149014,-1.69859 -2.747129,-2.25441 -0.09802,-0.091 -0.173669,-0.167 -0.254331,-0.24636 z m -8.795799,8.81868 c -1.78446,3.06032 -3.0402,6.43621 -3.89161,9.24806 0.0505,0.0546 0.0989,0.10786 0.1676,0.17612 0.13161,0.13094 0.30111,0.2889 0.48845,0.45918 4.60039,-0.50242 9.065669,-1.49911 13.286526,-2.79234 -3.628858,-2.16698 -6.538135,-4.24492 -8.548376,-5.84383 -0.57623,-0.45832 -1.07665,-0.87523 -1.50259,-1.24719 z m 51.718614,0.27988 c -0.352187,0.30003 -0.734563,0.61798 -1.173774,0.96731 -2.043611,1.62544 -5.019011,3.74651 -8.732475,5.95237 4.246496,1.28001 8.735914,2.25452 13.35732,2.72744 0.145282,-0.13128 0.259458,-0.24072 0.376713,-0.35224 -0.826571,-2.78952 -2.059292,-6.188 -3.827784,-9.29488 z m -25.964396,2.05009 c -3.583307,1.8343 -7.600286,3.62051 -11.924427,5.14148 3.564784,1.94837 7.675152,3.88248 12.194213,5.51447 4.427443,-1.59894 8.4603,-3.4881 11.974416,-5.39635 -4.448284,-1.54504 -8.570832,-3.37865 -12.244202,-5.2596 z m -13.897899,5.80871 c -4.259438,1.38421 -8.786334,2.48962 -13.481809,3.10628 0.0215,0.0172 0.0393,0.0321 0.0612,0.0495 1.40908,1.12073 3.35021,2.52566 5.716657,4.02678 h 14.201734 c 1.838425,-0.45539 3.63134,-0.97321 5.36919,-1.54196 -4.42834,-1.7134 -8.421895,-3.68802 -11.866953,-5.64058 z m 28.130502,0.11493 c -3.399013,1.91519 -7.320761,3.84573 -11.662663,5.52564 1.737397,0.5686 3.529725,1.0866 5.367615,1.54197 h 14.140543 c 2.364208,-1.50018 4.303022,-2.90428 5.711863,-4.02465 -4.71741,-0.58939 -9.272292,-1.6704 -13.557358,-3.04296 z m -43.737961,3.23503 c -0.26363,0.026 -0.52837,0.0473 -0.79281,0.0702 -0.58212,2.2519 -0.83111,3.76233 -0.83111,3.76233 h 6.71006 c -1.52722,-1.0353 -2.82794,-1.99735 -3.86023,-2.81843 -0.46454,-0.36949 -0.86863,-0.70603 -1.22591,-1.01415 z m 59.438001,0.041 c -0.346524,0.2977 -0.733152,0.61935 -1.178027,0.97318 -1.032292,0.82107 -2.333803,1.78317 -3.861288,2.81843 h 6.284917 c 0,0 -0.248338,-1.50767 -0.829506,-3.75649 -0.138661,-0.0119 -0.277631,-0.0224 -0.416096,-0.0351 z m -29.662857,3.10043 c -0.672672,0.23783 -1.355475,0.4677 -2.045341,0.69118 h 4.091711 c -0.690248,-0.22361 -1.37337,-0.45322 -2.04637,-0.69118 z"
         style="fill:#ffffff;fill-opacity:1;fill-rule:evenodd;stroke:none;stroke-width:1.54445;stroke-linecap:butt;stroke-linejoin:miter;stroke-miterlimit:7.5;stroke-dasharray:none;stroke-opacity:1"
         inkscape:connector-curvature="0" />
      <path
         inkscape:connector-curvature="0"
         id="path4674"
         d="m -76.377616,263.78397 c -1.455452,3.15484 -5.40534,12.11597 -8.390892,22.64634 3.557566,2.14616 6.55394,5.64821 8.529749,9.50879 1.925172,-3.77274 4.847298,-7.18792 8.296712,-9.3465 -2.99136,-10.6054 -6.975895,-19.64516 -8.435569,-22.80863 z m -27.770804,18.14868 c 3.23103,2.31415 8.241786,6.85068 9.740771,13.56321 5.625023,0.95511 11.887628,3.59384 15.870331,7.51563 0.240904,-1.73613 0.741111,-3.51058 1.456307,-5.24311 -5.406,-11.04679 -14.067419,-14.06474 -27.067229,-15.83575 z m 55.851286,0 c -12.237436,2.33401 -26.174647,4.92144 -28.830705,22.73352 0.343672,0.47836 0.64867,0.97754 0.910393,1.49727 2.78e-4,-10e-4 5.46e-4,-0.002 10e-4,-0.002 v -5.4e-4 c 7.447128,-8.82626 13.247931,-9.34112 18.17967,-10.6659 1.499294,-6.71245 6.509851,-11.24808 9.740786,-13.56215 z m -54.155566,14.61194 -0.001,5.4e-4 c -3.21463,0.005 -6.25894,0.20582 -8.55848,0.40916 4.13192,1.47691 10.39107,4.77751 13.427558,11.83453 1.347464,3.13164 3.299993,5.83048 5.463392,7.80133 5.069329,-3.22796 9.595494,-4.57934 14.965775,-4.71795 0.937298,-11.27452 -16.999007,-15.2371 -25.296635,-15.32717 z m 26.847537,15.31952 c 5.514245,0.0902 10.119445,1.4285 15.289298,4.71797 2.15965,-1.97005 4.108329,-4.66585 5.453805,-7.79284 3.091255,-7.18433 9.324474,-10.29384 13.449905,-11.73023 -14.780946,-4.10857 -35.386005,4.32333 -34.193008,14.8051 z"
         style="fill:#ffffff;fill-opacity:1;fill-rule:evenodd;stroke:none;stroke-width:1.54445;stroke-linecap:butt;stroke-linejoin:miter;stroke-miterlimit:4;stroke-dasharray:none;stroke-opacity:1"
         inkscape:export-xdpi="300"
         inkscape:export-ydpi="300"
         sodipodi:nodetypes="cccccccccccccccccccccccccccccscc" />
      <g
         aria-label="PINEAPPLEWAKEPARK"
         transform="matrix(0.26458333,0,0,0.26458333,-132.12458,232.36438)"
         id="flowRoot8509"
         style="font-size:96px;line-height:125%;font-family:'Gill Sans MT Condensed';-inkscape-font-specification:'Gill Sans MT Condensed, ';letter-spacing:0px;word-spacing:0px;fill:#ffffff;fill-opacity:1;stroke-width:1px">
        <path
           d="m -103.14258,506.38106 v -64.125 h 8.718752 q 8.859375,0 14.0625,4.73438 5.25,4.73437 5.25,13.03125 0,8.48437 -4.828125,13.35937 -4.828125,4.875 -13.21875,4.875 h -1.734375 v 28.125 z m 8.250002,-35.8125 h 1.453125 q 10.078125,0 10.078125,-11.01562 0,-9.89063 -11.53125,-9.60938 z"
           style="letter-spacing:2.29px;fill:#ffffff;fill-opacity:1"
           id="path189" />
        <path
           d="m -65.415077,506.38106 v -64.125 h 8.25 v 64.125 z"
           style="letter-spacing:2.29px;fill:#ffffff;fill-opacity:1"
           id="path191" />
        <path
           d="m -43.812576,506.38106 v -64.125 h 6.703125 l 14.203125,39.5625 h 0.1875 v -39.5625 h 7.59375 v 64.125 h -6.703125 l -14.203125,-39.9375 h -0.1875 v 39.9375 z"
           style="letter-spacing:2.29px;fill:#ffffff;fill-opacity:1"
           id="path193" />
        <path
           d="m -1.5850754,506.38106 v -64.125 H 21.24305 v 7.6875 H 6.6649246 v 19.17188 H 20.0243 v 7.6875 H 6.6649246 v 21.89062 H 22.039925 v 7.6875 z"
           style="letter-spacing:2.29px;fill:#ffffff;fill-opacity:1"
           id="path195" />
        <path
           d="m 30.704926,506.38106 12.09375,-64.5 h 8.578125 l 12,64.5 h -7.96875 l -2.296875,-14.20312 h -11.90625 l -2.53125,14.20312 z m 11.71875,-21.89062 h 9.234375 l -4.5,-26.85938 h -0.234375 z"
           style="letter-spacing:2.29px;fill:#ffffff;fill-opacity:1"
           id="path197" />
        <path
           d="m 72.276169,506.38106 v -64.125 h 8.71875 q 8.859375,0 14.0625,4.73438 5.250001,4.73437 5.250001,13.03125 0,8.48437 -4.828126,13.35937 -4.828125,4.875 -13.21875,4.875 h -1.734375 v 28.125 z m 8.25,-35.8125 h 1.453125 q 10.078125,0 10.078125,-11.01562 0,-9.89063 -11.53125,-9.60938 z"
           style="letter-spacing:2.29px;fill:#ffffff;fill-opacity:1"
           id="path199" />
        <path
           d="m 110.56618,506.38106 v -64.125 h 8.71875 q 8.85937,0 14.0625,4.73438 5.25,4.73437 5.25,13.03125 0,8.48437 -4.82813,13.35937 -4.82812,4.875 -13.21875,4.875 h -1.73437 v 28.125 z m 8.25,-35.8125 h 1.45312 q 10.07813,0 10.07813,-11.01562 0,-9.89063 -11.53125,-9.60938 z"
           style="letter-spacing:2.29px;fill:#ffffff;fill-opacity:1"
           id="path201" />
        <path
           d="m 148.57492,506.38106 v -64.125 h 8.25 v 56.4375 h 15.84375 v 7.6875 z"
           style="letter-spacing:2.29px;fill:#ffffff;fill-opacity:1"
           id="path203" />
        <path
           d="m 180.81805,506.38106 v -64.125 h 22.82813 v 7.6875 h -14.57813 v 19.17188 h 13.35938 v 7.6875 h -13.35938 v 21.89062 h 15.375 v 7.6875 z"
           style="letter-spacing:2.29px;fill:#ffffff;fill-opacity:1"
           id="path205" />
        <path
           d="m 227.12366,507.22481 -13.73438,-64.96875 h 8.67188 l 7.59375,43.07813 h 0.1875 l 8.625,-43.07813 h 5.95312 l 8.15625,44.0625 h 0.1875 l 8.0625,-44.0625 h 8.67188 l -13.73438,64.96875 h -5.67187 l -8.67188,-42.89062 h -0.1875 l -8.4375,42.89062 z"
           style="letter-spacing:2.29px;fill:#ffffff;fill-opacity:1"
           id="path207" />
        <path
           d="m 271.46054,506.38106 12.09375,-64.5 h 8.57813 l 12,64.5 h -7.96875 l -2.29688,-14.20312 h -11.90625 l -2.53125,14.20312 z m 11.71875,-21.89062 h 9.23438 l -4.5,-26.85938 h -0.23438 z"
           style="letter-spacing:2.29px;fill:#ffffff;fill-opacity:1"
           id="path209" />
        <path
           d="m 312.8443,506.38106 v -64.125 h 8.25 v 64.125 z m 19.96875,0 -11.4375,-32.53125 9.04687,-31.59375 h 8.4375 l -10.07812,30.51563 12.5625,33.60937 z"
           style="letter-spacing:2.29px;fill:#ffffff;fill-opacity:1"
           id="path211" />
        <path
           d="m 348.93118,506.38106 v -64.125 h 22.82813 v 7.6875 h -14.57813 v 19.17188 h 13.35938 v 7.6875 h -13.35938 v 21.89062 h 15.375 v 7.6875 z"
           style="letter-spacing:2.29px;fill:#ffffff;fill-opacity:1"
           id="path213" />
        <path
           d="m 386.51804,506.38106 v -64.125 h 8.71875 q 8.85937,0 14.0625,4.73438 5.25,4.73437 5.25,13.03125 0,8.48437 -4.82813,13.35937 -4.82812,4.875 -13.21875,4.875 h -1.73437 v 28.125 z m 8.25,-35.8125 h 1.45312 q 10.07813,0 10.07813,-11.01562 0,-9.89063 -11.53125,-9.60938 z"
           style="font-stretch:condensed;-inkscape-font-specification:'Gill Sans MT Condensed,  Condensed';fill:#ffffff;fill-opacity:1"
           id="path215" />
        <path
           d="m 417.12054,506.38106 12.09375,-64.5 h 8.57813 l 12,64.5 h -7.96875 l -2.29688,-14.20312 h -11.90625 l -2.53125,14.20312 z m 11.71875,-21.89062 h 9.23438 l -4.5,-26.85938 h -0.23438 z"
           style="font-stretch:condensed;-inkscape-font-specification:'Gill Sans MT Condensed,  Condensed';fill:#ffffff;fill-opacity:1"
           id="path217" />
        <path
           d="m 458.41052,506.38106 v -64.125 h 6.89063 q 8.25,0 12.5625,4.875 4.35937,4.82813 4.35937,12.89063 0,9.14062 -6.65625,13.73437 5.15625,3.65625 8.76563,19.45313 l 2.95312,13.17187 h -8.625 l -2.48437,-11.0625 q -2.67188,-11.625 -4.64063,-14.76562 -1.96875,-3.1875 -4.875,-2.85938 v 28.6875 z m 8.25,-36.375 h 0.375 q 6.9375,0 6.9375,-9.70312 0,-10.3125 -7.3125,-10.35938 z"
           style="font-stretch:condensed;-inkscape-font-specification:'Gill Sans MT Condensed,  Condensed';fill:#ffffff;fill-opacity:1"
           id="path219" />
        <path
           d="m 495.85681,506.38106 v -64.125 h 8.25 v 64.125 z m 19.96875,0 -11.4375,-32.53125 9.04688,-31.59375 h 8.4375 l -10.07813,30.51563 12.5625,33.60937 z"
           style="font-stretch:condensed;-inkscape-font-specification:'Gill Sans MT Condensed,  Condensed';fill:#ffffff;fill-opacity:1"
           id="path221" />
      </g>
    </g>
    <g
       id="g2064"
       style="fill:#ffffff;fill-opacity:1"
       transform="translate(-5.224372,-75.943582)"
       inkscape:export-filename="D:\WORKSPACE\Visual Studio\portfolio3\img\pineapplewake\pineapplewake-logo-variationen-2.png"
       inkscape:export-xdpi="100"
       inkscape:export-ydpi="100">
      <g
         id="g2106">
        <path
           id="path1730"
           d="m -292.10724,397.1714 c -8.73856,-5e-5 -15.93651,1.95265 -24.00178,7.00714 0.82572,0.76476 2.18274,1.90057 3.99577,3.2748 3.66451,2.77753 9.18373,6.535 16.04606,10.36676 1.25795,0.70239 2.5755,1.40666 3.92078,2.10843 12.38334,-6.46406 21.25798,-13.24232 23.98955,-15.7818 -8.04477,-5.03113 -15.23022,-6.97529 -23.95038,-6.97533 z m 25.98217,8.29993 c -0.0553,0.0549 -0.0903,0.0981 -0.15084,0.15658 -2.72353,2.62685 -11.15478,9.12915 -23.28485,15.61783 5.7274,2.85242 12.11816,5.59646 18.98319,7.85543 6.46499,-3.7062 11.59119,-7.33577 14.96206,-10.01686 0.77486,-0.61633 1.44553,-1.17596 2.0285,-1.68022 -1.77863,-2.76941 -3.85428,-5.29603 -6.27551,-7.25755 -2.17518,-1.76215 -4.25006,-3.31303 -6.26247,-4.67523 z m -52.01574,0.0351 c -1.99684,1.3541 -4.05472,2.89258 -6.21191,4.64017 -2.29778,1.86151 -4.28502,4.23156 -6.00226,6.83505 0.6779,0.60318 1.50484,1.30476 2.50806,2.10271 3.31613,2.63755 8.33826,6.19325 14.65543,9.83659 6.66524,-2.22481 12.88275,-4.89501 18.46276,-7.67514 -0.84724,-0.45362 -1.68078,-0.90767 -2.49178,-1.36049 -6.96577,-3.88948 -12.56249,-7.69788 -16.31928,-10.54539 -1.87839,-1.42375 -3.29429,-2.60381 -4.21115,-3.45585 -0.15023,-0.1395 -0.26623,-0.256 -0.38987,-0.37765 z m -13.48333,13.51839 c -2.73543,4.69125 -4.66039,9.86624 -5.96555,14.17661 0.0774,0.0836 0.15161,0.16534 0.25692,0.26998 0.20175,0.20072 0.46158,0.44286 0.74875,0.70388 7.05206,-0.77017 13.89702,-2.29802 20.36728,-4.28045 -5.56276,-3.32182 -10.02248,-6.50716 -13.10403,-8.95816 -0.88333,-0.70258 -1.65043,-1.34167 -2.30337,-1.91186 z m 79.28088,0.42904 c -0.53986,0.45992 -1.12602,0.94732 -1.79931,1.48282 -3.1327,2.49168 -7.69377,5.74313 -13.38626,9.12455 6.50958,1.96216 13.39154,3.45602 20.47581,4.18096 0.22272,-0.20124 0.39773,-0.369 0.57749,-0.53995 -1.26708,-4.27613 -3.15676,-9.48576 -5.86773,-14.24838 z m -39.80153,3.14264 c -5.49295,2.81185 -11.65069,5.54998 -18.27928,7.88152 5.46455,2.98671 11.76545,5.95155 18.69284,8.45328 6.78696,-2.45106 12.96903,-5.34701 18.35592,-8.27222 -6.8189,-2.36843 -13.13846,-5.17922 -18.76948,-8.06258 z m -21.30446,8.90433 c -6.52942,2.12189 -13.46882,3.8164 -20.66666,4.7617 0.033,0.0264 0.0603,0.0492 0.0938,0.0759 2.16003,1.71799 5.13564,3.87166 8.76324,6.17276 h 21.77022 c 2.81816,-0.69808 5.56658,-1.49186 8.23058,-2.36372 -6.78833,-2.62651 -12.91016,-5.65346 -18.19117,-8.64659 z m 43.12201,0.17618 c -5.21044,2.93585 -11.22219,5.89522 -17.87801,8.4704 2.66329,0.87163 5.4108,1.66569 8.22815,2.36373 h 21.67642 c 3.62417,-2.29967 6.59624,-4.45205 8.75589,-6.16949 -7.23145,-0.9035 -14.21375,-2.5606 -20.78245,-4.66464 z m -67.04712,4.95907 c -0.40412,0.0399 -0.80995,0.0725 -1.21531,0.10764 -0.89235,3.452 -1.27404,5.76738 -1.27404,5.76738 h 10.28604 c -2.34113,-1.58705 -4.33503,-3.06179 -5.91745,-4.32045 -0.71211,-0.5664 -1.33155,-1.08229 -1.87924,-1.55462 z m 91.11414,0.0628 c -0.53119,0.45635 -1.12386,0.94942 -1.80583,1.49182 -1.58243,1.25863 -3.57755,2.73346 -5.91909,4.32044 h 9.63433 c 0,0 -0.38068,-2.31114 -1.27156,-5.75842 -0.21256,-0.0182 -0.4256,-0.0343 -0.63785,-0.0538 z m -45.47101,4.75274 c -1.03115,0.36457 -2.07784,0.71695 -3.13536,1.05952 h 6.27229 c -1.0581,-0.34278 -2.10527,-0.69474 -3.13693,-1.05952 z"
           style="fill:#ffffff;fill-opacity:1;fill-rule:evenodd;stroke:none;stroke-width:2.36753;stroke-linecap:butt;stroke-linejoin:miter;stroke-miterlimit:7.5;stroke-dasharray:none;stroke-opacity:1"
           inkscape:connector-curvature="0" />
        <path
           inkscape:connector-curvature="0"
           id="path1732"
           d="m -292.36338,320.9169 c -2.2311,4.83615 -8.286,18.5729 -12.86262,34.71519 5.4535,3.28991 10.04671,8.6583 13.07548,14.57629 2.95115,-5.78334 7.43056,-11.01856 12.71826,-14.3275 -4.58554,-16.25731 -10.69354,-30.1146 -12.93112,-34.96398 z m -42.57064,27.82061 c 4.95295,3.54742 12.63407,10.50159 14.93191,20.79141 8.62275,1.46412 18.22288,5.5091 24.32807,11.52092 0.36928,-2.66136 1.13607,-5.38146 2.23242,-8.03731 -8.28701,-16.93392 -21.56434,-21.56022 -41.4921,-24.27505 z m 85.61598,0 c -18.7591,3.57787 -40.12382,7.54421 -44.19537,34.84884 0.52682,0.73329 0.99436,1.4985 1.39556,2.29521 4.2e-4,-10e-4 8.4e-4,-0.003 10e-4,-0.003 v -8.3e-4 c 11.41591,-13.53001 20.30812,-14.31926 27.86812,-16.35005 2.29831,-10.2897 9.97913,-17.24249 14.93192,-20.78979 z m -83.01654,22.39904 -10e-4,8.4e-4 c -4.92779,0.008 -9.5945,0.3155 -13.11953,0.62721 6.33394,2.26399 15.92876,7.32357 20.58348,18.14147 2.06555,4.80057 5.05865,8.93771 8.37498,11.95887 7.77091,-4.94823 14.70919,-7.0198 22.94143,-7.23228 1.43682,-17.28301 -26.05823,-23.35735 -38.77789,-23.49543 z m 41.15533,23.48372 c 8.45292,0.13827 15.51236,2.18979 23.43736,7.23231 3.3106,-3.01995 6.29778,-7.15241 8.36031,-11.94586 4.73866,-11.01306 14.29372,-15.77972 20.61771,-17.9816 -22.65811,-6.29814 -54.24416,6.62735 -52.41538,22.69515 z"
           style="fill:#ffffff;fill-opacity:1;fill-rule:evenodd;stroke:none;stroke-width:2.36753;stroke-linecap:butt;stroke-linejoin:miter;stroke-miterlimit:4;stroke-dasharray:none;stroke-opacity:1"
           inkscape:export-xdpi="300"
           inkscape:export-ydpi="300"
           sodipodi:nodetypes="cccccccccccccccccccccccccccccscc" />
      </g>
    </g>
  </g>
</svg>
