<?xml version="1.0" encoding="UTF-8" standalone="no"?>
<!-- Created with Inkscape (http://www.inkscape.org/) -->

<svg
   width="85.919388mm"
   height="79.824928mm"
   viewBox="0 0 85.919388 79.824928"
   version="1.1"
   id="svg3304"
   inkscape:version="1.1.1 (3bf5ae0d25, 2021-09-20)"
   sodipodi:docname="pineapplewake-logo-ananas.svg"
   xmlns:inkscape="http://www.inkscape.org/namespaces/inkscape"
   xmlns:sodipodi="http://sodipodi.sourceforge.net/DTD/sodipodi-0.dtd"
   xmlns="http://www.w3.org/2000/svg"
   xmlns:svg="http://www.w3.org/2000/svg">
  <sodipodi:namedview
     id="namedview3306"
     pagecolor="#ffffff"
     bordercolor="#999999"
     borderopacity="1"
     inkscape:pageshadow="0"
     inkscape:pageopacity="0"
     inkscape:pagecheckerboard="0"
     inkscape:document-units="mm"
     showgrid="false"
     inkscape:zoom="0.66368547"
     inkscape:cx="1019.3081"
     inkscape:cy="469.34883"
     inkscape:window-width="1920"
     inkscape:window-height="1002"
     inkscape:window-x="1912"
     inkscape:window-y="-8"
     inkscape:window-maximized="1"
     inkscape:current-layer="layer1"
     fit-margin-top="0"
     fit-margin-left="0"
     fit-margin-right="0"
     fit-margin-bottom="0" />
  <defs
     id="defs3301" />
  <g
     inkscape:label="Ebene 1"
     inkscape:groupmode="layer"
     id="layer1"
     transform="translate(164.5503,-24.271427)">
    <g
       id="g3087"
       transform="translate(198.17008,33.159832)"
       inkscape:export-filename="D:\WORKSPACE\Visual Studio\portfolio3\img\pineapplewake\pineapplewake-logo-ananas.png"
       inkscape:export-xdpi="100"
       inkscape:export-ydpi="100">
      <path
         inkscape:connector-curvature="0"
         id="path911"
         d="m -319.83635,-7.8494449 c 0,0 -5.4333,11.18033 -9.03666,24.1256499 -0.0387,-0.0215 -0.0769,-0.0445 -0.11575,-0.0656 -9.68852,-5.27857 -20.91346,-5.7459 -20.91346,-5.7459 0,0 10.10901,5.23367 11.95019,14.94276 -8.5045,-1.11635 -19.51251,0.41341 -19.51251,0.41341 0,0 11.91749,1.83044 16.34318,12.11606 4.42571,10.28563 15.2274,16.04263 20.22617,6.64094 0.5805,-1.09188 0.97353,-2.12918 1.20819,-3.11661 0.23509,0.98751 0.62982,2.02493 1.21026,3.11661 4.99875,9.40169 15.80044,3.64469 20.22615,-6.64094 4.42571,-10.28562 16.34318,-12.11606 16.34318,-12.11606 0,0 -11.00793,-1.52989 -19.51249,-0.41341 1.84118,-9.70908 11.9507,-14.94276 11.9507,-14.94276 0,0 -11.22545,0.46733 -20.91399,5.7459 -0.12639,0.0689 -0.25156,0.14074 -0.37671,0.21343 -3.60283,-13.0079099 -9.07645,-24.2734499 -9.07645,-24.2734499 z"
         style="fill:#37c871;fill-opacity:1;fill-rule:evenodd;stroke:none;stroke-width:1.5;stroke-linecap:butt;stroke-linejoin:miter;stroke-miterlimit:4;stroke-dasharray:none;stroke-opacity:1" />
      <path
         style="fill:#ffe680;fill-opacity:1;fill-rule:evenodd;stroke:none;stroke-width:1.5;stroke-linecap:butt;stroke-linejoin:miter;stroke-miterlimit:7.5;stroke-dasharray:none;stroke-opacity:1"
         d="m -320.3871,41.382345 c -7.34057,-3e-5 -12.96473,2.17307 -20.42976,8.22069 -7.46504,6.04762 -9.82731,20.5052 -9.82731,20.5052 h 60.51415 c 0,0 -2.36281,-14.45758 -9.82783,-20.5052 -7.46503,-6.04762 -13.08885,-8.22066 -20.42925,-8.22069 z"
         id="path900"
         inkscape:connector-curvature="0"
         sodipodi:nodetypes="ssccss" />
      <path
         style="color:#000000;font-style:normal;font-variant:normal;font-weight:normal;font-stretch:normal;font-size:medium;line-height:normal;font-family:sans-serif;font-variant-ligatures:normal;font-variant-position:normal;font-variant-caps:normal;font-variant-numeric:normal;font-variant-alternates:normal;font-feature-settings:normal;text-indent:0;text-align:start;text-decoration:none;text-decoration-line:none;text-decoration-style:solid;text-decoration-color:#000000;letter-spacing:normal;word-spacing:normal;text-transform:none;writing-mode:lr-tb;direction:ltr;text-orientation:mixed;dominant-baseline:auto;baseline-shift:baseline;text-anchor:start;white-space:normal;shape-padding:0;clip-rule:nonzero;display:inline;overflow:visible;visibility:visible;isolation:auto;mix-blend-mode:normal;color-interpolation:sRGB;color-interpolation-filters:linearRGB;solid-color:#000000;solid-opacity:1;vector-effect:none;fill:#000000;fill-opacity:1;fill-rule:evenodd;stroke:none;stroke-width:1.5;stroke-linecap:butt;stroke-linejoin:miter;stroke-miterlimit:7.5;stroke-dasharray:none;stroke-dashoffset:0;stroke-opacity:1;color-rendering:auto;image-rendering:auto;shape-rendering:auto;text-rendering:auto;enable-background:accumulate"
         d="m -320.40625,40.711915 c -7.48859,-3e-5 -13.36243,2.27844 -20.90234,8.38672 -3.92959,3.18347 -6.40303,8.42258 -7.94922,12.85742 -1.02366,2.92097 -1.78823,5.92752 -2.28906,8.98047 h 62.2793 c -0.67838,-3.44233 -1.39068,-6.36247 -2.28907,-8.98047 -1.54631,-4.43483 -4.01964,-9.67396 -7.94921,-12.85742 -7.53992,-6.10828 -13.41198,-8.38669 -20.9004,-8.38672 z m 0,1.5 c 7.19239,3e-5 12.56687,2.06578 19.95704,8.05274 3.53544,2.86416 5.97522,7.87969 7.47656,12.18555 1.21884,3.49563 1.71503,5.98131 1.90234,6.98632 h -58.67383 c 0.18728,-1.00501 0.68362,-3.4907 1.90235,-6.98632 1.50121,-4.30586 3.94111,-9.3214 7.47656,-12.18555 7.39015,-5.98696 12.76644,-8.05277 19.95898,-8.05274 z"
         id="path4878-4"
         inkscape:connector-curvature="0"
         sodipodi:nodetypes="sscccccsscsccccs" />
      <path
         sodipodi:nodetypes="ccccccccccccscccccccccccccccccccccccccccc"
         inkscape:connector-curvature="0"
         id="path4880-9"
         d="m -305.21854,46.683885 c -2.21777,1.89243 -8.10226,5.48369 -15.21338,9.19568 -5.07428,-2.84881 -10.63376,-6.12498 -14.60014,-9.46505 -0.43165,0.26798 -0.86743,0.5496 -1.30897,0.84749 4.64118,3.63751 9.47868,6.88393 14.27252,9.45214 -3.53515,1.76129 -7.47384,3.45377 -11.69645,4.86327 -3.58361,-2.19019 -7.23408,-4.47235 -10.29756,-7.06469 -0.27544,0.42179 -0.54289,0.85189 -0.79685,1.29191 3.02312,2.42026 6.43009,4.73943 9.17773,6.38979 -4.09943,1.25604 -8.43659,2.22349 -12.90464,2.71146 -0.0149,-0.0135 -0.0241,-0.0233 -0.0388,-0.0367 -0.17483,0.58582 -0.31895,1.11363 -0.44855,1.60766 0.34394,0.29633 0.73136,0.61898 1.17719,0.97358 0.74792,0.59488 1.64173,1.26644 2.66133,1.98593 h 2.66237 c -1.7749,-1.17241 -3.26018,-2.26105 -4.39043,-3.16002 -0.021,-0.0167 -0.0382,-0.031 -0.0589,-0.0475 4.55997,-0.5989 8.95618,-1.67313 13.09274,-3.01739 3.34599,1.89645 7.22484,3.81408 11.52591,5.47822 -0.7959,0.26048 -1.60466,0.50902 -2.4231,0.74673 h 9.31467 c -0.81829,-0.2377 -1.6268,-0.48629 -2.42259,-0.74673 4.21691,-1.63157 8.0258,-3.50653 11.32696,-5.3666 4.16146,1.33294 8.58536,2.38348 13.16665,2.9559 -1.12985,0.89848 -2.61308,1.98613 -4.38579,3.15743 h 2.66081 c 1.01968,-0.71938 1.91402,-1.39112 2.66187,-1.98593 0.309,-0.24578 0.5811,-0.47107 0.8387,-0.68781 -0.14184,-0.5545 -0.30975,-1.17024 -0.5121,-1.85054 -4.37724,-0.47079 -8.63059,-1.39868 -12.65816,-2.61276 3.13554,-1.95649 6.32244,-4.00903 9.03046,-6.22545 -0.24885,-0.44156 -0.50864,-0.8755 -0.77875,-1.30018 -3.40471,2.65976 -7.11768,5.14802 -10.18285,6.9174 -4.34948,-1.43121 -8.39849,-3.16974 -12.02718,-4.97695 7.10355,-3.79988 12.79156,-7.3145 14.88576,-9.18328 -0.442,-0.29772 -0.87841,-0.57923 -1.31052,-0.84698 z m -15.21235,10.88654 c 3.56764,1.8268 7.57153,3.60712 11.89178,5.10769 -3.41312,1.8534 -7.32954,3.6891 -11.62978,5.24206 -4.38895,-1.585 -8.38103,-3.46399 -11.8432,-5.35626 4.19971,-1.4772 8.101,-3.21198 11.5812,-4.99349 z"
         style="color:#000000;font-style:normal;font-variant:normal;font-weight:normal;font-stretch:normal;font-size:medium;line-height:normal;font-family:sans-serif;font-variant-ligatures:normal;font-variant-position:normal;font-variant-caps:normal;font-variant-numeric:normal;font-variant-alternates:normal;font-feature-settings:normal;text-indent:0;text-align:start;text-decoration:none;text-decoration-line:none;text-decoration-style:solid;text-decoration-color:#000000;letter-spacing:normal;word-spacing:normal;text-transform:none;writing-mode:lr-tb;direction:ltr;text-orientation:mixed;dominant-baseline:auto;baseline-shift:baseline;text-anchor:start;white-space:normal;shape-padding:0;clip-rule:nonzero;display:inline;overflow:visible;visibility:visible;isolation:auto;mix-blend-mode:normal;color-interpolation:sRGB;color-interpolation-filters:linearRGB;solid-color:#000000;solid-opacity:1;vector-effect:none;fill:#000000;fill-opacity:1;fill-rule:evenodd;stroke:none;stroke-width:1.5;stroke-linecap:butt;stroke-linejoin:miter;stroke-miterlimit:7.5;stroke-dasharray:none;stroke-dashoffset:0;stroke-opacity:1;color-rendering:auto;image-rendering:auto;shape-rendering:auto;text-rendering:auto;enable-background:accumulate" />
      <path
         style="color:#000000;font-style:normal;font-variant:normal;font-weight:normal;font-stretch:normal;font-size:medium;line-height:normal;font-family:sans-serif;font-variant-ligatures:normal;font-variant-position:normal;font-variant-caps:normal;font-variant-numeric:normal;font-variant-alternates:normal;font-feature-settings:normal;text-indent:0;text-align:start;text-decoration:none;text-decoration-line:none;text-decoration-style:solid;text-decoration-color:#000000;letter-spacing:normal;word-spacing:normal;text-transform:none;writing-mode:lr-tb;direction:ltr;text-orientation:mixed;dominant-baseline:auto;baseline-shift:baseline;text-anchor:start;white-space:normal;shape-padding:0;clip-rule:nonzero;display:inline;overflow:visible;visibility:visible;isolation:auto;mix-blend-mode:normal;color-interpolation:sRGB;color-interpolation-filters:linearRGB;solid-color:#000000;solid-opacity:1;vector-effect:none;fill:#000000;fill-opacity:1;fill-rule:evenodd;stroke:none;stroke-width:1.5;stroke-linecap:butt;stroke-linejoin:miter;stroke-miterlimit:4;stroke-dasharray:none;stroke-dashoffset:0;stroke-opacity:1;color-rendering:auto;image-rendering:auto;shape-rendering:auto;text-rendering:auto;enable-background:accumulate"
         d="m -319.91163,-8.8884049 -0.67437,1.38853 c 0,0 -5.20451,10.71912 -8.8253,23.3572299 -9.71247,-5.03227 -20.53519,-5.46528 -20.53519,-5.46528 l -3.3817,-0.14108 3.00601,1.55649 c 0,0 9.08411,4.77957 11.32696,13.40435 -2.04182,-0.21261 -4.1737,-0.28832 -6.24303,-0.28525 -6.52232,0.01 -12.40441,0.82836 -12.40441,0.82836 l -5.07772,0.70591 5.06739,0.77877 c 0,0 11.52274,1.80483 15.76803,11.67112 1.38571,3.22051 3.36906,6.01239 5.63841,8.08167 0.44076,-0.2995 0.87753,-0.58738 1.30949,-0.85834 -2.20654,-1.93188 -4.20764,-4.64694 -5.57124,-7.81604 -2.9491,-6.85389 -9.02808,-10.0595 -13.04107,-11.49388 2.23335,-0.19752 5.19005,-0.39278 8.31216,-0.39741 l 10e-4,-5.3e-4 c 8.72597,0.032 20.33583,2.59094 24.70035,11.49129 -0.14487,1.27582 -0.23736,2.62229 -0.0711,3.78026 0.29495,-0.007 0.59146,-0.0124 0.89192,-0.0124 0.21013,0 0.41841,0.002 0.62582,0.006 1.11983,-12.5263 17.66431,-15.55957 27.77232,-15.20728 2.97828,0.10818 3.68089,0.26086 5.36557,0.44133 -4.00669,1.39505 -10.06049,4.41506 -13.06277,11.3926 -1.3557,3.15072 -3.34099,5.8534 -5.53248,7.78298 0.43254,0.27039 0.86973,0.55676 1.31103,0.85577 2.25328,-2.06566 4.22249,-4.84315 5.60017,-8.045 4.24527,-9.86627 15.76803,-11.67216 15.76803,-11.67216 l 5.06636,-0.7772 -5.07824,-0.70694 c 0,0 -4.1778,-0.58038 -9.38496,-0.76947 -2.93769,-0.10668 -6.19965,-0.0991 -9.25886,0.2212 2.24512,-8.62156 11.32489,-13.39919 11.32489,-13.39919 l 3.00498,-1.55649 -3.38171,0.14108 c 0,0 -11.01792,0.44161 -20.79666,5.60326 -3.62251,-12.6978399 -8.86535,-23.4948199 -8.86535,-23.4948199 z m 0,3.49694 c 1.41767,3.07242 5.28753,11.85199 8.19278,22.1521399 -3.35013,2.09645 -6.18815,5.41332 -8.0579,9.07748 -1.91898,-3.74946 -4.82908,-7.15071 -8.28425,-9.2351 2.89963,-10.2272799 6.73581,-18.9304799 8.14937,-21.9945199 z m -26.97148,17.6263099 c 10.17835,1.42743 21.03633,4.17691 26.28816,15.37969 -0.69459,1.68267 -1.18038,3.40604 -1.41438,5.0922 -4.13793,-3.9483 -9.74384,-6.45842 -15.41353,-7.2993 -1.45585,-6.51933 -6.32238,-10.92528 -9.46042,-13.17283 z m 54.24373,0 h 0.001 c -3.13791,2.24747 -8.00427,6.65255 -9.46041,13.1718 -5.51783,1.28764 -14.18481,4.0256 -17.65639,10.35893 v 5.3e-4 c -2.6e-4,5.3e-4 -7.9e-4,10e-4 -10e-4,0.002 -0.25419,-0.50477 -0.5504,-0.98962 -0.88418,-1.45418 2.47202,-15.1557 13.38784,-19.56306 28.00087,-22.07939 z"
         id="path4894-0"
         inkscape:connector-curvature="0"
         inkscape:export-xdpi="300"
         inkscape:export-ydpi="300"
         sodipodi:nodetypes="ccccccccccccccccccccsccccccccccsccccccccccccccccccccccccccc" />
    </g>
  </g>
</svg>
