<?xml version="1.0" encoding="UTF-8" standalone="no"?>
<!-- Created with Inkscape (http://www.inkscape.org/) -->

<svg
   width="166.45326mm"
   height="102.71484mm"
   viewBox="0 0 166.45326 102.71484"
   version="1.1"
   id="svg181"
   inkscape:version="1.1.1 (3bf5ae0d25, 2021-09-20)"
   sodipodi:docname="pineapplewake-logo-sw-1.svg"
   xmlns:inkscape="http://www.inkscape.org/namespaces/inkscape"
   xmlns:sodipodi="http://sodipodi.sourceforge.net/DTD/sodipodi-0.dtd"
   xmlns="http://www.w3.org/2000/svg"
   xmlns:svg="http://www.w3.org/2000/svg">
  <sodipodi:namedview
     id="namedview183"
     pagecolor="#ffffff"
     bordercolor="#999999"
     borderopacity="1"
     inkscape:pageshadow="0"
     inkscape:pageopacity="0"
     inkscape:pagecheckerboard="0"
     inkscape:document-units="mm"
     showgrid="false"
     fit-margin-top="0"
     fit-margin-left="0"
     fit-margin-right="0"
     fit-margin-bottom="0"
     inkscape:zoom="0.66368547"
     inkscape:cx="1076.5642"
     inkscape:cy="-357.85024"
     inkscape:window-width="1920"
     inkscape:window-height="1002"
     inkscape:window-x="1912"
     inkscape:window-y="-8"
     inkscape:window-maximized="1"
     inkscape:current-layer="layer1" />
  <defs
     id="defs178" />
  <g
     inkscape:label="Ebene 1"
     inkscape:groupmode="layer"
     id="layer1"
     transform="translate(179.7018,-243.25064)">
    <g
       id="g2357"
       transform="translate(-25.51409,135.94229)">
      <g
         id="g4892"
         transform="translate(-354.14249,-17.616986)"
         inkscape:export-filename="D:\Web- &amp; Grafikdesign gewerbliche Aufträge\Kundenaufträge\Silke Künzel (Pineapplewake)\Grafik\PineapplePark\Logos\Park\g4892.png"
         inkscape:export-xdpi="300"
         inkscape:export-ydpi="300">
        <g
           aria-label="PINEAPPLEWAKEPARK"
           transform="matrix(0.26458333,0,0,0.26458333,227.24459,93.43695)"
           id="flowRoot7913"
           style="font-size:96px;line-height:125%;font-family:'Gill Sans MT Condensed';-inkscape-font-specification:'Gill Sans MT Condensed, ';letter-spacing:0px;word-spacing:0px;fill:#000000;stroke-width:1px">
          <path
             d="m -103.14258,506.38106 v -64.125 h 8.718752 q 8.859375,0 14.0625,4.73438 5.25,4.73437 5.25,13.03125 0,8.48437 -4.828125,13.35937 -4.828125,4.875 -13.21875,4.875 h -1.734375 v 28.125 z m 8.250002,-35.8125 h 1.453125 q 10.078125,0 10.078125,-11.01562 0,-9.89063 -11.53125,-9.60938 z"
             style="letter-spacing:2.29px;fill:#000000"
             id="path8530" />
          <path
             d="m -65.415077,506.38106 v -64.125 h 8.25 v 64.125 z"
             style="letter-spacing:2.29px;fill:#000000"
             id="path8532" />
          <path
             d="m -43.812576,506.38106 v -64.125 h 6.703125 l 14.203125,39.5625 h 0.1875 v -39.5625 h 7.59375 v 64.125 h -6.703125 l -14.203125,-39.9375 h -0.1875 v 39.9375 z"
             style="letter-spacing:2.29px;fill:#000000"
             id="path8534" />
          <path
             d="m -1.5850754,506.38106 v -64.125 H 21.24305 v 7.6875 H 6.6649246 v 19.17188 H 20.0243 v 7.6875 H 6.6649246 v 21.89062 H 22.039925 v 7.6875 z"
             style="letter-spacing:2.29px;fill:#000000"
             id="path8536" />
          <path
             d="m 30.704926,506.38106 12.09375,-64.5 h 8.578125 l 12,64.5 h -7.96875 l -2.296875,-14.20312 h -11.90625 l -2.53125,14.20312 z m 11.71875,-21.89062 h 9.234375 l -4.5,-26.85938 h -0.234375 z"
             style="letter-spacing:2.29px;fill:#000000"
             id="path8538" />
          <path
             d="m 72.276169,506.38106 v -64.125 h 8.71875 q 8.859375,0 14.0625,4.73438 5.250001,4.73437 5.250001,13.03125 0,8.48437 -4.828126,13.35937 -4.828125,4.875 -13.21875,4.875 h -1.734375 v 28.125 z m 8.25,-35.8125 h 1.453125 q 10.078125,0 10.078125,-11.01562 0,-9.89063 -11.53125,-9.60938 z"
             style="letter-spacing:2.29px;fill:#000000"
             id="path8540" />
          <path
             d="m 110.56618,506.38106 v -64.125 h 8.71875 q 8.85937,0 14.0625,4.73438 5.25,4.73437 5.25,13.03125 0,8.48437 -4.82813,13.35937 -4.82812,4.875 -13.21875,4.875 h -1.73437 v 28.125 z m 8.25,-35.8125 h 1.45312 q 10.07813,0 10.07813,-11.01562 0,-9.89063 -11.53125,-9.60938 z"
             style="letter-spacing:2.29px;fill:#000000"
             id="path8542" />
          <path
             d="m 148.57492,506.38106 v -64.125 h 8.25 v 56.4375 h 15.84375 v 7.6875 z"
             style="letter-spacing:2.29px;fill:#000000"
             id="path8544" />
          <path
             d="m 180.81805,506.38106 v -64.125 h 22.82813 v 7.6875 h -14.57813 v 19.17188 h 13.35938 v 7.6875 h -13.35938 v 21.89062 h 15.375 v 7.6875 z"
             style="letter-spacing:2.29px;fill:#000000"
             id="path8546" />
          <path
             d="m 227.12366,507.22481 -13.73438,-64.96875 h 8.67188 l 7.59375,43.07813 h 0.1875 l 8.625,-43.07813 h 5.95312 l 8.15625,44.0625 h 0.1875 l 8.0625,-44.0625 h 8.67188 l -13.73438,64.96875 h -5.67187 l -8.67188,-42.89062 h -0.1875 l -8.4375,42.89062 z"
             style="letter-spacing:2.29px;fill:#000000"
             id="path8548" />
          <path
             d="m 271.46054,506.38106 12.09375,-64.5 h 8.57813 l 12,64.5 h -7.96875 l -2.29688,-14.20312 h -11.90625 l -2.53125,14.20312 z m 11.71875,-21.89062 h 9.23438 l -4.5,-26.85938 h -0.23438 z"
             style="letter-spacing:2.29px;fill:#000000"
             id="path8550" />
          <path
             d="m 312.8443,506.38106 v -64.125 h 8.25 v 64.125 z m 19.96875,0 -11.4375,-32.53125 9.04687,-31.59375 h 8.4375 l -10.07812,30.51563 12.5625,33.60937 z"
             style="letter-spacing:2.29px;fill:#000000"
             id="path8552" />
          <path
             d="m 348.93118,506.38106 v -64.125 h 22.82813 v 7.6875 h -14.57813 v 19.17188 h 13.35938 v 7.6875 h -13.35938 v 21.89062 h 15.375 v 7.6875 z"
             style="letter-spacing:2.29px;fill:#000000"
             id="path8554" />
          <path
             style="color:#000000;-inkscape-font-specification:'Gill Sans MT Condensed,  Condensed';fill:#000000;stroke-width:0.956866px;-inkscape-stroke:none"
             d="m 385.07227,442.25607 v 64.12499 h 1.38297 9.27711 v -26.91187 h 0.2766 c 5.62037,0 10.26976,-1.67953 13.63161,-5.074 3.36225,-3.39489 5.01981,-8.08216 5.01981,-13.75683 0,-5.58186 -1.83169,-10.20248 -5.47582,-13.49144 -3.60819,-3.28312 -8.48874,-4.89085 -14.38663,-4.89085 z m 2.76594,2.76594 h 6.95971 c 5.40507,0 9.49516,1.41425 12.52522,4.17134 l 0.002,0.002 0.004,0.002 c 3.05057,2.75096 4.56567,6.44039 4.56567,11.44128 0,5.14987 -1.42236,8.98471 -4.21993,11.80945 -2.79798,2.82515 -6.58098,4.25544 -11.66555,4.25544 h -3.04253 v 26.91187 h -5.12821 z m 6.47753,4.58997 -1.34932,0.0337 v 22.46767 h 1.38297 1.39044 c 3.46647,0 6.33572,-0.98804 8.25297,-3.08364 1.91726,-2.09562 2.77342,-5.11539 2.77342,-8.83981 0,-3.42346 -1.05799,-6.26279 -3.25559,-8.09411 -2.19759,-1.83133 -5.31936,-2.57827 -9.19489,-2.48374 z m 1.41661,2.89676 c 2.67337,0.12475 4.75173,0.66804 6.00658,1.71377 1.48036,1.23363 2.26135,3.08145 2.26135,5.96732 0,3.30257 -0.75108,5.55304 -2.04829,6.97092 -1.29722,1.41789 -3.24969,2.1866 -6.21216,2.1866 h -0.008 z"
             id="path8556" />
          <path
             style="color:#000000;-inkscape-font-specification:'Gill Sans MT Condensed,  Condensed';fill:#000000;stroke-width:0.956866px;-inkscape-stroke:none"
             d="m 426.16145,441.89724 -12.08978,64.48382 h 1.66704 8.78373 l 2.42207,-13.59049 h 9.05659 l 2.1978,13.59049 h 10.46573 l -11.99634,-64.48382 z m 2.29685,2.76594 h 5.91127 l 10.96658,58.95194 h -4.78245 l -2.19781,-13.59049 h -13.72878 l -2.42207,13.59049 h -4.80116 z m 1.62779,12.30471 -4.76937,28.46677 h 1.63526 10.46947 l -4.76938,-28.46677 z m 1.28393,9.08462 2.78463,16.61621 h -5.56927 z"
             id="path8558" />
          <path
             style="color:#000000;-inkscape-font-specification:'Gill Sans MT Condensed,  Condensed';fill:#000000;stroke-width:0.956866px;-inkscape-stroke:none"
             d="m 453.86385,442.25589 v 64.12499 h 1.38298 9.27711 v -27.22771 c 0.72395,0.24081 1.39866,0.7151 2.10436,1.85767 l 0.004,0.004 0.002,0.004 c 0.99751,1.59126 2.57088,6.33457 4.26479,13.7045 l 2.6183,11.65807 h 11.08806 l -3.20513,-14.29132 v -0.004 c -2.07743,-9.09214 -4.48367,-15.03883 -7.75772,-18.23279 3.74862,-3.17025 5.77297,-7.65558 5.77297,-13.21485 0,-5.38665 -1.48613,-9.88734 -4.51708,-13.25035 l -0.004,-0.004 c -3.04098,-3.43501 -7.52104,-5.1282 -13.05412,-5.1282 z m 2.76595,2.76593 h 5.21043 c 4.99029,0 8.52434,1.41745 10.98528,4.19938 l 0.004,0.004 0.006,0.006 c 2.52422,2.79565 3.81438,6.51381 3.81438,11.40764 0,5.49512 -1.87801,9.31705 -5.7711,12.00382 l -1.62779,1.12319 1.61284,1.14376 c 2.64667,1.87672 5.56419,7.83346 7.83995,17.7936 l 2.44637,10.91239 h -5.41789 l -2.13612,-9.50886 v -0.004 c -1.71434,-7.45882 -3.1025,-12.13285 -4.61614,-14.54922 -1.42702,-2.30732 -3.61044,-3.64799 -5.99349,-3.37894 l -1.22786,0.1383 v 27.30247 h -5.1282 z m 5.1282,4.58063 v 21.97242 h 1.38298 0.35882 c 2.53521,0 4.74362,-0.99627 6.10375,-2.89864 1.36015,-1.90236 1.91748,-4.50923 1.91748,-7.76893 0,-3.4527 -0.58597,-6.20454 -2.00157,-8.20998 -1.4156,-2.00544 -3.71167,-3.06849 -6.36915,-3.08552 z m 2.76594,3.0444 c 1.14602,0.25415 2.07556,0.71345 2.73417,1.64648 0.91676,1.29875 1.49697,3.48823 1.49697,6.61397 0,2.93002 -0.54905,4.96733 -1.40165,6.15983 -0.66409,0.92882 -1.60589,1.36197 -2.82949,1.5549 z"
             id="path8560" />
          <path
             id="path8562"
             style="color:#000000;-inkscape-font-specification:'Gill Sans MT Condensed,  Condensed';fill:#000000;stroke-width:0.956866px;-inkscape-stroke:none"
             d="m 489.69654,442.25606 v 64.125 h 1.38297 9.27712 v -25.17007 l 8.84914,25.17007 h 0.98116 10.15737 l -12.54953,-33.57068 10.09195,-30.55432 h -11.03013 l -6.49996,22.69755 v -22.69755 z m 2.76594,2.76595 h 5.12821 v 26.55304 h 3.7471 l 7.60447,-26.55304 h 5.117 l -9.19676,27.84443 11.49361,30.74867 h -5.18988 l -9.58548,-27.25947 h -3.99006 v 27.25947 h -5.12821 z" />
        </g>
      </g>
      <path
         style="color:#000000;font-style:normal;font-variant:normal;font-weight:normal;font-stretch:normal;font-size:medium;line-height:normal;font-family:sans-serif;font-variant-ligatures:normal;font-variant-position:normal;font-variant-caps:normal;font-variant-numeric:normal;font-variant-alternates:normal;font-feature-settings:normal;text-indent:0;text-align:start;text-decoration:none;text-decoration-line:none;text-decoration-style:solid;text-decoration-color:#000000;letter-spacing:normal;word-spacing:normal;text-transform:none;writing-mode:lr-tb;direction:ltr;text-orientation:mixed;dominant-baseline:auto;baseline-shift:baseline;text-anchor:start;white-space:normal;shape-padding:0;clip-rule:nonzero;display:inline;overflow:visible;visibility:visible;isolation:auto;mix-blend-mode:normal;color-interpolation:sRGB;color-interpolation-filters:linearRGB;solid-color:#000000;solid-opacity:1;vector-effect:none;fill:#000000;fill-opacity:1;fill-rule:evenodd;stroke:none;stroke-width:1.5;stroke-linecap:butt;stroke-linejoin:miter;stroke-miterlimit:7.5;stroke-dasharray:none;stroke-dashoffset:0;stroke-opacity:1;color-rendering:auto;image-rendering:auto;shape-rendering:auto;text-rendering:auto;enable-background:accumulate"
         d="m -71.4064,156.90867 c -7.48859,-3e-5 -13.36243,2.27844 -20.90234,8.38672 -3.92959,3.18347 -6.40303,8.42258 -7.94922,12.85742 -1.02366,2.92097 -1.78823,5.92752 -2.28906,8.98047 h 62.2793 c -0.67838,-3.44233 -1.39068,-6.36247 -2.28907,-8.98047 -1.54631,-4.43483 -4.01964,-9.67396 -7.94921,-12.85742 -7.53992,-6.10828 -13.41198,-8.38669 -20.9004,-8.38672 z m 0,1.5 c 7.19239,3e-5 12.56687,2.06578 19.95704,8.05274 3.53544,2.86416 5.97522,7.87969 7.47656,12.18555 1.21884,3.49563 1.71503,5.98131 1.90234,6.98632 h -58.67383 c 0.18728,-1.00501 0.68362,-3.4907 1.90235,-6.98632 1.50121,-4.30586 3.94111,-9.3214 7.47656,-12.18555 7.39015,-5.98696 12.76644,-8.05277 19.95898,-8.05274 z"
         id="path4878"
         inkscape:connector-curvature="0"
         sodipodi:nodetypes="sscccccsscsccccs"
         inkscape:export-filename="D:\Web- &amp; Grafikdesign gewerbliche Aufträge\Kundenaufträge\Silke Künzel (Pineapplewake)\Grafik\PineapplePark\Logos\Park\path4878.png"
         inkscape:export-xdpi="300"
         inkscape:export-ydpi="300" />
      <path
         sodipodi:nodetypes="ccccccccccccscccccccccccccccccccccccccccc"
         inkscape:connector-curvature="0"
         id="path4880"
         d="m -56.21869,162.88064 c -2.21777,1.89243 -8.10226,5.48369 -15.21338,9.19568 -5.07428,-2.84881 -10.63376,-6.12498 -14.60014,-9.46505 -0.43165,0.26798 -0.86743,0.5496 -1.30897,0.84749 4.64118,3.63751 9.47868,6.88393 14.27252,9.45214 -3.53515,1.76129 -7.47384,3.45377 -11.69645,4.86327 -3.58361,-2.19019 -7.23408,-4.47235 -10.29756,-7.06469 -0.27544,0.42179 -0.54289,0.85189 -0.79685,1.29191 3.02312,2.42026 6.43009,4.73943 9.17773,6.38979 -4.09943,1.25604 -8.43659,2.22349 -12.90464,2.71146 -0.0149,-0.0135 -0.0241,-0.0233 -0.0388,-0.0367 -0.17483,0.58582 -0.31895,1.11363 -0.44855,1.60766 0.34394,0.29633 0.73136,0.61898 1.17719,0.97358 0.74792,0.59488 1.64173,1.26644 2.66133,1.98593 h 2.66237 c -1.7749,-1.17241 -3.26018,-2.26105 -4.39043,-3.16002 -0.021,-0.0167 -0.0382,-0.031 -0.0589,-0.0475 4.55997,-0.5989 8.95618,-1.67313 13.09274,-3.01739 3.34599,1.89645 7.22484,3.81408 11.52591,5.47822 -0.7959,0.26048 -1.60466,0.50902 -2.4231,0.74673 h 9.31467 c -0.81829,-0.2377 -1.6268,-0.48629 -2.42259,-0.74673 4.21691,-1.63157 8.0258,-3.50653 11.32696,-5.3666 4.16146,1.33294 8.58536,2.38348 13.16665,2.9559 -1.12985,0.89848 -2.61308,1.98613 -4.38579,3.15743 h 2.66081 c 1.01968,-0.71938 1.91402,-1.39112 2.66187,-1.98593 0.309,-0.24578 0.5811,-0.47107 0.8387,-0.68781 -0.14184,-0.5545 -0.30975,-1.17024 -0.5121,-1.85054 -4.37724,-0.47079 -8.63059,-1.39868 -12.65816,-2.61276 3.13554,-1.95649 6.32244,-4.00903 9.03046,-6.22545 -0.24885,-0.44156 -0.50864,-0.8755 -0.77875,-1.30018 -3.40471,2.65976 -7.11768,5.14802 -10.18285,6.9174 -4.34948,-1.43121 -8.39849,-3.16974 -12.02718,-4.97695 7.10355,-3.79988 12.79156,-7.3145 14.88576,-9.18328 -0.442,-0.29772 -0.87841,-0.57923 -1.31052,-0.84698 z m -15.21235,10.88654 c 3.56764,1.8268 7.57153,3.60712 11.89178,5.10769 -3.41312,1.8534 -7.32954,3.6891 -11.62978,5.24206 -4.38895,-1.585 -8.38103,-3.46399 -11.8432,-5.35626 4.19971,-1.4772 8.101,-3.21198 11.5812,-4.99349 z"
         style="color:#000000;font-style:normal;font-variant:normal;font-weight:normal;font-stretch:normal;font-size:medium;line-height:normal;font-family:sans-serif;font-variant-ligatures:normal;font-variant-position:normal;font-variant-caps:normal;font-variant-numeric:normal;font-variant-alternates:normal;font-feature-settings:normal;text-indent:0;text-align:start;text-decoration:none;text-decoration-line:none;text-decoration-style:solid;text-decoration-color:#000000;letter-spacing:normal;word-spacing:normal;text-transform:none;writing-mode:lr-tb;direction:ltr;text-orientation:mixed;dominant-baseline:auto;baseline-shift:baseline;text-anchor:start;white-space:normal;shape-padding:0;clip-rule:nonzero;display:inline;overflow:visible;visibility:visible;isolation:auto;mix-blend-mode:normal;color-interpolation:sRGB;color-interpolation-filters:linearRGB;solid-color:#000000;solid-opacity:1;vector-effect:none;fill:#000000;fill-opacity:1;fill-rule:evenodd;stroke:none;stroke-width:1.5;stroke-linecap:butt;stroke-linejoin:miter;stroke-miterlimit:7.5;stroke-dasharray:none;stroke-dashoffset:0;stroke-opacity:1;color-rendering:auto;image-rendering:auto;shape-rendering:auto;text-rendering:auto;enable-background:accumulate"
         inkscape:export-filename="D:\Web- &amp; Grafikdesign gewerbliche Aufträge\Kundenaufträge\Silke Künzel (Pineapplewake)\Grafik\PineapplePark\Logos\Park\path4878.png"
         inkscape:export-xdpi="300"
         inkscape:export-ydpi="300" />
      <path
         style="color:#000000;font-style:normal;font-variant:normal;font-weight:normal;font-stretch:normal;font-size:medium;line-height:normal;font-family:sans-serif;font-variant-ligatures:normal;font-variant-position:normal;font-variant-caps:normal;font-variant-numeric:normal;font-variant-alternates:normal;font-feature-settings:normal;text-indent:0;text-align:start;text-decoration:none;text-decoration-line:none;text-decoration-style:solid;text-decoration-color:#000000;letter-spacing:normal;word-spacing:normal;text-transform:none;writing-mode:lr-tb;direction:ltr;text-orientation:mixed;dominant-baseline:auto;baseline-shift:baseline;text-anchor:start;white-space:normal;shape-padding:0;clip-rule:nonzero;display:inline;overflow:visible;visibility:visible;isolation:auto;mix-blend-mode:normal;color-interpolation:sRGB;color-interpolation-filters:linearRGB;solid-color:#000000;solid-opacity:1;vector-effect:none;fill:#000000;fill-opacity:1;fill-rule:evenodd;stroke:none;stroke-width:1.5;stroke-linecap:round;stroke-linejoin:miter;stroke-miterlimit:4;stroke-dasharray:none;stroke-dashoffset:0;stroke-opacity:1;color-rendering:auto;image-rendering:auto;shape-rendering:auto;text-rendering:auto;enable-background:accumulate"
         d="m -153.30268,185.90845 c -1.01424,-0.0143 -1.01424,1.51434 0,1.5 H 11.50488 c 1.01424,0.0143 1.01424,-1.51434 0,-1.5 z"
         id="path4882"
         inkscape:connector-curvature="0"
         sodipodi:nodetypes="ccccc" />
      <path
         style="color:#000000;font-style:normal;font-variant:normal;font-weight:normal;font-stretch:normal;font-size:medium;line-height:normal;font-family:sans-serif;font-variant-ligatures:normal;font-variant-position:normal;font-variant-caps:normal;font-variant-numeric:normal;font-variant-alternates:normal;font-feature-settings:normal;text-indent:0;text-align:start;text-decoration:none;text-decoration-line:none;text-decoration-style:solid;text-decoration-color:#000000;letter-spacing:normal;word-spacing:normal;text-transform:none;writing-mode:lr-tb;direction:ltr;text-orientation:mixed;dominant-baseline:auto;baseline-shift:baseline;text-anchor:start;white-space:normal;shape-padding:0;clip-rule:nonzero;display:inline;overflow:visible;visibility:visible;isolation:auto;mix-blend-mode:normal;color-interpolation:sRGB;color-interpolation-filters:linearRGB;solid-color:#000000;solid-opacity:1;vector-effect:none;fill:#000000;fill-opacity:1;fill-rule:evenodd;stroke:none;stroke-width:1.5;stroke-linecap:butt;stroke-linejoin:miter;stroke-miterlimit:4;stroke-dasharray:none;stroke-dashoffset:0;stroke-opacity:1;color-rendering:auto;image-rendering:auto;shape-rendering:auto;text-rendering:auto;enable-background:accumulate"
         d="m -70.91178,107.30835 -0.67437,1.38853 c 0,0 -5.20451,10.71912 -8.8253,23.35723 -9.71247,-5.03227 -20.53519,-5.46528 -20.53519,-5.46528 l -3.3817,-0.14108 3.00601,1.55649 c 0,0 9.08411,4.77957 11.32696,13.40435 -2.04182,-0.21261 -4.1737,-0.28832 -6.24303,-0.28525 -6.52232,0.01 -12.40441,0.82836 -12.40441,0.82836 l -5.07772,0.70591 5.06739,0.77877 c 0,0 11.52274,1.80483 15.76803,11.67112 1.38571,3.22051 3.36906,6.01239 5.63841,8.08167 0.44076,-0.2995 0.87753,-0.58738 1.30949,-0.85834 -2.20654,-1.93188 -4.20764,-4.64694 -5.57124,-7.81604 -2.9491,-6.85389 -9.02808,-10.0595 -13.04107,-11.49388 2.23335,-0.19752 5.19005,-0.39278 8.31216,-0.39741 l 10e-4,-5.3e-4 c 8.72597,0.032 20.33583,2.59094 24.70035,11.49129 -0.14487,1.27582 -0.23736,2.62229 -0.0711,3.78026 0.29495,-0.007 0.59146,-0.0124 0.89192,-0.0124 0.21013,0 0.41841,0.002 0.62582,0.006 1.11983,-12.5263 17.66431,-15.55957 27.77232,-15.20728 2.97828,0.10818 3.68089,0.26086 5.36557,0.44133 -4.00669,1.39505 -10.06049,4.41506 -13.06277,11.3926 -1.3557,3.15072 -3.34099,5.8534 -5.53248,7.78298 0.43254,0.27039 0.86973,0.55676 1.31103,0.85577 2.25328,-2.06566 4.22249,-4.84315 5.60017,-8.045 4.24527,-9.86627 15.76803,-11.67216 15.76803,-11.67216 l 5.06636,-0.7772 -5.07824,-0.70694 c 0,0 -4.1778,-0.58038 -9.38496,-0.76947 -2.93769,-0.10668 -6.19965,-0.0991 -9.25886,0.2212 2.24512,-8.62156 11.32489,-13.39919 11.32489,-13.39919 l 3.00498,-1.55649 -3.38171,0.14108 c 0,0 -11.01792,0.44161 -20.79666,5.60326 -3.62251,-12.69784 -8.86535,-23.49482 -8.86535,-23.49482 z m 0,3.49694 c 1.41767,3.07242 5.28753,11.85199 8.19278,22.15214 -3.35013,2.09645 -6.18815,5.41332 -8.0579,9.07748 -1.91898,-3.74946 -4.82908,-7.15071 -8.28425,-9.2351 2.89963,-10.22728 6.73581,-18.93048 8.14937,-21.99452 z m -26.97148,17.62631 c 10.17835,1.42743 21.03633,4.17691 26.28816,15.37969 -0.69459,1.68267 -1.18038,3.40604 -1.41438,5.0922 -4.13793,-3.9483 -9.74384,-6.45842 -15.41353,-7.2993 -1.45585,-6.51933 -6.32238,-10.92528 -9.46042,-13.17283 z m 54.24373,0 h 10e-4 c -3.13791,2.24747 -8.00427,6.65255 -9.46041,13.1718 -5.51783,1.28764 -14.18481,4.0256 -17.65639,10.35893 v 5.3e-4 c -2.6e-4,5.3e-4 -7.9e-4,0.001 -0.001,0.002 -0.25419,-0.50477 -0.5504,-0.98962 -0.88418,-1.45418 2.47202,-15.1557 13.38784,-19.56306 28.00087,-22.07939 z"
         id="path4894"
         inkscape:connector-curvature="0"
         inkscape:export-xdpi="300"
         inkscape:export-ydpi="300"
         sodipodi:nodetypes="ccccccccccccccccccccsccccccccccsccccccccccccccccccccccccccc"
         inkscape:export-filename="D:\Web- &amp; Grafikdesign gewerbliche Aufträge\Kundenaufträge\Silke Künzel (Pineapplewake)\Grafik\PineapplePark\Logos\Park\path4878.png" />
    </g>
  </g>
</svg>
