<?xml version="1.0" encoding="UTF-8" standalone="no"?>
<!-- Created with Inkscape (http://www.inkscape.org/) -->

<svg
   width="131.70767mm"
   height="122.36582mm"
   viewBox="0 0 131.70767 122.36582"
   version="1.1"
   id="svg188"
   inkscape:version="1.1.1 (3bf5ae0d25, 2021-09-20)"
   sodipodi:docname="pineapplewake-logo-sw-2.svg"
   xmlns:inkscape="http://www.inkscape.org/namespaces/inkscape"
   xmlns:sodipodi="http://sodipodi.sourceforge.net/DTD/sodipodi-0.dtd"
   xmlns="http://www.w3.org/2000/svg"
   xmlns:svg="http://www.w3.org/2000/svg">
  <sodipodi:namedview
     id="namedview190"
     pagecolor="#ffffff"
     bordercolor="#999999"
     borderopacity="1"
     inkscape:pageshadow="0"
     inkscape:pageopacity="0"
     inkscape:pagecheckerboard="0"
     inkscape:document-units="mm"
     showgrid="false"
     fit-margin-top="0"
     fit-margin-left="0"
     fit-margin-right="0"
     fit-margin-bottom="0"
     inkscape:zoom="0.66368547"
     inkscape:cx="791.79073"
     inkscape:cy="36.915077"
     inkscape:window-width="1920"
     inkscape:window-height="1002"
     inkscape:window-x="1912"
     inkscape:window-y="-8"
     inkscape:window-maximized="1"
     inkscape:current-layer="layer1" />
  <defs
     id="defs185" />
  <g
     inkscape:label="Ebene 1"
     inkscape:groupmode="layer"
     id="layer1"
     transform="translate(104.52364,-138.54461)">
    <g
       id="g1870"
       transform="translate(78.253483,8.341757)"
       inkscape:export-filename="D:\WORKSPACE\Visual Studio\portfolio3\img\pineapplewake\pineapplewake-logo-variationen-2.png"
       inkscape:export-xdpi="100"
       inkscape:export-ydpi="100">
      <path
         style="color:#000000;font-style:normal;font-variant:normal;font-weight:normal;font-stretch:normal;font-size:medium;line-height:normal;font-family:sans-serif;font-variant-ligatures:normal;font-variant-position:normal;font-variant-caps:normal;font-variant-numeric:normal;font-variant-alternates:normal;font-feature-settings:normal;text-indent:0;text-align:start;text-decoration:none;text-decoration-line:none;text-decoration-style:solid;text-decoration-color:#000000;letter-spacing:normal;word-spacing:normal;text-transform:none;writing-mode:lr-tb;direction:ltr;text-orientation:mixed;dominant-baseline:auto;baseline-shift:baseline;text-anchor:start;white-space:normal;shape-padding:0;clip-rule:nonzero;display:inline;overflow:visible;visibility:visible;opacity:1;isolation:auto;mix-blend-mode:normal;color-interpolation:sRGB;color-interpolation-filters:linearRGB;solid-color:#000000;solid-opacity:1;vector-effect:none;fill:#000000;fill-opacity:1;fill-rule:evenodd;stroke:none;stroke-width:2.2994;stroke-linecap:butt;stroke-linejoin:miter;stroke-miterlimit:7.5;stroke-dasharray:none;stroke-dashoffset:0;stroke-opacity:1;color-rendering:auto;image-rendering:auto;shape-rendering:auto;text-rendering:auto;enable-background:accumulate"
         d="m -117.91264,206.23653 c -11.47946,-4e-5 -20.48363,3.49269 -32.04176,12.85623 -6.02378,4.88003 -9.81538,12.9112 -12.18558,19.7095 -1.5692,4.47763 -2.74122,9.08645 -3.50896,13.76641 h 95.46964 c -1.039907,-5.27685 -2.131811,-9.75321 -3.508978,-13.76641 -2.370381,-6.79827 -6.161816,-14.82948 -12.185561,-19.7095 -11.558146,-9.36354 -20.559581,-12.85619 -32.038801,-12.85623 z m 0,2.2994 c 11.02543,4e-5 19.26411,3.16669 30.592697,12.34426 5.419574,4.39055 9.159579,12.07899 11.461024,18.67956 1.868394,5.35855 2.629017,9.16892 2.916149,10.70952 h -89.94272 c 0.28709,-1.5406 1.04794,-5.35099 2.91616,-10.70952 2.30125,-6.60057 6.04144,-14.28902 11.46103,-18.67956 11.32857,-9.17757 19.57002,-12.34431 30.59566,-12.34426 z"
         id="path1724"
         inkscape:connector-curvature="0"
         sodipodi:nodetypes="sscccccsscsccccs"
         inkscape:export-filename="D:\Web- &amp; Grafikdesign gewerbliche Aufträge\Kundenaufträge\Silke Künzel (Pineapplewake)\Grafik\PineapplePark\Logos\Park\path4878.png"
         inkscape:export-xdpi="300"
         inkscape:export-ydpi="300" />
      <path
         sodipodi:nodetypes="ccccccccccccscccccccccccccccccccccccccccc"
         inkscape:connector-curvature="0"
         id="path1726"
         d="m -94.630974,215.39113 c -3.399681,2.90096 -12.420166,8.40609 -23.321006,14.09631 -7.7785,-4.36702 -16.30078,-9.38915 -22.38095,-14.50923 -0.6617,0.41079 -1.32971,0.84249 -2.00656,1.29914 7.1146,5.57604 14.53013,10.55256 21.87874,14.48944 -5.41913,2.69992 -11.45686,5.29437 -17.92982,7.45504 -5.49341,-3.3574 -11.08931,-6.85579 -15.7854,-10.82966 -0.42223,0.64657 -0.83222,1.30589 -1.22152,1.9804 4.63422,3.71009 9.85686,7.26521 14.0688,9.79509 -6.28413,1.92542 -12.93268,3.40845 -19.78188,4.15647 -0.0228,-0.0207 -0.0369,-0.0357 -0.0595,-0.0562 -0.268,0.89802 -0.48892,1.70711 -0.68759,2.46442 0.52723,0.45425 1.12112,0.94885 1.80454,1.49243 1.14651,0.9119 2.51666,1.94136 4.07963,3.04429 h 4.08122 c -2.7208,-1.79722 -4.99762,-3.46603 -6.73021,-4.84408 -0.0322,-0.0257 -0.0585,-0.0476 -0.0903,-0.0728 6.9901,-0.91806 13.72918,-2.56478 20.07022,-4.62544 5.12916,2.90712 11.07516,5.84671 17.66838,8.39772 -1.22005,0.3993 -2.45983,0.78029 -3.71443,1.14468 h 14.27871 c -1.25438,-0.36438 -2.49377,-0.74545 -3.71365,-1.14468 6.46422,-2.50108 12.30297,-5.37526 17.363405,-8.22662 6.379212,2.0433 13.160729,3.65371 20.183514,4.53119 -1.731978,1.3773 -4.005662,3.04459 -6.723098,4.84011 h 4.078829 c 1.563095,-1.10276 2.934053,-2.13249 4.080453,-3.04428 0.473674,-0.37677 0.890785,-0.72212 1.285666,-1.05437 -0.21743,-0.85001 -0.474824,-1.79389 -0.785012,-2.83674 -6.709991,-0.7217 -13.230068,-2.14407 -19.404035,-4.00517 4.806551,-2.99916 9.691836,-6.14555 13.843035,-9.54317 -0.38147,-0.67688 -0.779708,-1.34208 -1.193768,-1.99307 -5.219173,4.07721 -10.910882,7.89154 -15.609565,10.60387 -6.667434,-2.19395 -12.874274,-4.85899 -18.436794,-7.62931 10.88923,-5.82494 19.608534,-11.2126 22.81879,-14.0773 -0.677554,-0.45639 -1.346539,-0.88792 -2.008933,-1.29836 z M -117.9504,232.0794 c 5.46893,2.80035 11.60661,5.52946 18.229232,7.82972 -5.232062,2.84113 -11.235652,5.65513 -17.827612,8.0357 -6.72794,-2.42969 -12.8475,-5.31004 -18.15476,-8.21076 6.43785,-2.26444 12.41824,-4.92373 17.75314,-7.65466 z"
         style="color:#000000;font-style:normal;font-variant:normal;font-weight:normal;font-stretch:normal;font-size:medium;line-height:normal;font-family:sans-serif;font-variant-ligatures:normal;font-variant-position:normal;font-variant-caps:normal;font-variant-numeric:normal;font-variant-alternates:normal;font-feature-settings:normal;text-indent:0;text-align:start;text-decoration:none;text-decoration-line:none;text-decoration-style:solid;text-decoration-color:#000000;letter-spacing:normal;word-spacing:normal;text-transform:none;writing-mode:lr-tb;direction:ltr;text-orientation:mixed;dominant-baseline:auto;baseline-shift:baseline;text-anchor:start;white-space:normal;shape-padding:0;clip-rule:nonzero;display:inline;overflow:visible;visibility:visible;opacity:1;isolation:auto;mix-blend-mode:normal;color-interpolation:sRGB;color-interpolation-filters:linearRGB;solid-color:#000000;solid-opacity:1;vector-effect:none;fill:#000000;fill-opacity:1;fill-rule:evenodd;stroke:none;stroke-width:2.2994;stroke-linecap:butt;stroke-linejoin:miter;stroke-miterlimit:7.5;stroke-dasharray:none;stroke-dashoffset:0;stroke-opacity:1;color-rendering:auto;image-rendering:auto;shape-rendering:auto;text-rendering:auto;enable-background:accumulate"
         inkscape:export-filename="D:\Web- &amp; Grafikdesign gewerbliche Aufträge\Kundenaufträge\Silke Künzel (Pineapplewake)\Grafik\PineapplePark\Logos\Park\path4878.png"
         inkscape:export-xdpi="300"
         inkscape:export-ydpi="300" />
      <path
         style="color:#000000;font-style:normal;font-variant:normal;font-weight:normal;font-stretch:normal;font-size:medium;line-height:normal;font-family:sans-serif;font-variant-ligatures:normal;font-variant-position:normal;font-variant-caps:normal;font-variant-numeric:normal;font-variant-alternates:normal;font-feature-settings:normal;text-indent:0;text-align:start;text-decoration:none;text-decoration-line:none;text-decoration-style:solid;text-decoration-color:#000000;letter-spacing:normal;word-spacing:normal;text-transform:none;writing-mode:lr-tb;direction:ltr;text-orientation:mixed;dominant-baseline:auto;baseline-shift:baseline;text-anchor:start;white-space:normal;shape-padding:0;clip-rule:nonzero;display:inline;overflow:visible;visibility:visible;opacity:1;isolation:auto;mix-blend-mode:normal;color-interpolation:sRGB;color-interpolation-filters:linearRGB;solid-color:#000000;solid-opacity:1;vector-effect:none;fill:#000000;fill-opacity:1;fill-rule:evenodd;stroke:none;stroke-width:2.2994;stroke-linecap:butt;stroke-linejoin:miter;stroke-miterlimit:4;stroke-dasharray:none;stroke-dashoffset:0;stroke-opacity:1;color-rendering:auto;image-rendering:auto;shape-rendering:auto;text-rendering:auto;enable-background:accumulate"
         d="m -117.15441,130.20285 -1.03377,2.12851 c 0,0 -7.97814,16.43164 -13.52854,35.80493 -14.88851,-7.7141 -31.47895,-8.37787 -31.47895,-8.37787 l -5.1839,-0.21626 4.60799,2.38598 c 0,0 13.92528,7.32673 17.3634,20.5479 -3.12995,-0.32592 -6.39797,-0.44198 -9.5701,-0.43727 -9.99824,0.0153 -19.01507,1.26981 -19.01507,1.26981 l -7.78377,1.08211 7.76794,1.1938 c 0,0 17.66353,2.76667 24.17125,17.89098 2.12419,4.93681 5.16452,9.21655 8.64327,12.38861 0.67565,-0.45911 1.34519,-0.90041 2.00735,-1.31577 -3.38246,-2.96143 -6.45001,-7.12342 -8.5403,-11.98142 -4.52076,-10.50651 -13.8394,-15.42048 -19.99101,-17.61928 3.42356,-0.30279 7.95596,-0.6021 12.74193,-0.60921 l 0.001,-8.1e-4 c 13.37627,0.049 31.17335,3.97172 37.86384,17.61532 -0.22207,1.95573 -0.36385,4.01977 -0.10896,5.79486 0.45213,-0.011 0.90667,-0.019 1.36725,-0.019 0.32211,0 0.64139,0.003 0.95934,0.009 1.71661,-19.20191 27.078095,-23.85169 42.572941,-23.31166 4.565486,0.16583 5.642536,0.39988 8.225029,0.67653 -6.141965,2.13851 -15.422001,6.76796 -20.024278,17.46402 -2.07819,4.82983 -5.121495,8.97284 -8.480886,11.93074 0.663053,0.41449 1.333233,0.85347 2.009714,1.31185 3.45411,-3.16652 6.472766,-7.42421 8.584649,-12.33241 6.507691,-15.12428 24.171245,-17.89257 24.171245,-17.89257 l 7.766362,-1.1914 -7.784574,-1.08368 c 0,0 -6.404263,-0.88968 -14.386461,-1.17955 -4.503266,-0.16352 -9.503613,-0.15191 -14.19316,0.33909 3.441606,-13.21622 17.360234,-20.53999 17.360234,-20.53999 l 4.606416,-2.38598 -5.183916,0.21626 c 0,0 -16.889671,0.67696 -31.879765,8.58939 -5.55305,-19.46486 -13.58994,-36.01585 -13.58994,-36.01585 z m 0,5.36054 c 2.17318,4.7098 8.10539,18.16824 12.55893,33.95763 -5.13551,3.2137 -9.48598,8.29823 -12.35217,13.91512 -2.94166,-5.74766 -7.40263,-10.96151 -12.69915,-14.15674 4.44492,-15.67767 10.3255,-29.01905 12.49239,-33.71601 z m -41.34532,27.01986 c 15.60267,2.18814 32.24716,6.40291 40.29784,23.57595 -1.06476,2.57941 -1.80945,5.22122 -2.16814,7.80598 -6.34315,-6.05247 -14.93661,-9.90029 -23.62783,-11.1893 -2.23171,-9.99366 -9.69174,-16.74766 -14.50214,-20.19299 z m 83.15169,0 h 0.0015 c -4.810188,3.44521 -12.269965,10.19788 -14.502121,20.19141 -8.458428,1.97386 -21.744279,6.17095 -27.065969,15.87949 v 8.1e-4 c -4e-4,8.1e-4 -10e-4,0.001 -10e-4,0.003 -0.38966,-0.77378 -0.84372,-1.51701 -1.35539,-2.22915 3.78943,-23.23259 20.522597,-29.98876 42.923306,-33.8461 z"
         id="path1728"
         inkscape:connector-curvature="0"
         inkscape:export-xdpi="300"
         inkscape:export-ydpi="300"
         sodipodi:nodetypes="ccccccccccccccccccccsccccccccccsccccccccccccccccccccccccccc"
         inkscape:export-filename="D:\Web- &amp; Grafikdesign gewerbliche Aufträge\Kundenaufträge\Silke Künzel (Pineapplewake)\Grafik\PineapplePark\Logos\Park\path4878.png" />
    </g>
  </g>
</svg>
