<?xml version="1.0" encoding="UTF-8" standalone="no"?>
<!-- Created with Inkscape (http://www.inkscape.org/) -->

<svg
   width="97.211166mm"
   height="60.034878mm"
   viewBox="0 0 97.211166 60.034878"
   version="1.1"
   id="svg40310"
   inkscape:version="1.1.1 (3bf5ae0d25, 2021-09-20)"
   sodipodi:docname="pineapplewakepark-logo.svg"
   xmlns:inkscape="http://www.inkscape.org/namespaces/inkscape"
   xmlns:sodipodi="http://sodipodi.sourceforge.net/DTD/sodipodi-0.dtd"
   xmlns="http://www.w3.org/2000/svg"
   xmlns:svg="http://www.w3.org/2000/svg">
  <sodipodi:namedview
     id="namedview40312"
     pagecolor="#ffffff"
     bordercolor="#999999"
     borderopacity="1"
     inkscape:pageshadow="0"
     inkscape:pageopacity="0"
     inkscape:pagecheckerboard="0"
     inkscape:document-units="mm"
     showgrid="false"
     inkscape:zoom="2.6547419"
     inkscape:cx="312.45976"
     inkscape:cy="104.90662"
     inkscape:window-width="1920"
     inkscape:window-height="1002"
     inkscape:window-x="1912"
     inkscape:window-y="-8"
     inkscape:window-maximized="1"
     inkscape:current-layer="layer1"
     fit-margin-top="0"
     fit-margin-left="0"
     fit-margin-right="0"
     fit-margin-bottom="0" />
  <defs
     id="defs40307" />
  <g
     inkscape:label="Ebene 1"
     inkscape:groupmode="layer"
     id="layer1"
     style="display:inline"
     transform="translate(-61.822606,-72.039013)">
    <g
       id="g49711"
       style="display:inline"
       inkscape:label="leaf_bottom_right">
      <path
         id="path45230"
         style="color:#000000;font-style:normal;font-variant:normal;font-weight:normal;font-stretch:normal;font-size:medium;line-height:normal;font-family:sans-serif;font-variant-ligatures:normal;font-variant-position:normal;font-variant-caps:normal;font-variant-numeric:normal;font-variant-alternates:normal;font-feature-settings:normal;text-indent:0;text-align:start;text-decoration:none;text-decoration-line:none;text-decoration-style:solid;text-decoration-color:#000000;letter-spacing:normal;word-spacing:normal;text-transform:none;writing-mode:lr-tb;direction:ltr;text-orientation:mixed;dominant-baseline:auto;baseline-shift:baseline;text-anchor:start;white-space:normal;shape-padding:0;clip-rule:nonzero;display:inline;overflow:visible;visibility:visible;isolation:auto;mix-blend-mode:normal;color-interpolation:sRGB;color-interpolation-filters:linearRGB;solid-color:#000000;solid-opacity:1;fill:#37c871;fill-opacity:1;fill-rule:evenodd;stroke:none;stroke-width:1.41732;stroke-linecap:butt;stroke-linejoin:miter;stroke-miterlimit:4;stroke-dasharray:none;stroke-dashoffset:0;stroke-opacity:1;color-rendering:auto;image-rendering:auto;shape-rendering:auto;text-rendering:auto;enable-background:accumulate"
         d="m 472.99414,346.85547 c -4.28282,0.01 -8.67536,0.18157 -12.89258,0.62305 l -3.47461,0.4375 c -12.17042,2.84005 -31.28626,8.87856 -38.94336,22.84765 l -1.625,9.14063 c -0.10566,0.59466 -0.12637,1.19076 -0.0781,1.78515 13.6679,0.06 24.6648,3.58026 37.75195,12.83985 5.71433,-5.92072 10.41561,-11.42412 12.73828,-16.82227 9.36359,-21.76154 34.7793,-25.74609 34.7793,-25.74609 l 11.17578,-1.71289 -11.20117,-1.56055 c 0,0 -9.21598,-1.28019 -20.70117,-1.69727 -2.42982,-0.0883 -4.95961,-0.14057 -7.5293,-0.13476 z"
         transform="scale(0.26458333)" />
      <path
         style="color:#000000;font-style:normal;font-variant:normal;font-weight:normal;font-stretch:normal;font-size:medium;line-height:normal;font-family:sans-serif;font-variant-ligatures:normal;font-variant-position:normal;font-variant-caps:normal;font-variant-numeric:normal;font-variant-alternates:normal;font-feature-settings:normal;text-indent:0;text-align:start;text-decoration:none;text-decoration-line:none;text-decoration-style:solid;text-decoration-color:#000000;letter-spacing:normal;word-spacing:normal;text-transform:none;writing-mode:lr-tb;direction:ltr;text-orientation:mixed;dominant-baseline:auto;baseline-shift:baseline;text-anchor:start;white-space:normal;shape-padding:0;clip-rule:nonzero;display:inline;overflow:visible;visibility:visible;isolation:auto;mix-blend-mode:normal;color-interpolation:sRGB;color-interpolation-filters:linearRGB;solid-color:#000000;solid-opacity:1;fill:#000000;fill-opacity:1;fill-rule:evenodd;stroke:none;stroke-width:1.41732;stroke-linecap:butt;stroke-linejoin:miter;stroke-miterlimit:4;stroke-dasharray:none;stroke-dashoffset:0;stroke-opacity:1;color-rendering:auto;image-rendering:auto;shape-rendering:auto;text-rendering:auto;enable-background:accumulate"
         d="m 456.62704,347.91602 c -12.17042,2.84008 -31.28626,8.87853 -38.94336,22.84765 l -1.72269,4.74606 c -0.23266,2.04999 -0.40172,4.18136 -0.33594,6.17578 0.20879,-0.002 0.41105,-0.0117 0.62109,-0.0117 1.07319,0 2.12968,0.0212 3.17188,0.0644 4.08944,-25.86722 39.27229,-32.20028 60.99023,-31.44336 6.56905,0.2386 8.11814,0.57461 11.83399,0.97266 -8.83737,3.07699 -22.18855,9.73888 -28.81055,25.1289 -2.835,6.58867 -6.91945,12.28722 -11.45508,16.48829 0.92337,0.61561 1.85898,1.26904 2.80274,1.94335 0.72674,-0.69451 1.43912,-1.42265 2.13493,-2.1824 3.79815,-4.14714 7.10279,-9.23609 9.55647,-14.93869 9.36359,-21.76156 34.7793,-25.74609 34.7793,-25.74609 l 11.17578,-1.71289 -11.20117,-1.56055 c 0,0 -9.21598,-1.2802 -20.70117,-1.69727 -6.47951,-0.23531 -13.67432,-0.21817 -20.42188,0.48829 z"
         id="path41330"
         sodipodi:nodetypes="ccccscccsccsccccscc"
         transform="scale(0.26458333)" />
    </g>
    <g
       id="g49699"
       style="display:inline"
       inkscape:label="leaf_top_right">
      <path
         id="path45272"
         style="color:#000000;font-style:normal;font-variant:normal;font-weight:normal;font-stretch:normal;font-size:medium;line-height:normal;font-family:sans-serif;font-variant-ligatures:normal;font-variant-position:normal;font-variant-caps:normal;font-variant-numeric:normal;font-variant-alternates:normal;font-feature-settings:normal;text-indent:0;text-align:start;text-decoration:none;text-decoration-line:none;text-decoration-style:solid;text-decoration-color:#000000;letter-spacing:normal;word-spacing:normal;text-transform:none;writing-mode:lr-tb;direction:ltr;text-orientation:mixed;dominant-baseline:auto;baseline-shift:baseline;text-anchor:start;white-space:normal;shape-padding:0;clip-rule:nonzero;display:inline;overflow:visible;visibility:visible;isolation:auto;mix-blend-mode:normal;color-interpolation:sRGB;color-interpolation-filters:linearRGB;solid-color:#000000;solid-opacity:1;fill:#37c871;fill-opacity:1;fill-rule:evenodd;stroke:none;stroke-width:0.374999;stroke-linecap:butt;stroke-linejoin:miter;stroke-miterlimit:4;stroke-dasharray:none;stroke-dashoffset:0;stroke-opacity:1;color-rendering:auto;image-rendering:auto;shape-rendering:auto;text-rendering:auto;enable-background:accumulate"
         d="m 130.098,83.209391 -4.33462,0.410311 c 0,0 -4.06844,0.398931 -9.77511,3.411162 l -0.78652,0.445449 c -1.95507,1.223442 -3.61141,3.159027 -4.70255,5.29735 l -0.47749,1.03663 c -0.35122,0.850844 -0.61032,1.719614 -0.76223,2.576589 l 0.73587,0.864029 c 0.19479,0.271108 0.36791,0.553952 0.51625,0.848526 l 5.3e-4,-0.0016 c 0.25324,-0.462 0.55397,-0.890971 0.89245,-1.289844 0.16924,-0.199435 0.34788,-0.39162 0.53485,-0.576191 0.18698,-0.184573 0.38212,-0.36195 0.58446,-0.532268 0.20235,-0.170317 0.41203,-0.333734 0.62735,-0.49041 1.93797,-1.410084 4.35357,-2.279695 6.38049,-2.832386 0.45043,-0.122817 0.88165,-0.230079 1.28416,-0.324009 l 0.91933,-0.115755 c 0.6867,-5.565788 6.11294,-7.635142 6.1159,-7.63261 z" />
      <path
         id="path41328"
         style="color:#000000;font-style:normal;font-variant:normal;font-weight:normal;font-stretch:normal;font-size:medium;line-height:normal;font-family:sans-serif;font-variant-ligatures:normal;font-variant-position:normal;font-variant-caps:normal;font-variant-numeric:normal;font-variant-alternates:normal;font-feature-settings:normal;text-indent:0;text-align:start;text-decoration:none;text-decoration-line:none;text-decoration-style:solid;text-decoration-color:#000000;letter-spacing:normal;word-spacing:normal;text-transform:none;writing-mode:lr-tb;direction:ltr;text-orientation:mixed;dominant-baseline:auto;baseline-shift:baseline;text-anchor:start;white-space:normal;shape-padding:0;clip-rule:nonzero;display:inline;overflow:visible;visibility:visible;isolation:auto;mix-blend-mode:normal;color-interpolation:sRGB;color-interpolation-filters:linearRGB;solid-color:#000000;solid-opacity:1;fill:#000000;fill-opacity:1;fill-rule:evenodd;stroke:none;stroke-width:1.41732;stroke-linecap:butt;stroke-linejoin:miter;stroke-miterlimit:4;stroke-dasharray:none;stroke-dashoffset:0;stroke-opacity:1;color-rendering:auto;image-rendering:auto;shape-rendering:auto;text-rendering:auto;enable-background:accumulate"
         d="m 491.70898,314.49219 -7.45898,0.31054 c 0,0 -24.30062,0.97458 -45.86914,12.35938 l -2.97266,1.68359 c -7.38924,4.62404 -13.64944,11.93963 -17.77343,20.02149 l -1.80469,3.91797 c -1.532,3.71138 -2.60301,7.51334 -3.11914,11.23242 l 3.01953,3.54492 c 5.45242,-33.42821 29.52848,-43.14907 61.75976,-48.69922 h 0.004 c -6.92115,4.95714 -17.65546,14.67354 -20.86719,29.05274 l 3.47461,-0.4375 c 4.95194,-19.01617 24.98047,-29.55469 24.98047,-29.55469 z"
         transform="scale(0.26458333)" />
    </g>
    <g
       id="g49707"
       inkscape:label="leaf_bottom_left">
      <path
         id="path45634"
         style="color:#000000;font-style:normal;font-variant:normal;font-weight:normal;font-stretch:normal;font-size:medium;line-height:normal;font-family:sans-serif;font-variant-ligatures:normal;font-variant-position:normal;font-variant-caps:normal;font-variant-numeric:normal;font-variant-alternates:normal;font-feature-settings:normal;text-indent:0;text-align:start;text-decoration:none;text-decoration-line:none;text-decoration-style:solid;text-decoration-color:#000000;letter-spacing:normal;word-spacing:normal;text-transform:none;writing-mode:lr-tb;direction:ltr;text-orientation:mixed;dominant-baseline:auto;baseline-shift:baseline;text-anchor:start;white-space:normal;shape-padding:0;clip-rule:nonzero;display:inline;overflow:visible;visibility:visible;isolation:auto;mix-blend-mode:normal;color-interpolation:sRGB;color-interpolation-filters:linearRGB;solid-color:#000000;solid-opacity:1;fill:#37c871;fill-opacity:1;fill-rule:evenodd;stroke:none;stroke-width:1.41732;stroke-linecap:butt;stroke-linejoin:miter;stroke-miterlimit:4;stroke-dasharray:none;stroke-dashoffset:0;stroke-opacity:1;color-rendering:auto;image-rendering:auto;shape-rendering:auto;text-rendering:auto;enable-background:accumulate"
         d="m 361.47656,346.85742 c -14.38598,0.0227 -27.35937,1.82617 -27.35937,1.82617 l -11.20117,1.55664 11.17773,1.71875 c 0,0 25.41567,3.98058 34.7793,25.74219 2.60586,6.05617 6.17136,11.4213 10.26757,15.70117 12.49603,-8.49669 23.22065,-11.71686 36.48438,-11.71679 -0.0658,-1.99442 0.10328,-4.12579 0.33594,-6.17578 l 1.7207,-4.74024 c -0.56062,-1.11333 -1.21496,-2.18236 -1.95117,-3.20703 l -3.01953,-3.54492 c -9.12684,-8.7086 -21.49074,-14.24492 -33.9961,-16.09961 l -3.46875,-0.43164 c -4.50353,-0.46897 -9.20533,-0.63567 -13.76953,-0.62891 z m 54.14844,34.82813 c 0.3847,0 0.76595,0.004 1.14648,0.01 9.8e-4,-0.004 9.4e-4,-0.008 0.002,-0.0117 -0.17751,-0.001 -0.34893,-0.01 -0.52735,-0.01 -0.21004,0 -0.4123,0.01 -0.62109,0.0117 z"
         transform="scale(0.26458333)" />
      <path
         style="color:#000000;font-style:normal;font-variant:normal;font-weight:normal;font-stretch:normal;font-size:medium;line-height:normal;font-family:sans-serif;font-variant-ligatures:normal;font-variant-position:normal;font-variant-caps:normal;font-variant-numeric:normal;font-variant-alternates:normal;font-feature-settings:normal;text-indent:0;text-align:start;text-decoration:none;text-decoration-line:none;text-decoration-style:solid;text-decoration-color:#000000;letter-spacing:normal;word-spacing:normal;text-transform:none;writing-mode:lr-tb;direction:ltr;text-orientation:mixed;dominant-baseline:auto;baseline-shift:baseline;text-anchor:start;white-space:normal;shape-padding:0;clip-rule:nonzero;display:inline;overflow:visible;visibility:visible;isolation:auto;mix-blend-mode:normal;color-interpolation:sRGB;color-interpolation-filters:linearRGB;solid-color:#000000;solid-opacity:1;fill:#000000;fill-opacity:1;fill-rule:evenodd;stroke:none;stroke-width:1.41732;stroke-linecap:butt;stroke-linejoin:miter;stroke-miterlimit:4;stroke-dasharray:none;stroke-dashoffset:0;stroke-opacity:1;color-rendering:auto;image-rendering:auto;shape-rendering:auto;text-rendering:auto;enable-background:accumulate"
         d="M 412.71094,364.01758 C 403.5841,355.309 391.2202,349.77266 378.71484,347.91797 l -3.46875,-0.43164 c -4.50354,-0.46895 -9.20531,-0.63568 -13.76953,-0.62891 -14.38597,0.0219 -27.35937,1.82617 -27.35937,1.82617 l -11.20117,1.55664 11.17773,1.71875 c 0,0 25.41566,3.98059 34.7793,25.74219 2.65777,6.17687 6.31239,11.63823 10.51172,15.95899 0.95296,-0.65413 1.90012,-1.28909 2.83398,-1.88282 -4.07504,-4.07319 -7.71626,-9.35351 -10.31055,-15.38281 -6.50468,-15.1173 -19.91241,-22.18782 -28.76367,-25.35156 4.926,-0.43566 11.4477,-0.86674 18.33399,-0.87695 l 0.002,-0.002 c 19.24646,0.0706 44.85386,5.71463 54.48047,25.34571 l 1.72069,-4.74006 c -0.56065,-1.11335 -1.21496,-2.18237 -1.95117,-3.20703 z"
         transform="scale(0.26458333)"
         id="path41316"
         sodipodi:nodetypes="cccccccsccsccccccc" />
    </g>
    <g
       id="g49177"
       inkscape:label="leaf_top">
      <path
         style="color:#000000;font-style:normal;font-variant:normal;font-weight:normal;font-stretch:normal;font-size:medium;line-height:normal;font-family:sans-serif;font-variant-ligatures:normal;font-variant-position:normal;font-variant-caps:normal;font-variant-numeric:normal;font-variant-alternates:normal;font-feature-settings:normal;text-indent:0;text-align:start;text-decoration:none;text-decoration-line:none;text-decoration-style:solid;text-decoration-color:#000000;letter-spacing:normal;word-spacing:normal;text-transform:none;writing-mode:lr-tb;direction:ltr;text-orientation:mixed;dominant-baseline:auto;baseline-shift:baseline;text-anchor:start;white-space:normal;shape-padding:0;clip-rule:nonzero;display:inline;overflow:visible;visibility:visible;isolation:auto;mix-blend-mode:normal;color-interpolation:sRGB;color-interpolation-filters:linearRGB;solid-color:#000000;solid-opacity:1;fill:#37c871;fill-opacity:1;fill-rule:evenodd;stroke:none;stroke-width:1.41732;stroke-linecap:butt;stroke-linejoin:miter;stroke-miterlimit:4;stroke-dasharray:none;stroke-dashoffset:0;stroke-opacity:1;color-rendering:auto;image-rendering:auto;shape-rendering:auto;text-rendering:auto;enable-background:accumulate"
         d="m 417.33789,273.11523 -1.48828,3.0625 c 0,0 -11.2781,23.23501 -19.25391,50.79297 l 2.76758,1.52735 c 7.62093,4.59744 14.03887,12.09913 18.27149,20.36914 4.12399,-8.08186 10.38419,-15.39745 17.77343,-20.02149 l 2.75977,-1.5625 c -7.98105,-27.69082 -19.3418,-51.10156 -19.3418,-51.10156 z"
         transform="scale(0.26458333)"
         id="path45167"
         sodipodi:nodetypes="ccccccccc" />
      <path
         style="color:#000000;font-style:normal;font-variant:normal;font-weight:normal;font-stretch:normal;font-size:medium;line-height:normal;font-family:sans-serif;font-variant-ligatures:normal;font-variant-position:normal;font-variant-caps:normal;font-variant-numeric:normal;font-variant-alternates:normal;font-feature-settings:normal;text-indent:0;text-align:start;text-decoration:none;text-decoration-line:none;text-decoration-style:solid;text-decoration-color:#000000;letter-spacing:normal;word-spacing:normal;text-transform:none;writing-mode:lr-tb;direction:ltr;text-orientation:mixed;dominant-baseline:auto;baseline-shift:baseline;text-anchor:start;white-space:normal;shape-padding:0;clip-rule:nonzero;display:inline;overflow:visible;visibility:visible;isolation:auto;mix-blend-mode:normal;color-interpolation:sRGB;color-interpolation-filters:linearRGB;solid-color:#000000;solid-opacity:1;fill:#05140b;fill-opacity:1;fill-rule:evenodd;stroke:none;stroke-width:1.41732;stroke-linecap:butt;stroke-linejoin:miter;stroke-miterlimit:4;stroke-dasharray:none;stroke-dashoffset:0;stroke-opacity:1;color-rendering:auto;image-rendering:auto;shape-rendering:auto;text-rendering:auto;enable-background:accumulate"
         d="m 399.36328,328.49805 c 6.3956,-22.55783 14.8568,-41.75351 17.97461,-48.51172 3.12692,6.77669 11.66235,26.14083 18.07031,48.85937 l 2.97271,-1.68366 c -7.99,-28.00702 -19.55469,-51.82227 -19.55469,-51.82227 l -1.48833,-3.06633 -1.48828,3.0625 c 0,0 -11.47866,23.6423 -19.46484,51.51758 z"
         id="path41312"
         sodipodi:nodetypes="ccccccccc"
         transform="scale(0.26458333)" />
    </g>
    <g
       id="g49703"
       inkscape:label="leaf_top_left">
      <path
         style="color:#000000;font-style:normal;font-variant:normal;font-weight:normal;font-stretch:normal;font-size:medium;line-height:normal;font-family:sans-serif;font-variant-ligatures:normal;font-variant-position:normal;font-variant-caps:normal;font-variant-numeric:normal;font-variant-alternates:normal;font-feature-settings:normal;text-indent:0;text-align:start;text-decoration:none;text-decoration-line:none;text-decoration-style:solid;text-decoration-color:#000000;letter-spacing:normal;word-spacing:normal;text-transform:none;writing-mode:lr-tb;direction:ltr;text-orientation:mixed;dominant-baseline:auto;baseline-shift:baseline;text-anchor:start;white-space:normal;shape-padding:0;clip-rule:nonzero;display:inline;overflow:visible;visibility:visible;isolation:auto;mix-blend-mode:normal;color-interpolation:sRGB;color-interpolation-filters:linearRGB;solid-color:#000000;solid-opacity:1;fill:#37c871;fill-opacity:1;fill-rule:evenodd;stroke:none;stroke-width:1.41732;stroke-linecap:butt;stroke-linejoin:miter;stroke-miterlimit:4;stroke-dasharray:none;stroke-dashoffset:0;stroke-opacity:1;color-rendering:auto;image-rendering:auto;shape-rendering:auto;text-rendering:auto;enable-background:accumulate"
         d="m 343.63281,314.48828 6.63086,3.43164 c 0,0 20.03551,10.54314 24.98242,29.56641 l 3.46875,0.43164 c 12.50536,1.85469 24.86926,7.39103 33.9961,16.09961 0.51613,-3.71908 1.58714,-7.52104 3.11914,-11.23242 l 1.32226,-2.86914 c -4.23047,-7.90746 -10.44937,-15.03117 -17.78906,-19.45899 l -2.97851,-1.64453 C 374.96241,317.71305 351.0918,314.79883 351.0918,314.79883 Z"
         transform="scale(0.26458333)"
         id="path45573"
         sodipodi:nodetypes="ccccccccccc" />
      <path
         style="color:#000000;font-style:normal;font-variant:normal;font-weight:normal;font-stretch:normal;font-size:medium;line-height:normal;font-family:sans-serif;font-variant-ligatures:normal;font-variant-position:normal;font-variant-caps:normal;font-variant-numeric:normal;font-variant-alternates:normal;font-feature-settings:normal;text-indent:0;text-align:start;text-decoration:none;text-decoration-line:none;text-decoration-style:solid;text-decoration-color:#000000;letter-spacing:normal;word-spacing:normal;text-transform:none;writing-mode:lr-tb;direction:ltr;text-orientation:mixed;dominant-baseline:auto;baseline-shift:baseline;text-anchor:start;white-space:normal;shape-padding:0;clip-rule:nonzero;display:inline;overflow:visible;visibility:visible;isolation:auto;mix-blend-mode:normal;color-interpolation:sRGB;color-interpolation-filters:linearRGB;solid-color:#000000;solid-opacity:1;fill:#000000;fill-opacity:1;fill-rule:evenodd;stroke:none;stroke-width:1.41732;stroke-linecap:butt;stroke-linejoin:miter;stroke-miterlimit:4;stroke-dasharray:none;stroke-dashoffset:0;stroke-opacity:1;color-rendering:auto;image-rendering:auto;shape-rendering:auto;text-rendering:auto;enable-background:accumulate"
         d="M 396.38477,326.85352 C 374.96243,315.75407 351.0918,314.79883 351.0918,314.79883 l -7.45899,-0.31055 6.63086,3.43164 c 0,0 20.03548,10.54314 24.98242,29.56641 l 3.46875,0.43164 c -3.21109,-14.37938 -13.94576,-24.09737 -20.86718,-29.05469 22.4499,3.14842 46.39873,9.21244 57.98242,33.92188 l 1.80469,-3.91797 c -4.23262,-8.27001 -10.65056,-15.7717 -18.27149,-20.36914 z"
         transform="scale(0.26458333)"
         id="path41306"
         sodipodi:nodetypes="ccccccccccc" />
    </g>
    <g
       id="g40642"
       style="display:inline"
       inkscape:label="schrift">
      <path
         d="m 61.822606,131.85076 v -9.90124 h 1.346221 q 1.367934,0 2.171324,0.73102 0.810627,0.731 0.810627,2.01209 0,1.31003 -0.745488,2.06276 -0.745487,0.75272 -2.041044,0.75272 H 63.09645 v 4.34265 z m 1.273844,-5.52964 h 0.22437 q 1.556115,0 1.556115,-1.70087 0,-1.52717 -1.780485,-1.48374 z"
         style="font-size:96px;line-height:125%;font-family:'Gill Sans MT Condensed';-inkscape-font-specification:'Gill Sans MT Condensed, ';letter-spacing:2.29px;word-spacing:0px;fill:#000000;stroke-width:0.154405px"
         id="path8530" />
      <path
         d="m 67.64793,131.85076 v -9.90124 h 1.273843 v 9.90124 z"
         style="font-size:96px;line-height:125%;font-family:'Gill Sans MT Condensed';-inkscape-font-specification:'Gill Sans MT Condensed, ';letter-spacing:2.29px;word-spacing:0px;fill:#000000;stroke-width:0.154405px"
         id="path8532" />
      <path
         d="m 70.983469,131.85076 v -9.90124 h 1.034998 l 2.193037,6.10866 h 0.02895 v -6.10866 h 1.172515 v 9.90124 h -1.034998 l -2.193036,-6.16656 h -0.02895 v 6.16656 z"
         style="font-size:96px;line-height:125%;font-family:'Gill Sans MT Condensed';-inkscape-font-specification:'Gill Sans MT Condensed, ';letter-spacing:2.29px;word-spacing:0px;fill:#000000;stroke-width:0.154405px"
         id="path8534" />
      <path
         d="m 77.503616,131.85076 v -9.90124 h 3.524782 v 1.18699 h -2.250939 v 2.96024 h 2.062758 v 1.18699 h -2.062758 v 3.38003 h 2.373981 v 1.18699 z"
         style="font-size:96px;line-height:125%;font-family:'Gill Sans MT Condensed';-inkscape-font-specification:'Gill Sans MT Condensed, ';letter-spacing:2.29px;word-spacing:0px;fill:#000000;stroke-width:0.154405px"
         id="path8536" />
      <path
         d="m 82.489361,131.85076 1.867338,-9.95914 h 1.324508 l 1.852863,9.95914 h -1.230417 l -0.354649,-2.19304 h -1.838388 l -0.390838,2.19304 z m 1.809436,-3.38003 h 1.425836 L 85.02981,124.3235 h -0.03619 z"
         style="font-size:96px;line-height:125%;font-family:'Gill Sans MT Condensed';-inkscape-font-specification:'Gill Sans MT Condensed, ';letter-spacing:2.29px;word-spacing:0px;fill:#000000;stroke-width:0.154405px"
         id="path8538" />
      <path
         d="m 88.908178,131.85076 v -9.90124 h 1.346221 q 1.367934,0 2.171323,0.73102 0.810628,0.731 0.810628,2.01209 0,1.31003 -0.745487,2.06276 -0.745488,0.75272 -2.041045,0.75272 h -0.267796 v 4.34265 z m 1.273844,-5.52964 h 0.22437 q 1.556115,0 1.556115,-1.70087 0,-1.52717 -1.780485,-1.48374 z"
         style="font-size:96px;line-height:125%;font-family:'Gill Sans MT Condensed';-inkscape-font-specification:'Gill Sans MT Condensed, ';letter-spacing:2.29px;word-spacing:0px;fill:#000000;stroke-width:0.154405px"
         id="path8540" />
      <path
         d="m 94.820356,131.85076 v -9.90124 h 1.346221 q 1.367933,0 2.171324,0.73102 0.810627,0.731 0.810627,2.01209 0,1.31003 -0.745488,2.06276 -0.745487,0.75272 -2.041045,0.75272 H 96.0942 v 4.34265 z m 1.273844,-5.52964 h 0.224369 q 1.556116,0 1.556116,-1.70087 0,-1.52717 -1.780485,-1.48374 z"
         style="font-size:96px;line-height:125%;font-family:'Gill Sans MT Condensed';-inkscape-font-specification:'Gill Sans MT Condensed, ';letter-spacing:2.29px;word-spacing:0px;fill:#000000;stroke-width:0.154405px"
         id="path8542" />
      <path
         d="m 100.6891,131.85076 v -9.90124 h 1.27385 v 8.71425 h 2.44636 v 1.18699 z"
         style="font-size:96px;line-height:125%;font-family:'Gill Sans MT Condensed';-inkscape-font-specification:'Gill Sans MT Condensed, ';letter-spacing:2.29px;word-spacing:0px;fill:#000000;stroke-width:0.154405px"
         id="path8544" />
      <path
         d="m 105.66761,131.85076 v -9.90124 h 3.52478 v 1.18699 h -2.25093 v 2.96024 h 2.06275 v 1.18699 h -2.06275 v 3.38003 h 2.37397 v 1.18699 z"
         style="font-size:96px;line-height:125%;font-family:'Gill Sans MT Condensed';-inkscape-font-specification:'Gill Sans MT Condensed, ';letter-spacing:2.29px;word-spacing:0px;fill:#000000;stroke-width:0.154405px"
         id="path8546" />
      <path
         d="m 112.81744,131.98104 -2.12066,-10.03152 h 1.33898 l 1.17252,6.65149 h 0.0289 l 1.33175,-6.65149 h 0.91919 l 1.25937,6.80348 h 0.029 l 1.24489,-6.80348 h 1.33899 l -2.12067,10.03152 h -0.87576 l -1.33898,-6.62254 h -0.029 l -1.30279,6.62254 z"
         style="font-size:96px;line-height:125%;font-family:'Gill Sans MT Condensed';-inkscape-font-specification:'Gill Sans MT Condensed, ';letter-spacing:2.29px;word-spacing:0px;fill:#000000;stroke-width:0.154405px"
         id="path8548" />
      <path
         d="m 119.66329,131.85076 1.86734,-9.95914 h 1.3245 l 1.85287,9.95914 h -1.23042 l -0.35465,-2.19304 h -1.83839 l -0.39084,2.19304 z m 1.80943,-3.38003 h 1.42584 l -0.69482,-4.14723 h -0.0362 z"
         style="font-size:96px;line-height:125%;font-family:'Gill Sans MT Condensed';-inkscape-font-specification:'Gill Sans MT Condensed, ';letter-spacing:2.29px;word-spacing:0px;fill:#000000;stroke-width:0.154405px"
         id="path8550" />
      <path
         d="m 126.05316,131.85076 v -9.90124 h 1.27384 v 9.90124 z m 3.08328,0 -1.76602,-5.023 1.39689,-4.87824 h 1.3028 l -1.55612,4.71178 1.93971,5.18946 z"
         style="font-size:96px;line-height:125%;font-family:'Gill Sans MT Condensed';-inkscape-font-specification:'Gill Sans MT Condensed, ';letter-spacing:2.29px;word-spacing:0px;fill:#000000;stroke-width:0.154405px"
         id="path8552" />
      <path
         d="m 131.62516,131.85076 v -9.90124 h 3.52478 v 1.18699 H 132.899 v 2.96024 h 2.06276 v 1.18699 H 132.899 v 3.38003 h 2.37398 v 1.18699 z"
         style="font-size:96px;line-height:125%;font-family:'Gill Sans MT Condensed';-inkscape-font-specification:'Gill Sans MT Condensed, ';letter-spacing:2.29px;word-spacing:0px;fill:#000000;stroke-width:0.154405px"
         id="path8554" />
      <path
         style="color:#000000;font-size:96px;line-height:125%;font-family:'Gill Sans MT Condensed';-inkscape-font-specification:'Gill Sans MT Condensed,  Condensed';letter-spacing:0px;word-spacing:0px;fill:#000000;stroke-width:0.154405px;-inkscape-stroke:none"
         d="m 137.20553,121.72633 v 10.34756 h 0.22317 1.497 v -4.34265 h 0.0446 c 0.90693,0 1.65718,-0.27101 2.19967,-0.81877 0.54255,-0.54781 0.81002,-1.30418 0.81002,-2.21987 0,-0.90073 -0.29557,-1.64634 -0.88361,-2.17706 -0.58224,-0.52978 -1.36979,-0.78921 -2.3215,-0.78921 z m 0.44633,0.44632 h 1.12305 c 0.8722,0 1.5322,0.22822 2.02115,0.67311 l 3.1e-4,3.1e-4 5.8e-4,3.1e-4 c 0.49226,0.44391 0.73674,1.03926 0.73674,1.84623 0,0.83101 -0.22952,1.44983 -0.68095,1.90564 -0.4515,0.45588 -1.06194,0.68668 -1.88242,0.68668 h -0.49092 v 4.34265 h -0.82752 z m 1.04525,0.74067 -0.21773,0.005 v 3.62551 h 0.22316 0.22437 c 0.55937,0 1.02236,-0.15944 1.33174,-0.4976 0.30939,-0.33816 0.44754,-0.82544 0.44754,-1.42644 0,-0.55243 -0.17072,-1.01059 -0.52534,-1.30611 -0.35462,-0.29551 -0.85836,-0.41604 -1.48374,-0.40079 z m 0.22859,0.46743 c 0.43139,0.0201 0.76677,0.1078 0.96926,0.27655 0.23888,0.19907 0.3649,0.49724 0.3649,0.96292 0,0.53292 -0.1212,0.89607 -0.33052,1.12486 -0.20933,0.2288 -0.52439,0.35285 -1.00243,0.35285 h -0.001 z"
         id="path8556" />
      <path
         style="color:#000000;font-size:96px;line-height:125%;font-family:'Gill Sans MT Condensed';-inkscape-font-specification:'Gill Sans MT Condensed,  Condensed';letter-spacing:0px;word-spacing:0px;fill:#000000;stroke-width:0.154405px;-inkscape-stroke:none"
         d="m 143.83591,121.66842 -1.95087,10.40547 h 0.269 1.41739 l 0.39084,-2.19304 h 1.46142 l 0.35465,2.19304 h 1.68881 l -1.9358,-10.40547 z m 0.37063,0.44633 h 0.95388 l 1.76962,9.51281 h -0.77172 l -0.35465,-2.19303 h -2.21535 l -0.39084,2.19303 h -0.77474 z m 0.26267,1.98556 -0.76961,4.59356 h 0.26387 1.68942 l -0.76962,-4.59356 z m 0.20718,1.46594 0.44934,2.68128 h -0.89868 z"
         id="path8558" />
      <path
         style="color:#000000;font-size:96px;line-height:125%;font-family:'Gill Sans MT Condensed';-inkscape-font-specification:'Gill Sans MT Condensed,  Condensed';letter-spacing:0px;word-spacing:0px;fill:#000000;stroke-width:0.154405px;-inkscape-stroke:none"
         d="m 148.30612,121.72633 v 10.34756 h 0.22317 1.497 v -4.39361 c 0.11682,0.0389 0.2257,0.11539 0.33957,0.29976 l 5.9e-4,5.8e-4 3.1e-4,5.9e-4 c 0.16096,0.25677 0.41484,1.02217 0.68818,2.21143 l 0.42251,1.88121 h 1.78923 l -0.5172,-2.30613 v -5.8e-4 c -0.33523,-1.46715 -0.72351,-2.42675 -1.25182,-2.94214 0.60489,-0.51158 0.93155,-1.23535 0.93155,-2.13242 0,-0.86923 -0.23981,-1.59548 -0.7289,-2.13816 l -5.8e-4,-5.8e-4 c -0.49071,-0.55429 -1.21364,-0.82751 -2.10649,-0.82751 z m 0.44633,0.44632 h 0.84078 c 0.80527,0 1.37554,0.22873 1.77265,0.67764 l 5.8e-4,5.8e-4 0.001,0.001 c 0.40732,0.45112 0.61551,1.0511 0.61551,1.8408 0,0.88672 -0.30305,1.50344 -0.93126,1.937 l -0.26267,0.18124 0.26026,0.18457 c 0.42708,0.30283 0.89786,1.26404 1.2651,2.87127 l 0.39475,1.76088 h -0.87426 l -0.34469,-1.5344 v -5.8e-4 c -0.27664,-1.2036 -0.50064,-1.95782 -0.74489,-2.34775 -0.23027,-0.37232 -0.5826,-0.58865 -0.96714,-0.54524 l -0.19814,0.0223 v 4.40568 h -0.82751 z m 0.82751,0.73916 v 3.54559 h 0.22317 0.0579 c 0.4091,0 0.76546,-0.16077 0.98494,-0.46774 0.21947,-0.30697 0.30941,-0.72763 0.30941,-1.25364 0,-0.55715 -0.0946,-1.0012 -0.32299,-1.3248 -0.22842,-0.32361 -0.59893,-0.49515 -1.02776,-0.4979 z m 0.44633,0.49126 c 0.18493,0.041 0.33493,0.11513 0.4412,0.26569 0.14794,0.20957 0.24156,0.56288 0.24156,1.06726 0,0.47281 -0.0886,0.80156 -0.22618,0.99398 -0.10716,0.14988 -0.25913,0.21978 -0.45658,0.25091 z"
         id="path8560" />
      <path
         id="path8562"
         style="color:#000000;font-size:96px;line-height:125%;font-family:'Gill Sans MT Condensed';-inkscape-font-specification:'Gill Sans MT Condensed,  Condensed';letter-spacing:0px;word-spacing:0px;fill:#000000;stroke-width:0.154405px;-inkscape-stroke:none"
         d="m 154.08829,121.72626 v 10.34757 h 0.22316 1.497 v -4.06158 l 1.42795,4.06158 h 0.15833 1.63904 l -2.02506,-5.41716 1.6285,-4.93041 h -1.77989 l -1.04887,3.66261 v -3.66261 z m 0.44632,0.44633 h 0.82752 v 4.28475 h 0.60465 l 1.2271,-4.28475 h 0.82571 l -1.48404,4.49313 1.85467,4.96178 h -0.83747 l -1.54677,-4.39874 h -0.64385 v 4.39874 h -0.82752 z" />
      <path
         style="display:inline;fill:#ffe680;fill-opacity:1;fill-rule:evenodd;stroke:none;stroke-width:0.875368;stroke-linecap:butt;stroke-linejoin:miter;stroke-miterlimit:7.5;stroke-dasharray:none;stroke-opacity:1"
         d="m 110.1432,101.37578 c -4.2838,-2e-5 -7.56594,1.26815 -11.922376,4.79742 -4.356439,3.52926 -5.73501,11.9664 -5.73501,11.9664 h 35.314776 c 0,0 -1.37888,-8.43714 -5.73531,-11.9664 -4.35644,-3.52927 -7.63838,-4.79741 -11.92208,-4.79742 z"
         id="path900"
         inkscape:connector-curvature="0"
         sodipodi:nodetypes="ssccss" />
      <path
         style="color:#000000;font-style:normal;font-variant:normal;font-weight:normal;font-stretch:normal;font-size:medium;line-height:normal;font-family:sans-serif;font-variant-ligatures:normal;font-variant-position:normal;font-variant-caps:normal;font-variant-numeric:normal;font-variant-alternates:normal;font-feature-settings:normal;text-indent:0;text-align:start;text-decoration:none;text-decoration-line:none;text-decoration-style:solid;text-decoration-color:#000000;letter-spacing:normal;word-spacing:normal;text-transform:none;writing-mode:lr-tb;direction:ltr;text-orientation:mixed;dominant-baseline:auto;baseline-shift:baseline;text-anchor:start;white-space:normal;shape-padding:0;clip-rule:nonzero;display:inline;overflow:visible;visibility:visible;isolation:auto;mix-blend-mode:normal;color-interpolation:sRGB;color-interpolation-filters:linearRGB;solid-color:#000000;solid-opacity:1;vector-effect:none;fill:#000000;fill-opacity:1;fill-rule:evenodd;stroke:none;stroke-width:0.875368;stroke-linecap:butt;stroke-linejoin:miter;stroke-miterlimit:7.5;stroke-dasharray:none;stroke-dashoffset:0;stroke-opacity:1;color-rendering:auto;image-rendering:auto;shape-rendering:auto;text-rendering:auto;enable-background:accumulate"
         d="m 110.13202,100.98453 c -4.37018,-2e-5 -7.79803,1.32965 -12.198158,4.89431 -2.293226,1.85781 -3.736673,4.91524 -4.638997,7.50332 -0.597386,1.70461 -1.043573,3.45917 -1.335847,5.24081 H 128.3039 c -0.39589,-2.00887 -0.81157,-3.713 -1.33585,-5.24081 -0.9024,-2.58807 -2.34578,-5.64552 -4.63899,-7.50332 -4.40014,-3.56466 -7.82695,-4.89429 -12.19704,-4.89431 z m 0,0.87537 c 4.19733,1e-5 7.33376,1.20554 11.64651,4.6994 2.06321,1.67147 3.48701,4.59842 4.36316,7.11123 0.71129,2.03998 1.00086,3.49057 1.11017,4.07707 H 93.011053 c 0.109293,-0.5865 0.398946,-2.0371 1.110171,-4.07707 0.876075,-2.51281 2.299949,-5.43977 4.363162,-7.11123 4.312734,-3.49386 7.450224,-4.69942 11.647634,-4.6994 z"
         id="path4878"
         inkscape:connector-curvature="0"
         sodipodi:nodetypes="sscccccsscsccccs" />
      <path
         sodipodi:nodetypes="ccccccccccccscccccccccccccccccccccccccccc"
         inkscape:connector-curvature="0"
         id="path4880"
         d="m 118.99525,104.46964 c -1.29424,1.10438 -4.72831,3.20017 -8.87821,5.36641 -2.96124,-1.66251 -6.20563,-3.57441 -8.52033,-5.52361 -0.2519,0.15639 -0.50621,0.32074 -0.76389,0.49458 2.7085,2.12278 5.53156,4.01732 8.32914,5.51607 -2.06303,1.02785 -4.36157,2.01555 -6.8258,2.8381 -2.09131,-1.27815 -4.221652,-2.60997 -6.009434,-4.1228 -0.160741,0.24615 -0.316819,0.49714 -0.465024,0.75393 1.764228,1.41241 3.752464,2.76583 5.355928,3.72895 -2.39234,0.73299 -4.923415,1.29758 -7.530874,1.58235 -0.0087,-0.008 -0.01407,-0.0136 -0.02264,-0.0214 -0.102027,0.34187 -0.186133,0.64989 -0.261764,0.9382 0.200716,0.17293 0.426806,0.36122 0.686983,0.56816 0.43647,0.34716 0.958079,0.73906 1.553096,1.15894 h 1.553702 c -1.035794,-0.68419 -1.902572,-1.3195 -2.562162,-1.84412 -0.01225,-0.01 -0.02229,-0.0181 -0.03437,-0.0277 2.661102,-0.3495 5.226637,-0.9764 7.640649,-1.76088 1.95265,1.10673 4.21626,2.22581 6.72628,3.19697 -0.46447,0.15201 -0.93645,0.29705 -1.41407,0.43578 h 5.43584 c -0.47753,-0.13872 -0.94936,-0.28379 -1.41377,-0.43578 2.4609,-0.95215 4.68369,-2.04634 6.61017,-3.13183 2.42854,0.77787 5.01024,1.39094 7.68378,1.725 -0.65935,0.52433 -1.52494,1.15906 -2.55945,1.84261 h 1.55279 c 0.59506,-0.41982 1.11698,-0.81183 1.55341,-1.15895 0.18033,-0.14343 0.33912,-0.27491 0.48945,-0.40139 -0.0828,-0.3236 -0.18076,-0.68293 -0.29885,-1.07994 -2.55447,-0.27474 -5.03663,-0.81624 -7.38704,-1.52475 1.82984,-1.14177 3.68965,-2.33958 5.26999,-3.63304 -0.14522,-0.25769 -0.29683,-0.51092 -0.45446,-0.75876 -1.98692,1.55218 -4.15373,3.00428 -5.9425,4.03685 -2.53826,-0.83522 -4.90118,-1.84979 -7.01881,-2.90444 4.14549,-2.21753 7.46489,-4.26859 8.68702,-5.35917 -0.25794,-0.17374 -0.51262,-0.33803 -0.76479,-0.49428 z m -8.8776,6.35316 c 2.08199,1.06608 4.41858,2.10504 6.93979,2.98074 -1.99183,1.0816 -4.27737,2.15288 -6.7869,3.05915 -2.5613,-0.92497 -4.89099,-2.02151 -6.91144,-3.1258 2.45086,-0.86206 4.72757,-1.87444 6.75855,-2.91409 z"
         style="color:#000000;font-style:normal;font-variant:normal;font-weight:normal;font-stretch:normal;font-size:medium;line-height:normal;font-family:sans-serif;font-variant-ligatures:normal;font-variant-position:normal;font-variant-caps:normal;font-variant-numeric:normal;font-variant-alternates:normal;font-feature-settings:normal;text-indent:0;text-align:start;text-decoration:none;text-decoration-line:none;text-decoration-style:solid;text-decoration-color:#000000;letter-spacing:normal;word-spacing:normal;text-transform:none;writing-mode:lr-tb;direction:ltr;text-orientation:mixed;dominant-baseline:auto;baseline-shift:baseline;text-anchor:start;white-space:normal;shape-padding:0;clip-rule:nonzero;display:inline;overflow:visible;visibility:visible;isolation:auto;mix-blend-mode:normal;color-interpolation:sRGB;color-interpolation-filters:linearRGB;solid-color:#000000;solid-opacity:1;vector-effect:none;fill:#000000;fill-opacity:1;fill-rule:evenodd;stroke:none;stroke-width:0.875368;stroke-linecap:butt;stroke-linejoin:miter;stroke-miterlimit:7.5;stroke-dasharray:none;stroke-dashoffset:0;stroke-opacity:1;color-rendering:auto;image-rendering:auto;shape-rendering:auto;text-rendering:auto;enable-background:accumulate" />
      <path
         style="color:#000000;font-style:normal;font-variant:normal;font-weight:normal;font-stretch:normal;font-size:medium;line-height:normal;font-family:sans-serif;font-variant-ligatures:normal;font-variant-position:normal;font-variant-caps:normal;font-variant-numeric:normal;font-variant-alternates:normal;font-feature-settings:normal;text-indent:0;text-align:start;text-decoration:none;text-decoration-line:none;text-decoration-style:solid;text-decoration-color:#000000;letter-spacing:normal;word-spacing:normal;text-transform:none;writing-mode:lr-tb;direction:ltr;text-orientation:mixed;dominant-baseline:auto;baseline-shift:baseline;text-anchor:start;white-space:normal;shape-padding:0;clip-rule:nonzero;display:inline;overflow:visible;visibility:visible;isolation:auto;mix-blend-mode:normal;color-interpolation:sRGB;color-interpolation-filters:linearRGB;solid-color:#000000;solid-opacity:1;vector-effect:none;fill:#000000;fill-opacity:1;fill-rule:evenodd;stroke:none;stroke-width:0.875368;stroke-linecap:round;stroke-linejoin:miter;stroke-miterlimit:4;stroke-dasharray:none;stroke-dashoffset:0;stroke-opacity:1;color-rendering:auto;image-rendering:auto;shape-rendering:auto;text-rendering:auto;enable-background:accumulate"
         d="m 62.339089,117.90819 c -0.591889,-0.008 -0.591889,0.88373 0,0.87536 h 96.178201 c 0.59189,0.008 0.59189,-0.88373 0,-0.87536 z"
         id="path4882"
         inkscape:connector-curvature="0"
         sodipodi:nodetypes="ccccc" />
      <path
         style="color:#000000;font-style:normal;font-variant:normal;font-weight:normal;font-stretch:normal;font-size:medium;line-height:normal;font-family:sans-serif;font-variant-ligatures:normal;font-variant-position:normal;font-variant-caps:normal;font-variant-numeric:normal;font-variant-alternates:normal;font-feature-settings:normal;text-indent:0;text-align:start;text-decoration:none;text-decoration-line:none;text-decoration-style:solid;text-decoration-color:#000000;letter-spacing:normal;word-spacing:normal;text-transform:none;writing-mode:lr-tb;direction:ltr;text-orientation:mixed;dominant-baseline:auto;baseline-shift:baseline;text-anchor:start;white-space:normal;shape-padding:0;clip-rule:nonzero;display:inline;overflow:visible;visibility:visible;isolation:auto;mix-blend-mode:normal;color-interpolation:sRGB;color-interpolation-filters:linearRGB;solid-color:#000000;solid-opacity:1;vector-effect:none;fill:#000000;fill-opacity:1;fill-rule:evenodd;stroke:none;stroke-width:0.875368;stroke-linecap:butt;stroke-linejoin:miter;stroke-miterlimit:7.5;stroke-dasharray:none;stroke-dashoffset:0;stroke-opacity:1;color-rendering:auto;image-rendering:auto;shape-rendering:auto;text-rendering:auto;enable-background:accumulate"
         d="m 110.13202,100.98453 c -4.37018,-2e-5 -7.79803,1.32965 -12.198158,4.89431 -2.293226,1.85781 -3.736673,4.91524 -4.638997,7.50332 -0.597386,1.70461 -1.043573,3.45917 -1.335847,5.24081 H 128.3039 c -0.39589,-2.00887 -0.81157,-3.713 -1.33585,-5.24081 -0.9024,-2.58807 -2.34578,-5.64552 -4.63899,-7.50332 -4.40014,-3.56466 -7.82695,-4.89429 -12.19704,-4.89431 z m 0,0.87537 c 4.19733,1e-5 7.33376,1.20554 11.64651,4.6994 2.06321,1.67147 3.48701,4.59842 4.36316,7.11123 0.71129,2.03998 1.00086,3.49057 1.11017,4.07707 H 93.011053 c 0.109293,-0.5865 0.398946,-2.0371 1.110171,-4.07707 0.876075,-2.51281 2.299949,-5.43977 4.363162,-7.11123 4.312734,-3.49386 7.450224,-4.69942 11.647634,-4.6994 z"
         id="path49852"
         inkscape:connector-curvature="0"
         sodipodi:nodetypes="sscccccsscsccccs" />
    </g>
  </g>
</svg>
