<?xml version="1.0" encoding="UTF-8" standalone="no"?>
<!-- Created with Inkscape (http://www.inkscape.org/) -->

<svg
   width="131.70767mm"
   height="122.36582mm"
   viewBox="0 0 131.70767 122.36582"
   version="1.1"
   id="svg237"
   inkscape:version="1.1.1 (3bf5ae0d25, 2021-09-20)"
   sodipodi:docname="pineapplewake-logo-neg-2.svg.2022_10_26_13_52_10.0.svg"
   xmlns:inkscape="http://www.inkscape.org/namespaces/inkscape"
   xmlns:sodipodi="http://sodipodi.sourceforge.net/DTD/sodipodi-0.dtd"
   xmlns="http://www.w3.org/2000/svg"
   xmlns:svg="http://www.w3.org/2000/svg">
  <sodipodi:namedview
     id="namedview239"
     pagecolor="#ffffff"
     bordercolor="#999999"
     borderopacity="1"
     inkscape:pageshadow="0"
     inkscape:pageopacity="0"
     inkscape:pagecheckerboard="0"
     inkscape:document-units="mm"
     showgrid="false"
     fit-margin-top="0"
     fit-margin-left="0"
     fit-margin-right="0"
     fit-margin-bottom="0"
     inkscape:zoom="0.66368547"
     inkscape:cx="730.01448"
     inkscape:cy="336.7559"
     inkscape:window-width="1920"
     inkscape:window-height="1002"
     inkscape:window-x="1912"
     inkscape:window-y="-8"
     inkscape:window-maximized="1"
     inkscape:current-layer="layer1" />
  <defs
     id="defs234" />
  <g
     inkscape:label="Ebene 1"
     inkscape:groupmode="layer"
     id="layer1"
     transform="translate(100.53706,-58.825962)">
    <g
       id="g2064"
       style="fill:#ffffff;fill-opacity:1"
       transform="matrix(0.95975292,0,0,0.95165516,245.66972,-241.15791)"
       inkscape:export-filename="D:\WORKSPACE\Visual Studio\portfolio3\img\pineapplewake\pineapplewake-logo-variationen-2.png"
       inkscape:export-xdpi="100"
       inkscape:export-ydpi="100">
      <g
         id="g2106"
         style="fill:#ffffff">
        <path
           id="path1730"
           d="m -292.10724,397.1714 c -8.73856,-5e-5 -15.93651,1.95265 -24.00178,7.00714 0.82572,0.76476 2.18274,1.90057 3.99577,3.2748 3.66451,2.77753 9.18373,6.535 16.04606,10.36676 1.25795,0.70239 2.5755,1.40666 3.92078,2.10843 12.38334,-6.46406 21.25798,-13.24232 23.98955,-15.7818 -8.04477,-5.03113 -15.23022,-6.97529 -23.95038,-6.97533 z m 25.98217,8.29993 c -0.0553,0.0549 -0.0903,0.0981 -0.15084,0.15658 -2.72353,2.62685 -11.15478,9.12915 -23.28485,15.61783 5.7274,2.85242 12.11816,5.59646 18.98319,7.85543 6.46499,-3.7062 11.59119,-7.33577 14.96206,-10.01686 0.77486,-0.61633 1.44553,-1.17596 2.0285,-1.68022 -1.77863,-2.76941 -3.85428,-5.29603 -6.27551,-7.25755 -2.17518,-1.76215 -4.25006,-3.31303 -6.26247,-4.67523 z m -52.01574,0.0351 c -1.99684,1.3541 -4.05472,2.89258 -6.21191,4.64017 -2.29778,1.86151 -4.28502,4.23156 -6.00226,6.83505 0.6779,0.60318 1.50484,1.30476 2.50806,2.10271 3.31613,2.63755 8.33826,6.19325 14.65543,9.83659 6.66524,-2.22481 12.88275,-4.89501 18.46276,-7.67514 -0.84724,-0.45362 -1.68078,-0.90767 -2.49178,-1.36049 -6.96577,-3.88948 -12.56249,-7.69788 -16.31928,-10.54539 -1.87839,-1.42375 -3.29429,-2.60381 -4.21115,-3.45585 -0.15023,-0.1395 -0.26623,-0.256 -0.38987,-0.37765 z m -13.48333,13.51839 c -2.73543,4.69125 -4.66039,9.86624 -5.96555,14.17661 0.0774,0.0836 0.15161,0.16534 0.25692,0.26998 0.20175,0.20072 0.46158,0.44286 0.74875,0.70388 7.05206,-0.77017 13.89702,-2.29802 20.36728,-4.28045 -5.56276,-3.32182 -10.02248,-6.50716 -13.10403,-8.95816 -0.88333,-0.70258 -1.65043,-1.34167 -2.30337,-1.91186 z m 79.28088,0.42904 c -0.53986,0.45992 -1.12602,0.94732 -1.79931,1.48282 -3.1327,2.49168 -7.69377,5.74313 -13.38626,9.12455 6.50958,1.96216 13.39154,3.45602 20.47581,4.18096 0.22272,-0.20124 0.39773,-0.369 0.57749,-0.53995 -1.26708,-4.27613 -3.15676,-9.48576 -5.86773,-14.24838 z m -39.80153,3.14264 c -5.49295,2.81185 -11.65069,5.54998 -18.27928,7.88152 5.46455,2.98671 11.76545,5.95155 18.69284,8.45328 6.78696,-2.45106 12.96903,-5.34701 18.35592,-8.27222 -6.8189,-2.36843 -13.13846,-5.17922 -18.76948,-8.06258 z m -21.30446,8.90433 c -6.52942,2.12189 -13.46882,3.8164 -20.66666,4.7617 0.033,0.0264 0.0603,0.0492 0.0938,0.0759 2.16003,1.71799 5.13564,3.87166 8.76324,6.17276 h 21.77022 c 2.81816,-0.69808 5.56658,-1.49186 8.23058,-2.36372 -6.78833,-2.62651 -12.91016,-5.65346 -18.19117,-8.64659 z m 43.12201,0.17618 c -5.21044,2.93585 -11.22219,5.89522 -17.87801,8.4704 2.66329,0.87163 5.4108,1.66569 8.22815,2.36373 h 21.67642 c 3.62417,-2.29967 6.59624,-4.45205 8.75589,-6.16949 -7.23145,-0.9035 -14.21375,-2.5606 -20.78245,-4.66464 z m -67.04712,4.95907 c -0.40412,0.0399 -0.80995,0.0725 -1.21531,0.10764 -0.89235,3.452 -1.27404,5.76738 -1.27404,5.76738 h 10.28604 c -2.34113,-1.58705 -4.33503,-3.06179 -5.91745,-4.32045 -0.71211,-0.5664 -1.33155,-1.08229 -1.87924,-1.55462 z m 91.11414,0.0628 c -0.53119,0.45635 -1.12386,0.94942 -1.80583,1.49182 -1.58243,1.25863 -3.57755,2.73346 -5.91909,4.32044 h 9.63433 c 0,0 -0.38068,-2.31114 -1.27156,-5.75842 -0.21256,-0.0182 -0.4256,-0.0343 -0.63785,-0.0538 z m -45.47101,4.75274 c -1.03115,0.36457 -2.07784,0.71695 -3.13536,1.05952 h 6.27229 c -1.0581,-0.34278 -2.10527,-0.69474 -3.13693,-1.05952 z"
           style="fill:#ffffff;fill-opacity:1;fill-rule:evenodd;stroke:none;stroke-width:2.36753;stroke-linecap:butt;stroke-linejoin:miter;stroke-miterlimit:7.5;stroke-dasharray:none;stroke-opacity:1"
           inkscape:connector-curvature="0" />
        <path
           inkscape:connector-curvature="0"
           id="path1732"
           d="m -292.36338,320.9169 c -2.2311,4.83615 -8.286,18.5729 -12.86262,34.71519 5.4535,3.28991 10.04671,8.6583 13.07548,14.57629 2.95115,-5.78334 7.43056,-11.01856 12.71826,-14.3275 -4.58554,-16.25731 -10.69354,-30.1146 -12.93112,-34.96398 z m -42.57064,27.82061 c 4.95295,3.54742 12.63407,10.50159 14.93191,20.79141 8.62275,1.46412 18.22288,5.5091 24.32807,11.52092 0.36928,-2.66136 1.13607,-5.38146 2.23242,-8.03731 -8.28701,-16.93392 -21.56434,-21.56022 -41.4921,-24.27505 z m 85.61598,0 c -18.7591,3.57787 -40.12382,7.54421 -44.19537,34.84884 0.52682,0.73329 0.99436,1.4985 1.39556,2.29521 4.2e-4,-10e-4 8.4e-4,-0.003 10e-4,-0.003 v -8.3e-4 c 11.41591,-13.53001 20.30812,-14.31926 27.86812,-16.35005 2.29831,-10.2897 9.97913,-17.24249 14.93192,-20.78979 z m -83.01654,22.39904 -10e-4,8.4e-4 c -4.92779,0.008 -9.5945,0.3155 -13.11953,0.62721 6.33394,2.26399 15.92876,7.32357 20.58348,18.14147 2.06555,4.80057 5.05865,8.93771 8.37498,11.95887 7.77091,-4.94823 14.70919,-7.0198 22.94143,-7.23228 1.43682,-17.28301 -26.05823,-23.35735 -38.77789,-23.49543 z m 41.15533,23.48372 c 8.45292,0.13827 15.51236,2.18979 23.43736,7.23231 3.3106,-3.01995 6.29778,-7.15241 8.36031,-11.94586 4.73866,-11.01306 14.29372,-15.77972 20.61771,-17.9816 -22.65811,-6.29814 -54.24416,6.62735 -52.41538,22.69515 z"
           style="fill:#ffffff;fill-opacity:1;fill-rule:evenodd;stroke:none;stroke-width:2.36753;stroke-linecap:butt;stroke-linejoin:miter;stroke-miterlimit:4;stroke-dasharray:none;stroke-opacity:1"
           inkscape:export-xdpi="300"
           inkscape:export-ydpi="300"
           sodipodi:nodetypes="cccccccccccccccccccccccccccccscc" />
      </g>
    </g>
  </g>
</svg>
