<?xml version="1.0" encoding="UTF-8" standalone="no"?>
<!-- Created with Inkscape (http://www.inkscape.org/) -->

<svg
   width="441.85431mm"
   height="22.863295mm"
   viewBox="0 0 441.85432 22.863295"
   version="1.1"
   id="svg1"
   sodipodi:docname="separator-wave.svg"
   inkscape:version="1.4.2 (f4327f4, 2025-05-13)"
   xmlns:inkscape="http://www.inkscape.org/namespaces/inkscape"
   xmlns:sodipodi="http://sodipodi.sourceforge.net/DTD/sodipodi-0.dtd"
   xmlns="http://www.w3.org/2000/svg"
   xmlns:svg="http://www.w3.org/2000/svg">
  <sodipodi:namedview
     id="namedview1"
     pagecolor="#ffffff"
     bordercolor="#999999"
     borderopacity="1"
     inkscape:showpageshadow="0"
     inkscape:pageopacity="0"
     inkscape:pagecheckerboard="0"
     inkscape:deskcolor="#d1d1d1"
     inkscape:document-units="mm"
     inkscape:zoom="1.4128928"
     inkscape:cx="645.13032"
     inkscape:cy="18.048078"
     inkscape:window-width="1920"
     inkscape:window-height="1002"
     inkscape:window-x="-8"
     inkscape:window-y="-8"
     inkscape:window-maximized="1"
     inkscape:current-layer="layer1"
     showguides="false">
    <sodipodi:guide
       position="293.58422,274.90349"
       orientation="0,-1"
       id="guide4"
       inkscape:locked="false" />
    <sodipodi:guide
       position="293.6085,277.28204"
       orientation="0,-1"
       id="guide5"
       inkscape:locked="false" />
    <sodipodi:guide
       position="441.8519,7.7156315"
       orientation="0,-1"
       id="guide6"
       inkscape:locked="false" />
    <sodipodi:guide
       position="441.8519,9.0550815"
       orientation="0,-1"
       id="guide7"
       inkscape:locked="false" />
    <sodipodi:guide
       position="132.30833,3.0951314"
       orientation="0,-1"
       id="guide2"
       inkscape:locked="false" />
  </sodipodi:namedview>
  <defs
     id="defs1">
    <filter
       inkscape:collect="always"
       style="color-interpolation-filters:sRGB"
       id="filter7"
       x="-5.4317128e-06"
       y="-0.099567425"
       width="1.0000109"
       height="1.1991348">
      <feGaussianBlur
         inkscape:collect="always"
         stdDeviation="0.001 0.791"
         id="feGaussianBlur7" />
    </filter>
  </defs>
  <g
     inkscape:label="Ebene 1"
     inkscape:groupmode="layer"
     id="layer1"
     transform="translate(231.85205,-99.898003)">
    <path
       id="path1"
       style="fill:#cdb6d1;fill-opacity:1;stroke-width:0.403109;paint-order:markers fill stroke;filter:url(#filter7)"
       d="m -265.76795,101.8005 c 0.57825,-0.0183 1.13191,0.0253 1.65468,0.11885 1.12358,0.20095 2.11087,0.6257 2.95124,1.12913 0.18144,0.10868 0.36016,0.22281 0.53278,0.34158 0.93489,0.64323 1.63951,1.35177 2.11357,1.89084 0.27029,0.30735 0.52037,0.57128 0.69505,1.1188 0.0873,0.27375 0.20321,0.79275 -0.18759,1.32653 -0.39079,0.53377 -0.99464,0.59482 -1.32602,0.56999 -0.49585,-0.0371 -1.07791,-0.0858 -1.5782,-0.0858 h -0.002 c -0.25949,0 -0.48889,0.0247 -0.69092,0.0625 -0.12981,0.0244 -0.25571,0.0561 -0.36948,0.0956 -0.2532,0.088 -0.4433,0.20475 -0.60152,0.34572 -0.15076,0.13458 -0.27294,0.29013 -0.37517,0.48834 -0.0974,0.18878 -0.17451,0.41892 -0.22634,0.68575 -0.0508,0.26148 -0.0746,0.54776 -0.0682,0.83767 0.013,0.59305 0.1479,1.19887 0.31626,1.63659 0.004,0.009 0.008,0.0183 0.0119,0.0274 0.14005,0.39155 1.77808,5.29839 10.28051,5.29839 5.65219,-0.005 10.60115,-3.98219 23.30866,-3.98219 8.95414,0 17.58977,4.72839 25.95707,4.72839 8.36732,0 17.00294,-4.72839 25.95707,-4.72839 8.95414,0 17.58975,4.72839 25.95707,4.72839 8.36731,0 17.00293,-4.72839 25.95707,-4.72839 8.95413,0 17.58924,4.72839 25.95656,4.72839 8.366023,0 17.002435,-4.74246 25.959139,-4.72839 8.879452,0.0143 17.037765,4.87981 25.957588,4.87981 8.919823,0 17.078137,-4.86551 25.957589,-4.87981 8.956704,-0.0141 17.5925993,4.72839 25.9586223,4.72839 8.3673127,0 17.0029367,-4.72839 25.9570717,-4.72839 8.954135,0 17.58976,4.72839 25.957072,4.72839 8.367312,0 17.002937,-4.72839 25.957072,-4.72839 8.954136,0 17.589755,4.72839 25.957076,4.72839 8.3673,0 17.00293,-4.72839 25.95707,-4.72839 0.87625,0 1.71553,0.0269 2.52077,0.0765 v 7.08019 H -47.627263 -305.25443 v -7.15667 c 2.29443,0.0243 7.44606,1.56635 11.24117,1.96009 4.95422,0.514 9.82007,-0.0913 13.94644,-3.53002 1.05009,-0.87509 2.03715,-1.98461 3.0763,-3.13314 1.04104,-1.1506 2.04047,-2.25622 3.20704,-3.31608 0.0969,-0.088 0.19074,-0.17002 0.27957,-0.24805 1.37462,-1.20777 2.89992,-2.23683 4.68136,-2.96674 l 0.002,-0.002 c 0.85469,-0.34808 1.68165,-0.54717 2.46497,-0.6289 0.19258,-0.0201 0.3888,-0.0345 0.58756,-0.0408 z"
       transform="matrix(-1,0,0,1,-95.25458,0)"
       sodipodi:nodetypes="sssssssssscscssscccsssssscscsssssscccccsssscccss" />
    <path
       id="path2"
       style="fill:#f0e9f1;fill-opacity:1;fill-rule:nonzero;stroke:none;stroke-width:0.403109;stroke-dasharray:none;stroke-opacity:1;paint-order:markers fill stroke"
       d="m 170.47358,103.03246 c -0.48991,-0.0155 -0.95638,0.0227 -1.39836,0.10181 -0.95079,0.17004 -1.79854,0.53142 -2.53576,0.97306 -0.16211,0.0971 -0.31758,0.19736 -0.46561,0.29921 -0.82321,0.56639 -1.46007,1.20424 -1.88619,1.68879 -0.42241,0.48032 -0.70316,1.00811 -0.20102,0.97048 0.48046,-0.036 1.09442,-0.0909 1.6769,-0.0879 0.32772,0.001 0.6328,0.0295 0.91622,0.0827 0.19016,0.0357 0.37151,0.0833 0.54364,0.14314 0.3953,0.13733 0.73537,0.33594 1.01957,0.58963 0.26718,0.23851 0.48244,0.52339 0.64854,0.84543 0.16011,0.31041 0.27269,0.65272 0.34314,1.01544 0.0691,0.35594 0.0971,0.72722 0.0889,1.09916 -0.0165,0.75122 -0.17602,1.47653 -0.39739,2.05207 -1.87745,4.42274 -7.07757,5.93187 -11.43031,6.11797 -6.32718,0 -10.76246,-3.8778 -23.32106,-3.8778 -8.65236,0 -17.28855,4.62039 -25.95707,4.62039 -8.668528,0 -17.304714,-4.62039 -25.957074,-4.62039 -8.652359,0 -17.288547,4.62039 -25.957072,4.62039 -8.668525,0 -17.304713,-4.62039 -25.957072,-4.62039 -8.652359,0 -17.288546,4.62039 -25.9570717,4.62039 -8.6685253,0 -17.3052403,-4.63398 -25.9575883,-4.62039 -8.609844,0.0135 -16.419055,4.62039 -25.959139,4.62039 -9.54008,0 -17.349289,-4.60689 -25.959139,-4.62039 -8.652341,-0.0136 -17.288552,4.62039 -25.957072,4.62039 -8.668532,0 -17.304712,-4.62039 -25.957072,-4.62039 -8.65236,0 -17.28855,4.62039 -25.95707,4.62039 -8.66853,0 -17.30471,-4.62039 -25.95707,-4.62039 -8.65236,0 -17.28855,4.62039 -25.95708,4.62039 -8.66852,0 -17.30471,-4.62039 -25.95707,-4.62039 -0.87885,0 -1.71805,0.0275 -2.52077,0.0785 v 7.63623 H -47.627317 209.99985 v -7.71478 c -5.69663,-0.0282 -9.2781,2.34194 -12.92427,2.44637 -4.58937,0.13145 -8.12945,-0.55081 -13.06587,-4.41731 -1.16108,-0.90942 -2.14947,-2.09431 -3.18896,-3.24321 -1.04079,-1.15032 -2.01291,-2.22343 -3.12229,-3.23133 -0.0873,-0.0793 -0.17521,-0.15751 -0.26355,-0.23512 -1.29682,-1.13941 -2.69936,-2.08197 -4.3341,-2.75177 -0.75036,-0.30559 -1.46198,-0.47656 -2.12958,-0.54622 -0.16842,-0.0176 -0.33435,-0.0289 -0.49765,-0.0341 z"
       sodipodi:nodetypes="ccsssscssssssccssssssssssssssscccccssssscscc" />
  </g>
</svg>
