<?xml version="1.0" encoding="UTF-8" standalone="no"?>
<!-- Created with Inkscape (http://www.inkscape.org/) -->

<svg
   width="41.935951mm"
   height="23.217703mm"
   viewBox="0 0 41.935951 23.217703"
   version="1.1"
   id="svg5"
   inkscape:version="1.1.1 (3bf5ae0d25, 2021-09-20)"
   sodipodi:docname="back.svg"
   xmlns:inkscape="http://www.inkscape.org/namespaces/inkscape"
   xmlns:sodipodi="http://sodipodi.sourceforge.net/DTD/sodipodi-0.dtd"
   xmlns="http://www.w3.org/2000/svg"
   xmlns:svg="http://www.w3.org/2000/svg">
  <sodipodi:namedview
     id="namedview7"
     pagecolor="#ffffff"
     bordercolor="#999999"
     borderopacity="1"
     inkscape:pageshadow="0"
     inkscape:pageopacity="0"
     inkscape:pagecheckerboard="0"
     inkscape:document-units="mm"
     showgrid="false"
     inkscape:zoom="2"
     inkscape:cx="355.75"
     inkscape:cy="55.25"
     inkscape:window-width="1920"
     inkscape:window-height="1002"
     inkscape:window-x="1912"
     inkscape:window-y="-8"
     inkscape:window-maximized="1"
     inkscape:current-layer="layer1"
     fit-margin-top="0"
     fit-margin-left="0"
     fit-margin-right="0"
     fit-margin-bottom="0" />
  <defs
     id="defs2">
    <inkscape:path-effect
       effect="powerstroke"
       id="path-effect4514"
       is_visible="true"
       lpeversion="1"
       offset_points="0.034185697,0.11939828 | 1,0.24999949 | 1.9526951,0.20461554"
       not_jump="false"
       sort_points="true"
       interpolator_type="CentripetalCatmullRom"
       interpolator_beta="0.2"
       start_linecap_type="zerowidth"
       linejoin_type="round"
       miter_limit="4"
       scale_width="1"
       end_linecap_type="zerowidth" />
    <inkscape:path-effect
       effect="powerstroke"
       id="path-effect4512"
       is_visible="true"
       lpeversion="1"
       offset_points="3.4875166,0.23732867"
       not_jump="false"
       sort_points="true"
       interpolator_type="CentripetalCatmullRom"
       interpolator_beta="0.2"
       start_linecap_type="zerowidth"
       linejoin_type="round"
       miter_limit="4"
       scale_width="1"
       end_linecap_type="zerowidth" />
    <inkscape:path-effect
       effect="powerstroke"
       id="path-effect4510"
       is_visible="true"
       lpeversion="1"
       offset_points="0.041817903,0.095233135 | 5,0.24999949 | 9.8,0.24999949"
       not_jump="false"
       sort_points="true"
       interpolator_type="CentripetalCatmullRom"
       interpolator_beta="0.2"
       start_linecap_type="zerowidth"
       linejoin_type="round"
       miter_limit="4"
       scale_width="1"
       end_linecap_type="zerowidth" />
    <inkscape:path-effect
       effect="powerstroke"
       id="path-effect4508"
       is_visible="true"
       lpeversion="1"
       offset_points="0.048772172,0.076729358 | 1,0.24999949 | 1.9048689,0.1879945"
       not_jump="false"
       sort_points="true"
       interpolator_type="CentripetalCatmullRom"
       interpolator_beta="0.2"
       start_linecap_type="zerowidth"
       linejoin_type="round"
       miter_limit="4"
       scale_width="1"
       end_linecap_type="zerowidth" />
    <inkscape:path-effect
       effect="powerstroke"
       id="path-effect4375"
       is_visible="true"
       lpeversion="1"
       offset_points="0.024795783,0.088682464 | 2.4979,0.2611831 | 4.9102036,0.099130725"
       not_jump="false"
       sort_points="true"
       interpolator_type="CentripetalCatmullRom"
       interpolator_beta="0.2"
       start_linecap_type="zerowidth"
       linejoin_type="round"
       miter_limit="4"
       scale_width="1"
       end_linecap_type="zerowidth" />
    <inkscape:path-effect
       effect="powerstroke"
       id="path-effect4373"
       is_visible="true"
       lpeversion="1"
       offset_points="0.027698345,0.08147641 | 1,0.24999949 | 1.9641138,0.15650176"
       not_jump="false"
       sort_points="true"
       interpolator_type="CentripetalCatmullRom"
       interpolator_beta="0.2"
       start_linecap_type="zerowidth"
       linejoin_type="round"
       miter_limit="4"
       scale_width="1"
       end_linecap_type="zerowidth" />
    <inkscape:path-effect
       effect="powerstroke"
       id="path-effect4371"
       is_visible="true"
       lpeversion="1"
       offset_points="0.044232697,0.090905365 | 1,0.24999949 | 1.9465683,0.18596031"
       not_jump="false"
       sort_points="true"
       interpolator_type="CentripetalCatmullRom"
       interpolator_beta="0.2"
       start_linecap_type="zerowidth"
       linejoin_type="round"
       miter_limit="4"
       scale_width="1"
       end_linecap_type="zerowidth" />
    <inkscape:path-effect
       effect="powerstroke"
       id="path-effect4369"
       is_visible="true"
       lpeversion="1"
       offset_points="0.055277702,0.095512741 | 1.0173083,0.22646637 | 2,0.20881128"
       not_jump="false"
       sort_points="true"
       interpolator_type="CentripetalCatmullRom"
       interpolator_beta="0.2"
       start_linecap_type="zerowidth"
       linejoin_type="round"
       miter_limit="4"
       scale_width="1"
       end_linecap_type="zerowidth" />
    <inkscape:path-effect
       effect="powerstroke"
       id="path-effect4367"
       is_visible="true"
       lpeversion="1"
       offset_points="1.9875332,0.17461995"
       not_jump="false"
       sort_points="true"
       interpolator_type="CentripetalCatmullRom"
       interpolator_beta="0.2"
       start_linecap_type="zerowidth"
       linejoin_type="round"
       miter_limit="4"
       scale_width="1"
       end_linecap_type="zerowidth" />
    <inkscape:path-effect
       effect="powerstroke"
       id="path-effect4365"
       is_visible="true"
       lpeversion="1"
       offset_points="0.022491861,0.07967085 | 1,0.24999949 | 1.9765053,0.070016877"
       not_jump="false"
       sort_points="true"
       interpolator_type="CentripetalCatmullRom"
       interpolator_beta="0.2"
       start_linecap_type="zerowidth"
       linejoin_type="round"
       miter_limit="4"
       scale_width="1"
       end_linecap_type="zerowidth" />
    <inkscape:path-effect
       effect="powerstroke"
       id="path-effect4363"
       is_visible="true"
       lpeversion="1"
       offset_points="0.2,0.24999949 | 1,0.24999949 | 1.8,0.24999949"
       not_jump="false"
       sort_points="true"
       interpolator_type="CentripetalCatmullRom"
       interpolator_beta="0.2"
       start_linecap_type="zerowidth"
       linejoin_type="round"
       miter_limit="4"
       scale_width="1"
       end_linecap_type="zerowidth" />
    <inkscape:path-effect
       effect="powerstroke"
       id="path-effect4361"
       is_visible="true"
       lpeversion="1"
       offset_points="0.2,0.24999949 | 3,0.24999949 | 5.8,0.24999949"
       not_jump="false"
       sort_points="true"
       interpolator_type="CentripetalCatmullRom"
       interpolator_beta="0.2"
       start_linecap_type="zerowidth"
       linejoin_type="round"
       miter_limit="4"
       scale_width="1"
       end_linecap_type="zerowidth" />
    <inkscape:path-effect
       effect="powerstroke"
       id="path-effect4359"
       is_visible="true"
       lpeversion="1"
       offset_points="0.085127393,0.11871829 | 1,0.24999949 | 1.9643408,0.17057643"
       not_jump="false"
       sort_points="true"
       interpolator_type="CentripetalCatmullRom"
       interpolator_beta="0.2"
       start_linecap_type="zerowidth"
       linejoin_type="round"
       miter_limit="4"
       scale_width="1"
       end_linecap_type="zerowidth" />
    <inkscape:path-effect
       effect="powerstroke"
       id="path-effect4357"
       is_visible="true"
       lpeversion="1"
       offset_points="0.041282164,0.18802305 | 1.0174927,0.28289868 | 1.8351876,0.16062878"
       not_jump="false"
       sort_points="true"
       interpolator_type="CentripetalCatmullRom"
       interpolator_beta="0.2"
       start_linecap_type="zerowidth"
       linejoin_type="round"
       miter_limit="4"
       scale_width="1"
       end_linecap_type="zerowidth" />
    <inkscape:path-effect
       effect="powerstroke"
       id="path-effect4355"
       is_visible="true"
       lpeversion="1"
       offset_points="0.2,0.24999949 | 1.0158543,0.29730606 | 1.8988779,0.19598798"
       not_jump="false"
       sort_points="true"
       interpolator_type="CentripetalCatmullRom"
       interpolator_beta="0.2"
       start_linecap_type="zerowidth"
       linejoin_type="round"
       miter_limit="4"
       scale_width="1"
       end_linecap_type="zerowidth" />
    <inkscape:path-effect
       effect="powerstroke"
       id="path-effect4353"
       is_visible="true"
       lpeversion="1"
       offset_points="0,0 | 1,0.24999949 | 1.8922885,0.21602399"
       not_jump="false"
       sort_points="true"
       interpolator_type="CentripetalCatmullRom"
       interpolator_beta="0.2"
       start_linecap_type="zerowidth"
       linejoin_type="round"
       miter_limit="4"
       scale_width="1"
       end_linecap_type="zerowidth" />
    <inkscape:path-effect
       effect="powerstroke"
       id="path-effect4351"
       is_visible="true"
       lpeversion="1"
       offset_points="0.012727344,0.085284385 | 0.5,0.24999949 | 0.93632233,0.13914535"
       not_jump="false"
       sort_points="true"
       interpolator_type="CentripetalCatmullRom"
       interpolator_beta="0.2"
       start_linecap_type="zerowidth"
       linejoin_type="round"
       miter_limit="4"
       scale_width="1"
       end_linecap_type="zerowidth" />
    <inkscape:path-effect
       effect="powerstroke"
       id="path-effect2742"
       is_visible="true"
       lpeversion="1"
       offset_points="0.012306715,0.10805107 | 3,0.24999949 | 5.9513015,0.17455429"
       not_jump="false"
       sort_points="true"
       interpolator_type="CentripetalCatmullRom"
       interpolator_beta="0.2"
       start_linecap_type="zerowidth"
       linejoin_type="round"
       miter_limit="4"
       scale_width="1"
       end_linecap_type="zerowidth" />
    <inkscape:path-effect
       effect="powerstroke"
       id="path-effect2740"
       is_visible="true"
       lpeversion="1"
       offset_points="0,0.10084405 | 1.038487,0.23402345 | 1.894146,0.18827131"
       not_jump="false"
       sort_points="true"
       interpolator_type="CentripetalCatmullRom"
       interpolator_beta="0.2"
       start_linecap_type="zerowidth"
       linejoin_type="round"
       miter_limit="4"
       scale_width="1"
       end_linecap_type="zerowidth" />
    <inkscape:path-effect
       effect="powerstroke"
       id="path-effect2738"
       is_visible="true"
       lpeversion="1"
       offset_points="0.047574762,0.12877178 | 1,0.24999949 | 1.9755225,0.15075962"
       not_jump="false"
       sort_points="true"
       interpolator_type="CentripetalCatmullRom"
       interpolator_beta="0.2"
       start_linecap_type="zerowidth"
       linejoin_type="round"
       miter_limit="4"
       scale_width="1"
       end_linecap_type="zerowidth" />
    <inkscape:path-effect
       effect="powerstroke"
       id="path-effect2736"
       is_visible="true"
       lpeversion="1"
       offset_points="0.064390041,0.11555534 | 1,0.24999949 | 2,0.17331651"
       not_jump="false"
       sort_points="true"
       interpolator_type="CentripetalCatmullRom"
       interpolator_beta="0.2"
       start_linecap_type="zerowidth"
       linejoin_type="round"
       miter_limit="4"
       scale_width="1"
       end_linecap_type="zerowidth" />
    <inkscape:path-effect
       effect="powerstroke"
       id="path-effect2734"
       is_visible="true"
       lpeversion="1"
       offset_points="0.046397708,0.0786521 | 1,0.24999949 | 1.9416653,0.1558093"
       not_jump="false"
       sort_points="true"
       interpolator_type="CentripetalCatmullRom"
       interpolator_beta="0.2"
       start_linecap_type="zerowidth"
       linejoin_type="round"
       miter_limit="4"
       scale_width="1"
       end_linecap_type="zerowidth" />
    <inkscape:path-effect
       effect="powerstroke"
       id="path-effect2732"
       is_visible="true"
       lpeversion="1"
       offset_points="0.045047041,0.081555582 | 1.0431457,0.23722728 | 1.9326913,0.1986549"
       not_jump="false"
       sort_points="true"
       interpolator_type="CentripetalCatmullRom"
       interpolator_beta="0.2"
       start_linecap_type="zerowidth"
       linejoin_type="round"
       miter_limit="4"
       scale_width="1"
       end_linecap_type="zerowidth" />
    <inkscape:path-effect
       effect="powerstroke"
       id="path-effect2730"
       is_visible="true"
       lpeversion="1"
       offset_points="0.11471682,0.15847693 | 5,0.24999949 | 9.6405049,0.1923853"
       not_jump="false"
       sort_points="true"
       interpolator_type="CentripetalCatmullRom"
       interpolator_beta="0.2"
       start_linecap_type="zerowidth"
       linejoin_type="round"
       miter_limit="4"
       scale_width="1"
       end_linecap_type="zerowidth" />
    <inkscape:path-effect
       effect="powerstroke"
       id="path-effect2728"
       is_visible="true"
       lpeversion="1"
       offset_points="0.051893023,0.096221531 | 1,0.24999949 | 1.8789982,0.18179871"
       not_jump="false"
       sort_points="true"
       interpolator_type="CentripetalCatmullRom"
       interpolator_beta="0.2"
       start_linecap_type="zerowidth"
       linejoin_type="round"
       miter_limit="4"
       scale_width="1"
       end_linecap_type="zerowidth" />
    <inkscape:path-effect
       effect="powerstroke"
       id="path-effect2650"
       is_visible="true"
       lpeversion="1"
       offset_points="0.045003804,0.13913774 | 0.96916491,0.27662729 | 1.9306162,0.17361421"
       not_jump="false"
       sort_points="true"
       interpolator_type="CentripetalCatmullRom"
       interpolator_beta="0.2"
       start_linecap_type="zerowidth"
       linejoin_type="round"
       miter_limit="4"
       scale_width="1"
       end_linecap_type="zerowidth" />
    <inkscape:path-effect
       effect="powerstroke"
       id="path-effect2010"
       is_visible="true"
       lpeversion="1"
       offset_points="0.014526601,0.20341428 | 0.30610491,0.2721096 | 1.9280083,0.1205415"
       not_jump="false"
       sort_points="true"
       interpolator_type="CentripetalCatmullRom"
       interpolator_beta="0.2"
       start_linecap_type="zerowidth"
       linejoin_type="round"
       miter_limit="4"
       scale_width="1"
       end_linecap_type="zerowidth" />
    <inkscape:path-effect
       effect="powerstroke"
       id="path-effect1970"
       is_visible="true"
       lpeversion="1"
       offset_points="0.24410454,0.14697002 | 1.2180014,0.27249935 | 1.9467315,0.21388373"
       not_jump="false"
       sort_points="true"
       interpolator_type="CentripetalCatmullRom"
       interpolator_beta="0.2"
       start_linecap_type="zerowidth"
       linejoin_type="round"
       miter_limit="4"
       scale_width="1"
       end_linecap_type="zerowidth" />
    <inkscape:path-effect
       effect="powerstroke"
       id="path-effect1930"
       is_visible="true"
       lpeversion="1"
       offset_points="0.13280975,0.086138059 | 0.9988859,0.28724543 | 2,0.15741582"
       not_jump="false"
       sort_points="true"
       interpolator_type="CentripetalCatmullRom"
       interpolator_beta="0.2"
       start_linecap_type="zerowidth"
       linejoin_type="round"
       miter_limit="4"
       scale_width="1"
       end_linecap_type="zerowidth" />
    <inkscape:path-effect
       effect="bspline"
       id="path-effect1373"
       is_visible="true"
       lpeversion="1"
       weight="33.333333"
       steps="2"
       helper_size="0"
       apply_no_weight="true"
       apply_with_weight="true"
       only_selected="false" />
    <inkscape:path-effect
       effect="bspline"
       id="path-effect1369"
       is_visible="true"
       lpeversion="1"
       weight="33.333333"
       steps="2"
       helper_size="0"
       apply_no_weight="true"
       apply_with_weight="true"
       only_selected="false" />
    <inkscape:path-effect
       effect="bspline"
       id="path-effect1365"
       is_visible="true"
       lpeversion="1"
       weight="33.333333"
       steps="2"
       helper_size="0"
       apply_no_weight="true"
       apply_with_weight="true"
       only_selected="false" />
    <inkscape:path-effect
       effect="bspline"
       id="path-effect1353"
       is_visible="true"
       lpeversion="1"
       weight="33.333333"
       steps="2"
       helper_size="0"
       apply_no_weight="true"
       apply_with_weight="true"
       only_selected="false" />
    <inkscape:path-effect
       effect="spiro"
       id="path-effect1349"
       is_visible="true"
       lpeversion="1" />
    <inkscape:path-effect
       effect="bspline"
       id="path-effect1179"
       is_visible="true"
       lpeversion="1"
       weight="33.333333"
       steps="2"
       helper_size="0"
       apply_no_weight="true"
       apply_with_weight="true"
       only_selected="false" />
    <inkscape:path-effect
       effect="bspline"
       id="path-effect1175"
       is_visible="true"
       lpeversion="1"
       weight="33.333333"
       steps="2"
       helper_size="0"
       apply_no_weight="true"
       apply_with_weight="true"
       only_selected="false" />
    <inkscape:path-effect
       effect="bspline"
       id="path-effect473"
       is_visible="true"
       lpeversion="1"
       weight="33.333333"
       steps="2"
       helper_size="0"
       apply_no_weight="true"
       apply_with_weight="true"
       only_selected="false" />
    <inkscape:path-effect
       effect="bspline"
       id="path-effect218"
       is_visible="true"
       lpeversion="1"
       weight="33.333333"
       steps="2"
       helper_size="0"
       apply_no_weight="true"
       apply_with_weight="true"
       only_selected="false" />
    <inkscape:path-effect
       effect="bspline"
       id="path-effect214"
       is_visible="true"
       lpeversion="1"
       weight="33.333333"
       steps="2"
       helper_size="0"
       apply_no_weight="true"
       apply_with_weight="true"
       only_selected="false" />
    <inkscape:path-effect
       effect="bspline"
       id="path-effect210"
       is_visible="true"
       lpeversion="1"
       weight="33.333333"
       steps="2"
       helper_size="0"
       apply_no_weight="true"
       apply_with_weight="true"
       only_selected="false" />
    <inkscape:path-effect
       effect="bspline"
       id="path-effect206"
       is_visible="true"
       lpeversion="1"
       weight="33.333333"
       steps="2"
       helper_size="0"
       apply_no_weight="true"
       apply_with_weight="true"
       only_selected="false" />
    <inkscape:path-effect
       effect="bspline"
       id="path-effect202"
       is_visible="true"
       lpeversion="1"
       weight="33.333333"
       steps="2"
       helper_size="0"
       apply_no_weight="true"
       apply_with_weight="true"
       only_selected="false" />
    <inkscape:path-effect
       effect="bspline"
       id="path-effect198"
       is_visible="true"
       lpeversion="1"
       weight="33.333333"
       steps="2"
       helper_size="0"
       apply_no_weight="true"
       apply_with_weight="true"
       only_selected="false" />
    <inkscape:path-effect
       effect="bspline"
       id="path-effect194"
       is_visible="true"
       lpeversion="1"
       weight="33.333333"
       steps="2"
       helper_size="0"
       apply_no_weight="true"
       apply_with_weight="true"
       only_selected="false" />
    <inkscape:path-effect
       effect="bspline"
       id="path-effect190"
       is_visible="true"
       lpeversion="1"
       weight="33.333333"
       steps="2"
       helper_size="0"
       apply_no_weight="true"
       apply_with_weight="true"
       only_selected="false" />
    <inkscape:path-effect
       effect="bspline"
       id="path-effect186"
       is_visible="true"
       lpeversion="1"
       weight="33.333333"
       steps="2"
       helper_size="0"
       apply_no_weight="true"
       apply_with_weight="true"
       only_selected="false" />
    <inkscape:path-effect
       effect="bspline"
       id="path-effect182"
       is_visible="true"
       lpeversion="1"
       weight="33.333333"
       steps="2"
       helper_size="0"
       apply_no_weight="true"
       apply_with_weight="true"
       only_selected="false" />
    <inkscape:path-effect
       effect="bspline"
       id="path-effect178"
       is_visible="true"
       lpeversion="1"
       weight="33.333333"
       steps="2"
       helper_size="0"
       apply_no_weight="true"
       apply_with_weight="true"
       only_selected="false" />
    <inkscape:path-effect
       effect="bspline"
       id="path-effect174"
       is_visible="true"
       lpeversion="1"
       weight="33.333333"
       steps="2"
       helper_size="0"
       apply_no_weight="true"
       apply_with_weight="true"
       only_selected="false" />
    <inkscape:path-effect
       effect="bspline"
       id="path-effect170"
       is_visible="true"
       lpeversion="1"
       weight="33.333333"
       steps="2"
       helper_size="0"
       apply_no_weight="true"
       apply_with_weight="true"
       only_selected="false" />
    <inkscape:path-effect
       effect="bspline"
       id="path-effect166"
       is_visible="true"
       lpeversion="1"
       weight="33.333333"
       steps="2"
       helper_size="0"
       apply_no_weight="true"
       apply_with_weight="true"
       only_selected="false" />
    <inkscape:path-effect
       effect="bspline"
       id="path-effect162"
       is_visible="true"
       lpeversion="1"
       weight="33.333333"
       steps="2"
       helper_size="0"
       apply_no_weight="true"
       apply_with_weight="true"
       only_selected="false" />
    <inkscape:path-effect
       effect="bspline"
       id="path-effect158"
       is_visible="true"
       lpeversion="1"
       weight="33.333333"
       steps="2"
       helper_size="0"
       apply_no_weight="true"
       apply_with_weight="true"
       only_selected="false" />
    <inkscape:path-effect
       effect="bspline"
       id="path-effect154"
       is_visible="true"
       lpeversion="1"
       weight="33.333333"
       steps="2"
       helper_size="0"
       apply_no_weight="true"
       apply_with_weight="true"
       only_selected="false" />
    <inkscape:path-effect
       effect="bspline"
       id="path-effect150"
       is_visible="true"
       lpeversion="1"
       weight="33.333333"
       steps="2"
       helper_size="0"
       apply_no_weight="true"
       apply_with_weight="true"
       only_selected="false" />
    <inkscape:path-effect
       effect="spiro"
       id="path-effect146"
       is_visible="true"
       lpeversion="1" />
    <inkscape:path-effect
       effect="spiro"
       id="path-effect142"
       is_visible="true"
       lpeversion="1" />
    <inkscape:path-effect
       effect="spiro"
       id="path-effect138"
       is_visible="true"
       lpeversion="1" />
    <inkscape:path-effect
       effect="spiro"
       id="path-effect134"
       is_visible="true"
       lpeversion="1" />
    <inkscape:path-effect
       effect="spiro"
       id="path-effect130"
       is_visible="true"
       lpeversion="1" />
    <inkscape:path-effect
       effect="spiro"
       id="path-effect56"
       is_visible="true"
       lpeversion="1" />
  </defs>
  <g
     inkscape:label="Ebene 1"
     inkscape:groupmode="layer"
     id="layer1"
     transform="translate(-57.159729,-81.828583)">
    <g
       id="g9418"
       inkscape:label="arrow"
       style="fill:#ffffff">
      <path
         id="path54"
         style="fill:#ffffff;stroke-width:1.88976;stroke-linecap:round;stroke-linejoin:round;paint-order:fill markers stroke"
         d="m 225.80664,309.27344 c -0.33183,-2.9e-4 -0.66593,0.009 -1.00391,0.0312 -3.0686,0.18751 -7.76647,1.54755 -8.47255,3.46957 -0.70609,1.92201 0.007,6.01645 0.61904,9.21793 0.15073,0.78833 0.33484,1.6468 0.55859,2.55273 0.54035,2.08425 1.28171,4.18033 1.92774,5.38477 0.39916,0.74419 0.92084,1.29289 1.11328,1.55273 -0.0144,-0.3168 0.051,-1.07926 -0.0547,-1.89453 -0.12257,-0.9456 -0.7284,-3.81622 -1.04883,-5.48242 -0.18217,-0.89008 -0.33592,-1.71485 -0.4707,-2.48438 -0.40531,-2.31385 -0.52498,-5.40423 -0.8418,-7.20312 3.16747,2.14087 10.22018,5.86394 16.77149,11.84961 2.73347,2.49747 6.31153,6.07682 10.01172,10.80273 6.71945,8.58217 13.13571,20.08211 16.24218,34 2.68485,11.82966 2.12325,19.4354 2.40039,24.03516 0.0632,1.04817 0.26087,1.59844 0.3086,1.91992 0.0982,-0.29227 0.40272,-0.83292 0.60156,-1.85937 0.69011,-3.56246 1.11589,-13.43081 -1.28125,-24.54493 -3.13392,-14.28776 -9.71283,-26.08725 -16.60742,-34.85742 -3.7987,-4.83208 -7.47684,-8.4824 -10.29297,-11.01953 -6.62756,-5.97094 -12.98233,-10.27967 -16.69922,-11.94922 1.6866,-0.46361 3.87808,-1.1616 5.38281,-1.32422 3.6429,-0.37621 5.94339,-0.1167 8.35547,0.26953 0.63411,0.10152 1.12222,0.12066 1.34766,0.1543 -0.17987,-0.13081 -0.55876,-0.46381 -1.14063,-0.77148 -1.64458,-0.86961 -4.51886,-1.84685 -7.72656,-1.84961 z"
         transform="scale(0.26458333)"
         sodipodi:nodetypes="sccscscscscsscscscssccscss" />
    </g>
    <g
       id="g9441"
       inkscape:label="text"
       style="fill:#ffffff">
      <g
         id="g302"
         style="fill:#ffffff">
        <path
           id="path136"
           style="fill:#ffffff;stroke-width:1.88976;stroke-linecap:round;stroke-linejoin:round;paint-order:fill markers stroke"
           d="m 293.00195,352.70117 c -0.12865,0.004 -0.27049,0.0252 -0.42187,0.0781 -1.50623,0.52697 -5.91919,3.96671 -9.08985,5.86132 -0.0819,0.0492 -0.16289,0.0976 -0.24218,0.14454 -2.44518,1.44806 -6.62856,3.35852 -7.33789,4.25781 -0.19122,0.24243 -0.1475,0.53876 -0.17774,0.64648 0.0975,0.0536 0.28109,0.29215 0.5918,0.32032 1.1581,0.10498 4.2914,-1.39489 6.85156,-2.79102 0.1298,1.11045 0.58644,2.77934 0.85938,3.97266 0.54758,2.50239 1.19852,6.75592 1.66015,7.69921 0.12825,0.26207 0.33063,0.33666 0.39649,0.4043 0.0546,-0.0761 0.24434,-0.18123 0.32812,-0.46289 0.36031,-1.21127 -0.0322,-5.22559 -0.53125,-8.00976 -0.25733,-1.51546 -0.63792,-3.49194 -1.17578,-4.46875 3.51077,-2.03357 7.72709,-4.92842 8.70117,-6.5586 0.26711,-0.44702 0.17749,-0.8598 0.21094,-1.0293 -0.12002,0.003 -0.34001,-0.0729 -0.62305,-0.0645 z"
           transform="scale(0.26458333)" />
      </g>
      <g
         id="g306"
         style="fill:#ffffff">
        <path
           id="path144"
           style="fill:#ffffff;stroke-width:1.88976;stroke-linecap:round;stroke-linejoin:round;paint-order:fill markers stroke"
           d="m 296.46289,360.19531 c -0.0736,0.003 -0.15558,0.012 -0.24609,0.0293 -0.53115,0.10182 -1.50815,0.47176 -2.53516,1.39453 -0.79941,0.71828 -1.62541,1.77981 -2.08789,3.20313 -0.2444,0.66604 -0.43486,1.56788 -0.31055,2.54882 0.0559,0.44127 0.17777,0.89448 0.37696,1.32813 0.19342,0.42109 0.46066,0.82544 0.80859,1.17383 0.57282,0.57016 1.30594,0.93008 2.04492,1.07226 0.82456,0.15859 1.6085,0.0456 2.2461,-0.17578 0.66024,-0.22926 1.31696,-0.6281 1.86328,-1.20898 0.50517,-0.53709 0.883,-1.19397 1.09961,-1.90821 0.199,-0.66965 0.24724,-1.33874 0.21289,-1.96289 0.25,0.2263 0.49155,0.42349 0.72656,0.59571 0.0624,0.0457 0.128,0.0914 0.19531,0.13672 0.71665,0.48281 1.48669,0.76502 2.28906,0.88085 0.91185,0.13164 1.7168,0.0275 1.95313,-0.10937 0.13588,-0.0787 0.17608,-0.2393 0.21094,-0.28711 -0.0249,-0.0541 -0.0318,-0.22165 -0.14844,-0.32617 -0.24177,-0.21662 -0.93071,-0.38029 -1.66406,-0.66992 -0.61395,-0.24248 -1.11323,-0.52036 -1.58985,-0.91602 -0.0449,-0.0373 -0.0877,-0.0753 -0.13086,-0.11328 -0.19963,-0.17581 -0.41381,-0.3969 -0.64843,-0.66797 -0.26895,-0.31072 -0.53525,-0.65316 -0.81836,-1.02539 -0.65633,-0.86293 -1.28136,-1.72056 -1.73243,-1.95312 -0.34331,-0.17702 -0.71612,0.0652 -0.85937,0.0781 -0.0876,0.12451 -0.44224,0.38224 -0.52539,0.74609 -0.0562,0.24596 -0.032,0.59757 0.0469,1.01953 0.14121,0.61096 0.37818,1.43373 0.49219,2.13868 0.10416,0.64387 0.12788,1.28899 -0.0176,1.875 -0.10155,0.42698 -0.29441,0.82776 -0.5625,1.15625 -0.28994,0.35536 -0.65423,0.60659 -1.02148,0.74023 -0.35689,0.12989 -0.79112,0.17157 -1.21875,0.0664 -0.38228,-0.0941 -0.73813,-0.30167 -0.99805,-0.58789 -0.15744,-0.17114 -0.28577,-0.37746 -0.38476,-0.60742 -0.10226,-0.23755 -0.16976,-0.49336 -0.20313,-0.75 -0.0765,-0.58862 0.01,-1.18443 0.13086,-1.7168 0.29862,-1.06468 0.87293,-1.92096 1.43555,-2.54492 0.70916,-0.78649 1.4593,-1.26497 1.79297,-1.52149 0.52778,-0.40574 0.40454,-0.68027 0.50195,-0.8125 -0.0851,-0.0331 -0.20974,-0.33624 -0.72461,-0.31836 z"
           transform="scale(0.26458333)" />
      </g>
      <g
         id="g311"
         style="fill:#ffffff">
        <path
           id="path152"
           style="fill:#ffffff;stroke-width:1.88976;stroke-linecap:round;stroke-linejoin:round;paint-order:fill markers stroke"
           d="m 304.37891,350.92383 c -0.0709,0.0864 -0.32871,0.19777 -0.42579,0.51953 -0.18417,0.61039 -0.094,2.46081 0.20508,4.39844 0.26359,1.70793 0.64403,3.20433 1.1211,4.51172 0.47229,1.2943 1.07701,2.5629 1.90234,3.85156 0.98584,1.53928 2.06586,2.76036 2.55078,2.88672 0.24295,0.0633 0.47707,-0.15452 0.57227,-0.18555 0.0949,-0.0935 0.42535,-0.19344 0.57031,-0.56055 0.25015,-0.63349 0.26991,-2.25019 0.29688,-3.99218 0.001,-0.0878 0.002,-0.17018 0.004,-0.25586 0.38557,0.17431 0.82253,0.34478 1.2793,0.49609 0.47092,0.156 0.94731,0.28098 1.41406,0.36523 0.52264,0.0944 0.98697,0.12869 1.4082,0.11914 0.4345,-0.01 0.87641,-0.0738 1.32422,-0.20117 0.41665,-0.11846 0.80372,-0.28198 1.15625,-0.4707 0.82057,-0.43927 1.43866,-1.00214 1.58594,-1.30469 0.0996,-0.20469 0.015,-0.43527 0.0176,-0.52148 -0.0788,-0.037 -0.24634,-0.21649 -0.47266,-0.22266 -0.37675,-0.0103 -1.04612,0.29168 -1.79101,0.53125 -0.31014,0.0998 -0.61036,0.17939 -0.91407,0.23242 -0.3221,0.0563 -0.61985,0.078 -0.90625,0.0684 -0.27863,-0.009 -0.61132,-0.0545 -1.01953,-0.14843 -0.36971,-0.085 -0.75854,-0.20029 -1.17969,-0.3379 -0.66496,-0.21727 -1.32217,-0.45852 -1.8457,-0.60742 0.028,-0.612 0.0677,-1.17648 0.13086,-1.71679 0.13217,-1.12992 0.31728,-2.09947 0.5918,-3.23829 0.30643,-1.27122 0.61074,-2.32124 0.57617,-2.77343 -0.015,-0.19595 -0.13503,-0.31385 -0.16211,-0.37696 -0.064,0.0244 -0.23381,0.0204 -0.38476,0.14649 -0.30961,0.25855 -0.94759,1.26769 -1.48438,2.51367 -0.47665,1.10639 -0.8208,2.27189 -1.00977,3.4707 -0.18962,1.20292 -0.29247,2.62988 -0.27148,4.23047 0.007,0.50114 0.0251,0.99422 0.0547,1.45703 -0.13912,-0.21591 -0.27995,-0.43599 -0.42383,-0.66406 -0.75835,-1.20207 -1.36323,-2.2943 -1.79883,-3.44726 -0.44682,-1.18268 -0.77299,-2.52477 -1.10547,-4.17188 -0.38166,-1.8908 -0.67039,-3.60793 -1.02734,-4.20117 -0.1731,-0.28766 -0.44906,-0.3338 -0.53906,-0.40039 z"
           transform="scale(0.26458333)" />
      </g>
      <g
         id="g315"
         style="fill:#ffffff">
        <path
           id="path164"
           style="fill:#ffffff;stroke-width:1.88976;stroke-linecap:round;stroke-linejoin:round;paint-order:fill markers stroke"
           d="m 323.9043,347.59961 c -0.46866,0.002 -0.99406,0.0568 -1.52149,0.21289 -0.33868,0.10023 -0.68089,0.24205 -1.00976,0.44336 -0.32791,0.20072 -0.63497,0.45547 -0.9043,0.76953 -0.5286,0.61754 -0.86194,1.36733 -1.03906,2.13672 -0.19792,0.85969 -0.20107,1.73436 -0.084,2.54297 0.11528,0.79614 0.37644,1.71773 0.86914,2.64258 0.43886,0.82377 1.05771,1.63968 1.88868,2.32617 0.80611,0.66596 1.77122,1.17714 2.74414,1.48828 0.49884,0.15953 1.00029,0.26547 1.48632,0.31641 0.50753,0.0532 1.00044,0.0462 1.45899,-0.0293 0.49348,-0.0813 0.92338,-0.23683 1.29687,-0.42578 0.41577,-0.21033 0.76688,-0.46583 1.05274,-0.71289 0.92976,-0.80359 1.38904,-1.6488 1.39648,-1.87305 0.006,-0.18202 -0.41248,-0.57558 -0.59375,-0.55859 -0.29117,0.0273 -0.94039,0.61345 -1.77734,1.15234 -0.25013,0.16105 -0.51669,0.31103 -0.80274,0.42578 -0.25379,0.10182 -0.52902,0.17853 -0.83203,0.21289 -0.2862,0.0325 -0.6162,0.0289 -0.98632,-0.0195 -0.35378,-0.0463 -0.73321,-0.1323 -1.1211,-0.26172 -0.76372,-0.25481 -1.51466,-0.65764 -2.125,-1.16211 -0.62029,-0.5127 -1.09165,-1.1285 -1.42969,-1.76172 -0.11881,-0.22256 -0.21984,-0.44588 -0.30468,-0.66406 0.33264,-0.0299 0.75454,-0.1097 1.1914,-0.23047 0.6472,-0.17892 1.23514,-0.42371 1.76563,-0.7207 0.0463,-0.0261 2.67473,-1.16657 3.16015,-2.82816 0.17801,-0.60934 -0.56383,-1.65267 -0.88867,-2.03906 -0.25809,-0.307 -0.60368,-0.63925 -1.0293,-0.90234 -0.19522,-0.12068 -0.41487,-0.23072 -0.65624,-0.31446 -0.23108,-0.0802 -0.48346,-0.13797 -0.75586,-0.15429 -0.14141,-0.009 -0.293,-0.0125 -0.44922,-0.0117 z m -0.17757,4.78502 c -0.52988,0.24129 -0.955,0.47223 -1.50793,0.74249 -0.35136,0.17174 -0.70159,0.33849 -0.97656,0.49024 -0.009,-0.0568 -0.0165,-0.11298 -0.0234,-0.16797 -0.0769,-0.60882 -0.0409,-1.23128 0.125,-1.79883 0.14923,-0.51066 0.38995,-0.92698 0.68359,-1.22266 0.13,-0.12985 0.27211,-0.23121 0.42578,-0.31054 0.15588,-0.0805 0.32754,-0.141 0.51368,-0.18555 0.29784,-0.0713 0.61881,-0.0981 1.25123,0.0267 0.63242,0.12478 0.83923,0.28295 0.99831,0.42635 0.6082,0.59252 -0.95982,1.75848 -1.4897,1.99977 z"
           transform="scale(0.26458333)"
           sodipodi:nodetypes="ssscsssssssssssssssssscscsssscssscsscsssccs" />
      </g>
      <g
         id="g322"
         style="fill:#ffffff">
        <path
           id="path172"
           style="fill:#ffffff;stroke-width:1.88976;stroke-linecap:round;stroke-linejoin:round;paint-order:fill markers stroke"
           d="m 352.20312,339.43359 c -0.38982,0.6113 -0.52779,3.02973 -0.66601,4.46289 -0.003,0.0276 -0.005,0.0553 -0.008,0.082 -0.0757,0.7603 -0.18006,1.71757 -0.22071,2.54492 -0.36109,-0.44378 -0.81089,-0.94059 -1.21679,-1.4668 -0.0154,-0.0199 -0.0316,-0.0406 -0.0469,-0.0606 -0.40837,-0.53575 -0.94741,-1.3361 -1.5,-2.10742 -0.58259,-0.81321 -1.16371,-1.56277 -1.58789,-1.82812 -0.37317,-0.23344 -0.82641,-0.21428 -0.96094,-0.125 -0.19787,0.13131 -0.61479,0.93809 -0.93554,1.6582 -0.30313,0.68054 -0.53174,1.47886 -0.59766,2.34375 -0.0482,0.63159 -0.0641,1.38368 -0.0352,2.19922 -0.002,-0.004 -0.005,-0.008 -0.008,-0.0117 -0.75836,-1.27203 -2.2866,-3.44215 -2.8125,-3.64844 -0.14365,-0.0563 -0.2814,0.0471 -0.33789,0.0566 -0.0367,0.044 -0.19686,0.11122 -0.2207,0.26368 -0.0873,0.55811 1.01501,2.97093 1.73047,4.26757 0.67567,1.22454 1.75811,2.8617 2.39843,3.33594 0.28172,0.20865 0.59726,0.3024 0.75196,0.25586 0.26523,-0.0798 0.58751,-0.36675 0.72656,-0.88086 0.15514,-0.57359 0.0964,-1.6703 -0.01,-2.82227 -0.10321,-1.11978 -0.23786,-2.24003 -0.29296,-3.0039 -0.0367,-0.50824 -0.12857,-1.34155 -0.1875,-1.89649 0.16578,0.32331 0.3631,0.67189 0.57617,1.02344 0.52375,0.86416 1.05558,1.62336 1.48633,2.24219 0.002,0.003 0.0428,0.0633 0.0449,0.0664 0.46995,0.67611 0.91088,1.31409 1.36523,1.81445 0.33162,0.36519 0.65238,0.63319 0.94922,0.73633 0.40844,0.14191 1.01709,-0.003 1.20117,-0.0762 0.15698,-0.062 0.51651,-0.31724 0.75,-0.6875 0.4754,-0.75389 0.9124,-2.50967 1.11328,-3.9375 0.004,-0.0283 0.008,-0.0568 0.0117,-0.0859 0.0905,-0.65382 0.17331,-1.45534 0.21094,-2.21289 0.38627,0.50779 0.83085,1.05156 1.28906,1.57617 0.47852,0.54786 0.95581,1.05499 1.40821,1.49219 0.49838,0.48164 0.93161,0.84391 1.3125,1.11718 0.39051,0.2802 0.79909,0.50862 1.22265,0.64844 0.40367,0.13325 0.78159,0.17407 1.12891,0.14063 0.38236,-0.0368 0.68654,-0.1593 0.89648,-0.28711 0.20679,-0.12589 0.33901,-0.26592 0.39844,-0.38672 0.0817,-0.16616 0.072,-0.39125 0.0469,-0.50586 -0.0303,-0.13842 -0.21831,-0.25809 -0.38476,-0.32617 -0.12289,-0.0503 -0.28249,-0.0642 -0.45117,-0.0781 -0.18227,-0.0151 -0.32982,-0.0282 -0.50196,-0.0684 -0.13886,-0.0324 -0.30097,-0.084 -0.49023,-0.17578 -0.21124,-0.1024 -0.45387,-0.25268 -0.73633,-0.47461 -0.27507,-0.21612 -0.6172,-0.53324 -1.05664,-0.98828 -0.40225,-0.41652 -0.83098,-0.89024 -1.30078,-1.41992 -1.22063,-1.37621 -2.4216,-2.7758 -3.01563,-3.06641 -0.0903,-0.0442 -0.52271,-0.30931 -0.855,-0.19651 -0.33228,0.11279 -0.42951,0.25856 -0.58182,0.49741 z"
           transform="scale(0.26458333)"
           sodipodi:nodetypes="ssccsssssssccscssssssscsscsssscccsssssssssssssssscs" />
      </g>
      <g
         id="g330"
         style="fill:#ffffff">
        <path
           id="path200"
           style="fill:#ffffff;stroke-width:1.88976;stroke-linecap:round;stroke-linejoin:round;paint-order:fill markers stroke"
           d="m 302.83789,377.5332 c -0.11257,10e-4 -0.20705,0.0323 -0.25781,0.0273 -0.0419,0.0805 -0.24918,0.21498 -0.25,0.48242 -0.003,1.02778 2.33136,5.25222 3.21484,7.59375 0.87682,2.32389 1.42238,6.0207 2.19531,6.68945 0.25882,0.22393 0.69698,0.1839 0.83399,0.15039 0.13669,-0.0334 0.54272,-0.20069 0.66797,-0.51953 0.0979,-0.24913 0.13075,-0.87279 0.13075,-0.87279 2.158,0.51381 4.22246,0.0298 5.31686,-0.49029 1.09441,-0.52012 1.88241,-1.2838 2.32186,-2.08023 0.20781,-0.37663 0.36068,-0.79017 0.43555,-1.2207 0.0736,-0.42315 0.072,-0.86696 -0.0312,-1.30469 -0.10247,-0.43437 -0.29721,-0.82875 -0.54297,-1.17578 -0.24586,-0.34716 -0.54788,-0.65272 -0.87305,-0.91406 -0.66321,-0.53303 -1.45743,-0.90687 -2.2168,-1.09375 -0.80884,-0.19908 -1.57536,-0.18489 -2.25976,-0.0254 -0.0184,0.004 -0.0363,0.007 -0.0547,0.0117 -0.69952,0.17208 -1.3801,0.5135 -1.98437,1.03906 -0.55721,0.48504 -1.02563,1.10861 -1.36329,1.76758 -0.10844,0.21164 -0.20424,0.42761 -0.28515,0.64648 -0.17911,-0.45278 -0.36224,-0.89456 -0.53906,-1.31055 -1.05911,-2.49154 -3.23934,-6.71563 -4.17383,-7.32031 -0.0983,-0.0636 -0.1976,-0.081 -0.28516,-0.0801 z m 9.67383,6.91797 c 0.26345,-0.007 0.54397,0.0224 0.8418,0.0957 0.51792,0.12746 1.07392,0.38872 1.52343,0.75 0.21662,0.17409 0.39593,0.36165 0.53125,0.55273 0.13476,0.19028 0.22042,0.37568 0.26172,0.55078 0.0416,0.17638 0.0466,0.37427 0.01,0.58594 -0.0376,0.21615 -0.11916,0.44072 -0.24024,0.66015 -0.25892,0.46926 -0.67339,0.86496 -1.16211,1.10938 -0.26537,0.13275 -0.56907,0.22944 -0.88672,0.29883 -0.34612,0.0756 -0.70101,0.11532 -1.02929,0.13672 -0.37422,0.0244 -0.72615,0.024 -1.00781,0.0176 -0.34255,-0.008 -0.78772,-0.0695 -1.18937,-0.25234 -0.31472,-0.14324 -0.60984,-0.40031 -0.70103,-0.65162 -0.0662,-0.26796 -0.13436,-0.46524 -0.12726,-0.62738 0.007,-0.16456 0.0407,-0.3621 0.10547,-0.58203 0.0645,-0.21915 0.15719,-0.45097 0.27539,-0.68164 0.24503,-0.4782 0.57699,-0.91155 0.94336,-1.23047 0.38726,-0.33681 0.81171,-0.54593 1.23632,-0.65039 0.0113,-0.003 0.0239,-0.005 0.0352,-0.008 0.18128,-0.0422 0.37517,-0.069 0.58008,-0.0742 z"
           transform="scale(0.26458333)"
           sodipodi:nodetypes="scsssssccsssssssccscsssssssssssssssscsscssscs" />
      </g>
      <path
         style="fill:#ffffff;stroke-width:0.499999;stroke-linecap:round;stroke-linejoin:round;paint-order:fill markers stroke"
         d="m 88.835496,98.055841 c -0.03475,-0.01818 -0.119389,-0.02392 -0.234642,-0.0067 -0.0708,0.01056 -0.162792,0.03163 -0.257927,0.07252 -0.07886,0.0339 -0.16565,0.08384 -0.247198,0.159156 -0.07408,0.06841 -0.141881,0.155949 -0.195893,0.267796 -0.05028,0.10413 -0.08663,0.224866 -0.108709,0.35453 -0.02152,0.126367 -0.02974,0.262751 -0.02325,0.401886 0.0065,0.138894 0.02765,0.280792 0.06512,0.418191 0.03837,0.140707 0.0938,0.27656 0.168006,0.39984 0.163713,0.27197 0.398914,0.45182 0.609368,0.5643 0.222434,0.11834 0.483318,0.19798 0.750803,0.21562 0.243673,0.0161 0.476522,-0.0211 0.678645,-0.10405 0.205048,-0.0842 0.370029,-0.2122 0.47806,-0.36531 0.05827,-0.0826 0.09653,-0.1681 0.121176,-0.2491 0.02747,-0.0903 0.03888,-0.17745 0.04237,-0.253123 0.0086,-0.186844 -0.02746,-0.339937 -0.05732,-0.396984 -0.02839,-0.05424 -0.07733,-0.08394 -0.09848,-0.08391 -0.02154,2.9e-5 -0.07,0.02895 -0.09977,0.08173 -0.0351,0.06221 -0.06114,0.199037 -0.106357,0.340796 -0.01799,0.05641 -0.03904,0.111326 -0.0663,0.162161 -0.02409,0.0449 -0.05231,0.0855 -0.0877,0.12255 -0.06555,0.0686 -0.165039,0.13601 -0.300885,0.18179 -0.133534,0.045 -0.2918,0.0654 -0.464304,0.0497 -0.192459,-0.0174 -0.382576,-0.0772 -0.541899,-0.16166 -0.155683,-0.0828 -0.311244,-0.20395 -0.417801,-0.373595 -0.04849,-0.0772 -0.08903,-0.168161 -0.11976,-0.26986 -0.02997,-0.09919 -0.04943,-0.204684 -0.05847,-0.310484 -0.0091,-0.106019 -0.0073,-0.208616 0.003,-0.30155 0.01071,-0.09612 0.03004,-0.176625 0.05307,-0.239448 0.02363,-0.06446 0.05283,-0.114087 0.08435,-0.154498 0.03567,-0.04572 0.07746,-0.0836 0.123809,-0.117686 0.05628,-0.0414 0.118304,-0.07634 0.173541,-0.107336 0.09118,-0.05117 0.157316,-0.0891 0.180714,-0.125846 0.02109,-0.03312 -0.01055,-0.15323 -0.04539,-0.171458 z"
         id="path208"
         sodipodi:nodetypes="cccccsssscssssssssssssscsssssssssc" />
      <path
         style="fill:#ffffff;stroke-width:0.499999;stroke-linecap:round;stroke-linejoin:round;paint-order:fill markers stroke"
         d="m 95.26241,92.848696 c -0.01448,0.0055 -0.04873,0.02845 -0.05741,0.07314 -0.04552,0.234343 0.325068,1.345524 0.691202,1.993546 0.366065,0.647902 1.138141,1.54258 1.35875,1.635859 0.04028,0.01703 0.07503,0.0061 0.08642,-0.0027 0.0114,-0.0088 0.03069,-0.03969 0.02437,-0.08296 -0.03119,-0.213244 -0.708375,-1.213062 -1.033659,-1.795178 -0.325376,-0.582277 -0.806424,-1.674343 -0.978163,-1.805262 -0.0362,-0.0276 -0.07703,-0.02197 -0.09151,-0.01646 z"
         id="path212"
         sodipodi:nodetypes="zssszsssz" />
      <path
         style="fill:#ffffff;stroke-width:0.481361;stroke-linecap:round;stroke-linejoin:round;paint-order:fill markers stroke"
         d="m 98.690233,98.029291 c -0.04202,-4.4e-5 -0.09496,0.0076 -0.151618,0.03377 -0.04085,0.01888 -0.08132,0.04644 -0.11729,0.08335 -0.03108,0.03189 -0.05924,0.0713 -0.0796,0.117281 -0.01903,0.04298 -0.03168,0.09259 -0.03161,0.146729 6.7e-5,0.05246 0.0122,0.102234 0.03184,0.146467 0.0196,0.04414 0.04709,0.08378 0.07957,0.117101 0.03357,0.03445 0.0733,0.06301 0.117177,0.08331 0.04493,0.02078 0.09354,0.03259 0.143397,0.03369 0.0027,6.1e-5 0.0054,8.9e-5 0.0082,8.6e-5 0.05207,-7e-5 0.102812,-0.01175 0.149745,-0.03157 0.04357,-0.0184 0.08502,-0.04438 0.121452,-0.07632 0.03521,-0.03087 0.06776,-0.06912 0.09212,-0.11386 0.02445,-0.04491 0.04201,-0.09907 0.04208,-0.15894 7.8e-5,-0.06158 -0.01806,-0.115409 -0.04185,-0.159225 -0.02526,-0.04651 -0.0586,-0.0846 -0.09216,-0.114021 -0.039,-0.03419 -0.08114,-0.05929 -0.121587,-0.07635 -0.05627,-0.02373 -0.107812,-0.03147 -0.149852,-0.03151 z m -3.69e-4,0.34924 c -1.08e-4,0 0.0041,-3.21e-4 0.01453,0.0041 0.008,0.0034 0.01778,0.009 0.02705,0.01716 0.0083,0.0073 0.01325,0.01398 0.01548,0.01807 0.0017,0.0032 -4.97e-4,0.001 -4.86e-4,-0.0079 1.1e-5,-0.0086 0.0022,-0.01095 4.25e-4,-0.0076 -0.0021,0.0039 -0.007,0.01071 -0.01562,0.01824 -0.0087,0.0077 -0.0184,0.01353 -0.02709,0.0172 -0.0088,0.0037 -0.01459,0.0041 -0.01434,0.0041 2.53e-4,5e-6 -9.57e-4,1.22e-4 -0.0045,-0.0015 -0.0037,-0.0017 -0.0086,-0.0049 -0.0137,-0.0101 -0.0049,-0.0051 -0.0085,-0.0105 -0.0105,-0.01509 -0.0019,-0.0043 -0.0018,-0.0064 -0.0018,-0.0052 2e-6,0.0014 -8.4e-5,-8.35e-4 0.0017,-0.0049 0.0021,-0.0047 0.0057,-0.01009 0.01037,-0.01492 0.0053,-0.0054 0.01037,-0.0085 0.01369,-0.01007 0.0044,-0.002 0.0049,-0.0016 0.0047,-0.0016 z"
         id="path469"
         sodipodi:nodetypes="sssss" />
      <g
         id="g1345"
         transform="translate(7.3751678,4.2855705)"
         style="fill:#ffffff">
        <path
           id="path1341"
           style="fill:#ffffff;stroke-width:1.88976;stroke-linecap:round;stroke-linejoin:round;paint-order:fill markers stroke"
           d="m 324.74219,376.45312 c -0.0213,-4.2e-4 -0.0436,3.9e-4 -0.0684,0.002 -0.45423,0.0288 -1.67177,0.34738 -2.96094,1.51953 -0.78306,0.71197 -1.57721,1.74554 -2.02539,3.11133 -0.24501,0.64934 -0.44457,1.51647 -0.3457,2.45898 0.0448,0.42617 0.15367,0.86499 0.33593,1.28711 0.17742,0.41088 0.42554,0.80808 0.75391,1.15235 0.54226,0.57103 1.24595,0.94139 1.96875,1.10156 0.81286,0.18013 1.59527,0.088 2.23438,-0.11914 0.65663,-0.21283 1.33131,-0.58955 1.91015,-1.16602 0.52751,-0.52523 0.94049,-1.18071 1.19141,-1.91211 0.19256,-0.589 0.27197,-1.18488 0.27929,-1.75195 0.2308,0.20092 0.45747,0.37714 0.68165,0.5293 0.70772,0.48031 1.49592,0.75753 2.31835,0.85546 0.90141,0.10734 1.70224,-0.0182 1.94532,-0.15039 0.13806,-0.0751 0.18762,-0.22305 0.22461,-0.26757 -0.0276,-0.0513 -0.0466,-0.20709 -0.16602,-0.3086 -0.25037,-0.21275 -0.92815,-0.40338 -1.64062,-0.71094 -0.62236,-0.26865 -1.09361,-0.55462 -1.56055,-0.93945 -0.2349,-0.1936 -0.49264,-0.44204 -0.78516,-0.76367 -0.27869,-0.30644 -0.5518,-0.63816 -0.8457,-0.99805 -0.4002,-0.49005 -0.82354,-0.93884 -1.12891,-1.32422 -0.18624,-0.23503 -0.302,-0.45204 -0.4707,-0.54297 -0.30654,-0.1652 -0.83633,-0.0561 -0.99414,-0.006 -0.1578,0.0502 -0.65192,0.26807 -0.80664,0.58007 -0.13427,0.27076 -0.10343,0.71989 0.0312,1.2793 0.17542,0.65676 0.41597,1.37157 0.5625,2.08398 0.12791,0.62089 0.17705,1.23576 0.0684,1.79688 -0.0688,0.41614 -0.2294,0.81675 -0.4707,1.15234 -0.26503,0.36886 -0.61409,0.6373 -0.97266,0.78321 -0.34878,0.14199 -0.78467,0.20766 -1.23047,0.12304 -0.39543,-0.075 -0.7811,-0.26901 -1.07617,-0.55859 -0.17666,-0.17489 -0.32397,-0.38777 -0.43945,-0.62891 -0.11885,-0.24816 -0.19945,-0.51829 -0.24415,-0.79101 -0.10134,-0.62002 -0.0253,-1.24922 0.0977,-1.80664 0.30618,-1.1002 0.90088,-1.9904 1.49805,-2.63867 0.94449,-1.02533 2.02696,-1.55843 2.29297,-1.74805 0.30256,-0.21568 0.23939,-0.38548 0.22656,-0.46094 -0.01,-0.0564 -0.0693,-0.21628 -0.38867,-0.22266 z"
           transform="matrix(0.26458333,0,0,0.26458333,-7.3751678,-4.2855705)"
           sodipodi:nodetypes="ssscsscsssccssscsssssssssccccsscsccsssss" />
      </g>
      <g
         id="g1361"
         transform="translate(10.140856,2.5165268)"
         style="fill:#ffffff">
        <path
           id="path1355"
           style="fill:#ffffff;stroke-width:1.88976;stroke-linecap:round;stroke-linejoin:round;paint-order:fill markers stroke"
           d="m 342.70703,360.43555 c -0.0676,0.008 -0.20551,0.10091 -0.27344,0.30468 -0.16744,0.50234 -0.11768,2.51426 0.15235,4.59571 0.22441,1.72982 0.56699,3.24155 1.02148,4.52929 0.46141,1.30734 1.07216,2.58756 1.88867,3.85938 0.95054,1.48058 1.98975,2.65055 2.49219,2.81836 0.2675,0.0893 0.53755,-0.1058 0.64453,-0.12695 0.1141,-0.0866 0.5146,-0.14232 0.6836,-0.51758 0.27945,-0.62055 0.26544,-2.26827 0.2539,-4.03321 -3.4e-4,-0.0521 3.1e-4,-0.10094 0,-0.15234 0.37024,0.14371 0.78207,0.28217 1.20899,0.40234 0.47967,0.13502 0.96001,0.23896 1.42773,0.30469 0.48441,0.0681 0.9119,0.0892 1.30274,0.0801 0.0315,-7.4e-4 0.0636,-0.003 0.0957,-0.004 0.42801,-0.0171 0.86146,-0.0838 1.30078,-0.21093 0.40896,-0.11838 0.78941,-0.27828 1.13867,-0.46289 0.83755,-0.44273 1.4818,-1.01275 1.62305,-1.29493 0.0876,-0.1751 0.0869,-0.33864 0.0215,-0.43554 -0.0654,-0.0969 -0.20339,-0.17714 -0.39843,-0.17969 -0.3654,-0.005 -1.04058,0.32415 -1.82422,0.58398 -0.31325,0.10387 -0.62074,0.18722 -0.93164,0.24024 -0.32989,0.0563 -0.63586,0.0735 -0.92969,0.0566 -0.0222,-0.001 -0.0444,-0.002 -0.0664,-0.004 -0.27116,-0.0202 -0.5899,-0.08 -0.96484,-0.18554 -0.36716,-0.10337 -0.75261,-0.2413 -1.16602,-0.4004 -0.65472,-0.25196 -1.30344,-0.52739 -1.82226,-0.69726 0.0172,-0.57805 0.0493,-1.11323 0.10547,-1.61524 0.12465,-1.11476 0.33112,-2.11356 0.61914,-3.23046 0.32713,-1.26859 0.65538,-2.3242 0.59765,-2.77539 -0.0256,-0.20038 -0.083,-0.33738 -0.21093,-0.38477 -0.12793,-0.0474 -0.26224,-0.004 -0.42383,0.11719 -0.3281,0.24679 -0.95098,1.26786 -1.47461,2.53515 -0.46256,1.11949 -0.78544,2.27695 -0.98047,3.47852 -0.19613,1.20824 -0.33059,2.61602 -0.34375,4.23242 -0.003,0.42901 0.002,0.85176 0.0156,1.25391 -0.0985,-0.15418 -0.20004,-0.3106 -0.30078,-0.47071 -0.75235,-1.1957 -1.35494,-2.27369 -1.81054,-3.4375 -0.45899,-1.17244 -0.82374,-2.47261 -1.20703,-4.15429 -0.46439,-2.03744 -0.80202,-3.88295 -1.12696,-4.39063 -0.11575,-0.18085 -0.2702,-0.2369 -0.33789,-0.22851 z"
           transform="matrix(0.26458333,0,0,0.26458333,-10.140856,-2.5165268)"
           sodipodi:nodetypes="sssssscsscssssssszssssssscssszsssscssssss" />
      </g>
      <g
         id="g5354"
         transform="translate(10.822045,-3.8486289)"
         style="fill:#ffffff;fill-opacity:1">
        <path
           id="path5352"
           style="fill:#ffffff;fill-opacity:1;stroke-width:1.88976;stroke-linecap:round;stroke-linejoin:round;paint-order:fill markers stroke"
           d="m 323.9043,347.59961 c -0.46866,0.002 -0.99406,0.0568 -1.52149,0.21289 -0.33868,0.10023 -0.68089,0.24205 -1.00976,0.44336 -0.32791,0.20072 -0.63497,0.45547 -0.9043,0.76953 -0.5286,0.61754 -0.86194,1.36733 -1.03906,2.13672 -0.19792,0.85969 -0.20107,1.73436 -0.084,2.54297 0.11528,0.79614 0.37644,1.71773 0.86914,2.64258 0.43886,0.82377 1.05771,1.63968 1.88868,2.32617 0.80611,0.66596 1.77122,1.17714 2.74414,1.48828 0.49884,0.15953 1.00029,0.26547 1.48632,0.31641 0.50753,0.0532 1.00044,0.0462 1.45899,-0.0293 0.49348,-0.0813 0.92338,-0.23683 1.29687,-0.42578 0.41577,-0.21033 0.76688,-0.46583 1.05274,-0.71289 0.92976,-0.80359 1.38904,-1.6488 1.39648,-1.87305 0.006,-0.18202 -0.41248,-0.57558 -0.59375,-0.55859 -0.29117,0.0273 -0.94039,0.61345 -1.77734,1.15234 -0.25013,0.16105 -0.51669,0.31103 -0.80274,0.42578 -0.25379,0.10182 -0.52902,0.17853 -0.83203,0.21289 -0.2862,0.0325 -0.6162,0.0289 -0.98632,-0.0195 -0.35378,-0.0463 -0.73321,-0.1323 -1.1211,-0.26172 -0.76372,-0.25481 -1.51466,-0.65764 -2.125,-1.16211 -0.62029,-0.5127 -1.09165,-1.1285 -1.42969,-1.76172 -0.11881,-0.22256 -0.21984,-0.44588 -0.30468,-0.66406 0.33264,-0.0299 0.75454,-0.1097 1.1914,-0.23047 0.6472,-0.17892 1.23514,-0.42371 1.76563,-0.7207 0.0463,-0.0261 2.67473,-1.16657 3.16015,-2.82816 0.17801,-0.60934 -0.56383,-1.65267 -0.88867,-2.03906 -0.25809,-0.307 -0.60368,-0.63925 -1.0293,-0.90234 -0.19522,-0.12068 -0.41487,-0.23072 -0.65624,-0.31446 -0.23108,-0.0802 -0.48346,-0.13797 -0.75586,-0.15429 -0.14141,-0.009 -0.293,-0.0125 -0.44922,-0.0117 z m -0.17757,4.78502 c -0.52988,0.24129 -0.955,0.47223 -1.50793,0.74249 -0.35136,0.17174 -0.70159,0.33849 -0.97656,0.49024 -0.009,-0.0568 -0.0165,-0.11298 -0.0234,-0.16797 -0.0769,-0.60882 -0.0409,-1.23128 0.125,-1.79883 0.14923,-0.51066 0.38995,-0.92698 0.68359,-1.22266 0.13,-0.12985 0.27211,-0.23121 0.42578,-0.31054 0.15588,-0.0805 0.32754,-0.141 0.51368,-0.18555 0.29784,-0.0713 0.61881,-0.0981 1.25123,0.0267 0.63242,0.12478 0.83923,0.28295 0.99831,0.42635 0.6082,0.59252 -0.95982,1.75848 -1.4897,1.99977 z"
           transform="scale(0.26458333)"
           sodipodi:nodetypes="ssscsssssssssssssssssscscsssscssscsscsssccs" />
      </g>
    </g>
  </g>
</svg>
