<?xml version="1.0" encoding="UTF-8" standalone="no"?>
<!-- Created with Inkscape (http://www.inkscape.org/) -->

<svg
   width="133.85898mm"
   height="118.96244mm"
   viewBox="0 0 133.85898 118.96244"
   version="1.1"
   id="svg5"
   inkscape:version="1.1.1 (3bf5ae0d25, 2021-09-20)"
   sodipodi:docname="bezier-icon.svg"
   xmlns:inkscape="http://www.inkscape.org/namespaces/inkscape"
   xmlns:sodipodi="http://sodipodi.sourceforge.net/DTD/sodipodi-0.dtd"
   xmlns="http://www.w3.org/2000/svg"
   xmlns:svg="http://www.w3.org/2000/svg">
  <sodipodi:namedview
     id="namedview7"
     pagecolor="#ffffff"
     bordercolor="#999999"
     borderopacity="1"
     inkscape:pageshadow="0"
     inkscape:pageopacity="0"
     inkscape:pagecheckerboard="0"
     inkscape:document-units="mm"
     showgrid="false"
     inkscape:zoom="0.46929649"
     inkscape:cx="917.33053"
     inkscape:cy="107.60788"
     inkscape:window-width="1920"
     inkscape:window-height="1002"
     inkscape:window-x="1912"
     inkscape:window-y="-8"
     inkscape:window-maximized="1"
     inkscape:current-layer="layer1"
     inkscape:snap-object-midpoints="true"
     inkscape:snap-center="true"
     inkscape:snap-bbox="true"
     inkscape:snap-bbox-midpoints="true"
     showguides="true"
     inkscape:guide-bbox="true"
     fit-margin-top="0"
     fit-margin-left="0"
     fit-margin-right="0"
     fit-margin-bottom="0" />
  <defs
     id="defs2">
    <inkscape:path-effect
       effect="fillet_chamfer"
       id="path-effect8289"
       is_visible="true"
       lpeversion="1"
       satellites_param="F,0,1,1,0,6.8791667,0,1 @ F,0,0,1,0,0,0,1 @ F,0,0,1,0,0,0,1 @ F,0,1,1,0,6.8791667,0,1"
       unit="px"
       method="auto"
       mode="F"
       radius="26"
       chamfer_steps="1"
       flexible="false"
       use_knot_distance="true"
       apply_no_radius="true"
       apply_with_radius="true"
       only_selected="true"
       hide_knots="false" />
    <inkscape:path-effect
       effect="bspline"
       id="path-effect883"
       is_visible="true"
       lpeversion="1"
       weight="33.333333"
       steps="2"
       helper_size="0"
       apply_no_weight="true"
       apply_with_weight="true"
       only_selected="false" />
  </defs>
  <g
     inkscape:label="Ebene 1"
     inkscape:groupmode="layer"
     id="layer1"
     transform="translate(201.12261,-47.278061)">
    <circle
       style="display:inline;fill:#e6e6e6;fill-rule:evenodd;stroke-width:0.499999"
       id="path846"
       cx="-141.72282"
       cy="111.42483"
       r="49.234226"
       inkscape:label="circle" />
    <g
       id="g3648"
       style="fill:#e9b96e;fill-opacity:1"
       inkscape:label="ancor">
      <g
         id="path1791">
        <path
           id="path6282"
           style="color:#000000;fill:#e9b96e;fill-opacity:1;fill-rule:evenodd;stroke-width:3.77953;-inkscape-stroke:none"
           d="m -555.98633,201.86719 a 20.815976,20.815976 0 0 0 -20.8164,20.81445 20.815976,20.815976 0 0 0 15.14453,20.01563 v 314.65625 a 20.815976,20.815976 0 0 0 -15.14453,20.01562 20.815976,20.815976 0 0 0 20.8164,20.81641 20.815976,20.815976 0 0 0 20.81641,-20.81641 20.815976,20.815976 0 0 0 -15.15039,-20.01758 V 242.69922 a 20.815976,20.815976 0 0 0 15.15039,-20.01758 20.815976,20.815976 0 0 0 -20.81641,-20.81445 z"
           transform="scale(0.26458333)" />
        <path
           style="color:#000000;fill-rule:evenodd;stroke-width:3;-inkscape-stroke:none"
           d="M -147.1047,63.386578 V 148.69933"
           id="path6280" />
      </g>
    </g>
    <path
       id="rect3525"
       style="font-variation-settings:normal;display:inline;opacity:1;vector-effect:none;fill:#ad7fa8;fill-opacity:1;fill-rule:evenodd;stroke:none;stroke-width:1.88976;stroke-linecap:butt;stroke-linejoin:miter;stroke-miterlimit:4;stroke-dasharray:none;stroke-dashoffset:0;stroke-opacity:1;stop-color:#000000;stop-opacity:1"
       d="m -760.14844,221.49023 v 41.43555 h 41.4336 v -12.83203 c 12.83273,0.90615 44.46573,4.38408 76.1582,17.68359 40.27565,16.90138 79.46449,48.37595 80.83398,111.53125 h -14.98046 v 41.43555 h 16.10742 c 3.11781,51.84348 13.67411,96.15425 38.89648,129.61328 29.87975,39.63736 80.09132,62.75994 159.32813,64.63672 v 13.31641 h 41.43554 V 586.875 h -41.43554 v 16.78125 C -439.29453,601.83482 -485.16432,579.98093 -512.64258,543.5293 -535.75232,512.87278 -546.06153,471 -549.20898,420.74414 h 13.93945 v -41.43555 h -15.11914 c -1.42489,-67.93623 -45.11651,-104.08546 -87.78321,-121.99023 -34.00267,-14.26898 -67.50831,-17.74277 -80.54296,-18.59375 v -17.23438 z"
       transform="scale(0.26458333)"
       inkscape:label="curve" />
    <g
       id="g19302"
       transform="rotate(-128.96281,-92.112419,105.72832)"
       inkscape:label="pen">
      <path
         id="path7900"
         style="fill:#e9b96e;fill-rule:evenodd;stroke-width:11.3386"
         inkscape:transform-center-y="-5.1942776"
         d="m -245.70508,283.11719 c -4.21127,-1.5e-4 -8.0569,2.3922 -9.91797,6.16992 l -54.96875,117.62109 42.00782,123.01953 h 52 l 42.00586,-123.01953 -54.9668,-117.62109 c -1.86138,-3.77836 -5.70795,-6.17081 -9.91992,-6.16992 z"
         sodipodi:nodetypes="ccccccccc"
         transform="scale(0.26458333)" />
      <path
         id="path8467"
         style="fill:#f1d2a1;fill-opacity:1;fill-rule:evenodd;stroke-width:11.3386"
         inkscape:transform-center-y="-5.1942776"
         d="m -242.58398,283.11719 v 246.81054 h 26 l 42.00586,-123.01953 -54.9668,-117.62109 c -1.86138,-3.77836 -5.70795,-6.17081 -9.91992,-6.16992 z"
         sodipodi:nodetypes="ccccccc"
         transform="scale(0.26458333)" />
      <g
         id="g17616"
         transform="matrix(1.1692304,0,0,1.3731654,10.862432,-65.400938)">
        <rect
           style="font-variation-settings:normal;opacity:1;vector-effect:none;fill:#ad7fa8;fill-opacity:1;fill-rule:evenodd;stroke:none;stroke-width:0.499999;stroke-linecap:butt;stroke-linejoin:miter;stroke-miterlimit:4;stroke-dasharray:none;stroke-dashoffset:0;stroke-opacity:1;stop-color:#000000;stop-opacity:1"
           id="rect13261"
           width="16.657383"
           height="9.6757736"
           x="-72.512627"
           y="149.73505"
           ry="1.6913614" />
        <path
           id="rect13343"
           style="font-variation-settings:normal;opacity:1;vector-effect:none;fill:#c7a7c3;fill-opacity:1;fill-rule:evenodd;stroke:none;stroke-width:0.499999;stroke-linecap:butt;stroke-linejoin:miter;stroke-miterlimit:4;stroke-dasharray:none;stroke-dashoffset:0;stroke-opacity:1;stop-color:#000000;stop-opacity:1"
           d="m -57.546353,149.73504 c 0.937014,0 1.690852,0.75436 1.690852,1.69137 v 6.29316 c 0,0.93701 -0.753838,1.69137 -1.690852,1.69137 h -6.63784 v -9.6759 z" />
      </g>
    </g>
  </g>
</svg>
