<?xml version="1.0" encoding="UTF-8" standalone="no"?>
<!-- Created with Inkscape (http://www.inkscape.org/) -->

<svg
   width="154.17715mm"
   height="162.48503mm"
   viewBox="0 0 154.17716 162.48503"
   version="1.1"
   id="svg22985"
   inkscape:version="1.1.1 (3bf5ae0d25, 2021-09-20)"
   sodipodi:docname="butterfly-w-triangle.svg"
   xmlns:inkscape="http://www.inkscape.org/namespaces/inkscape"
   xmlns:sodipodi="http://sodipodi.sourceforge.net/DTD/sodipodi-0.dtd"
   xmlns="http://www.w3.org/2000/svg"
   xmlns:svg="http://www.w3.org/2000/svg">
  <sodipodi:namedview
     id="namedview22987"
     pagecolor="#ffffff"
     bordercolor="#999999"
     borderopacity="1"
     inkscape:pageshadow="0"
     inkscape:pageopacity="0"
     inkscape:pagecheckerboard="0"
     inkscape:document-units="mm"
     showgrid="false"
     fit-margin-top="0"
     fit-margin-left="0"
     fit-margin-right="0"
     fit-margin-bottom="0"
     inkscape:zoom="0.93859299"
     inkscape:cx="448.01102"
     inkscape:cy="342.53399"
     inkscape:window-width="1920"
     inkscape:window-height="1002"
     inkscape:window-x="1912"
     inkscape:window-y="-8"
     inkscape:window-maximized="1"
     inkscape:current-layer="layer1"
     showguides="true"
     inkscape:guide-bbox="true"
     inkscape:snap-center="true"
     inkscape:snap-object-midpoints="true" />
  <defs
     id="defs22982">
    <inkscape:path-effect
       effect="taper_stroke"
       id="path-effect27629"
       is_visible="true"
       lpeversion="1"
       stroke_width="1"
       attach_start="0.57370544"
       end_offset="0.57781363"
       start_smoothing="0.5"
       end_smoothing="0.5"
       jointype="extrapolated"
       start_shape="center"
       end_shape="center"
       miter_limit="100" />
    <inkscape:path-effect
       effect="taper_stroke"
       id="path-effect26657"
       is_visible="true"
       lpeversion="1"
       stroke_width="1.0669285"
       attach_start="0.59531567"
       end_offset="0.59363753"
       start_smoothing="0.5"
       end_smoothing="0.5"
       jointype="extrapolated"
       start_shape="center"
       end_shape="center"
       miter_limit="100" />
    <inkscape:path-effect
       effect="bspline"
       id="path-effect26084"
       is_visible="true"
       lpeversion="1"
       weight="33.333333"
       steps="2"
       helper_size="0"
       apply_no_weight="true"
       apply_with_weight="true"
       only_selected="false" />
    <filter
       inkscape:collect="always"
       style="color-interpolation-filters:sRGB"
       id="filter28822"
       x="-0.051141989"
       y="-0.055089888"
       width="1.102284"
       height="1.1101798">
      <feGaussianBlur
         inkscape:collect="always"
         stdDeviation="1.0597991"
         id="feGaussianBlur28824" />
    </filter>
    <filter
       inkscape:collect="always"
       style="color-interpolation-filters:sRGB"
       id="filter28826"
       x="-0.048113466"
       y="-0.046302115"
       width="1.0962269"
       height="1.0926042">
      <feGaussianBlur
         inkscape:collect="always"
         stdDeviation="1.0597991"
         id="feGaussianBlur28828" />
    </filter>
    <filter
       inkscape:collect="always"
       style="color-interpolation-filters:sRGB"
       id="filter28830"
       x="-0.048138873"
       y="-0.046311262"
       width="1.0962777"
       height="1.0926225">
      <feGaussianBlur
         inkscape:collect="always"
         stdDeviation="1.0597991"
         id="feGaussianBlur28832" />
    </filter>
    <filter
       inkscape:collect="always"
       style="color-interpolation-filters:sRGB"
       id="filter28834"
       x="-0.07680436"
       y="-0.5847006"
       width="1.1536087"
       height="2.1694012">
      <feGaussianBlur
         inkscape:collect="always"
         stdDeviation="1.0597991"
         id="feGaussianBlur28836" />
    </filter>
  </defs>
  <g
     inkscape:label="Ebene 1"
     inkscape:groupmode="layer"
     id="layer1"
     transform="translate(43.202671,-160.34405)">
    <g
       id="g23185"
       inkscape:label="triangle">
      <path
         style="color:#000000;fill:#783dde;fill-rule:evenodd;stroke-width:0.356944;-inkscape-stroke:none;paint-order:fill markers stroke;fill-opacity:1;filter:url(#filter28834)"
         d="m 17.341435,289.51485 c 0.466843,1.43372 0.933621,2.87551 1.371492,4.35012 h 30.373856 c 0.437876,-1.47461 0.904644,-2.9164 1.371493,-4.35012 z"
         id="path19273" />
      <path
         id="path19269"
         style="color:#000000;fill:#783dde;fill-rule:evenodd;stroke-width:0.356944;-inkscape-stroke:none;paint-order:fill markers stroke;fill-opacity:1;filter:url(#filter28830)"
         d="m 79.264787,238.94287 c -1.182209,0.41986 -2.332519,0.71077 -3.399277,0.91778 -0.336179,0.0652 -0.667051,0.12137 -0.994772,0.17156 l 28.568802,49.48277 H 59.91558 c -0.606595,1.39626 -1.2086,2.85671 -1.778186,4.35012 h 52.837086 l -1.88412,-3.26234 z"
         sodipodi:nodetypes="csccccccc" />
      <path
         id="path19160"
         style="color:#000000;fill:#783dde;fill-rule:evenodd;stroke-width:0.356944;-inkscape-stroke:none;paint-order:fill markers stroke;fill-opacity:1;filter:url(#filter28826)"
         d="M -11.487295,238.93202 -43.202671,293.8651 H 9.6623162 C 9.0927371,292.37169 8.4907174,290.91124 7.884131,289.51498 h -43.552379 l 28.5734488,-49.49 c -0.3197198,-0.0494 -0.6414717,-0.10329 -0.9694492,-0.16692 -1.0733722,-0.20828 -2.2326256,-0.50173 -3.4230466,-0.92604 z"
         sodipodi:nodetypes="ccccccsc" />
      <path
         style="color:#000000;fill:#783dde;fill-rule:evenodd;stroke-width:0.356944;-inkscape-stroke:none;paint-order:fill markers stroke;fill-opacity:1;filter:url(#filter28822)"
         d="M 33.885644,160.34405 9.0235961,203.40602 c 0.7262707,0.71739 1.4479129,1.42195 2.1595579,2.09134 0.361328,0.33989 0.720925,0.67279 1.079004,0.99994 l 21.623486,-37.45248 21.632788,37.46955 c 0.364376,-0.33274 0.730878,-0.67106 1.098641,-1.01701 0.705715,-0.66381 1.420868,-1.36218 2.140955,-2.07325 z"
         id="path18273" />
    </g>
    <g
       id="g23202"
       style="display:inline"
       inkscape:label="butterfly">
      <path
         style="display:inline;fill:#000000;stroke-width:3.43;paint-order:fill markers stroke"
         d="m 0.0275836,237.33294 c -0.53139251,0.67331 -1.8662482,2.38175 -2.7959409,4.16505 -0.7350944,1.41004 -1.388338,3.12614 -1.7554721,5.44361 -0.1750252,1.10487 -0.2844638,2.33736 -0.3208367,3.65104 -0.037054,1.33823 0.00266,2.72407 0.115104,4.10849 0.1382985,1.70273 0.3801565,3.32861 0.6953808,4.83628 0.2630831,1.25826 0.5760553,2.40991 0.9210593,3.44612 0.8635659,2.59375 2.1024602,4.9781 3.4407809,7.21685 1.2364582,2.06833 2.7260939,4.22418 4.4537016,6.97321 1.5139126,2.40898 3.2202847,5.37627 4.9916821,8.92685 0.8584974,1.72075 1.7693934,3.66256 2.6994424,5.83297 0.96997,2.26356 1.955405,4.76632 2.819905,7.26616 0.742705,2.14764 1.400996,4.30827 1.836192,6.18099 0.391456,1.68467 0.605699,3.14995 0.595797,4.42135 -0.0047,0.60017 -0.05909,1.16147 -0.169268,1.69112 -0.106604,0.51244 -0.26398,0.98835 -0.473637,1.43898 -0.401592,0.86291 -0.969743,1.57946 -1.589635,2.22873 -0.585905,0.61369 -1.213533,1.163 -1.770413,1.71001 -0.537139,0.52763 -1.015194,1.05959 -1.351362,1.56574 -0.162547,0.24474 -0.284007,0.47175 -0.36373,0.67871 -0.07828,0.2032 -0.111133,0.37361 -0.112214,0.51502 -10e-4,0.13748 0.02784,0.28157 0.08969,0.43018 0.0614,0.14755 0.154269,0.2966 0.27577,0.43816 0.119813,0.13958 0.262038,0.26544 0.41523,0.36894 0.15181,0.10259 0.30561,0.17721 0.446638,0.2225 0.135624,0.0431 0.267991,0.0627 0.401673,0.0621 0.133467,-6.3e-4 0.275842,-0.0212 0.430638,-0.0641 0.312321,-0.0865 0.654301,-0.25778 1.04613,-0.50864 0.74721,-0.47845 1.499115,-1.13104 2.180414,-2.07272 0.66808,-0.92341 1.279933,-2.1407 1.673233,-3.728 0.388999,-1.56983 0.566606,-3.50966 0.361096,-5.92155 -0.102471,-1.20264 -0.30042,-2.52388 -0.5717,-3.90833 -0.271007,-1.38309 -0.61363,-2.82141 -1.003048,-4.25661 -0.78124,-2.8809 -1.751548,-5.74775 -2.66667,-8.54748 -0.460904,-1.41013 -0.907994,-2.80341 -1.291926,-4.14259 -0.386577,-1.34843 -0.710601,-2.64707 -0.919686,-3.85584 -0.211614,-1.22326 -0.305604,-2.34969 -0.276329,-3.42601 0.02969,-1.09153 0.185947,-2.1206 0.466639,-3.13334 0.571556,-2.06217 1.634602,-3.96199 2.887768,-5.78515 0.652337,-0.94904 1.36744,-1.89178 2.252112,-2.87166 0.906183,-1.00372 1.97267,-2.02657 3.292922,-3.10998 1.357228,-1.11375 2.939608,-2.26309 4.376471,-3.40427 0.739627,-0.58742 1.433601,-1.16552 2.051281,-1.73646 0.630432,-0.58272 1.163441,-1.14164 1.575652,-1.67632 0.416822,-0.54064 0.715153,-1.06328 0.927576,-1.56687 0.2172,-0.51496 0.349273,-1.02116 0.421585,-1.51957 0.150737,-1.03938 0.04692,-2.07488 -0.134425,-3.1153 -0.398057,-2.28382 -1.14791,-4.40086 -2.208626,-6.67353 -0.622562,-1.33391 -1.265311,-2.56345 -1.887868,-3.89734 -0.32173,-0.69294 -0.607066,-1.3523 -0.844703,-1.98582 -0.256502,-0.68379 -0.451792,-1.32282 -0.574587,-1.92106 -0.134985,-0.65759 -0.178735,-1.25015 -0.168686,-1.78243 0.01139,-0.60338 0.09246,-1.14334 0.197695,-1.61306 0.08889,-0.39694 0.198912,-0.76134 0.309599,-1.08105 0.222009,-0.64338 0.499011,-1.26396 0.743574,-1.79314 0.240407,-0.5262 0.56,-1.02643 0.865958,-1.45988 0.353656,-0.50103 0.758372,-1.00791 1.085635,-1.41464 0.454944,-0.56543 0.774369,-0.95617 1.110232,-1.40282 0.435785,-0.57953 0.72687,-1.03247 0.928835,-1.426 -0.145884,0.421 -0.346894,0.919 -0.683982,1.57879 -0.251487,0.49225 -0.519645,0.96302 -0.877505,1.5783 -0.259198,0.44564 -0.590324,1.00888 -0.858309,1.51927 -0.238001,0.45329 -0.464376,0.93416 -0.615421,1.40325 -0.180529,0.55061 -0.382216,1.16721 -0.535238,1.76773 -0.07586,0.29895 -0.149394,0.6275 -0.203961,0.97485 -0.06447,0.41059 -0.105944,0.86649 -0.09184,1.36496 0.01242,0.43859 0.06815,0.92772 0.199586,1.47482 0.12076,0.50266 0.30699,1.06259 0.560287,1.69164 0.234452,0.58226 0.516351,1.19941 0.841173,1.86606 0.587963,1.20673 1.304409,2.53316 1.950566,3.86732 1.133942,2.34128 1.972292,4.59448 2.427898,7.06378 0.203834,1.10476 0.352669,2.35255 0.173342,3.65605 -0.08718,0.63366 -0.252098,1.28542 -0.527345,1.94908 -0.269335,0.64892 -0.641896,1.3033 -1.144378,1.96064 -0.489821,0.64078 -1.096298,1.27543 -1.768152,1.90013 -0.660818,0.61443 -1.390886,1.22474 -2.147073,1.82813 -1.474243,1.17636 -3.055634,2.33077 -4.348272,3.39516 -1.256114,1.03431 -2.256113,1.99818 -3.097046,2.93197 -0.820256,0.91084 -1.486514,1.78975 -2.10415,2.68934 -1.199332,1.74682 -2.142095,3.45995 -2.640647,5.25195 -0.242838,0.87273 -0.378928,1.75828 -0.406171,2.70614 -0.02696,0.93796 0.05238,1.94533 0.245921,3.07559 0.19214,1.12229 0.495637,2.3543 0.870718,3.67128 0.372092,1.30654 0.808117,2.67442 1.265682,4.08304 0.901602,2.7756 1.88535,5.70077 2.67556,8.63822 0.395513,1.46938 0.745068,2.94916 1.022143,4.37956 0.277002,1.43005 0.482483,2.81551 0.588361,4.09545 0.213071,2.57565 0.02144,4.70723 -0.423545,6.47858 -0.450751,1.79428 -1.159005,3.20897 -1.960216,4.30832 -0.820065,1.12525 -1.734736,1.91625 -2.643856,2.49535 -0.458415,0.29197 -0.961826,0.56015 -1.503439,0.70953 -0.277559,0.0766 -0.568129,0.12281 -0.869538,0.12419 -0.305751,0.001 -0.613833,-0.0435 -0.921298,-0.14194 -0.306873,-0.0983 -0.60277,-0.24657 -0.872518,-0.42812 -0.27375,-0.18424 -0.529323,-0.40856 -0.749949,-0.66414 -0.223605,-0.25904 -0.416298,-0.55601 -0.554251,-0.88351 -0.140464,-0.33346 -0.224586,-0.6999 -0.224051,-1.08616 5.43e-4,-0.3901 0.08734,-0.76471 0.218495,-1.1114 0.133321,-0.35227 0.318301,-0.69116 0.527488,-1.01025 0.426816,-0.65108 0.99595,-1.28185 1.56384,-1.8479 0.601741,-0.59979 1.205955,-1.13901 1.71604,-1.68399 0.542976,-0.58012 0.965861,-1.14446 1.248068,-1.7727 0.146123,-0.32535 0.256534,-0.67284 0.330957,-1.05726 0.07732,-0.39935 0.116376,-0.8424 0.113648,-1.3429 -0.0059,-1.07246 -0.203995,-2.38065 -0.597132,-3.98984 -0.434067,-1.77665 -1.094267,-3.87019 -1.848346,-5.97158 -0.87882,-2.44902 -1.873355,-4.88325 -2.861123,-7.09366 -0.9454995,-2.11584 -1.8738289,-4.00335 -2.7514364,-5.66655 -1.8176874,-3.44481 -3.6001782,-6.2339 -5.209101,-8.48111 -1.82821434,-2.5535 -3.5108093,-4.60717 -4.9649299,-6.68908 -1.5817752,-2.26468 -3.1056131,-4.80118 -4.114921,-7.82005 -0.3986762,-1.19243 -0.7303463,-2.49842 -0.9760221,-3.90853 -0.2933189,-1.68356 -0.4538859,-3.49293 -0.4613175,-5.34935 -0.00605,-1.5116 0.089802,-3.02067 0.2861358,-4.46513 0.1927693,-1.41819 0.4794239,-2.75183 0.8497602,-3.94409 0.7840092,-2.52401 1.9032754,-4.26627 3.0004033,-5.56576 1.3141083,-1.55649 3.18767804,-3.03963 3.74821729,-3.52108 z"
         id="path18279"
         sodipodi:nodetypes="cccccccccccccccccccccccccc"
         inkscape:label="left-lower-wing" />
      <g
         id="g23206"
         inkscape:label="moon">
        <path
           id="path18283"
           style="fill:#000000;stroke-width:2.34974;paint-order:fill markers stroke"
           d="m 28.37636,196.93357 c -5.26e-4,0 -0.0016,0.003 -0.0024,0.003 5.35e-4,0 0.0017,3e-5 0.0024,-0.003 z m -0.0024,0.003 c -0.393136,0.38021 -1.011045,1.03908 -1.422642,2.00608 -0.0197,0.0545 -0.03878,0.10866 -0.05684,0.16277 -0.275,0.825 -0.38903,1.68485 -0.341067,2.54248 0.04957,0.8858 0.272179,1.75977 0.657832,2.5704 0.379581,0.79785 0.914298,1.52826 1.585937,2.13939 0.670967,0.61053 1.472665,1.09654 2.37917,1.41179 0.905353,0.31485 1.822619,0.39798 2.709245,0.39798 0.886627,0 1.804144,-0.0831 2.709505,-0.39799 0.906506,-0.31523 1.708209,-0.80126 2.379177,-1.41179 0.671641,-0.61114 1.206365,-1.34155 1.585944,-2.1394 0.385682,-0.81063 0.608267,-1.6846 0.657863,-2.5704 0.048,-0.85764 -0.06606,-1.71748 -0.341056,-2.54248 -0.01799,-0.0541 -0.03716,-0.10821 -0.05685,-0.16278 -0.411515,-0.96677 -1.029488,-1.62532 -1.422634,-2.00555 0.328805,0.48921 0.684848,1.20385 0.937918,2.17145 0.01655,0.0509 0.03243,0.10182 0.04754,0.15243 0.230112,0.77092 0.310661,1.56331 0.245458,2.34508 -0.06735,0.80777 -0.290186,1.59742 -0.655227,2.32443 -0.359394,0.71564 -0.854473,1.36546 -1.466057,1.90582 -0.610625,0.53951 -1.333826,0.96716 -2.148696,1.24385 -0.824696,0.28002 -1.658148,0.3762 -2.472688,0.3762 -0.814542,2e-5 -1.647997,-0.0962 -2.4727,-0.37618 -0.814844,-0.27669 -1.53806,-0.70435 -2.148689,-1.24386 -0.611577,-0.54035 -1.106656,-1.19017 -1.466042,-1.90581 -0.365079,-0.727 -0.587879,-1.51665 -0.655255,-2.32442 -0.06521,-0.78176 0.01535,-1.57417 0.24547,-2.34509 0.01524,-0.0505 0.03063,-0.10164 0.04762,-0.1524 0.253386,-0.9678 0.609036,-1.68277 0.937926,-2.17197 z m 11.023559,-2e-5 c -7.97e-4,0 -9.47e-4,-0.003 -0.0025,-0.003 v 0 c 5.27e-4,0 9.47e-4,0.003 0.002,0.002 z"
           sodipodi:nodetypes="cccscssssssssssscccssssssssssscsscsscc" />
        <path
           id="path18285"
           style="fill:#000000;stroke-width:2.34974;paint-order:fill markers stroke"
           d="m 28.376363,196.9346 c -0.682506,0.34447 -2.025942,1.04394 -3.091789,2.50993 -0.386401,0.53149 -0.761242,1.19091 -1.057295,1.97302 -0.438583,1.22798 -0.629597,2.53328 -0.548291,3.85349 0.07729,1.25488 0.399588,2.49405 0.955486,3.64475 0.548191,1.13477 1.314141,2.16407 2.264448,3.01997 0.969071,0.87281 2.109643,1.54781 3.373406,1.98281 1.236473,0.42563 2.462282,0.52916 3.613716,0.52916 1.151436,0 2.377243,-0.10354 3.613712,-0.52918 1.263765,-0.435 2.404338,-1.11 3.37342,-1.98282 0.950305,-0.8559 1.716266,-1.8852 2.264448,-3.01997 0.555897,-1.15071 0.878211,-2.38988 0.955487,-3.64475 0.08131,-1.32021 -0.109704,-2.62551 -0.548282,-3.8535 -0.296049,-0.7821 -0.670882,-1.44152 -1.057287,-1.97302 -1.065834,-1.46597 -2.409277,-2.16545 -3.091777,-2.5099 0.641544,0.54662 1.512486,1.53645 2.297,3.01065 0.279213,0.5247 0.555768,1.13747 0.773067,1.84383 0.360298,1.09521 0.503908,2.24488 0.414439,3.39823 -0.08509,1.09701 -0.37974,2.17612 -0.873831,3.17603 -0.487304,0.98613 -1.160243,1.87788 -1.989022,2.61845 -0.844517,0.75462 -1.836568,1.33967 -2.937273,1.71774 -1.079337,0.3707 -2.146876,0.503 -3.194098,0.503 -1.047223,0 -2.114765,-0.13229 -3.194103,-0.50299 -1.100703,-0.37805 -2.092759,-0.96311 -2.937266,-1.71773 -0.828779,-0.74057 -1.501709,-1.63231 -1.989009,-2.61844 -0.494109,-0.99991 -0.788735,-2.07901 -0.873836,-3.17602 -0.08947,-1.15335 0.05415,-2.30302 0.414448,-3.39824 0.217339,-0.70634 0.493851,-1.31913 0.773074,-1.84383 0.784515,-1.47421 1.65546,-2.46404 2.297008,-3.01067 z"
           sodipodi:nodetypes="cscssssssssscscscssssssssscsc" />
      </g>
      <g
         id="g23229"
         inkscape:label="right-upper-wing"
         style="display:inline">
        <path
           style="display:inline;fill:#000000;stroke-width:1.9;paint-order:fill markers stroke"
           d="m 108.91148,193.42278 c -0.2249,-0.57764 -0.53282,-1.14943 -0.9835,-1.6473 -0.34119,-0.3769 -0.70775,-0.65228 -1.1157,-0.90288 -0.36443,-0.22161 -0.80011,-0.34809 -1.2993,-0.34221 -0.45679,0.005 -0.95054,0.12194 -1.46175,0.35658 -0.48384,0.22203 -0.97376,0.54334 -1.43088,0.92246 -0.444,0.36823 -0.85883,0.79268 -1.19833,1.22844 -0.34007,0.43648 -0.59995,0.8778 -0.80214,1.33379 -0.20422,0.46047 -0.34415,0.9239 -0.44897,1.38876 -0.12546,0.55656 -0.202119,1.12484 -0.253113,1.67347 -0.03793,0.40809 -0.06445,0.82303 -0.08655,1.24554 -0.05049,0.96632 -0.07654,1.97722 -0.129484,2.86415 -0.02592,0.4345 -0.05752,0.81454 -0.107395,1.1571 -0.04906,0.33724 -0.113791,0.62282 -0.200663,0.87708 -0.08445,0.24711 -0.195202,0.48065 -0.33269,0.7149 -0.137684,0.23466 -0.305473,0.47551 -0.507959,0.73671 -0.419708,0.54111 -0.942064,1.11264 -1.705408,1.97741 a 1.4755349,1.1842231 75.17378 0 0 -0.313745,0.70722 c -0.181612,1.22232 -0.294083,2.21598 -0.505153,3.17153 -0.102151,0.46258 -0.220936,0.88056 -0.367818,1.26319 -0.146907,0.38272 -0.321019,0.72743 -0.532319,1.0422 -0.432973,0.64497 -1.088269,1.26613 -1.971702,1.92388 -0.599226,0.44615 -1.276857,0.88997 -2.020124,1.35726 -0.359774,0.22619 -0.729772,0.45453 -1.118262,0.69432 a 1.4917855,1.4804737 81.112494 0 0 -0.662918,0.91597 c -0.270478,1.11801 -0.466475,2.18345 -0.736929,3.30147 -0.255562,1.05601 -0.577426,2.14865 -1.105993,3.38044 -0.528956,1.23232 -1.272636,2.62152 -2.176942,3.95542 -0.904032,1.33351 -1.942808,2.57364 -3.051478,3.53955 -1.1065,0.96398 -2.315745,1.68357 -3.548004,2.22739 -1.248304,0.55091 -2.516179,0.91923 -3.711481,1.17352 -1.215154,0.25851 -2.334292,0.39494 -3.463678,0.44589 -1.165763,0.0526 -2.358466,0.0145 -3.673935,-0.0823 -2.880418,-0.21206 -5.999297,-0.67829 -9.017536,-1.53577 -1.649521,-0.46862 -3.249112,-1.04863 -4.670378,-1.63512 -0.377676,-0.15582 -0.743996,-0.31265 -1.097332,-0.46884 -1.080762,-0.47772 -2.089228,-0.96868 -2.983803,-1.44581 -1.201174,-0.64064 -2.214365,-1.2672 -3.127192,-1.81631 -0.989591,-0.59531 -1.838063,-1.08474 -2.726978,-1.46351 -0.488468,-0.2101 -1.036817,-0.37268 -1.57042,-0.50204 -0.586988,-0.14227 -1.196716,-0.25374 -1.748524,-0.3427 -0.627331,-0.10109 -1.261373,-0.1856 -1.749242,-0.2497 -0.712059,-0.0935 -1.140548,-0.14813 -1.556059,-0.21344 0.408786,0.13099 0.808172,0.24895 1.506691,0.45019 0.460767,0.13271 1.098007,0.31499 1.684204,0.4987 0.527752,0.16541 1.098948,0.35782 1.632525,0.57521 0.489897,0.19955 0.954129,0.42258 1.335097,0.67017 0.755584,0.48641 1.451079,1.05031 2.362985,1.77407 0.828653,0.6577 1.810863,1.42518 3.023553,2.20516 0.902617,0.58054 1.928249,1.16614 3.031325,1.72539 0.361185,0.18311 0.736272,0.36654 1.123845,0.54874 1.456457,0.68464 3.113814,1.36313 4.849489,1.92475 3.177203,1.02805 6.456492,1.61314 9.467587,1.91895 1.374411,0.13959 2.680583,0.21961 3.99143,0.19294 1.278806,-0.026 2.556208,-0.15308 3.934962,-0.42061 1.344028,-0.26078 2.815752,-0.66125 4.295097,-1.29286 1.46366,-0.62492 2.943262,-1.4803 4.312459,-2.65424 1.356937,-1.16344 2.566922,-2.60597 3.58122,-4.08641 1.018458,-1.4865 1.858571,-3.0388 2.465677,-4.44145 0.617239,-1.42604 0.988962,-2.68703 1.272255,-3.85486 0.233993,-0.96476 0.407371,-1.85402 0.59945,-2.71844 0.205901,-0.12827 0.40973,-0.25587 0.610974,-0.38323 0.763823,-0.48336 1.51894,-0.98136 2.211084,-1.50508 1.007249,-0.76215 1.953074,-1.63126 2.635871,-2.68653 0.341727,-0.52816 0.601515,-1.07811 0.803876,-1.63809 0.200694,-0.55528 0.344894,-1.12067 0.456987,-1.68334 0.192412,-0.96879 0.302379,-2.01571 0.420553,-3.00716 0.569325,-0.71599 1.053781,-1.34614 1.438881,-1.95561 0.22584,-0.35754 0.43008,-0.72534 0.60017,-1.11311 0.17182,-0.39179 0.3062,-0.79796 0.39513,-1.22995 0.0886,-0.43017 0.1264,-0.85928 0.13862,-1.28472 0.0123,-0.42821 -0.001,-0.87249 -0.0204,-1.32083 -0.0403,-0.93328 -0.10943,-1.93582 -0.15228,-2.87148 -0.0188,-0.41009 -0.0326,-0.80002 -0.0359,-1.17801 -0.004,-0.50868 0.008,-1.01355 0.0563,-1.49788 0.0401,-0.40149 0.10438,-0.78603 0.21531,-1.16444 0.10953,-0.37365 0.26706,-0.75011 0.50074,-1.14023 0.23723,-0.39605 0.55185,-0.8036 0.90474,-1.17296 0.36268,-0.37962 0.75361,-0.70647 1.13476,-0.9461 0.39832,-0.25051 0.78158,-0.4009 1.1373,-0.46238 0.38652,-0.0668 0.745,-0.0297 1.07033,0.10068 0.41346,0.16889 0.79487,0.37682 1.15928,0.6896 0.48852,0.41931 0.84804,0.9468 1.11985,1.5077 z"
           id="path22412"
           sodipodi:nodetypes="csssssscscscsssssssc" />
        <path
           style="fill:#000000;stroke-width:3.5;paint-order:fill markers stroke"
           d="m 40.581868,221.39509 c 0.18168,0.01 0.621851,0.0417 1.005187,0.0394 0.318536,-0.002 0.715664,-0.0238 1.198601,-0.10988 0.829001,-0.14775 1.928798,-0.48536 3.513487,-1.28765 1.51581,-0.7674 3.408661,-1.92459 5.446595,-3.34231 0.760936,-0.52935 1.528284,-1.08542 2.290281,-1.65931 1.362781,-1.02638 2.80509,-2.17442 4.267019,-3.41958 4.316662,-3.67657 8.739873,-8.18906 13.346331,-11.94162 4.45649,-3.63043 9.054512,-6.50928 13.158962,-8.40074 3.889276,-1.79232 7.402087,-2.72647 10.781133,-2.90539 1.633241,-0.0865 3.206076,0.005 4.616126,0.20014 1.45966,0.2021 2.70434,0.50939 3.65453,0.8263 1.01652,0.33904 1.7177,0.69699 2.22367,1.01461 0.17442,0.1095 0.33071,0.21745 0.47167,0.32211 0.32182,0.23894 0.59907,0.47694 0.86359,0.72861 0.37526,0.34253 0.65524,0.7093 0.88365,1.04481 0.1242,0.18242 0.24755,0.37797 0.3313,0.50854 0.14068,0.2193 0.20385,0.30976 0.27748,0.40961 0.0277,-0.0844 0.0863,-0.25315 0.13213,-0.48362 0.0336,-0.17022 0.0643,-0.39273 0.0683,-0.65847 0.007,-0.44889 -0.0628,-1.05718 -0.35491,-1.71264 -0.1773,-0.41071 -0.42132,-0.84188 -0.76608,-1.27041 -0.15118,-0.18793 -0.32538,-0.38229 -0.52693,-0.57968 -0.59538,-0.58307 -1.42654,-1.19036 -2.61975,-1.74867 -1.09746,-0.51349 -2.49718,-0.98523 -4.12427,-1.32557 -1.573801,-0.3292 -3.35249,-0.53243 -5.22466,-0.51671 -3.911001,0.0328 -7.919733,1.01958 -12.150914,2.96735 -4.431432,2.03995 -9.23796,5.18952 -13.771328,9.10669 -4.703328,4.06402 -8.934944,8.74725 -12.9562,12.52973 -1.361908,1.28106 -2.708846,2.47564 -3.979692,3.55414 -0.711565,0.60387 -1.422257,1.19352 -2.126606,1.76425 -1.8932,1.53406 -3.600654,2.81774 -4.946183,3.74918 -1.387177,0.96027 -2.311346,1.49034 -3.002545,1.83058 -0.408104,0.20086 -0.749721,0.3423 -1.038963,0.45105 -0.372481,0.14001 -0.738064,0.25409 -0.940849,0.31512 z"
           id="path18291" />
      </g>
      <path
         style="fill:#000000;stroke-width:3.43;paint-order:fill markers stroke"
         d="m 67.772048,237.33286 c 0.531397,0.67332 1.866259,2.38175 2.795947,4.16505 0.735098,1.41005 1.388343,3.12614 1.755473,5.44361 0.175024,1.10487 0.284468,2.33736 0.320836,3.65105 0.03705,1.33822 -0.0027,2.72406 -0.115111,4.10849 -0.138299,1.70273 -0.380168,3.32861 -0.695388,4.83628 -0.263105,1.25826 -0.576098,2.4099 -0.920855,3.44618 -0.863576,2.59376 -2.102476,4.97811 -3.440814,7.21686 -1.236469,2.06832 -2.726113,4.22419 -4.453736,6.97322 -1.513925,2.40899 -3.220311,5.37627 -4.991731,8.92686 -0.858502,1.72076 -1.769408,3.66257 -2.699463,5.83297 -0.969981,2.26358 -1.955426,4.76633 -2.819933,7.26617 -0.742713,2.14764 -1.401015,4.30828 -1.836214,6.18101 -0.391442,1.68467 -0.605705,3.14995 -0.595808,4.42134 0.0047,0.60017 0.05909,1.16147 0.169264,1.69112 0.106603,0.51245 0.263984,0.98836 0.473636,1.43899 0.401598,0.86291 0.969747,1.57945 1.589646,2.22872 0.585905,0.61369 1.213536,1.163 1.770414,1.71001 0.537143,0.52763 1.015205,1.05959 1.351376,1.56574 0.16254,0.24474 0.284006,0.47175 0.363729,0.67871 0.07828,0.2032 0.111132,0.37361 0.112215,0.51502 0.0011,0.13749 -0.02787,0.28156 -0.08966,0.43019 -0.06142,0.14754 -0.154278,0.29659 -0.275779,0.43816 -0.119839,0.13957 -0.262034,0.26544 -0.415234,0.36894 -0.151803,0.10259 -0.30561,0.17721 -0.446641,0.22251 -0.135624,0.0431 -0.267987,0.0627 -0.401669,0.0621 -0.133461,-6.5e-4 -0.275849,-0.0212 -0.430638,-0.0641 -0.312408,-0.0863 -0.654312,-0.25776 -1.046139,-0.50865 -0.747213,-0.47844 -1.499119,-1.13103 -2.180423,-2.07271 -0.668084,-0.92341 -1.279936,-2.14069 -1.673236,-3.728 -0.389002,-1.56983 -0.566609,-3.50966 -0.361086,-5.92156 0.102474,-1.20264 0.300422,-2.52388 0.571709,-3.90833 0.271008,-1.38309 0.613634,-2.82141 1.003055,-4.25661 0.781262,-2.88089 1.751566,-5.74775 2.666702,-8.54749 0.460879,-1.41014 0.908004,-2.80341 1.291942,-4.1426 0.386584,-1.34842 0.710951,-2.64697 0.919695,-3.85583 0.211619,-1.22327 0.305613,-2.3497 0.276337,-3.42602 -0.02969,-1.09152 -0.185946,-2.1206 -0.466636,-3.13334 -0.571556,-2.06217 -1.634601,-3.96199 -2.887774,-5.78514 -0.652345,-0.94904 -1.367445,-1.89178 -2.25212,-2.87167 -0.906194,-1.00371 -1.972676,-2.02656 -3.292941,-3.10996 -1.357231,-1.11375 -2.939645,-2.2631 -4.376505,-3.40427 -0.739624,-0.58742 -1.433596,-1.16552 -2.051276,-1.73646 -0.630427,-0.58272 -1.163431,-1.14164 -1.575642,-1.67632 -0.416821,-0.54063 -0.71515,-1.06328 -0.927571,-1.56687 -0.217199,-0.51495 -0.349271,-1.02115 -0.421585,-1.51956 -0.150727,-1.03938 -0.04691,-2.07488 0.134436,-3.1153 0.398074,-2.28383 1.147912,-4.40087 2.208649,-6.67354 0.622566,-1.33391 1.265326,-2.56345 1.88788,-3.89735 0.321732,-0.69293 0.607072,-1.35229 0.844716,-1.98582 0.2565,-0.68378 0.451791,-1.32282 0.574623,-1.92105 0.134982,-0.65759 0.178742,-1.25015 0.16869,-1.78243 -0.01139,-0.60339 -0.09246,-1.14334 -0.197691,-1.61306 -0.08889,-0.39694 -0.19891,-0.76134 -0.309599,-1.08105 -0.222003,-0.64338 -0.499001,-1.26396 -0.743564,-1.79313 -0.240402,-0.5262 -0.559994,-1.02644 -0.865949,-1.45988 -0.353662,-0.50103 -0.758374,-1.00792 -1.085634,-1.41465 -0.454939,-0.56541 -0.774364,-0.95615 -1.110232,-1.40281 -0.435778,-0.57953 -0.726861,-1.03246 -0.928824,-1.42599 0.145878,0.42099 0.346889,0.91899 0.683974,1.57878 0.251488,0.49225 0.519639,0.96302 0.877497,1.5783 0.259205,0.44564 0.590328,1.00888 0.858304,1.51927 0.238002,0.45329 0.464377,0.93415 0.615424,1.40325 0.180528,0.55061 0.38221,1.1672 0.535231,1.76773 0.07586,0.29895 0.149394,0.62749 0.203954,0.97485 0.06447,0.41058 0.105941,0.86649 0.09183,1.36496 -0.01242,0.43858 -0.06815,0.92771 -0.199593,1.47482 -0.120775,0.50265 -0.307023,1.06257 -0.560293,1.69164 -0.234468,0.58225 -0.51635,1.1994 -0.841175,1.86606 -0.587966,1.20673 -1.304419,2.53316 -1.950572,3.86732 -1.133949,2.34128 -1.972308,4.59448 -2.427925,7.06379 -0.203834,1.10476 -0.352674,2.35255 -0.173356,3.65605 0.08718,0.63366 0.2521,1.28542 0.527342,1.94909 0.269331,0.64891 0.641892,1.30329 1.14437,1.96063 0.489815,0.64078 1.096295,1.27543 1.768143,1.90012 0.66082,0.61443 1.390887,1.22473 2.147073,1.82813 1.47424,1.17634 3.055641,2.33076 4.348296,3.39515 1.25612,1.03431 2.256124,1.99819 3.097062,2.93198 0.820254,0.91083 1.486521,1.78974 2.104154,2.68933 1.199339,1.74681 2.142106,3.45994 2.640656,5.25194 0.242839,0.87273 0.37893,1.75828 0.406172,2.70615 0.02695,0.93796 -0.05239,1.94532 -0.245925,3.07559 -0.192145,1.12228 -0.495647,2.3543 -0.870734,3.67127 -0.372137,1.30654 -0.808126,2.67443 -1.265696,4.08304 -0.901614,2.77561 -1.885371,5.70078 -2.675589,8.63824 -0.395424,1.46941 -0.745104,2.94916 -1.022159,4.37957 -0.277,1.43005 -0.482487,2.8155 -0.588371,4.09545 -0.213076,2.57565 -0.02145,4.70723 0.423538,6.47858 0.450748,1.79428 1.159005,3.20896 1.960219,4.30832 0.820071,1.12524 1.734747,1.91624 2.643869,2.49535 0.458419,0.29196 0.961837,0.56014 1.503445,0.70953 0.277478,0.0769 0.568137,0.1228 0.869547,0.12418 0.305752,10e-4 0.613838,-0.0435 0.921299,-0.14194 0.30688,-0.0983 0.602777,-0.24657 0.872529,-0.42812 0.273754,-0.18424 0.529325,-0.40856 0.749957,-0.66414 0.223606,-0.25905 0.416296,-0.55602 0.55425,-0.88351 0.140492,-0.33346 0.224603,-0.69991 0.224034,-1.08617 -5.42e-4,-0.3901 -0.08733,-0.76471 -0.218497,-1.1114 -0.133321,-0.35227 -0.318301,-0.69116 -0.527491,-1.01025 -0.426814,-0.65108 -0.995954,-1.28185 -1.563845,-1.8479 -0.60174,-0.59979 -1.205955,-1.139 -1.716047,-1.68399 -0.542976,-0.58012 -0.96586,-1.14445 -1.248076,-1.7727 -0.146117,-0.32534 -0.25653,-0.67283 -0.330956,-1.05726 -0.07732,-0.39934 -0.116374,-0.8424 -0.113644,-1.3429 0.0059,-1.07246 0.204005,-2.38065 0.59714,-3.98984 0.434069,-1.77666 1.094263,-3.87019 1.848369,-5.97159 0.878826,-2.44902 1.873375,-4.88325 2.861153,-7.09366 0.945511,-2.11584 1.873841,-4.00335 2.75146,-5.66656 1.817705,-3.44481 3.60021,-6.23391 5.209146,-8.48112 1.82823,-2.5535 3.510843,-4.60718 4.964971,-6.68908 1.581789,-2.26469 3.10564,-4.80119 4.114956,-7.82007 0.398646,-1.19244 0.730347,-2.49842 0.976043,-3.90853 0.293328,-1.68357 0.453899,-3.49294 0.461331,-5.34935 0.0061,-1.51161 -0.0898,-3.02068 -0.286131,-4.46513 -0.19277,-1.4182 -0.479423,-2.75184 -0.849759,-3.9441 -0.784006,-2.52401 -1.90328,-4.26626 -3.000408,-5.56575 -1.314119,-1.55649 -3.187695,-3.03963 -3.748239,-3.52108 z"
         id="path18293"
         sodipodi:nodetypes="cccccccccccccccccccccccccc"
         inkscape:label="right-lower-wing" />
      <g
         id="g23238"
         inkscape:label="body">
        <path
           style="fill:#000000;stroke-width:1.9;paint-order:fill markers stroke"
           d="m 30.143001,229.03295 c -0.428287,1.14048 -1.1897,3.18968 -1.341211,4.07688 -0.06622,0.42852 -0.11315,0.9162 -0.134472,1.44858 -0.02296,0.57304 -0.01444,1.14535 0.01686,1.72026 0.05408,0.99348 0.191028,2.35157 0.756364,3.70898 0.137175,0.32455 0.314531,0.71984 0.519956,1.16417 0.205477,0.44442 0.437079,0.9337 0.681102,1.44349 0.507443,1.0601 1.061844,2.19566 1.541678,3.18825 0.901946,1.86577 1.375144,2.88708 1.595271,3.45783 0.197714,0.51264 0.115775,0.4725 0.115086,0.47292 h 4e-6 c 0,0 3.1e-5,-2e-5 0,0 -7.11e-4,3.7e-4 -0.0092,0.0917 -0.345101,-0.34341 -0.356424,-0.46167 -1.019452,-1.44222 -2.112985,-3.17196 -0.595503,-0.94197 -1.249622,-1.99724 -1.873372,-3.01695 -0.296004,-0.48391 -0.579843,-0.95112 -0.835447,-1.37477 -0.253969,-0.42095 -0.484643,-0.80648 -0.669756,-1.11982 -0.884316,-1.51127 -1.217483,-3.14211 -1.270473,-4.31494 -0.0304,-0.67307 0.01842,-1.36137 0.140792,-2.02004 0.114113,-0.61421 0.288536,-1.18287 0.506073,-1.66838 0.376613,-0.81264 1.608,-2.74647 2.17862,-3.81683 0.691011,-1.29619 1.355542,-2.00229 1.355542,-2.00229 0,0 -0.297495,0.76459 -0.824531,2.16803 z"
           id="path18281"
           sodipodi:nodetypes="scsscsssssccccsscsscscs" />
        <path
           style="fill:#000000;stroke-width:1.9;paint-order:fill markers stroke"
           d="m 37.656563,229.03293 c 0.407857,1.14795 1.189682,3.18967 1.341195,4.07688 0.06622,0.42851 0.113144,0.91619 0.134466,1.44857 0.02297,0.57305 0.01444,1.14536 -0.01686,1.72027 -0.05409,0.99347 -0.191035,2.35157 -0.756379,3.70898 -0.137173,0.32455 -0.31453,0.71984 -0.519956,1.16417 -0.205482,0.44442 -0.437083,0.9337 -0.681103,1.44349 -0.507456,1.0601 -1.061855,2.19566 -1.541697,3.18825 -0.901942,1.86577 -1.375149,2.88709 -1.595278,3.45784 -0.197749,0.51263 -0.115754,0.47251 -0.115099,0.47291 l -2.5e-5,2e-5 c 0,0 -2.9e-5,-2e-5 0,0 7.13e-4,3.7e-4 0.0092,0.0917 0.345103,-0.34341 0.356426,-0.46167 1.019457,-1.44222 2.112993,-3.17197 0.595511,-0.94197 1.249629,-1.99724 1.873382,-3.01696 0.29601,-0.4839 0.579846,-0.95112 0.83545,-1.37477 0.253976,-0.42095 0.484646,-0.80648 0.669766,-1.11983 0.884314,-1.51126 1.21749,-3.1421 1.27048,-4.31493 0.03041,-0.67308 -0.01841,-1.36138 -0.140785,-2.02005 -0.114107,-0.61421 -0.288534,-1.18286 -0.506062,-1.66837 -0.37661,-0.81264 -1.549318,-2.77988 -2.178612,-3.81682 -0.743863,-1.22573 -1.383026,-2.00287 -1.383026,-2.00287 0,0 0.369064,0.80921 0.852047,2.1686 z"
           id="path18295"
           sodipodi:nodetypes="scsscsssssccccsscsscscs" />
        <path
           style="color:#000000;fill:#000000;-inkscape-stroke:none;stroke:none;fill-opacity:1"
           d="m 33.886719,221.17383 c 0.27813,0 0.533137,0.13185 0.77539,0.35351 0.242254,0.22167 0.463878,0.52974 0.65625,0.85547 0.732217,1.24743 0.917305,2.38856 0.992188,3.0293 -0.264526,-0.42236 -0.864409,-1.37506 -1.625,-2.6543 -0.178944,-0.303 -0.33554,-0.50664 -0.462891,-0.63867 -0.06368,-0.066 -0.120105,-0.11394 -0.171875,-0.14844 -0.05177,-0.0345 -0.09201,-0.0625 -0.164062,-0.0625 -0.07344,0 -0.115618,0.0272 -0.167969,0.0625 -0.05235,0.0353 -0.10924,0.0849 -0.173828,0.15235 -0.129176,0.13493 -0.287857,0.34384 -0.46875,0.65234 -0.751155,1.27276 -1.347429,2.21263 -1.613281,2.63477 0.07502,-0.63962 0.256753,-1.7696 0.978515,-3.00782 0.194137,-0.33109 0.41811,-0.64391 0.66211,-0.86914 0.243999,-0.22523 0.502177,-0.35938 0.783203,-0.35937 z"
           id="path28046" />
        <path
           style="color:#000000;fill:#000000;-inkscape-stroke:none;stroke:none;fill-opacity:1"
           d="m 33.886719,217.84375 c 1.467231,0 2.495089,0.3602 3.199218,0.93164 0.70413,0.57144 1.09159,1.35986 1.257813,2.24219 0.231834,1.28412 -0.106187,2.55569 -0.460938,3.44726 -0.149771,0.38079 -0.291707,0.6459 -0.425781,0.89844 0.0451,-0.28158 0.09231,-0.57378 0.136719,-0.9707 v -0.002 c 0.102648,-0.94609 0.195399,-2.13038 -0.02148,-3.22851 -0.125112,-0.6641 -0.409188,-1.30591 -0.988282,-1.77539 -0.579094,-0.46949 -1.440545,-0.75781 -2.697265,-0.75781 -1.251547,0 -2.112404,0.28775 -2.691407,0.7539 -0.579002,0.46615 -0.865042,1.10192 -0.992187,1.76172 -0.222178,1.09985 -0.130125,2.28924 -0.02734,3.23828 v 0.002 c 0.04452,0.39843 0.09328,0.69179 0.138672,0.9746 -0.134434,-0.25382 -0.277815,-0.51978 -0.427734,-0.90234 -0.355153,-0.89561 -0.693693,-2.17223 -0.455078,-3.46094 0.169266,-0.87838 0.559786,-1.65924 1.263671,-2.22656 0.703886,-0.56732 1.730207,-0.92578 3.191407,-0.92578 z"
           id="path28023" />
      </g>
      <g
         id="g23233"
         inkscape:label="left-upper-wing">
        <path
           style="fill:#000000;stroke-width:1.9;paint-order:fill markers stroke"
           d="m -41.111503,193.4231 c 0.224915,-0.57762 0.532834,-1.1494 0.983514,-1.64725 0.341195,-0.3769 0.707751,-0.65228 1.115702,-0.90287 0.364424,-0.22161 0.800098,-0.3481 1.299309,-0.34215 0.456788,0.005 0.950529,0.12192 1.461735,0.35655 0.483839,0.22203 0.973748,0.54332 1.430859,0.92242 0.443998,0.36821 0.858817,0.79265 1.198311,1.2284 0.340068,0.43646 0.599931,0.87776 0.802124,1.33374 0.204182,0.46047 0.344134,0.92387 0.448934,1.38872 0.12545,0.55655 0.20211,1.12481 0.253103,1.67344 0.03793,0.40809 0.06445,0.82302 0.08654,1.24554 0.0505,0.96632 0.07654,1.97721 0.129478,2.86415 0.02592,0.4345 0.05752,0.81455 0.107397,1.15709 0.04909,0.33724 0.113783,0.62283 0.200671,0.87708 0.08447,0.24711 0.195228,0.48065 0.33269,0.7149 0.137694,0.23466 0.305474,0.47552 0.507953,0.73671 0.419704,0.54111 0.942064,1.11264 1.705402,1.97741 a 1.1842231,1.4755349 14.826221 0 1 0.313739,0.70722 c 0.181607,1.22231 0.294077,2.21597 0.505147,3.17152 0.10217,0.46258 0.22094,0.88057 0.367832,1.26319 0.146916,0.38271 0.321011,0.72744 0.532308,1.0422 0.432969,0.64497 1.08826,1.26612 1.971689,1.92387 0.599222,0.44615 1.276847,0.88997 2.020112,1.35726 0.359768,0.22619 0.729766,0.45453 1.118256,0.69432 a 1.4804737,1.4917855 8.8875058 0 1 0.662913,0.91596 c 0.270443,1.11802 0.466469,2.18346 0.736919,3.30147 0.255537,1.05602 0.577263,2.14869 1.105978,3.38045 0.528958,1.23232 1.272628,2.6215 2.176921,3.95541 0.904026,1.3335 1.942794,2.57363 3.051454,3.53953 1.106495,0.96399 2.315727,1.68357 3.547985,2.2274 1.2482948,0.55091 2.5161533,0.91922 3.7114508,1.1735 1.2151486,0.25851 2.3342806,0.39494 3.4636573,0.4459 1.1657556,0.0526 2.358453,0.0145 3.67391351,-0.0823 2.88040339,-0.21207 5.99926539,-0.6783 9.01748599,-1.53579 1.6495034,-0.46864 3.2490974,-1.04863 4.6703524,-1.63513 0.377665,-0.15584 0.743989,-0.31265 1.097328,-0.46884 1.080733,-0.47771 2.089203,-0.96868 2.98378,-1.44581 1.201173,-0.64064 2.214367,-1.26721 3.127189,-1.81632 0.989602,-0.59531 1.838073,-1.08475 2.726992,-1.46352 0.488471,-0.21008 1.036812,-0.37267 1.570423,-0.50201 0.586997,-0.14226 1.196712,-0.25378 1.74853,-0.34271 0.627331,-0.10111 1.261375,-0.1856 1.749246,-0.2497 0.712057,-0.0935 1.140542,-0.14813 1.556052,-0.21345 -0.408774,0.13102 -0.80817,0.24897 -1.506687,0.4502 -0.460757,0.13274 -1.098018,0.31496 -1.684203,0.49873 -0.52774,0.16544 -1.098943,0.35784 -1.632526,0.57521 -0.489888,0.19958 -0.954129,0.42258 -1.335093,0.67018 -0.755592,0.4864 -1.45109,1.05031 -2.362997,1.77408 -0.828658,0.6577 -1.810862,1.42517 -3.023562,2.20516 -0.902614,0.58055 -1.928247,1.16615 -3.031319,1.7254 -0.361166,0.18311 -0.736249,0.36654 -1.123826,0.54873 -1.45644,0.68465 -3.113794,1.36314 -4.8494541,1.92476 -3.1771871,1.02806 -6.4564608,1.61315 -9.46753215,1.91897 -1.37441325,0.13959 -2.68057245,0.21961 -3.99141265,0.19294 -1.2788026,-0.026 -2.5561925,-0.15307 -3.9349381,-0.4206 -1.3440178,-0.26078 -2.815733,-0.66124 -4.295067,-1.29285 -1.463654,-0.62492 -2.94324,-1.4803 -4.312426,-2.65423 -1.356931,-1.16345 -2.566906,-2.60597 -3.581198,-4.08641 -1.018448,-1.48649 -1.858555,-3.03878 -2.465653,-4.44144 -0.617231,-1.42604 -0.988951,-2.68703 -1.272238,-3.85486 -0.234015,-0.96474 -0.407365,-1.85402 -0.599445,-2.71843 -0.2059,-0.12828 -0.409727,-0.25588 -0.610971,-0.38323 -0.763816,-0.48336 -1.518932,-0.98136 -2.211065,-1.50508 -1.00725,-0.76215 -1.953066,-1.63126 -2.635854,-2.68653 -0.341727,-0.52816 -0.601512,-1.07811 -0.80387,-1.63808 -0.200664,-0.5553 -0.344915,-1.12066 -0.456702,-1.68342 -0.192446,-0.96877 -0.302373,-2.01571 -0.42054,-3.00716 -0.569325,-0.71598 -1.053777,-1.34614 -1.438866,-1.9556 -0.225837,-0.35754 -0.430083,-0.72535 -0.600167,-1.11311 -0.171846,-0.39178 -0.306202,-0.79796 -0.395144,-1.22995 -0.0886,-0.43016 -0.1264,-0.85928 -0.138619,-1.28471 -0.01229,-0.42821 0.001,-0.87249 0.02039,-1.32083 0.04026,-0.93329 0.109432,-1.93583 0.152289,-2.87148 0.01879,-0.41009 0.03257,-0.80002 0.03586,-1.17801 0.0044,-0.50868 -0.0079,-1.01353 -0.05631,-1.49784 -0.04013,-0.40149 -0.104374,-0.786 -0.215306,-1.16441 -0.109527,-0.37364 -0.267065,-0.75008 -0.500725,-1.14019 -0.237219,-0.39604 -0.551831,-0.80358 -0.904714,-1.17292 -0.362678,-0.37961 -0.753601,-0.70644 -1.134747,-0.94606 -0.398305,-0.25051 -0.781566,-0.40089 -1.137281,-0.46236 -0.386524,-0.0668 -0.744997,-0.0297 -1.070324,0.10069 -0.413463,0.16887 -0.794876,0.37681 -1.159277,0.68959 -0.488519,0.41929 -0.848043,0.94677 -1.119864,1.50766 z"
           id="path22420"
           sodipodi:nodetypes="csssssscscscsssssssc" />
        <path
           style="fill:#000000;stroke-width:3.5;paint-order:fill markers stroke"
           d="m 27.217692,221.39512 c -0.181676,0.01 -0.621854,0.0417 -1.005189,0.0394 -0.318538,-0.002 -0.715669,-0.0238 -1.198599,-0.10987 -0.829005,-0.14775 -1.928798,-0.48536 -3.513486,-1.28764 -1.51581,-0.76739 -3.408658,-1.92458 -5.446581,-3.34229 -0.760937,-0.52935 -1.528284,-1.08542 -2.290279,-1.6593 -1.362779,-1.02638 -2.805081,-2.17442 -4.2669913,-3.41957 -4.3166161,-3.67657 -8.73980061,-8.18905 -13.3462205,-11.9416 -4.4564586,-3.63042 -9.0544482,-6.50926 -13.1588612,-8.40067 -3.889225,-1.79223 -7.402005,-2.72633 -10.781021,-2.90522 -1.633231,-0.0864 -3.206053,0.005 -4.616095,0.20018 -1.45965,0.20211 -2.704329,0.50939 -3.654504,0.82631 -1.016519,0.33904 -1.717694,0.69698 -2.223658,1.0146 -0.174433,0.1095 -0.330716,0.21745 -0.471672,0.3221 -0.321822,0.23894 -0.599074,0.47694 -0.863597,0.7286 -0.375257,0.34253 -0.655235,0.70929 -0.883651,1.04478 -0.124198,0.18243 -0.247549,0.37798 -0.331295,0.50854 -0.140688,0.21929 -0.203859,0.30975 -0.277491,0.4096 -0.02757,-0.0845 -0.08632,-0.25313 -0.131966,-0.48364 -0.03369,-0.17022 -0.06429,-0.39272 -0.06827,-0.65846 -0.0067,-0.44887 0.06281,-1.05714 0.354934,-1.71259 0.177304,-0.4107 0.421316,-0.84186 0.766082,-1.27039 0.151182,-0.18792 0.32538,-0.38227 0.526933,-0.57966 0.595377,-0.58307 1.426535,-1.19033 2.619751,-1.74864 1.097444,-0.51349 2.497158,-0.98523 4.124237,-1.32558 1.573793,-0.3292 3.352472,-0.53244 5.224625,-0.51674 3.910976,0.0328 7.919669,1.01948 12.150801,2.96715 4.431372,2.03986 9.2378654,5.18939 13.7711971,9.10655 4.7032918,4.06401 8.9348762,8.74724 12.9560899,12.52972 1.3619,1.28104 2.708833,2.47563 3.979676,3.55412 0.711564,0.60387 1.422256,1.19352 2.1266,1.76425 1.893195,1.53405 3.600646,2.81772 4.946175,3.74916 1.387175,0.96027 2.311338,1.49034 3.002538,1.83056 0.408101,0.20087 0.749717,0.34231 1.038962,0.45106 0.372478,0.14 0.738066,0.25408 0.940846,0.31511 z"
           id="path20393" />
      </g>
    </g>
  </g>
</svg>
