<?xml version="1.0" encoding="UTF-8" standalone="no"?>
<!-- Created with Inkscape (http://www.inkscape.org/) -->

<svg
   width="123.98253mm"
   height="93.844063mm"
   viewBox="0 0 123.98253 93.844063"
   version="1.1"
   id="svg49757"
   inkscape:version="1.1.1 (3bf5ae0d25, 2021-09-20)"
   sodipodi:docname="camera-icon.svg"
   xmlns:inkscape="http://www.inkscape.org/namespaces/inkscape"
   xmlns:sodipodi="http://sodipodi.sourceforge.net/DTD/sodipodi-0.dtd"
   xmlns="http://www.w3.org/2000/svg"
   xmlns:svg="http://www.w3.org/2000/svg">
  <sodipodi:namedview
     id="namedview49759"
     pagecolor="#ffffff"
     bordercolor="#999999"
     borderopacity="1"
     inkscape:pageshadow="0"
     inkscape:pageopacity="0"
     inkscape:pagecheckerboard="0"
     inkscape:document-units="mm"
     showgrid="false"
     fit-margin-top="0"
     fit-margin-left="0"
     fit-margin-right="0"
     fit-margin-bottom="0"
     inkscape:zoom="1.3273709"
     inkscape:cx="322.81859"
     inkscape:cy="154.81732"
     inkscape:window-width="1920"
     inkscape:window-height="1002"
     inkscape:window-x="-8"
     inkscape:window-y="-8"
     inkscape:window-maximized="1"
     inkscape:current-layer="g33556" />
  <defs
     id="defs49754">
    <inkscape:path-effect
       effect="skeletal"
       id="path-effect1139"
       is_visible="true"
       lpeversion="1"
       pattern="m 108.37145,217.54752 c 1.35764,0 2.59127,1.23364 2.59127,2.59128 v 4.58456 l 0,0 c 0,1.35764 -1.23363,2.59127 -2.59127,2.59127 -1.35764,0 -2.59128,-1.23363 -2.59128,-2.59127 v 0 -4.58456 c 0,-1.35764 1.23364,-2.59128 2.59128,-2.59128 z"
       copytype="repeated"
       prop_scale="1.29"
       scale_y_rel="false"
       spacing="0"
       normal_offset="0"
       tang_offset="0"
       prop_units="false"
       vertical_pattern="true"
       hide_knot="false"
       fuse_tolerance="0" />
    <inkscape:path-effect
       effect="skeletal"
       id="path-effect1137"
       is_visible="true"
       lpeversion="1"
       pattern="M 0,0 H 1"
       copytype="single_stretched"
       prop_scale="1"
       scale_y_rel="false"
       spacing="0"
       normal_offset="0"
       tang_offset="0"
       prop_units="false"
       vertical_pattern="false"
       hide_knot="false"
       fuse_tolerance="0" />
    <inkscape:path-effect
       effect="bspline"
       id="path-effect878"
       is_visible="true"
       lpeversion="1"
       weight="33.333333"
       steps="2"
       helper_size="0"
       apply_no_weight="true"
       apply_with_weight="true"
       only_selected="false" />
  </defs>
  <g
     inkscape:label="Ebene 1"
     inkscape:groupmode="layer"
     id="layer1"
     transform="translate(65.18053,-169.94777)">
    <g
       id="g1784"
       inkscape:label="camera">
      <path
         id="path33516"
         style="vector-effect:none;fill:#ad7fa8;fill-opacity:1;fill-rule:evenodd;stroke:none;stroke-width:0.499999;stroke-opacity:1;stop-color:#000000"
         d="M -65.18053,193.0301 H 58.802 v 64.67631 a 6.0854167,6.0854167 0 0 1 -6.08542,6.08542 H -59.09511 a 6.0854167,6.0854167 0 0 1 -6.08542,-6.08542 z" />
      <path
         id="path47012"
         d="M -65.180523,197.41532 H -29.6383 v 66.37651 h -29.412863 c -3.385152,0 -6.129359,-2.73599 -6.12936,-6.11101 z"
         style="font-variation-settings:normal;vector-effect:none;fill:#ffffff;fill-opacity:1;fill-rule:evenodd;stroke:none;stroke-width:0.49925;stroke-linecap:butt;stroke-linejoin:miter;stroke-miterlimit:4;stroke-dasharray:none;stroke-dashoffset:0;stroke-opacity:1;stop-color:#000000"
         sodipodi:nodetypes="cccscc" />
      <path
         id="path33518"
         d="m -65.18053,197.41532 h 34.48389 v 66.37651 h -28.35453 a 6.1293624,6.1110118 0 0 1 -6.12936,-6.11101 z"
         style="font-variation-settings:normal;vector-effect:none;fill:#ad7fa8;fill-opacity:1;fill-rule:evenodd;stroke:none;stroke-width:0.49925;stroke-linecap:butt;stroke-linejoin:miter;stroke-miterlimit:4;stroke-dasharray:none;stroke-dashoffset:0;stroke-opacity:1;stop-color:#000000" />
      <path
         id="path33522"
         style="vector-effect:none;fill:#e9b96e;fill-opacity:1;fill-rule:evenodd;stroke:none;stroke-width:0.53532;stop-color:#000000"
         d="m -58.18742,190.7378 h 15.298 a 0.52916667,0.6065711 0 0 1 0.52917,0.60657 v 1.68573 h -16.35634 v -1.68573 a 0.52916667,0.6065711 0 0 1 0.52917,-0.60657 z" />
      <path
         id="path33524"
         style="vector-effect:none;fill:#ad7fa8;fill-opacity:1;fill-rule:evenodd;stroke:none;stroke-width:0.825265;stop-color:#000000"
         d="m -36.18461,185.82067 h 17.35318 a 0.60025655,1.2708548 0 0 1 0.60026,1.27087 v 3.53184 h -18.5537 v -3.53184 a 0.60025655,1.2708548 0 0 1 0.60026,-1.27087 z" />
      <path
         id="path33526"
         style="vector-effect:none;fill:#e9b96e;fill-opacity:1;fill-rule:evenodd;stroke:none;stroke-width:0.499999;stop-color:#000000"
         d="m -35.41895,190.62337 h 15.60028 l 1.5875,2.40672 h -18.77528 z"
         sodipodi:nodetypes="ccccc" />
      <path
         id="path33528"
         style="vector-effect:none;fill:#ad7fa8;fill-opacity:1;fill-rule:evenodd;stroke:none;stroke-width:0.532371;stop-color:#000000"
         d="m -2.27729,173.71579 h 27.23572 a 3.2906301,3.2906301 0 0 1 3.12569,2.26189 l 5.60556,17.0318 h -44.69822 l 5.60556,-17.0318 a 3.2906301,3.2906301 0 0 1 3.12569,-2.26189 z"
         sodipodi:nodetypes="ccccc" />
      <path
         id="path33530"
         style="vector-effect:none;fill:#e9b96e;fill-opacity:1;fill-rule:evenodd;stroke:none;stroke-width:0.47499;stop-color:#000000"
         d="m 1.31766,169.94777 h 19.99442 v 3.77802 H 1.31766 Z" />
      <path
         id="path33532"
         style="vector-effect:none;fill:#e9b96e;fill-opacity:1;fill-rule:evenodd;stroke:none;stroke-width:0.532371;stop-color:#000000"
         d="m -8.84608,186.43857 -2.16266,6.57065 h 44.69856 l -2.16266,-6.57065 z" />
      <path
         id="path33534"
         style="font-variation-settings:normal;fill:#e9b96e;fill-opacity:1;fill-rule:evenodd;stroke:none;stroke-width:1.5;stroke-linecap:butt;stroke-linejoin:miter;stroke-miterlimit:4;stroke-dasharray:none;stroke-dashoffset:0;stroke-opacity:1;stop-color:#000000"
         d="m -65.18053,213.06262 v 44.59987 a 6.1293623,6.1293623 0 0 0 6.12934,6.12934 h 28.35486 v -50.72921 z" />
      <path
         id="path1226"
         style="font-variation-settings:normal;vector-effect:none;fill:#ffffff;fill-opacity:1;fill-rule:evenodd;stroke:none;stroke-width:0.49925;stroke-linecap:butt;stroke-linejoin:miter;stroke-miterlimit:4;stroke-dasharray:none;stroke-dashoffset:0;stroke-opacity:1;stop-color:#000000"
         d="m -63.593029,197.41534 v 60.26557 c 1e-6,3.37502 2.74419,6.11074 6.129342,6.11074 h 1.058333 a 6.1293623,6.1110119 0 0 1 -6.129341,-6.11074 v -60.26557 z" />
      <path
         id="path33520"
         style="vector-effect:none;fill:#e9b96e;fill-opacity:1;fill-rule:evenodd;stroke:none;stroke-width:0.507614;stop-color:#000000"
         d="m -65.18053,197.41532 h 35.54223 a 7.1782277,6.9644818 0 0 1 -7.60152,6.52801 h -19.92829 a 7.3982956,7.1779968 0 0 1 -8.01242,-6.52801 z"
         sodipodi:nodetypes="ccccc" />
      <path
         id="path33536"
         style="vector-effect:none;fill:#ad7fa8;fill-opacity:1;fill-rule:evenodd;stroke:none;stroke-width:0.499999;stop-color:#000000"
         d="m -47.93854,217.54752 c 1.43556,0 2.59127,1.15571 2.59127,2.59128 v 4.58456 c 0,1.43557 -1.15571,2.59127 -2.59127,2.59127 -1.43557,0 -2.59128,-1.1557 -2.59128,-2.59127 v -4.58456 c 0,-1.43557 1.15571,-2.59128 2.59128,-2.59128 z" />
      <path
         id="path33538"
         style="vector-effect:none;fill:#e9b96e;fill-opacity:1;fill-rule:evenodd;stroke:none;stroke-width:0.499999;stop-color:#000000"
         d="m -55.59134,206.13595 c 0,0 5.0995,-0.52917 7.64924,-0.52917 2.54975,0 7.64924,0.52917 7.64924,0.52917 0.3865,0 0.69765,0.31115 0.69765,0.69765 v 1.69429 c 0,0.3865 -0.31115,0.69765 -0.69765,0.69765 0,0 -5.09949,-0.52917 -7.64924,-0.52917 -2.54974,0 -7.64924,0.52917 -7.64924,0.52917 -0.3865,0 -0.69765,-0.31115 -0.69765,-0.69765 v -1.69429 c 0,-0.3865 0.31115,-0.69765 0.69765,-0.69765 z"
         sodipodi:nodetypes="szsssszssss" />
      <path
         id="path33540"
         style="vector-effect:non-scaling-stroke;fill:#ad7fa8;fill-opacity:1;fill-rule:evenodd;stroke:none;stroke-width:0.00161124;-inkscape-stroke:hairline;paint-order:stroke fill markers"
         d="m -46.76264,192.68935 c -3.69751,-6e-5 -6.69504,1.81641 -6.6952,3.40444 2.6e-4,0.24985 2.6e-4,2.81767 0,3.06751 1.6e-4,1.58803 2.9977,2.87533 6.6952,2.87528 3.6973,-7e-5 6.69451,-1.28733 6.69468,-2.87528 -1.1e-4,-0.24983 -1.1e-4,-2.81767 0,-3.06751 -1.7e-4,-1.58794 -2.99738,-3.40437 -6.69468,-3.40444 z"
         sodipodi:nodetypes="sccsccs" />
      <path
         id="path33542"
         style="vector-effect:non-scaling-stroke;fill:#ffffff;fill-opacity:1;fill-rule:evenodd;stroke:none;stroke-width:0.00169736;-inkscape-stroke:hairline;paint-order:stroke fill markers"
         d="m -40.06797,195.8805 c -10e-6,1.47832 -2.99733,2.67674 -6.69471,2.67674 -3.69738,0 -6.6947,-1.19842 -6.69471,-2.67674 0,-1.47833 1.67599,-3.19115 6.69475,-3.19115 5.01876,0 6.69468,1.71282 6.69467,3.19115 z"
         sodipodi:nodetypes="ssszs" />
      <ellipse
         style="vector-effect:non-scaling-stroke;fill:#ad7fa8;fill-opacity:1;fill-rule:evenodd;stroke:none;stroke-width:0.00132291;-inkscape-stroke:hairline;paint-order:stroke fill markers"
         id="ellipse33544"
         cx="-46.762672"
         cy="195.56461"
         rx="5.4969244"
         ry="2.3608587" />
      <g
         id="g33556"
         style="stroke:none"
         transform="translate(-171.51013,-82.61556)">
        <ellipse
           style="fill:#ffffff;fill-opacity:1;fill-rule:evenodd;stroke:#ad7fa8;stroke-width:3.2;stroke-miterlimit:4;stroke-dasharray:none;stroke-opacity:1;paint-order:stroke fill markers"
           id="circle33546"
           cx="182.5966"
           cy="308.12915"
           rx="35.879002"
           ry="35.879192" />
        <g
           id="g4487"
           inkscape:label="outer-lens">
          <circle
             style="vector-effect:non-scaling-stroke;fill:#ad7fa8;fill-opacity:1;fill-rule:evenodd;stroke:none;stroke-width:0.00116857;-inkscape-stroke:hairline;paint-order:stroke fill markers"
             id="circle33548"
             cx="182.5966"
             cy="308.12915"
             r="31.693287" />
          <g
             id="path3954"
             style="fill:#ffffff;fill-opacity:1">
            <path
               style="color:#000000;fill:#ffffff;fill-opacity:1;fill-rule:evenodd;stroke-width:3;stroke-linecap:round;stroke-linejoin:round;-inkscape-stroke:none;paint-order:fill markers stroke"
               d="m 157.35779,322.4281 c 1.13224,1.77599 2.23851,3.56497 3.88691,5.08289"
               id="path4300" />
            <path
               style="color:#000000;fill:#ffffff;fill-opacity:1;fill-rule:evenodd;stroke-linecap:round;stroke-linejoin:round;-inkscape-stroke:none;paint-order:fill markers stroke"
               d="m 157.68164,320.96289 a 1.5,1.5 0 0 0 -1.13086,0.20117 1.5,1.5 0 0 0 -0.45703,2.07031 c 1.12487,1.76443 2.30035,3.69166 4.13477,5.38086 a 1.5,1.5 0 0 0 2.11914,-0.0879 1.5,1.5 0 0 0 -0.0859,-2.11914 c -1.46238,-1.34662 -2.49906,-2.99956 -3.63867,-4.78711 a 1.5,1.5 0 0 0 -0.94141,-0.6582 z"
               id="path4302" />
          </g>
        </g>
        <g
           id="g4481"
           inkscape:label="inner-lens">
          <circle
             style="vector-effect:non-scaling-stroke;fill:#e9b96e;fill-opacity:1;fill-rule:evenodd;stroke:none;stroke-width:0.000970134;-inkscape-stroke:hairline;paint-order:stroke fill markers"
             id="circle33550"
             cx="182.5966"
             cy="308.12915"
             r="26.311407" />
          <path
             style="color:#000000;fill:#ffffff;fill-opacity:1;fill-rule:evenodd;stroke-linecap:round;stroke-linejoin:round;-inkscape-stroke:none;paint-order:fill markers stroke"
             d="m 198.43945,290.92969 a 2,2 0 0 0 -1.39062,0.64258 2,2 0 0 0 0.11328,2.82421 c 0,0 6.36714,6.01251 5.83984,14.09766 a 2,2 0 0 0 1.86524,2.12695 2,2 0 0 0 2.125,-1.86718 c 0.66868,-10.2531 -7.11719,-17.29688 -7.11719,-17.29688 a 2,2 0 0 0 -1.43555,-0.52734 z"
             id="path3599" />
        </g>
        <circle
           style="vector-effect:non-scaling-stroke;fill:#ad7fa8;fill-opacity:1;fill-rule:evenodd;stroke:none;stroke-width:0.000661455;-inkscape-stroke:hairline;paint-order:stroke fill markers"
           id="circle33552"
           cx="182.5966"
           cy="308.12915"
           r="17.939594" />
        <circle
           style="vector-effect:non-scaling-stroke;fill:#ffffff;fill-opacity:1;fill-rule:evenodd;stroke:none;stroke-width:0.000220485;-inkscape-stroke:hairline;paint-order:stroke fill markers"
           id="circle33554"
           cx="182.5966"
           cy="308.12915"
           r="5.9798627" />
      </g>
    </g>
  </g>
</svg>
