<?xml version="1.0" encoding="UTF-8" standalone="no"?>
<!-- Created with Inkscape (http://www.inkscape.org/) -->

<svg
   width="131.21924mm"
   height="188.3336mm"
   viewBox="0 0 131.21923 188.33361"
   version="1.1"
   id="svg957"
   inkscape:version="1.1.1 (3bf5ae0d25, 2021-09-20)"
   sodipodi:docname="intro.svg"
   xmlns:inkscape="http://www.inkscape.org/namespaces/inkscape"
   xmlns:sodipodi="http://sodipodi.sourceforge.net/DTD/sodipodi-0.dtd"
   xmlns="http://www.w3.org/2000/svg"
   xmlns:svg="http://www.w3.org/2000/svg">
  <sodipodi:namedview
     id="namedview959"
     pagecolor="#ffffff"
     bordercolor="#999999"
     borderopacity="1"
     inkscape:pageshadow="0"
     inkscape:pageopacity="0"
     inkscape:pagecheckerboard="0"
     inkscape:document-units="mm"
     showgrid="false"
     inkscape:zoom="0.66368548"
     inkscape:cx="347.30307"
     inkscape:cy="475.37578"
     inkscape:window-width="1920"
     inkscape:window-height="1002"
     inkscape:window-x="1912"
     inkscape:window-y="-8"
     inkscape:window-maximized="1"
     inkscape:current-layer="layer1"
     fit-margin-top="0"
     fit-margin-left="0"
     fit-margin-right="0"
     fit-margin-bottom="0" />
  <defs
     id="defs954">
    <inkscape:path-effect
       effect="taper_stroke"
       id="path-effect14329"
       is_visible="true"
       lpeversion="1"
       stroke_width="1"
       attach_start="3.7680356"
       end_offset="1.3532749"
       start_smoothing="0.5"
       end_smoothing="0.5"
       jointype="extrapolated"
       start_shape="center"
       end_shape="center"
       miter_limit="100" />
    <inkscape:path-effect
       effect="taper_stroke"
       id="path-effect14455"
       is_visible="true"
       lpeversion="1"
       stroke_width="1"
       attach_start="0.91021286"
       end_offset="0.8545069"
       start_smoothing="0.5"
       end_smoothing="0.5"
       jointype="extrapolated"
       start_shape="center"
       end_shape="center"
       miter_limit="100" />
  </defs>
  <g
     inkscape:label="Ebene 1"
     inkscape:groupmode="layer"
     id="layer1"
     transform="translate(226.45798,-20.88124)">
    <path
       style="display:inline;fill:#e9b96e;fill-rule:evenodd;stroke:none;stroke-width:0.743371;stroke-linecap:round;stroke-linejoin:round;paint-order:stroke fill markers"
       d="m -128.55163,26.870152 c -6.08434,-5.78012 -24.87248,-9.519098 -31.62797,-0.921202 -6.75549,8.597895 -11.05444,17.502857 -6.75549,27.636089 4.29895,10.133232 -0.61413,35.005708 0,39.918772 0.61413,4.913053 7.36962,24.565349 27.32902,16.888639 19.95939,-7.67667 27.32902,-17.502773 33.47036,-31.627865 6.141357,-14.125113 -20.26644,-22.10887 -24.25832,-27.021951 -3.99188,-4.913082 7.92673,-19.092364 1.8424,-24.872482 z"
       id="path4186"
       sodipodi:nodetypes="zzzzzzzz"
       inkscape:label="orange" />
    <path
       style="display:inline;fill:#ad7fa8;fill-rule:evenodd;stroke:none;stroke-width:0.757768;stroke-linecap:round;stroke-linejoin:round;paint-order:stroke fill markers"
       d="m -174.38586,104.66922 c -5.8888,-4.41659 -10.01647,-0.93903 -13.77265,-3.75617 -3.75618,-2.817136 -18.46788,-22.537072 -25.04121,-20.032953 -6.5733,2.504119 -17.84184,26.293253 -11.26851,42.257013 6.5733,15.96376 11.26851,39.43987 18.78089,40.69193 7.51234,1.25207 19.09391,-6.5733 25.04119,-9.39045 5.94728,-2.81715 10.6425,-16.90279 7.51234,-24.41516 -3.13014,-7.51236 4.63675,-20.93761 -1.25205,-25.35421 z"
       id="path3997"
       sodipodi:nodetypes="zzzzzzzz"
       inkscape:label="purple" />
    <path
       id="path6224"
       style="fill:#aec896;fill-opacity:1;fill-rule:evenodd;stroke:none;stroke-width:0.218835px;stroke-linecap:butt;stroke-linejoin:miter;stroke-opacity:1"
       d="m -104.60961,109.92696 c -1.34807,2.80543 -11.50305,19.84254 -12.32652,20.84032 -0.82347,0.99778 -9.13297,14.81962 -9.74813,15.89138 -0.61516,1.07175 -9.4433,19.9875 -9.88033,20.88793 -8.22658,18.5429 -8.90243,21.98693 -8.90243,21.98693 0,0 2.72582,-4.59274 3.16964,-5.84262 0.44383,-1.24988 9.93092,-21.691 9.93092,-21.691 0,0 7.9171,-17.01073 8.81454,-18.21683 0.89744,-1.2061 7.68074,-12.05118 8.97143,-13.70409 1.29069,-1.65291 5.11299,-9.44427 5.8391,-10.8285 0.72611,-1.38422 4.35287,-6.31276 4.44724,-7.56944 0.0944,-1.25669 -0.31546,-1.75408 -0.31546,-1.75408 z m -4.47106,16.92321 c -0.44565,0.67112 -0.4694,0.62122 0.68179,0.53238 1.15119,-0.0888 1.52425,-0.20518 2.55535,0.16096 1.0311,0.36614 1.3732,0.57056 2.04567,0.31173 0.67247,-0.25883 1.77135,-0.20037 2.17643,-0.0565 0.40507,0.14384 1.43993,-0.31805 -0.33008,-0.82217 -1.77,-0.50412 -2.03874,0.60304 -2.61727,0.48054 -0.57853,-0.1225 -3.79298,-1.34687 -4.51189,-0.60691 z m 5.46681,6.79305 c -1.24378,-0.23432 -1.80923,-0.39364 -1.65607,-0.008 0.15317,0.38614 1.29714,0.66795 2.00163,0.6693 0.70448,0.001 2.84409,-0.0683 -0.34556,-0.66179 z m -18.50858,18.7234 c 0.69865,0.9143 2.01125,0.17509 2.91053,0.32855 0.89928,0.15346 2.04566,0.31173 2.04566,0.31173 -1.36098,-1.19475 -5.65484,-1.55458 -4.95619,-0.64028 z m 10.26304,0.40983 c 0.81015,0.28768 1.3708,0.6941 1.29369,0.21057 -0.0771,-0.48353 -0.83736,-0.79496 -1.19494,-0.839 -0.66584,-0.0605 -0.83751,0.36665 -0.0987,0.62843 z m -17.36435,7.56002 c -0.53345,0.48255 -0.37095,1.2782 0.75409,1.26302 1.12504,-0.0152 5.7598,0.94637 7.19079,0.77028 0.74605,-0.0918 2.19552,-0.40223 2.19552,-0.40223 0,0 -1.57371,-0.42507 -2.95002,-0.3633 -1.37632,0.0618 -6.65692,-1.75032 -7.19038,-1.26777 z m 3.81472,20.55446 c -0.17106,-0.10217 -4.34371,-3.53291 -6.42966,-4.3151 -2.08596,-0.78214 -4.68504,-1.87098 -4.4441,-0.91459 0.24095,0.9564 2.01095,1.46052 3.04446,1.70311 1.0335,0.24259 4.18738,1.40398 5.32174,2.18001 1.13436,0.77602 2.50756,1.34657 2.50756,1.34657 z m -23.47782,-7.9222 c -0.21617,0.32368 0.58785,0.9137 0.76476,1.34974 0.17691,0.43604 0.62708,0.80323 0.82082,0.37442 0.19374,-0.42882 -0.005,-1.03831 -0.54381,-1.27129 -0.53932,-0.23293 -0.82561,-0.77655 -1.04177,-0.45287 z m 2.72429,-0.89869 c 0.004,0.50259 -0.0857,0.5916 0.69592,1.07648 0.78159,0.48488 1.22214,1.34628 1.57386,1.05649 0.35171,-0.28979 0.5169,-0.52141 -0.0437,-0.92783 -0.17998,-0.27923 -2.23158,-1.96471 -2.22603,-1.20514 z m -5.99873,-2.9595 c -0.57372,-0.3696 -1.34223,-0.8913 -1.54424,-0.67276 -0.20201,0.21855 -0.62497,0.35864 0.0854,0.69381 0.44602,0.32636 2.1465,1.7184 2.75946,1.10432 -0.032,-0.26017 -1.07965,-1.04687 -1.3006,-1.12533 z m 9.83517,-19.52253 c -0.4747,0.22895 -0.57161,0.79227 0.55208,1.48157 1.12369,0.68929 1.72116,1.10879 2.40055,1.76472 0.67939,0.65593 1.14955,1.90107 1.51193,1.698 0.36239,-0.20307 0.44566,-0.67112 -0.17315,-1.26407 -0.89358,-0.76255 -3.28913,-4.16362 -4.29141,-3.68022 z m 7.61294,-11.39593 c 0.70313,0.70583 0.69352,1.20004 1.16878,0.91265 0.47527,-0.28739 0.25086,-0.82323 -0.23854,-1.07994 -0.79161,-0.34623 -1.63487,-0.54517 -0.93024,0.16729 z m -1.59977,-12.42804 c -0.1249,0.70208 0.76582,1.93068 1.31579,2.25038 0.54997,0.31971 0.93716,0.74746 1.4479,1.17764 0.51074,0.43018 1.14158,0.40537 0.99082,-0.10432 -0.15076,-0.50969 -1.1034,-1.09678 -1.47992,-1.43782 -0.37651,-0.34105 -2.1569,-2.2173 -2.27459,-1.88588 z m 8.14596,-4.48877 c -0.4646,0.37411 0.24681,1.29022 0.74688,1.63367 0.50007,0.34344 0.77813,0.0275 0.39094,-0.40027 -0.38719,-0.42777 -0.83841,-1.37589 -1.13782,-1.2334 z m 1.74532,-5.84931 c -0.31008,0.0558 0.242,1.53732 0.6316,1.84154 0.38959,0.30422 0.71608,0.64886 0.94408,1.66223 0.37597,1.03281 3.88653,6.61728 2.61774,2.67122 -0.49872,-1.04793 -1.80625,-3.08802 -1.85134,-3.31138 -0.41247,-0.91669 -1.006,-2.99265 -2.34208,-2.86361 z m 26.23778,-13.8639 c 0,0 -6.16373,1.70931 -7.33522,2.20562 -1.17148,0.49632 -5.20251,1.0034 -7.50867,2.22697 -2.09572,1.11194 -4.9763,4.20439 -5.50147,4.51552 -0.52517,0.31114 -10.14682,5.68582 -11.01198,6.95441 -0.86515,1.26859 -4.91497,6.13371 -5.99146,6.82963 -1.07649,0.69592 -3.0587,3.47539 -3.0587,3.47539 0,0 7.32383,6.00108 8.0934,7.10372 0.76957,1.10264 4.78608,6.8416 4.78608,6.8416 0,0 -5.16184,-5.3163 -7.6467,-7.19391 -2.48487,-1.87761 -5.52797,-4.28519 -5.88661,-4.91016 -0.35863,-0.62497 -1.89895,2.31141 -2.58584,3.31155 -0.6869,1.00014 -3.10133,5.62171 -4.2954,8.59301 -0.71945,1.79027 -1.29592,4.35016 -1.71436,5.52856 -0.41845,1.1784 1.91431,3.25081 3.1877,3.86885 1.2734,0.61806 7.31211,5.33343 8.20764,6.31492 0.89553,0.98149 3.18771,3.86885 3.18771,3.86885 -4.8785,-1.23586 -6.72332,-4.88785 -12.363,-7.45871 -1.17841,-0.41844 -3.70385,-1.48109 -3.79403,-1.9278 -0.0902,-0.44671 -1.51206,4.0246 -2.47702,5.34068 -0.96495,1.31608 -4.56173,9.57661 -4.31522,12.15225 0.24652,2.57564 -0.34115,6.00373 0.77021,8.69158 1.55527,3.76146 4.96462,6.47871 7.82678,9.37274 0.96215,0.97287 3.12145,2.66582 3.12145,2.66582 0,0 -4.05358,10.93657 -4.36742,11.82037 -0.31383,0.8838 -1.98281,5.35029 -1.60283,6.14872 0.37998,0.79843 0.17556,1.14052 1.11167,1.30706 0.93611,0.16653 1.64974,-3.47809 1.64974,-3.47809 0,0 2.63241,-9.51528 2.99374,-10.29927 0.36134,-0.784 1.65244,-4.88706 1.65244,-4.88706 0,0 0.13077,-0.36825 3.32387,0.68268 3.19311,1.05091 8.71475,1.85052 11.26212,0.51579 2.54738,-1.33473 5.29437,-2.76446 5.18284,-3.38462 -0.11153,-0.62016 -2.52967,-3.38637 -3.46097,-3.80001 -0.93129,-0.41364 -3.00041,-2.06068 -3.00041,-2.06068 0,0 2.15513,0.98466 3.45674,1.47629 1.30162,0.4916 3.2991,2.64753 4.24285,2.99948 0.94374,0.35197 0.88745,-0.4372 1.17032,-1.00024 0.28287,-0.56305 1.66235,-0.55009 2.76737,-1.91422 1.10502,-1.36412 2.24047,-5.21741 4.41386,-7.05808 0.93997,-0.75028 -0.69626,-3.06272 -3.11406,-3.8427 -2.4178,-0.78 -3.11052,-3.32777 -7.25769,-4.31886 -4.14718,-0.99109 -4.46169,-1.91607 -4.46169,-1.91607 0,0 8.25631,1.27305 9.33971,1.49189 1.08341,0.21883 1.66569,-0.48671 2.79659,-0.16806 1.13091,0.31864 3.67288,1.80185 5.07223,2.29875 1.39936,0.49691 1.72973,0.0337 2.23836,-0.69803 0.50863,-0.73169 6.35186,-13.91716 6.93203,-15.78456 0.58016,-1.86741 2.64111,-6.19856 2.39433,-7.44346 -0.26444,-1.33398 -1.79586,-1.71588 -3.29021,-2.41239 -1.49434,-0.69651 -2.35574,-0.25597 -4.28717,-1.3565 -1.93144,-1.10053 -4.80966,-2.45431 -5.44635,-2.76334 -0.6367,-0.30903 3.8325,-0.049 5.1107,0.32193 1.2782,0.37094 3.63711,2.3697 5.11492,2.64566 1.47781,0.27595 2.00027,1.37379 2.96735,1.21957 0.96707,-0.15423 1.25955,-1.21148 2.177014,-2.62737 0.917447,-1.41588 1.893171,-2.00396 2.457758,-4.35226 0.56459,-2.34831 2.12463,-6.16888 1.606117,-10.12853 -0.132874,-0.79361 -0.201133,-3.6377 -0.711873,-4.06787 -0.510739,-0.43018 -1.364731,-0.82926 -2.513705,-0.39499 -1.148984,0.43427 -2.792041,0.46059 -4.284011,0.38631 1.11697,-0.59822 4.240841,-1.90864 5.275115,-1.77605 0.862458,0.14039 1.492228,-0.46535 1.316664,-1.60587 -0.175564,-1.14052 -0.328256,-3.42609 -0.766277,-5.08244 -0.30703,-1.16102 -1.245864,-3.26435 -1.683441,-4.95197 -0.689777,-2.66029 0.10608,-6.72168 -1.473631,-8.112 z"
       inkscape:connector-curvature="0"
       sodipodi:nodetypes="cccccscszscccsscscccccccczcczcccczssczzcccscczcsczcscccccccccscsscsccccczzczcccccczccccczzazzczscscacszccscczaaczzsccccsczczzzzczzcscscsssssszzczcccczzazc"
       inkscape:label="leaf" />
    <g
       id="g2037"
       inkscape:label="face">
      <path
         style="display:inline;fill:#000000;fill-rule:nonzero;stroke:none;stroke-width:1;stroke-linecap:round;stroke-linejoin:round;stroke-miterlimit:4;stroke-dasharray:none;paint-order:stroke fill markers"
         d="m -177.90464,85.659826 c -1.42233,-0.484883 -3.03142,0.03717 -3.88939,1.183681 -0.38896,0.541428 -0.52079,1.175135 -0.49712,1.749235 0.0101,0.780232 0.44352,1.503794 1.11492,1.837636 1.03379,0.452279 2.10134,0.0072 2.62774,-0.668792 0.25639,-0.325861 0.41128,-0.706893 0.42614,-1.087747 0.0144,-0.388732 -0.18763,-0.725207 -0.4726,-0.88733 -1.50144,-0.769835 -1.49489,0.895002 -1.49489,0.895002 0,0 0.45245,-1.335376 1.35511,-0.66379 0.18066,0.119424 0.27901,0.375547 0.24428,0.628021 -0.0359,0.283423 -0.19557,0.55806 -0.42389,0.807814 -0.44391,0.476791 -1.31635,0.729177 -1.94793,0.34863 -0.39013,-0.196686 -0.61422,-0.707946 -0.59899,-1.206254 0.0275,-0.444101 0.13501,-0.899094 0.39063,-1.196443 0.61964,-0.776267 1.87228,-1.128247 2.84188,-0.793645 0.3284,0.112516 0.66428,0.317981 0.97486,0.650442 0.75286,0.805899 0.41625,2.606241 -1.36766,3.230612 -0.17186,0.06015 -0.37296,0.107856 -0.60375,0.143755 -0.20706,0.03221 -0.43219,0.05386 -0.67154,0.06615 -0.43163,0.02217 -0.9002,0.01343 -1.377,-0.01582 -0.38109,-0.02338 -0.76456,-0.05968 -1.13507,-0.103024 0,0 -1.21855,-0.113303 -2.72902,-0.455864 a 22.628632,22.628632 0 0 1 -2.50565,-0.722326 11.723921,11.723921 0 0 0 2.13851,1.639107 c 2.43159,1.453588 5.08635,1.844283 5.08635,1.844283 2.66019,0.380025 5.35415,-1.268664 7.47911,-0.9306 2.62134,0.417029 2.78646,-1.363526 2.3943,-2.24588 -0.32839,-0.738903 -5.31224,-4.885008 -9.18763,-5.251599 -0.84184,-0.07963 -1.72044,0.04899 -2.56995,0.29171 -0.67961,0.194174 -1.35385,0.464943 -1.99196,0.769844 -1.27377,0.608626 -2.43423,1.36752 -3.27115,1.969931 -0.40046,0.288251 -0.78403,0.55602 -1.3708,1.064152 l 0.75816,0.124255 c -0.99539,-1.690309 -1.28063,-3.524225 -1.28063,-3.524225 -0.17301,-1.165891 -0.0111,-2.274662 0.84134,-2.961329 2.47422,-1.993127 7.97261,-1.980844 10.08113,-1.096629 2.26844,0.951281 5.79189,2.367336 7.32322,2.447932 1.7381,0.09148 3.22398,-2.021542 2.2388,-3.225646 -0.82001,-1.00224 -8.66251,-3.614089 -13.2227,-3.761191 -4.62754,-0.149276 -7.77052,4.028471 -8.44536,4.173082 0,0 0.38465,0.125714 0.38465,0.125714 -7e-5,-1.06e-4 -6.9e-4,-0.0011 -0.002,-0.0033 -0.001,-0.0024 -0.003,-0.0058 -0.005,-0.01055 -0.003,-0.0052 -0.006,-0.01168 -0.009,-0.01952 -0.004,-0.0087 -0.008,-0.01879 -0.0125,-0.03041 -0.005,-0.01291 -0.0103,-0.02737 -0.0158,-0.04354 -0.006,-0.01796 -0.0125,-0.0377 -0.0191,-0.05933 -0.007,-0.02403 -0.0147,-0.05011 -0.0223,-0.07831 -0.74446,-2.777862 -0.7342,-18.416591 4.69267,-22.202782 6.2365,-4.351041 11.34785,-6.729536 17.54572,-5.039208 6.15505,1.678648 8.96832,6.085658 8.39517,15.112602 -0.58131,9.155836 -3.54275,15.906323 -2.31558,19.894612 1.1622,3.777166 2.35917,11.11338 3.26852,12.659934 1.20868,2.05563 4.06165,5.1335 4.93733,6.1415 0.78966,0.90897 0.44646,3.00929 -0.29462,3.58569 0,0 -1.15535,0.86031 -2.49329,0.63202 l 0.32735,0.77697 c 1.18911,-1.72216 0.036,-2.27841 0.036,-2.27841 -0.13895,-0.0669 -0.29419,-0.10062 -0.45071,-0.11105 -1.44497,-0.0963 -2.68628,2.55465 -3.97643,2.55465 -1.1677,0 -1.82985,0.56557 -1.60942,1.6269 0.10772,0.51864 0.46795,1.22388 0.97186,1.99457 0.49183,0.7522 0.81118,1.31715 0.96189,1.76821 0.15638,0.46803 0.11622,0.5542 -0.30652,0.60117 -1.2923,0.14358 -1.68471,0.37989 -1.82125,0.5847 l -1.01147,1.51716 1.64385,-0.78905 c 0.99158,-0.47595 2.57439,-0.2933 2.58774,-0.29154 0.39089,0.0516 0.814,0.14839 1.2603,0.31068 2.35297,0.85562 3.05086,2.05552 3.76673,2.47647 0.91638,0.53886 2.45074,0.96939 3.82977,1.12839 l -0.36673,-0.76171 c 0,0 0.17686,-0.15707 0.17686,-0.15707 0,0 0.002,-5.9e-4 0.002,-5.9e-4 0,0 -4.6e-4,1.5e-4 -0.001,3.8e-4 -0.001,3.1e-4 -0.003,7.7e-4 -0.005,0.001 -0.002,6.4e-4 -0.005,0.001 -0.009,0.002 -0.004,9.7e-4 -0.009,0.002 -0.0139,0.003 -0.006,0.001 -0.0125,0.003 -0.0198,0.004 -0.008,0.002 -0.0172,0.003 -0.027,0.005 -1.19588,0.20084 -6.39919,-0.0976 -8.00666,0.0361 -1.88389,0.15676 -2.95238,0.10913 -4.23827,0.0356 -2.36315,-0.13519 -3.47159,2.32574 -0.95862,2.69172 1.29067,0.18796 2.73841,0.003 3.9395,-0.21406 0.58649,-0.10606 1.16863,-0.24678 1.71364,-0.37277 0,0 0,0 0,0 2.76384,-0.64064 5.27907,-0.89375 5.27907,-0.89375 0,0 -2.49705,-0.45788 -5.45147,-0.0175 0,0 0,0 0,0 -0.58232,0.0868 -1.14505,0.19638 -1.71901,0.29994 -1.17116,0.21157 -2.4762,0.37479 -3.61762,0.20857 -0.77321,-0.11261 -0.5478,-0.26191 -0.44468,-0.35567 0.21599,-0.19638 0.6418,-0.38018 1.20208,-0.34813 1.29616,0.0741 2.42187,0.1254 4.3783,-0.0374 1.60747,-0.13375 6.89348,0.15436 8.08936,-0.0465 0.15032,-0.0252 0.44133,-0.0938 0.57932,-0.31461 l 0.41942,-0.67107 -0.78615,-0.0906 c -1.32191,-0.15242 -2.62887,-0.52153 -3.43743,-0.99699 -0.41715,-0.24529 -1.4654,-1.65735 -3.93187,-2.55425 -0.17274,-0.0628 -2.69173,-0.90763 -4.6225,0.0191 l 0.63238,0.72811 c 0,0 -0.0933,0.10116 -0.0933,0.10116 0.002,-0.001 0.005,-0.002 0.008,-0.004 0.004,-0.002 0.009,-0.004 0.0151,-0.007 0.007,-0.003 0.015,-0.007 0.0246,-0.0105 0.0107,-0.004 0.0231,-0.009 0.0375,-0.0144 0.15079,-0.0548 0.47235,-0.13971 1.10745,-0.21028 1.14923,-0.12769 1.48108,-0.90478 1.14456,-1.91195 -0.17876,-0.53502 -0.5721,-1.2319 -1.07338,-1.99856 -0.60686,-0.92813 -0.86094,-1.55548 -0.84988,-1.84304 0.004,-0.10047 0.0385,-0.23118 0.65047,-0.23118 1.77954,0 3.16825,-2.6063 3.90992,-2.55687 0.0122,8.2e-4 0.023,0.002 0.0325,0.003 0.009,0.001 0.0159,0.002 0.0222,0.004 0.006,0.001 0.0105,0.002 0.0144,0.003 0.0355,0.009 -0.0261,-0.0342 -0.0261,-0.0342 0,0 -0.0643,0.38384 -0.38471,0.84785 a 2.8875532,2.8875532 0 0 1 -0.48356,0.54015 3.6765549,3.6765549 0 0 0 0.81091,0.23682 c 1.80473,0.30793 3.27543,-0.82842 3.27543,-0.82842 1.2305,-0.95706 1.59944,-3.69116 0.4356,-5.03087 -0.89704,-1.03258 -3.68617,-4.04683 -4.83023,-5.99254 -0.77357,-1.315638 -2.00028,-8.630056 -3.17476,-12.447159 -1.10953,-3.605978 1.77077,-10.291503 2.3578,-19.537162 0.59521,-9.374551 -2.43326,-14.314333 -9.13005,-16.140731 -6.65397,-1.814718 -12.05776,0.772269 -18.38102,5.183845 -5.8769,4.100164 -5.93237,20.12515 -5.0864,23.281771 0.0984,0.367268 0.31743,0.958011 0.87689,0.838128 1.37183,-0.293967 3.77703,-4.294196 8.20359,-4.151404 4.49453,0.144984 11.98661,2.790705 12.48098,3.394948 0.32922,0.402373 -0.37556,1.648354 -1.41228,1.593791 -1.24351,-0.06545 -4.73014,-1.424221 -6.98906,-2.371508 -2.41884,-1.014351 -8.31185,-1.002068 -11.09518,1.240069 -1.54254,1.242591 -1.42495,3.278962 -0.99384,4.877973 0,0 0.4033,1.54296 1.19878,2.893771 a 8.4656004,8.4656004 0 0 0 0.32606,0.510942 17.788343,17.788343 0 0 1 0.4321,-0.386687 c 1.99164,-1.72472 3.97293,-2.666192 3.97293,-2.666192 1.47936,-0.763928 3.07798,-1.322659 4.48211,-1.189835 3.76554,0.356199 8.2854,4.476327 8.368,4.662177 0.0102,0.02305 0.57903,1.154819 -1.32337,0.852166 -2.41884,-0.384816 -5.09484,1.271083 -7.49481,0.92823 0,0 -2.47499,-0.373794 -4.71467,-1.712661 l -0.36714,0.916781 c 1.55087,0.351723 2.80001,0.469879 2.83402,0.473858 0.38511,0.04505 0.7874,0.08322 1.19002,0.107919 0.50284,0.03085 1.01071,0.04097 1.48952,0.01638 0.26644,-0.01368 0.52674,-0.03826 0.77396,-0.07672 0.27396,-0.04262 0.53916,-0.103586 0.78039,-0.188014 2.34682,-0.821387 3.10465,-3.426351 1.76805,-4.85712 -0.42164,-0.451349 -0.88937,-0.745204 -1.38149,-0.91381 z"
         id="path14229"
         inkscape:path-effect="#path-effect14329"
         inkscape:original-d="m -180.08984,88.681511 c -0.1549,-0.826148 0.65273,-1.246303 1.425,-0.779396 1.10162,0.666034 -0.49435,3.143794 -2.35441,2.214167 -1.28946,-0.644447 -0.85806,-2.415812 -0.41308,-2.994784 0.72395,-0.941944 2.9655,-1.896043 4.54381,-0.206537 1.04473,1.118334 0.49751,3.320987 -1.56786,4.043866 -2.06537,0.722878 -6.79214,-0.349111 -6.79214,-0.349111 0,0 2.37044,1.417032 4.90051,1.778472 2.53008,0.361439 5.21506,-1.290855 7.48696,-0.929415 2.27191,0.361439 2.06537,-1.084318 1.85883,-1.549027 -0.20653,-0.464709 -4.95688,-4.595445 -8.77781,-4.956884 -3.82094,-0.36144 -8.82945,3.975832 -8.82945,3.975832 0,0 -2.95091,-5.011017 -0.32212,-7.128649 2.62878,-2.117632 8.32448,-2.117632 10.58816,-1.168349 2.26368,0.949284 5.76872,2.336698 7.15614,2.40972 1.38741,0.07302 2.48274,-1.60648 1.82554,-2.40972 -0.65719,-0.80324 -8.32448,-3.432025 -12.85184,-3.578068 -4.52735,-0.146044 -7.30218,3.943177 -8.32448,4.162243 -1.02231,0.219065 -1.6795,-18.839626 4.60037,-23.220935 6.27988,-4.381308 11.53745,-6.864049 17.96337,-5.111526 6.42592,1.752523 9.34679,6.425919 8.76261,15.626666 -0.58417,9.200748 -3.50504,15.918754 -2.33669,19.715888 1.16834,3.797134 2.38018,11.12245 3.22164,12.553546 1.17637,2.00067 3.99742,5.04673 4.88378,6.06702 0.97675,1.12434 0.62068,3.54155 -0.36511,4.30828 -1.28887,1.00245 -2.88436,0.73022 -2.88436,0.73022 0,0 1.05881,-1.53346 -0.0365,-1.60648 -1.09533,-0.073 -2.40973,2.55576 -3.94318,2.55576 -1.53346,0 -1.46044,0.94929 -0.21907,2.84785 1.24137,1.89857 1.60648,2.9939 0.29209,3.13994 -1.31439,0.14604 -1.46044,0.36511 -1.46044,0.36511 0,0 1.82555,-0.87626 4.23527,0 2.40972,0.87626 3.28279,2.18224 3.8493,2.51536 0.86247,0.50716 2.28313,0.90698 3.6336,1.06269 -0.22363,0.3578 -6.50006,-0.0208 -8.28614,0.12781 -1.92016,0.15978 -3.01726,0.11033 -4.30829,0.0365 -1.67463,-0.0958 -2.73832,1.42392 -0.85801,1.69776 1.88032,0.27383 4.14399,-0.29209 5.49489,-0.54767 1.35091,-0.25558 4.10565,-0.43813 5.36527,-0.43813"
         sodipodi:nodetypes="cssssscsssscssssssssssssscsssscsscssssc" />
      <path
         style="display:inline;fill:#000000;fill-rule:nonzero;stroke:none;stroke-width:1;stroke-linecap:round;stroke-linejoin:round;stroke-miterlimit:4;stroke-dasharray:none;paint-order:stroke fill markers"
         d="m -187.8054,98.155886 c 1.49231,2.058944 3.06693,3.683584 4.77856,4.867934 1.09158,0.78933 1.99423,1.19491 2.79259,1.28968 0.7247,0.086 1.12546,-0.10108 1.12546,-0.10108 0,0 -0.43014,0.1088 -1.08954,-0.0798 -0.77528,-0.22179 -1.42997,-0.70641 -2.46929,-1.57176 -1.55115,-1.35072 -2.83321,-2.941906 -4.32894,-4.992959 -0.29788,-0.409741 -0.59404,-0.835073 -0.88709,-1.274651 -1.34218,-2.013267 -2.83984,-3.619328 -4.25048,-4.357515 -2.36303,-1.236576 -4.32747,-0.03101 -4.92229,4.25635 -0.95223,6.863585 4.88618,20.705995 7.04936,26.474455 2.23038,5.94771 15.76491,17.06647 21.20124,19.88917 5.4782,2.84445 11.53795,-0.0699 12.35737,-0.88932 1.03807,-1.03809 -0.54984,-5.06713 -3.66282,-5.37842 -1.89599,-0.1896 -2.48531,-4.4417 -1.95073,-6.00496 0.0944,-0.27594 0.1977,-0.3733 0.1977,-0.3733 l -0.011,-6.4e-4 c 1.54374,0.10749 5.31089,-0.0593 7.53035,-1.45717 2.16577,-1.36403 2.47619,-2.55422 4.80887,-3.91927 0.29215,-0.17096 0.63397,-0.33008 1.01504,-0.46474 1.32053,-0.46464 2.70131,-0.57275 3.95374,-0.32462 0,0 0,0 0,0 2.88183,0.55098 4.19515,2.74616 4.19515,2.74616 0,0 -0.80196,-2.5171 -4.00641,-3.49667 0,0 0,0 0,0 -1.37677,-0.41319 -2.96467,-0.40363 -4.47565,0.13227 -0.43559,0.15391 -0.83663,0.33953 -1.18693,0.54452 -2.42378,1.41835 -2.76596,2.63198 -4.83674,3.93619 -2.01707,1.27042 -5.4732,1.40704 -6.92796,1.30575 a 8.4758179,8.4758179 0 0 1 -0.005,-3.2e-4 1.0861124,1.0861124 0 0 0 -0.006,-3.2e-4 c -1.94238,-0.0925 -1.83854,5.14073 -0.18421,7.29314 0.44507,0.57908 1.02572,1.00257 1.79018,1.07902 2.72683,0.27267 3.18087,3.55061 3.05521,3.67627 -0.34895,0.34895 -5.92774,3.44098 -11.18944,0.70893 -5.30359,-2.75376 -18.61886,-13.73444 -20.72574,-19.35279 -2.1741,-5.79762 -7.89563,-19.49543 -6.99516,-25.985914 0.44735,-3.224436 1.5219,-4.030806 2.65095,-3.809853 1.31927,0.258181 3.07238,1.887995 4.69924,4.328297 0.30037,0.45055 0.60429,0.887041 0.91031,1.307976 z"
         id="path54"
         inkscape:path-effect="#path-effect14455"
         inkscape:original-d="m -179.10879,104.21242 c -2.16864,0.51635 -5.8863,-2.68498 -9.19089,-7.64186 -3.30459,-4.956885 -7.32624,-7.050884 -8.26148,-0.309805 -0.92635,6.677035 4.85362,20.447145 7.02226,26.230185 2.16863,5.78303 15.59353,16.83275 20.96349,19.62098 5.36995,2.78825 11.18922,-0.21495 11.7734,-0.79912 0.58417,-0.58418 -0.43813,-4.23527 -3.35901,-4.52735 -2.92087,-0.29209 -3.21295,-7.44821 -1.6795,-7.37521 1.49925,0.10439 5.11089,-0.0473 7.22916,-1.38146 2.11827,-1.33412 2.44457,-2.53603 4.8228,-3.92773 2.20781,-1.29197 6.78767,-1.84692 9.41646,2.38834"
         sodipodi:nodetypes="csssssscssc" />
    </g>
    <g
       id="g1038"
       inkscape:label="brush"
       transform="rotate(-154.88291,-91.472946,129.87683)"
       style="stroke:#000000;stroke-opacity:1">
      <path
         style="fill:none;fill-opacity:1;fill-rule:evenodd;stroke:#000000;stroke-width:1;stroke-linecap:round;stroke-linejoin:round;stroke-miterlimit:4;stroke-dasharray:none;stroke-opacity:1;paint-order:stroke fill markers"
         d="m -38.111375,130.61833 c 0.0271,-0.74419 1.88394,-6.14229 1.14107,-9.35069 -0.74288,-3.20839 -1.48947,-5.52844 -3.67761,-7.61444 1.36084,4.56323 -2.70536,6.82197 -0.95583,13.24932 0.37822,1.41815 1.2677,3.84052 1.2677,3.84052"
         id="path7380"
         sodipodi:nodetypes="csccc" />
      <path
         style="fill:none;fill-rule:evenodd;stroke:#000000;stroke-width:1;stroke-linecap:round;stroke-linejoin:round;stroke-miterlimit:4;stroke-dasharray:none;stroke-opacity:1;paint-order:stroke fill markers"
         d="m -39.417965,187.81549 c -1.41767,-0.073 -2.09257,-5.12009 -2.3341,-6.58787 -0.38533,-2.34171 -0.96989,-36.20291 0.0889,-40.58422 1.05882,-4.38131 0.99055,-4.83155 0.20058,-5.60442 -0.37898,-0.37078 -1.40332,-0.33065 -0.93127,-2.39146 0.60917,-2.65945 1.66962,-1.75253 2.97587,-1.75253 1.30625,0 2.3667,-0.90692 2.97587,1.75253 0.47205,2.06081 -0.55229,2.02068 -0.93127,2.39146 -0.78997,0.77287 -0.85824,1.22311 0.20058,5.60442 1.05881,4.38131 0.47425,38.24251 0.0889,40.58422 -0.24153,1.46778 -0.91643,6.51485 -2.3341,6.58787"
         id="path6195"
         sodipodi:nodetypes="csssssssssc" />
    </g>
  </g>
</svg>
