<?xml version="1.0" encoding="UTF-8" standalone="no"?>
<!-- Created with Inkscape (http://www.inkscape.org/) -->

<svg
   width="131.21924mm"
   height="188.3336mm"
   viewBox="0 0 131.21923 188.33361"
   version="1.1"
   id="svg957"
   inkscape:version="1.1.1 (3bf5ae0d25, 2021-09-20)"
   sodipodi:docname="intro.svg"
   xmlns:inkscape="http://www.inkscape.org/namespaces/inkscape"
   xmlns:sodipodi="http://sodipodi.sourceforge.net/DTD/sodipodi-0.dtd"
   xmlns="http://www.w3.org/2000/svg"
   xmlns:svg="http://www.w3.org/2000/svg">
  <sodipodi:namedview
     id="namedview959"
     pagecolor="#ffffff"
     bordercolor="#999999"
     borderopacity="1"
     inkscape:pageshadow="0"
     inkscape:pageopacity="0"
     inkscape:pagecheckerboard="0"
     inkscape:document-units="mm"
     showgrid="false"
     inkscape:zoom="1.877186"
     inkscape:cx="355.05272"
     inkscape:cy="285.26742"
     inkscape:window-width="1920"
     inkscape:window-height="1002"
     inkscape:window-x="1912"
     inkscape:window-y="-8"
     inkscape:window-maximized="1"
     inkscape:current-layer="g2037"
     fit-margin-top="0"
     fit-margin-left="0"
     fit-margin-right="0"
     fit-margin-bottom="0" />
  <defs
     id="defs954">
    <inkscape:path-effect
       effect="taper_stroke"
       id="path-effect1961"
       is_visible="true"
       lpeversion="1"
       stroke_width="1"
       attach_start="0.91021286"
       end_offset="0.8545069"
       start_smoothing="0.5"
       end_smoothing="0.5"
       jointype="extrapolated"
       start_shape="center"
       end_shape="center"
       miter_limit="100" />
    <inkscape:path-effect
       effect="taper_stroke"
       id="path-effect954"
       is_visible="true"
       lpeversion="1"
       stroke_width="1"
       attach_start="3.7680356"
       end_offset="1.3532749"
       start_smoothing="0.5"
       end_smoothing="0.5"
       jointype="extrapolated"
       start_shape="center"
       end_shape="center"
       miter_limit="100" />
    <inkscape:path-effect
       effect="taper_stroke"
       id="path-effect14329"
       is_visible="true"
       lpeversion="1"
       stroke_width="1"
       attach_start="3.7680356"
       end_offset="1.3532749"
       start_smoothing="0.5"
       end_smoothing="0.5"
       jointype="extrapolated"
       start_shape="center"
       end_shape="center"
       miter_limit="100" />
    <inkscape:path-effect
       effect="taper_stroke"
       id="path-effect14455"
       is_visible="true"
       lpeversion="1"
       stroke_width="1"
       attach_start="0.91021286"
       end_offset="0.8545069"
       start_smoothing="0.5"
       end_smoothing="0.5"
       jointype="extrapolated"
       start_shape="center"
       end_shape="center"
       miter_limit="100" />
  </defs>
  <g
     inkscape:label="Ebene 1"
     id="layer1"
     transform="translate(226.45798,-20.88124)">
    <path
       style="display:inline;fill:#e9b96e;fill-rule:evenodd;stroke:none;stroke-width:0.743371;stroke-linecap:round;stroke-linejoin:round;paint-order:stroke fill markers"
       d="m -128.55163,26.870152 c -6.08434,-5.78012 -24.87248,-9.519098 -31.62797,-0.921202 -6.75549,8.597895 -11.05444,17.502857 -6.75549,27.636089 4.29895,10.133232 -0.61413,35.005708 0,39.918772 0.61413,4.913053 7.36962,24.565349 27.32902,16.888639 19.95939,-7.67667 27.32902,-17.502773 33.47036,-31.627865 6.141357,-14.125113 -20.26644,-22.10887 -24.25832,-27.021951 -3.99188,-4.913082 7.92673,-19.092364 1.8424,-24.872482 z"
       id="path4186"
       sodipodi:nodetypes="zzzzzzzz"
       inkscape:label="orange" />
    <path
       style="display:inline;fill:#ad7fa8;fill-rule:evenodd;stroke:none;stroke-width:0.757768;stroke-linecap:round;stroke-linejoin:round;paint-order:stroke fill markers"
       d="m -174.38586,104.66922 c -5.8888,-4.41659 -10.01647,-0.93903 -13.77265,-3.75617 -3.75618,-2.817136 -18.46788,-22.537072 -25.04121,-20.032953 -6.5733,2.504119 -17.84184,26.293253 -11.26851,42.257013 6.5733,15.96376 11.26851,39.43987 18.78089,40.69193 7.51234,1.25207 19.09391,-6.5733 25.04119,-9.39045 5.94728,-2.81715 10.6425,-16.90279 7.51234,-24.41516 -3.13014,-7.51236 4.63675,-20.93761 -1.25205,-25.35421 z"
       id="path3997"
       sodipodi:nodetypes="zzzzzzzz"
       inkscape:label="purple" />
    <path
       id="path6224"
       style="fill:#aec896;fill-opacity:1;fill-rule:evenodd;stroke:none;stroke-width:0.218835px;stroke-linecap:butt;stroke-linejoin:miter;stroke-opacity:1"
       d="m -104.60961,109.92696 c -1.34807,2.80543 -11.50305,19.84254 -12.32652,20.84032 -0.82347,0.99778 -9.13297,14.81962 -9.74813,15.89138 -0.61516,1.07175 -9.4433,19.9875 -9.88033,20.88793 -8.22658,18.5429 -8.90243,21.98693 -8.90243,21.98693 0,0 2.72582,-4.59274 3.16964,-5.84262 0.44383,-1.24988 9.93092,-21.691 9.93092,-21.691 0,0 7.9171,-17.01073 8.81454,-18.21683 0.89744,-1.2061 7.68074,-12.05118 8.97143,-13.70409 1.29069,-1.65291 5.11299,-9.44427 5.8391,-10.8285 0.72611,-1.38422 4.35287,-6.31276 4.44724,-7.56944 0.0944,-1.25669 -0.31546,-1.75408 -0.31546,-1.75408 z m -4.47106,16.92321 c -0.44565,0.67112 -0.4694,0.62122 0.68179,0.53238 1.15119,-0.0888 1.52425,-0.20518 2.55535,0.16096 1.0311,0.36614 1.3732,0.57056 2.04567,0.31173 0.67247,-0.25883 1.77135,-0.20037 2.17643,-0.0565 0.40507,0.14384 1.43993,-0.31805 -0.33008,-0.82217 -1.77,-0.50412 -2.03874,0.60304 -2.61727,0.48054 -0.57853,-0.1225 -3.79298,-1.34687 -4.51189,-0.60691 z m 5.46681,6.79305 c -1.24378,-0.23432 -1.80923,-0.39364 -1.65607,-0.008 0.15317,0.38614 1.29714,0.66795 2.00163,0.6693 0.70448,0.001 2.84409,-0.0683 -0.34556,-0.66179 z m -18.50858,18.7234 c 0.69865,0.9143 2.01125,0.17509 2.91053,0.32855 0.89928,0.15346 2.04566,0.31173 2.04566,0.31173 -1.36098,-1.19475 -5.65484,-1.55458 -4.95619,-0.64028 z m 10.26304,0.40983 c 0.81015,0.28768 1.3708,0.6941 1.29369,0.21057 -0.0771,-0.48353 -0.83736,-0.79496 -1.19494,-0.839 -0.66584,-0.0605 -0.83751,0.36665 -0.0987,0.62843 z m -17.36435,7.56002 c -0.53345,0.48255 -0.37095,1.2782 0.75409,1.26302 1.12504,-0.0152 5.7598,0.94637 7.19079,0.77028 0.74605,-0.0918 2.19552,-0.40223 2.19552,-0.40223 0,0 -1.57371,-0.42507 -2.95002,-0.3633 -1.37632,0.0618 -6.65692,-1.75032 -7.19038,-1.26777 z m 3.81472,20.55446 c -0.17106,-0.10217 -4.34371,-3.53291 -6.42966,-4.3151 -2.08596,-0.78214 -4.68504,-1.87098 -4.4441,-0.91459 0.24095,0.9564 2.01095,1.46052 3.04446,1.70311 1.0335,0.24259 4.18738,1.40398 5.32174,2.18001 1.13436,0.77602 2.50756,1.34657 2.50756,1.34657 z m -23.47782,-7.9222 c -0.21617,0.32368 0.58785,0.9137 0.76476,1.34974 0.17691,0.43604 0.62708,0.80323 0.82082,0.37442 0.19374,-0.42882 -0.005,-1.03831 -0.54381,-1.27129 -0.53932,-0.23293 -0.82561,-0.77655 -1.04177,-0.45287 z m 2.72429,-0.89869 c 0.004,0.50259 -0.0857,0.5916 0.69592,1.07648 0.78159,0.48488 1.22214,1.34628 1.57386,1.05649 0.35171,-0.28979 0.5169,-0.52141 -0.0437,-0.92783 -0.17998,-0.27923 -2.23158,-1.96471 -2.22603,-1.20514 z m -5.99873,-2.9595 c -0.57372,-0.3696 -1.34223,-0.8913 -1.54424,-0.67276 -0.20201,0.21855 -0.62497,0.35864 0.0854,0.69381 0.44602,0.32636 2.1465,1.7184 2.75946,1.10432 -0.032,-0.26017 -1.07965,-1.04687 -1.3006,-1.12533 z m 9.83517,-19.52253 c -0.4747,0.22895 -0.57161,0.79227 0.55208,1.48157 1.12369,0.68929 1.72116,1.10879 2.40055,1.76472 0.67939,0.65593 1.14955,1.90107 1.51193,1.698 0.36239,-0.20307 0.44566,-0.67112 -0.17315,-1.26407 -0.89358,-0.76255 -3.28913,-4.16362 -4.29141,-3.68022 z m 7.61294,-11.39593 c 0.70313,0.70583 0.69352,1.20004 1.16878,0.91265 0.47527,-0.28739 0.25086,-0.82323 -0.23854,-1.07994 -0.79161,-0.34623 -1.63487,-0.54517 -0.93024,0.16729 z m -1.59977,-12.42804 c -0.1249,0.70208 0.76582,1.93068 1.31579,2.25038 0.54997,0.31971 0.93716,0.74746 1.4479,1.17764 0.51074,0.43018 1.14158,0.40537 0.99082,-0.10432 -0.15076,-0.50969 -1.1034,-1.09678 -1.47992,-1.43782 -0.37651,-0.34105 -2.1569,-2.2173 -2.27459,-1.88588 z m 8.14596,-4.48877 c -0.4646,0.37411 0.24681,1.29022 0.74688,1.63367 0.50007,0.34344 0.77813,0.0275 0.39094,-0.40027 -0.38719,-0.42777 -0.83841,-1.37589 -1.13782,-1.2334 z m 1.74532,-5.84931 c -0.31008,0.0558 0.242,1.53732 0.6316,1.84154 0.38959,0.30422 0.71608,0.64886 0.94408,1.66223 0.37597,1.03281 3.88653,6.61728 2.61774,2.67122 -0.49872,-1.04793 -1.80625,-3.08802 -1.85134,-3.31138 -0.41247,-0.91669 -1.006,-2.99265 -2.34208,-2.86361 z m 26.23778,-13.8639 c 0,0 -6.16373,1.70931 -7.33522,2.20562 -1.17148,0.49632 -5.20251,1.0034 -7.50867,2.22697 -2.09572,1.11194 -4.9763,4.20439 -5.50147,4.51552 -0.52517,0.31114 -10.14682,5.68582 -11.01198,6.95441 -0.86515,1.26859 -4.91497,6.13371 -5.99146,6.82963 -1.07649,0.69592 -3.0587,3.47539 -3.0587,3.47539 0,0 7.32383,6.00108 8.0934,7.10372 0.76957,1.10264 4.78608,6.8416 4.78608,6.8416 0,0 -5.16184,-5.3163 -7.6467,-7.19391 -2.48487,-1.87761 -5.52797,-4.28519 -5.88661,-4.91016 -0.35863,-0.62497 -1.89895,2.31141 -2.58584,3.31155 -0.6869,1.00014 -3.10133,5.62171 -4.2954,8.59301 -0.71945,1.79027 -1.29592,4.35016 -1.71436,5.52856 -0.41845,1.1784 1.91431,3.25081 3.1877,3.86885 1.2734,0.61806 7.31211,5.33343 8.20764,6.31492 0.89553,0.98149 3.18771,3.86885 3.18771,3.86885 -4.8785,-1.23586 -6.72332,-4.88785 -12.363,-7.45871 -1.17841,-0.41844 -3.70385,-1.48109 -3.79403,-1.9278 -0.0902,-0.44671 -1.51206,4.0246 -2.47702,5.34068 -0.96495,1.31608 -4.56173,9.57661 -4.31522,12.15225 0.24652,2.57564 -0.34115,6.00373 0.77021,8.69158 1.55527,3.76146 4.96462,6.47871 7.82678,9.37274 0.96215,0.97287 3.12145,2.66582 3.12145,2.66582 0,0 -4.05358,10.93657 -4.36742,11.82037 -0.31383,0.8838 -1.98281,5.35029 -1.60283,6.14872 0.37998,0.79843 0.17556,1.14052 1.11167,1.30706 0.93611,0.16653 1.64974,-3.47809 1.64974,-3.47809 0,0 2.63241,-9.51528 2.99374,-10.29927 0.36134,-0.784 1.65244,-4.88706 1.65244,-4.88706 0,0 0.13077,-0.36825 3.32387,0.68268 3.19311,1.05091 8.71475,1.85052 11.26212,0.51579 2.54738,-1.33473 5.29437,-2.76446 5.18284,-3.38462 -0.11153,-0.62016 -2.52967,-3.38637 -3.46097,-3.80001 -0.93129,-0.41364 -3.00041,-2.06068 -3.00041,-2.06068 0,0 2.15513,0.98466 3.45674,1.47629 1.30162,0.4916 3.2991,2.64753 4.24285,2.99948 0.94374,0.35197 0.88745,-0.4372 1.17032,-1.00024 0.28287,-0.56305 1.66235,-0.55009 2.76737,-1.91422 1.10502,-1.36412 2.24047,-5.21741 4.41386,-7.05808 0.93997,-0.75028 -0.69626,-3.06272 -3.11406,-3.8427 -2.4178,-0.78 -3.11052,-3.32777 -7.25769,-4.31886 -4.14718,-0.99109 -4.46169,-1.91607 -4.46169,-1.91607 0,0 8.25631,1.27305 9.33971,1.49189 1.08341,0.21883 1.66569,-0.48671 2.79659,-0.16806 1.13091,0.31864 3.67288,1.80185 5.07223,2.29875 1.39936,0.49691 1.72973,0.0337 2.23836,-0.69803 0.50863,-0.73169 6.35186,-13.91716 6.93203,-15.78456 0.58016,-1.86741 2.64111,-6.19856 2.39433,-7.44346 -0.26444,-1.33398 -1.79586,-1.71588 -3.29021,-2.41239 -1.49434,-0.69651 -2.35574,-0.25597 -4.28717,-1.3565 -1.93144,-1.10053 -4.80966,-2.45431 -5.44635,-2.76334 -0.6367,-0.30903 3.8325,-0.049 5.1107,0.32193 1.2782,0.37094 3.63711,2.3697 5.11492,2.64566 1.47781,0.27595 2.00027,1.37379 2.96735,1.21957 0.96707,-0.15423 1.25955,-1.21148 2.177014,-2.62737 0.917447,-1.41588 1.893171,-2.00396 2.457758,-4.35226 0.56459,-2.34831 2.12463,-6.16888 1.606117,-10.12853 -0.132874,-0.79361 -0.201133,-3.6377 -0.711873,-4.06787 -0.510739,-0.43018 -1.364731,-0.82926 -2.513705,-0.39499 -1.148984,0.43427 -2.792041,0.46059 -4.284011,0.38631 1.11697,-0.59822 4.240841,-1.90864 5.275115,-1.77605 0.862458,0.14039 1.492228,-0.46535 1.316664,-1.60587 -0.175564,-1.14052 -0.328256,-3.42609 -0.766277,-5.08244 -0.30703,-1.16102 -1.245864,-3.26435 -1.683441,-4.95197 -0.689777,-2.66029 0.10608,-6.72168 -1.473631,-8.112 z"
       inkscape:connector-curvature="0"
       sodipodi:nodetypes="cccccscszscccsscscccccccczcczcccczssczzcccscczcsczcscccccccccscsscsccccczzczcccccczccccczzazzczscscacszccscczaaczzsccccsczczzzzczzcscscsssssszzczcccczzazc"
       inkscape:label="leaf" />
    <g
       id="g2037"
       inkscape:label="face">
      <path
         style="display:inline;fill:#000000;fill-opacity:1;fill-rule:nonzero;stroke:none;stroke-width:0.999999;stroke-linecap:round;stroke-linejoin:round;stroke-miterlimit:4;stroke-dasharray:none;paint-order:stroke fill markers"
         d="m 302.49023,384.83008 c -0.85465,0.003 -1.71619,0.0465 -2.58007,0.13086 l 0.62304,3.58789 c 3.06409,-0.41987 6.10803,-0.34722 8.97461,0.2207 10.89196,2.08245 15.85547,10.37891 15.85547,10.37891 0,0 -3.03127,-9.51253 -15.14258,-13.21485 -2.43916,-0.73203 -5.05277,-1.11396 -7.73047,-1.10351 z"
         transform="matrix(0.26458333,0,0,0.26458333,-226.45798,20.88124)"
         id="path3414"
         inkscape:label="end-2" />
      <path
         style="display:inline;fill:#000000;fill-opacity:1;fill-rule:nonzero;stroke:none;stroke-width:0.999999;stroke-linecap:round;stroke-linejoin:round;stroke-miterlimit:4;stroke-dasharray:none;paint-order:stroke fill markers"
         d="m 151.67773,293.22461 -3.00195,2.17187 c 4.87339,6.18761 9.97896,11.26313 15.47266,15.06446 4.12565,2.98329 7.53727,4.51486 10.55468,4.87304 2.73903,0.32504 2.62902,0.0304 0.13672,-0.68359 -2.93019,-0.83826 -5.40584,-2.66884 -9.33398,-5.93945 -4.96091,-4.3199 -9.21815,-9.36243 -13.82813,-15.48633 z"
         transform="matrix(0.26458333,0,0,0.26458333,-226.45798,20.88124)"
         id="path3412"
         inkscape:label="start-2" />
      <path
         style="display:inline;fill:none;fill-opacity:1;fill-rule:nonzero;stroke:#000000;stroke-width:1;stroke-linecap:round;stroke-linejoin:round;stroke-miterlimit:4;stroke-dasharray:none;stroke-opacity:1;paint-order:stroke fill markers"
         d="m -186.52642,99.014899 c -0.59675,-0.753214 -1.19141,-1.571564 -1.77326,-2.444339 -3.30459,-4.956883 -7.32624,-7.050884 -8.26148,-0.309805 -0.92635,6.677035 4.85362,20.447145 7.02226,26.230185 2.16863,5.78303 15.59353,16.83275 20.96349,19.62098 5.36995,2.78825 11.18922,-0.21495 11.7734,-0.79912 0.58417,-0.58418 -0.43813,-4.23527 -3.35901,-4.52735 -2.92087,-0.29209 -3.21295,-7.44821 -1.6795,-7.37521 1.49925,0.10439 5.11089,-0.0473 7.22916,-1.38146 2.11827,-1.33412 2.44457,-2.53603 4.8228,-3.92773 0.7594,-0.44439 1.79943,-0.80158 2.94417,-0.90663"
         id="path54"
         sodipodi:nodetypes="csssssscssc"
         inkscape:label="line-2" />
      <path
         style="display:inline;fill:#000000;fill-opacity:1;fill-rule:nonzero;stroke:none;stroke-width:0.999999;stroke-linecap:round;stroke-linejoin:round;stroke-miterlimit:4;stroke-dasharray:none;paint-order:stroke fill markers"
         d="m 146.69922,258.9668 a 44.310883,44.310883 0 0 0 8.08398,6.19531 c 0.7083,0.42341 1.42143,0.82432 2.13477,1.20117 v -3.16406 c 0,-0.46118 0.12565,-0.88731 0.33203,-1.26367 -0.35501,-0.0758 -0.71513,-0.15552 -1.08008,-0.23828 a 85.525538,85.525538 0 0 1 -9.4707,-2.73047 z"
         transform="matrix(0.26458333,0,0,0.26458333,-226.45798,20.88124)"
         id="path1332"
         inkscape:label="start-1" />
      <path
         style="display:inline;fill:#000000;fill-opacity:1;fill-rule:nonzero;stroke:none;stroke-width:0.999999;stroke-linecap:round;stroke-linejoin:round;stroke-miterlimit:4;stroke-dasharray:none;paint-order:stroke fill markers"
         d="m 287.39844,383.13281 v 4.07031 c 0.59687,-0.13176 1.44962,-0.42516 1.89062,-1.13085 l 1.58594,-2.53711 -2.97266,-0.3418 c -0.16786,-0.0194 -0.33624,-0.0394 -0.5039,-0.0605 z"
         transform="matrix(0.26458333,0,0,0.26458333,-226.45798,20.88124)"
         id="path1636"
         inkscape:label="end-1" />
      <path
         style="display:inline;fill:#000000;fill-opacity:1;fill-rule:nonzero;stroke:none;stroke-width:0.999999;stroke-linecap:round;stroke-linejoin:round;stroke-miterlimit:4;stroke-dasharray:none;paint-order:stroke fill markers"
         d="m 243.25,369.46289 c -0.79184,0.34299 -1.20124,0.70225 -1.42578,1.03906 l -3.82227,5.73438 5.24805,-2.51953 z"
         transform="matrix(0.26458333,0,0,0.26458333,-226.45798,20.88124)"
         id="path1634"
         inkscape:label="middle-1" />
      <path
         style="display:inline;fill:none;fill-rule:nonzero;stroke:#000000;stroke-width:1.065;stroke-linecap:round;stroke-linejoin:round;stroke-miterlimit:4;stroke-dasharray:none;paint-order:stroke fill markers"
         d="m -180.08984,88.681511 c -0.1549,-0.826148 0.65273,-1.246303 1.425,-0.779396 1.10162,0.666034 -0.49435,3.143794 -2.35441,2.214167 -1.28946,-0.644447 -0.85806,-2.415812 -0.41308,-2.994784 0.72395,-0.941944 2.9655,-1.896043 4.54381,-0.206537 1.04473,1.118334 0.49751,3.320987 -1.56786,4.043866 -2.06537,0.722878 -6.79214,-0.349111 -6.79214,-0.349111 0,0 2.37044,1.417032 4.90051,1.778472 2.53008,0.361439 5.21506,-1.290855 7.48696,-0.929415 2.27191,0.361439 2.06537,-1.084318 1.85883,-1.549027 -0.20653,-0.464709 -4.95688,-4.595445 -8.77781,-4.956884 -3.82094,-0.36144 -8.82945,3.975832 -8.82945,3.975832 0,0 -2.95091,-5.011017 -0.32212,-7.128649 2.62878,-2.117632 8.32448,-2.117632 10.58816,-1.168349 2.26368,0.949284 5.76872,2.336698 7.15614,2.40972 1.38741,0.07302 2.48274,-1.60648 1.82554,-2.40972 -0.65719,-0.80324 -8.32448,-3.432025 -12.85184,-3.578068 -4.52735,-0.146044 -7.30218,3.943177 -8.32448,4.162243 -1.02231,0.219065 -1.6795,-18.839626 4.60037,-23.220935 6.27988,-4.381308 11.53745,-6.864049 17.96337,-5.111526 6.42592,1.752523 9.34679,6.425919 8.76261,15.626666 -0.58417,9.200748 -3.50504,15.918754 -2.33669,19.715888 1.16834,3.797134 2.38018,11.12245 3.22164,12.553546 1.17637,2.00067 3.99742,5.04673 4.88378,6.06702 0.97675,1.12434 0.62068,3.54155 -0.36511,4.30828 -1.28887,1.00245 -2.88436,0.73022 -2.88436,0.73022 0,0 1.05881,-1.53346 -0.0365,-1.60648 -1.09533,-0.073 -2.40973,2.55576 -3.94318,2.55576 -1.53346,0 -1.46044,0.94929 -0.21907,2.84785 1.24137,1.89857 1.60648,2.9939 0.29209,3.13994 -1.31439,0.14604 -1.46044,0.36511 -1.46044,0.36511 0,0 1.82555,-0.87626 4.23527,0 2.40972,0.87626 3.28279,2.18224 3.8493,2.51536 0.86247,0.50716 2.28313,0.90698 3.6336,1.06269 -0.22363,0.3578 -6.50006,-0.0208 -8.28614,0.12781 -1.92016,0.15978 -3.01726,0.11033 -4.30829,0.0365 -1.67463,-0.0958 -2.73832,1.42392 -0.85801,1.69776 1.88032,0.27383 4.14399,-0.29209 5.49489,-0.54767 1.35091,-0.25558 4.10565,-0.43813 5.36527,-0.43813"
         id="path14229"
         inkscape:label="line-1" />
    </g>
    <g
       id="g1038"
       inkscape:label="brush"
       transform="rotate(-154.88291,-91.472946,129.87683)"
       style="stroke:#000000;stroke-opacity:1">
      <path
         style="fill:none;fill-opacity:1;fill-rule:evenodd;stroke:#000000;stroke-width:1;stroke-linecap:round;stroke-linejoin:round;stroke-miterlimit:4;stroke-dasharray:none;stroke-opacity:1;paint-order:stroke fill markers"
         d="m -38.111375,130.61833 c 0.0271,-0.74419 1.88394,-6.14229 1.14107,-9.35069 -0.74288,-3.20839 -1.48947,-5.52844 -3.67761,-7.61444 1.36084,4.56323 -2.70536,6.82197 -0.95583,13.24932 0.37822,1.41815 1.2677,3.84052 1.2677,3.84052"
         id="path7380"
         sodipodi:nodetypes="csccc" />
      <path
         style="fill:none;fill-rule:evenodd;stroke:#000000;stroke-width:1;stroke-linecap:round;stroke-linejoin:round;stroke-miterlimit:4;stroke-dasharray:none;stroke-opacity:1;paint-order:stroke fill markers"
         d="m -39.417965,187.81549 c -1.41767,-0.073 -2.09257,-5.12009 -2.3341,-6.58787 -0.38533,-2.34171 -0.96989,-36.20291 0.0889,-40.58422 1.05882,-4.38131 0.99055,-4.83155 0.20058,-5.60442 -0.37898,-0.37078 -1.40332,-0.33065 -0.93127,-2.39146 0.60917,-2.65945 1.66962,-1.75253 2.97587,-1.75253 1.30625,0 2.3667,-0.90692 2.97587,1.75253 0.47205,2.06081 -0.55229,2.02068 -0.93127,2.39146 -0.78997,0.77287 -0.85824,1.22311 0.20058,5.60442 1.05881,4.38131 0.47425,38.24251 0.0889,40.58422 -0.24153,1.46778 -0.91643,6.51485 -2.3341,6.58787"
         id="path6195"
         sodipodi:nodetypes="csssssssssc" />
    </g>
  </g>
</svg>
