<?xml version="1.0" encoding="UTF-8" standalone="no"?>
<!-- Created with Inkscape (http://www.inkscape.org/) -->

<svg
   width="50.860905mm"
   height="7.3359027mm"
   viewBox="0 0 50.860905 7.3359029"
   version="1.1"
   id="svg5"
   inkscape:version="1.1.1 (3bf5ae0d25, 2021-09-20)"
   sodipodi:docname="love-and-coffee.svg"
   xmlns:inkscape="http://www.inkscape.org/namespaces/inkscape"
   xmlns:sodipodi="http://sodipodi.sourceforge.net/DTD/sodipodi-0.dtd"
   xmlns="http://www.w3.org/2000/svg"
   xmlns:svg="http://www.w3.org/2000/svg">
  <sodipodi:namedview
     id="namedview7"
     pagecolor="#ffffff"
     bordercolor="#999999"
     borderopacity="1"
     inkscape:pageshadow="0"
     inkscape:pageopacity="0"
     inkscape:pagecheckerboard="0"
     inkscape:document-units="mm"
     showgrid="false"
     inkscape:zoom="5.6568543"
     inkscape:cx="236.43883"
     inkscape:cy="26.074562"
     inkscape:window-width="1920"
     inkscape:window-height="1002"
     inkscape:window-x="1912"
     inkscape:window-y="-8"
     inkscape:window-maximized="1"
     inkscape:current-layer="g22371"
     fit-margin-top="0"
     fit-margin-left="0"
     fit-margin-right="0"
     fit-margin-bottom="0"
     showguides="true"
     inkscape:guide-bbox="true"
     inkscape:object-paths="true"
     inkscape:snap-intersection-paths="true"
     inkscape:snap-smooth-nodes="true"
     inkscape:snap-midpoints="true"
     inkscape:snap-center="true" />
  <defs
     id="defs2">
    <inkscape:path-effect
       effect="offset"
       id="path-effect15885"
       is_visible="true"
       lpeversion="1"
       linejoin_type="extrp_arc"
       unit="mm"
       offset="0.2"
       miter_limit="4"
       attempt_force_join="false"
       update_on_knot_move="true" />
    <inkscape:path-effect
       effect="roughen"
       id="path-effect13451"
       is_visible="true"
       lpeversion="1.1"
       method="segments"
       max_segment_size="13"
       segments="6"
       displace_x="0;595023351"
       displace_y="0;113922884"
       global_randomize="0.9;585641572"
       handles="smooth"
       shift_nodes="true"
       fixed_displacement="false"
       spray_tool_friendly="false" />
    <inkscape:path-effect
       effect="taper_stroke"
       id="path-effect11453"
       is_visible="true"
       lpeversion="1"
       stroke_width="0.60000098"
       attach_start="1.1463366"
       end_offset="1.08398"
       start_smoothing="0.5"
       end_smoothing="0.5"
       jointype="extrapolated"
       start_shape="center"
       end_shape="center"
       miter_limit="100" />
    <inkscape:path-effect
       effect="bspline"
       id="path-effect11413"
       is_visible="true"
       lpeversion="1"
       weight="33.333333"
       steps="2"
       helper_size="0"
       apply_no_weight="true"
       apply_with_weight="true"
       only_selected="false" />
    <inkscape:path-effect
       effect="bspline"
       id="path-effect9339"
       is_visible="true"
       lpeversion="1"
       weight="33.333333"
       steps="2"
       helper_size="0"
       apply_no_weight="true"
       apply_with_weight="true"
       only_selected="false" />
    <inkscape:path-effect
       effect="bspline"
       id="path-effect9025"
       is_visible="true"
       lpeversion="1"
       weight="33.333333"
       steps="2"
       helper_size="0"
       apply_no_weight="true"
       apply_with_weight="true"
       only_selected="false" />
    <inkscape:path-effect
       effect="fillet_chamfer"
       id="path-effect8877"
       is_visible="true"
       lpeversion="1"
       satellites_param="F,0,0,1,0,0,0,1 @ F,0,0,1,0,0,0,1 @ F,0,1,1,0,1.0583333,0,1 @ F,0,1,1,0,1.0583333,0,1"
       unit="px"
       method="auto"
       mode="F"
       radius="4"
       chamfer_steps="1"
       flexible="false"
       use_knot_distance="true"
       apply_no_radius="true"
       apply_with_radius="true"
       only_selected="true"
       hide_knots="false" />
    <inkscape:path-effect
       effect="fillet_chamfer"
       id="path-effect7592"
       is_visible="true"
       lpeversion="1"
       satellites_param="F,0,0,1,0,0,0,1 @ F,0,0,1,0,0,0,1 @ F,0,0,1,0,0,0,1 @ F,0,1,1,0,0.26458333,0,1 @ F,0,1,1,0,0.26458333,0,1 @ F,0,0,1,0,0,0,1"
       unit="px"
       method="auto"
       mode="F"
       radius="1"
       chamfer_steps="1"
       flexible="false"
       use_knot_distance="true"
       apply_no_radius="true"
       apply_with_radius="true"
       only_selected="true"
       hide_knots="false" />
    <inkscape:path-effect
       effect="fillet_chamfer"
       id="path-effect7178"
       is_visible="true"
       lpeversion="1"
       satellites_param="F,0,1,1,0,1.3229167,0,1 @ F,0,0,1,0,0,0,1 @ F,0,0,1,0,0,0,1 @ F,0,0,1,0,0,0,1 @ F,0,0,1,0,0,0,1 @ F,0,1,1,0,1.3229167,0,1"
       unit="px"
       method="auto"
       mode="F"
       radius="5"
       chamfer_steps="1"
       flexible="false"
       use_knot_distance="true"
       apply_no_radius="true"
       apply_with_radius="true"
       only_selected="true"
       hide_knots="false" />
    <inkscape:path-effect
       effect="powerstroke"
       id="path-effect4849"
       is_visible="true"
       lpeversion="1"
       offset_points="0.046780711,0.15085229 | 4.5,0.24999949 | 8.8688651,0.13743927"
       not_jump="false"
       sort_points="true"
       interpolator_type="CentripetalCatmullRom"
       interpolator_beta="0.2"
       start_linecap_type="zerowidth"
       linejoin_type="round"
       miter_limit="4"
       scale_width="1"
       end_linecap_type="zerowidth" />
    <inkscape:path-effect
       effect="bspline"
       id="path-effect4809"
       is_visible="true"
       lpeversion="1"
       weight="33.333333"
       steps="2"
       helper_size="0"
       apply_no_weight="true"
       apply_with_weight="true"
       only_selected="false" />
    <inkscape:path-effect
       effect="bspline"
       id="path-effect3741"
       is_visible="true"
       lpeversion="1"
       weight="33.333333"
       steps="2"
       helper_size="0"
       apply_no_weight="true"
       apply_with_weight="true"
       only_selected="false" />
    <inkscape:path-effect
       effect="powerstroke"
       id="path-effect4514"
       is_visible="true"
       lpeversion="1"
       offset_points="0.034185697,0.11939828 | 1,0.24999949 | 1.9526951,0.20461554"
       not_jump="false"
       sort_points="true"
       interpolator_type="CentripetalCatmullRom"
       interpolator_beta="0.2"
       start_linecap_type="zerowidth"
       linejoin_type="round"
       miter_limit="4"
       scale_width="1"
       end_linecap_type="zerowidth" />
    <inkscape:path-effect
       effect="powerstroke"
       id="path-effect4512"
       is_visible="true"
       lpeversion="1"
       offset_points="3.4875166,0.23732867"
       not_jump="false"
       sort_points="true"
       interpolator_type="CentripetalCatmullRom"
       interpolator_beta="0.2"
       start_linecap_type="zerowidth"
       linejoin_type="round"
       miter_limit="4"
       scale_width="1"
       end_linecap_type="zerowidth" />
    <inkscape:path-effect
       effect="powerstroke"
       id="path-effect4510"
       is_visible="true"
       lpeversion="1"
       offset_points="0.041817903,0.095233135 | 5,0.24999949 | 9.8,0.24999949"
       not_jump="false"
       sort_points="true"
       interpolator_type="CentripetalCatmullRom"
       interpolator_beta="0.2"
       start_linecap_type="zerowidth"
       linejoin_type="round"
       miter_limit="4"
       scale_width="1"
       end_linecap_type="zerowidth" />
    <inkscape:path-effect
       effect="powerstroke"
       id="path-effect4508"
       is_visible="true"
       lpeversion="1"
       offset_points="0.048772172,0.076729358 | 1,0.24999949 | 1.9048689,0.1879945"
       not_jump="false"
       sort_points="true"
       interpolator_type="CentripetalCatmullRom"
       interpolator_beta="0.2"
       start_linecap_type="zerowidth"
       linejoin_type="round"
       miter_limit="4"
       scale_width="1"
       end_linecap_type="zerowidth" />
    <inkscape:path-effect
       effect="powerstroke"
       id="path-effect4375"
       is_visible="true"
       lpeversion="1"
       offset_points="0.024795783,0.088682464 | 2.4979,0.2611831 | 4.9102036,0.099130725"
       not_jump="false"
       sort_points="true"
       interpolator_type="CentripetalCatmullRom"
       interpolator_beta="0.2"
       start_linecap_type="zerowidth"
       linejoin_type="round"
       miter_limit="4"
       scale_width="1"
       end_linecap_type="zerowidth" />
    <inkscape:path-effect
       effect="powerstroke"
       id="path-effect4373"
       is_visible="true"
       lpeversion="1"
       offset_points="0.027698345,0.08147641 | 1,0.24999949 | 1.9641138,0.15650176"
       not_jump="false"
       sort_points="true"
       interpolator_type="CentripetalCatmullRom"
       interpolator_beta="0.2"
       start_linecap_type="zerowidth"
       linejoin_type="round"
       miter_limit="4"
       scale_width="1"
       end_linecap_type="zerowidth" />
    <inkscape:path-effect
       effect="powerstroke"
       id="path-effect4371"
       is_visible="true"
       lpeversion="1"
       offset_points="0.044232697,0.090905365 | 1,0.24999949 | 1.9465683,0.18596031"
       not_jump="false"
       sort_points="true"
       interpolator_type="CentripetalCatmullRom"
       interpolator_beta="0.2"
       start_linecap_type="zerowidth"
       linejoin_type="round"
       miter_limit="4"
       scale_width="1"
       end_linecap_type="zerowidth" />
    <inkscape:path-effect
       effect="powerstroke"
       id="path-effect4369"
       is_visible="true"
       lpeversion="1"
       offset_points="0.055277702,0.095512741 | 1.0173083,0.22646637 | 2,0.20881128"
       not_jump="false"
       sort_points="true"
       interpolator_type="CentripetalCatmullRom"
       interpolator_beta="0.2"
       start_linecap_type="zerowidth"
       linejoin_type="round"
       miter_limit="4"
       scale_width="1"
       end_linecap_type="zerowidth" />
    <inkscape:path-effect
       effect="powerstroke"
       id="path-effect4367"
       is_visible="true"
       lpeversion="1"
       offset_points="1.9875332,0.17461995"
       not_jump="false"
       sort_points="true"
       interpolator_type="CentripetalCatmullRom"
       interpolator_beta="0.2"
       start_linecap_type="zerowidth"
       linejoin_type="round"
       miter_limit="4"
       scale_width="1"
       end_linecap_type="zerowidth" />
    <inkscape:path-effect
       effect="powerstroke"
       id="path-effect4365"
       is_visible="true"
       lpeversion="1"
       offset_points="0.022491861,0.07967085 | 1,0.24999949 | 1.9765053,0.070016877"
       not_jump="false"
       sort_points="true"
       interpolator_type="CentripetalCatmullRom"
       interpolator_beta="0.2"
       start_linecap_type="zerowidth"
       linejoin_type="round"
       miter_limit="4"
       scale_width="1"
       end_linecap_type="zerowidth" />
    <inkscape:path-effect
       effect="powerstroke"
       id="path-effect4363"
       is_visible="true"
       lpeversion="1"
       offset_points="0.2,0.24999949 | 1,0.24999949 | 1.8,0.24999949"
       not_jump="false"
       sort_points="true"
       interpolator_type="CentripetalCatmullRom"
       interpolator_beta="0.2"
       start_linecap_type="zerowidth"
       linejoin_type="round"
       miter_limit="4"
       scale_width="1"
       end_linecap_type="zerowidth" />
    <inkscape:path-effect
       effect="powerstroke"
       id="path-effect4361"
       is_visible="true"
       lpeversion="1"
       offset_points="0.2,0.24999949 | 3,0.24999949 | 5.8,0.24999949"
       not_jump="false"
       sort_points="true"
       interpolator_type="CentripetalCatmullRom"
       interpolator_beta="0.2"
       start_linecap_type="zerowidth"
       linejoin_type="round"
       miter_limit="4"
       scale_width="1"
       end_linecap_type="zerowidth" />
    <inkscape:path-effect
       effect="powerstroke"
       id="path-effect4359"
       is_visible="true"
       lpeversion="1"
       offset_points="0.085127393,0.11871829 | 1,0.24999949 | 1.9643408,0.17057643"
       not_jump="false"
       sort_points="true"
       interpolator_type="CentripetalCatmullRom"
       interpolator_beta="0.2"
       start_linecap_type="zerowidth"
       linejoin_type="round"
       miter_limit="4"
       scale_width="1"
       end_linecap_type="zerowidth" />
    <inkscape:path-effect
       effect="powerstroke"
       id="path-effect4357"
       is_visible="true"
       lpeversion="1"
       offset_points="0.041282164,0.18802305 | 1.0174927,0.28289868 | 1.8351876,0.16062878"
       not_jump="false"
       sort_points="true"
       interpolator_type="CentripetalCatmullRom"
       interpolator_beta="0.2"
       start_linecap_type="zerowidth"
       linejoin_type="round"
       miter_limit="4"
       scale_width="1"
       end_linecap_type="zerowidth" />
    <inkscape:path-effect
       effect="powerstroke"
       id="path-effect4355"
       is_visible="true"
       lpeversion="1"
       offset_points="0.2,0.24999949 | 1.0158543,0.29730606 | 1.8988779,0.19598798"
       not_jump="false"
       sort_points="true"
       interpolator_type="CentripetalCatmullRom"
       interpolator_beta="0.2"
       start_linecap_type="zerowidth"
       linejoin_type="round"
       miter_limit="4"
       scale_width="1"
       end_linecap_type="zerowidth" />
    <inkscape:path-effect
       effect="powerstroke"
       id="path-effect4353"
       is_visible="true"
       lpeversion="1"
       offset_points="0,0 | 1,0.24999949 | 1.8922885,0.21602399"
       not_jump="false"
       sort_points="true"
       interpolator_type="CentripetalCatmullRom"
       interpolator_beta="0.2"
       start_linecap_type="zerowidth"
       linejoin_type="round"
       miter_limit="4"
       scale_width="1"
       end_linecap_type="zerowidth" />
    <inkscape:path-effect
       effect="powerstroke"
       id="path-effect4351"
       is_visible="true"
       lpeversion="1"
       offset_points="0.012727344,0.085284385 | 0.5,0.24999949 | 0.93632233,0.13914535"
       not_jump="false"
       sort_points="true"
       interpolator_type="CentripetalCatmullRom"
       interpolator_beta="0.2"
       start_linecap_type="zerowidth"
       linejoin_type="round"
       miter_limit="4"
       scale_width="1"
       end_linecap_type="zerowidth" />
    <inkscape:path-effect
       effect="powerstroke"
       id="path-effect2742"
       is_visible="true"
       lpeversion="1"
       offset_points="0.012306715,0.10805107 | 3,0.24999949 | 5.9513015,0.17455429"
       not_jump="false"
       sort_points="true"
       interpolator_type="CentripetalCatmullRom"
       interpolator_beta="0.2"
       start_linecap_type="zerowidth"
       linejoin_type="round"
       miter_limit="4"
       scale_width="1"
       end_linecap_type="zerowidth" />
    <inkscape:path-effect
       effect="powerstroke"
       id="path-effect2740"
       is_visible="true"
       lpeversion="1"
       offset_points="0,0.10084405 | 1.038487,0.23402345 | 1.894146,0.18827131"
       not_jump="false"
       sort_points="true"
       interpolator_type="CentripetalCatmullRom"
       interpolator_beta="0.2"
       start_linecap_type="zerowidth"
       linejoin_type="round"
       miter_limit="4"
       scale_width="1"
       end_linecap_type="zerowidth" />
    <inkscape:path-effect
       effect="powerstroke"
       id="path-effect2738"
       is_visible="true"
       lpeversion="1"
       offset_points="0.047574762,0.12877178 | 1,0.24999949 | 1.9755225,0.15075962"
       not_jump="false"
       sort_points="true"
       interpolator_type="CentripetalCatmullRom"
       interpolator_beta="0.2"
       start_linecap_type="zerowidth"
       linejoin_type="round"
       miter_limit="4"
       scale_width="1"
       end_linecap_type="zerowidth" />
    <inkscape:path-effect
       effect="powerstroke"
       id="path-effect2736"
       is_visible="true"
       lpeversion="1"
       offset_points="0.064390041,0.11555534 | 1,0.24999949 | 2,0.17331651"
       not_jump="false"
       sort_points="true"
       interpolator_type="CentripetalCatmullRom"
       interpolator_beta="0.2"
       start_linecap_type="zerowidth"
       linejoin_type="round"
       miter_limit="4"
       scale_width="1"
       end_linecap_type="zerowidth" />
    <inkscape:path-effect
       effect="powerstroke"
       id="path-effect2734"
       is_visible="true"
       lpeversion="1"
       offset_points="0.046397708,0.0786521 | 1,0.24999949 | 1.9416653,0.1558093"
       not_jump="false"
       sort_points="true"
       interpolator_type="CentripetalCatmullRom"
       interpolator_beta="0.2"
       start_linecap_type="zerowidth"
       linejoin_type="round"
       miter_limit="4"
       scale_width="1"
       end_linecap_type="zerowidth" />
    <inkscape:path-effect
       effect="powerstroke"
       id="path-effect2732"
       is_visible="true"
       lpeversion="1"
       offset_points="0.045047041,0.081555582 | 1.0431457,0.23722728 | 1.9326913,0.1986549"
       not_jump="false"
       sort_points="true"
       interpolator_type="CentripetalCatmullRom"
       interpolator_beta="0.2"
       start_linecap_type="zerowidth"
       linejoin_type="round"
       miter_limit="4"
       scale_width="1"
       end_linecap_type="zerowidth" />
    <inkscape:path-effect
       effect="powerstroke"
       id="path-effect2730"
       is_visible="true"
       lpeversion="1"
       offset_points="0.11471682,0.15847693 | 5,0.24999949 | 9.6405049,0.1923853"
       not_jump="false"
       sort_points="true"
       interpolator_type="CentripetalCatmullRom"
       interpolator_beta="0.2"
       start_linecap_type="zerowidth"
       linejoin_type="round"
       miter_limit="4"
       scale_width="1"
       end_linecap_type="zerowidth" />
    <inkscape:path-effect
       effect="powerstroke"
       id="path-effect2728"
       is_visible="true"
       lpeversion="1"
       offset_points="0.051893023,0.096221531 | 1,0.24999949 | 1.8789982,0.18179871"
       not_jump="false"
       sort_points="true"
       interpolator_type="CentripetalCatmullRom"
       interpolator_beta="0.2"
       start_linecap_type="zerowidth"
       linejoin_type="round"
       miter_limit="4"
       scale_width="1"
       end_linecap_type="zerowidth" />
    <inkscape:path-effect
       effect="powerstroke"
       id="path-effect2650"
       is_visible="true"
       lpeversion="1"
       offset_points="0.045003804,0.13913774 | 0.96916491,0.27662729 | 1.9306162,0.17361421"
       not_jump="false"
       sort_points="true"
       interpolator_type="CentripetalCatmullRom"
       interpolator_beta="0.2"
       start_linecap_type="zerowidth"
       linejoin_type="round"
       miter_limit="4"
       scale_width="1"
       end_linecap_type="zerowidth" />
    <inkscape:path-effect
       effect="powerstroke"
       id="path-effect2010"
       is_visible="true"
       lpeversion="1"
       offset_points="0.014526601,0.20341428 | 0.30610491,0.2721096 | 1.9280083,0.1205415"
       not_jump="false"
       sort_points="true"
       interpolator_type="CentripetalCatmullRom"
       interpolator_beta="0.2"
       start_linecap_type="zerowidth"
       linejoin_type="round"
       miter_limit="4"
       scale_width="1"
       end_linecap_type="zerowidth" />
    <inkscape:path-effect
       effect="powerstroke"
       id="path-effect1970"
       is_visible="true"
       lpeversion="1"
       offset_points="0.24410454,0.14697002 | 1.2180014,0.27249935 | 1.9467315,0.21388373"
       not_jump="false"
       sort_points="true"
       interpolator_type="CentripetalCatmullRom"
       interpolator_beta="0.2"
       start_linecap_type="zerowidth"
       linejoin_type="round"
       miter_limit="4"
       scale_width="1"
       end_linecap_type="zerowidth" />
    <inkscape:path-effect
       effect="powerstroke"
       id="path-effect1930"
       is_visible="true"
       lpeversion="1"
       offset_points="0.13280975,0.086138059 | 0.9988859,0.28724543 | 2,0.15741582"
       not_jump="false"
       sort_points="true"
       interpolator_type="CentripetalCatmullRom"
       interpolator_beta="0.2"
       start_linecap_type="zerowidth"
       linejoin_type="round"
       miter_limit="4"
       scale_width="1"
       end_linecap_type="zerowidth" />
    <inkscape:path-effect
       effect="bspline"
       id="path-effect1373"
       is_visible="true"
       lpeversion="1"
       weight="33.333333"
       steps="2"
       helper_size="0"
       apply_no_weight="true"
       apply_with_weight="true"
       only_selected="false" />
    <inkscape:path-effect
       effect="bspline"
       id="path-effect1369"
       is_visible="true"
       lpeversion="1"
       weight="33.333333"
       steps="2"
       helper_size="0"
       apply_no_weight="true"
       apply_with_weight="true"
       only_selected="false" />
    <inkscape:path-effect
       effect="bspline"
       id="path-effect1365"
       is_visible="true"
       lpeversion="1"
       weight="33.333333"
       steps="2"
       helper_size="0"
       apply_no_weight="true"
       apply_with_weight="true"
       only_selected="false" />
    <inkscape:path-effect
       effect="bspline"
       id="path-effect1353"
       is_visible="true"
       lpeversion="1"
       weight="33.333333"
       steps="2"
       helper_size="0"
       apply_no_weight="true"
       apply_with_weight="true"
       only_selected="false" />
    <inkscape:path-effect
       effect="spiro"
       id="path-effect1349"
       is_visible="true"
       lpeversion="1" />
    <inkscape:path-effect
       effect="bspline"
       id="path-effect1179"
       is_visible="true"
       lpeversion="1"
       weight="33.333333"
       steps="2"
       helper_size="0"
       apply_no_weight="true"
       apply_with_weight="true"
       only_selected="false" />
    <inkscape:path-effect
       effect="bspline"
       id="path-effect1175"
       is_visible="true"
       lpeversion="1"
       weight="33.333333"
       steps="2"
       helper_size="0"
       apply_no_weight="true"
       apply_with_weight="true"
       only_selected="false" />
    <inkscape:path-effect
       effect="bspline"
       id="path-effect473"
       is_visible="true"
       lpeversion="1"
       weight="33.333333"
       steps="2"
       helper_size="0"
       apply_no_weight="true"
       apply_with_weight="true"
       only_selected="false" />
    <inkscape:path-effect
       effect="bspline"
       id="path-effect218"
       is_visible="true"
       lpeversion="1"
       weight="33.333333"
       steps="2"
       helper_size="0"
       apply_no_weight="true"
       apply_with_weight="true"
       only_selected="false" />
    <inkscape:path-effect
       effect="bspline"
       id="path-effect214"
       is_visible="true"
       lpeversion="1"
       weight="33.333333"
       steps="2"
       helper_size="0"
       apply_no_weight="true"
       apply_with_weight="true"
       only_selected="false" />
    <inkscape:path-effect
       effect="bspline"
       id="path-effect210"
       is_visible="true"
       lpeversion="1"
       weight="33.333333"
       steps="2"
       helper_size="0"
       apply_no_weight="true"
       apply_with_weight="true"
       only_selected="false" />
    <inkscape:path-effect
       effect="bspline"
       id="path-effect206"
       is_visible="true"
       lpeversion="1"
       weight="33.333333"
       steps="2"
       helper_size="0"
       apply_no_weight="true"
       apply_with_weight="true"
       only_selected="false" />
    <inkscape:path-effect
       effect="bspline"
       id="path-effect202"
       is_visible="true"
       lpeversion="1"
       weight="33.333333"
       steps="2"
       helper_size="0"
       apply_no_weight="true"
       apply_with_weight="true"
       only_selected="false" />
    <inkscape:path-effect
       effect="bspline"
       id="path-effect198"
       is_visible="true"
       lpeversion="1"
       weight="33.333333"
       steps="2"
       helper_size="0"
       apply_no_weight="true"
       apply_with_weight="true"
       only_selected="false" />
    <inkscape:path-effect
       effect="bspline"
       id="path-effect194"
       is_visible="true"
       lpeversion="1"
       weight="33.333333"
       steps="2"
       helper_size="0"
       apply_no_weight="true"
       apply_with_weight="true"
       only_selected="false" />
    <inkscape:path-effect
       effect="bspline"
       id="path-effect190"
       is_visible="true"
       lpeversion="1"
       weight="33.333333"
       steps="2"
       helper_size="0"
       apply_no_weight="true"
       apply_with_weight="true"
       only_selected="false" />
    <inkscape:path-effect
       effect="bspline"
       id="path-effect186"
       is_visible="true"
       lpeversion="1"
       weight="33.333333"
       steps="2"
       helper_size="0"
       apply_no_weight="true"
       apply_with_weight="true"
       only_selected="false" />
    <inkscape:path-effect
       effect="bspline"
       id="path-effect182"
       is_visible="true"
       lpeversion="1"
       weight="33.333333"
       steps="2"
       helper_size="0"
       apply_no_weight="true"
       apply_with_weight="true"
       only_selected="false" />
    <inkscape:path-effect
       effect="bspline"
       id="path-effect178"
       is_visible="true"
       lpeversion="1"
       weight="33.333333"
       steps="2"
       helper_size="0"
       apply_no_weight="true"
       apply_with_weight="true"
       only_selected="false" />
    <inkscape:path-effect
       effect="bspline"
       id="path-effect174"
       is_visible="true"
       lpeversion="1"
       weight="33.333333"
       steps="2"
       helper_size="0"
       apply_no_weight="true"
       apply_with_weight="true"
       only_selected="false" />
    <inkscape:path-effect
       effect="bspline"
       id="path-effect170"
       is_visible="true"
       lpeversion="1"
       weight="33.333333"
       steps="2"
       helper_size="0"
       apply_no_weight="true"
       apply_with_weight="true"
       only_selected="false" />
    <inkscape:path-effect
       effect="bspline"
       id="path-effect166"
       is_visible="true"
       lpeversion="1"
       weight="33.333333"
       steps="2"
       helper_size="0"
       apply_no_weight="true"
       apply_with_weight="true"
       only_selected="false" />
    <inkscape:path-effect
       effect="bspline"
       id="path-effect162"
       is_visible="true"
       lpeversion="1"
       weight="33.333333"
       steps="2"
       helper_size="0"
       apply_no_weight="true"
       apply_with_weight="true"
       only_selected="false" />
    <inkscape:path-effect
       effect="bspline"
       id="path-effect158"
       is_visible="true"
       lpeversion="1"
       weight="33.333333"
       steps="2"
       helper_size="0"
       apply_no_weight="true"
       apply_with_weight="true"
       only_selected="false" />
    <inkscape:path-effect
       effect="bspline"
       id="path-effect154"
       is_visible="true"
       lpeversion="1"
       weight="33.333333"
       steps="2"
       helper_size="0"
       apply_no_weight="true"
       apply_with_weight="true"
       only_selected="false" />
    <inkscape:path-effect
       effect="bspline"
       id="path-effect150"
       is_visible="true"
       lpeversion="1"
       weight="33.333333"
       steps="2"
       helper_size="0"
       apply_no_weight="true"
       apply_with_weight="true"
       only_selected="false" />
    <inkscape:path-effect
       effect="spiro"
       id="path-effect146"
       is_visible="true"
       lpeversion="1" />
    <inkscape:path-effect
       effect="spiro"
       id="path-effect142"
       is_visible="true"
       lpeversion="1" />
    <inkscape:path-effect
       effect="spiro"
       id="path-effect138"
       is_visible="true"
       lpeversion="1" />
    <inkscape:path-effect
       effect="spiro"
       id="path-effect134"
       is_visible="true"
       lpeversion="1" />
    <inkscape:path-effect
       effect="spiro"
       id="path-effect130"
       is_visible="true"
       lpeversion="1" />
    <inkscape:path-effect
       effect="spiro"
       id="path-effect56"
       is_visible="true"
       lpeversion="1" />
  </defs>
  <g
     inkscape:label="Ebene 1"
     inkscape:groupmode="layer"
     id="layer1"
     transform="translate(-79.486197,-69.833018)">
    <g
       id="g22371"
       transform="translate(-1.652321,0.02338581)">
      <g
         id="g21863"
         inkscape:label="love"
         style="fill:#ad7fa8;stroke:none;stroke-width:0.505196;stroke-miterlimit:4;stroke-dasharray:none;stroke-opacity:1"
         transform="matrix(0.79177223,0,0,0.79177223,23.849974,15.930933)">
        <path
           style="display:inline;fill:#ad7fa8;fill-opacity:1;fill-rule:evenodd;stroke:none;stroke-width:0.505196;stroke-linecap:round;stroke-linejoin:round;stroke-miterlimit:4;stroke-dasharray:none;stroke-dashoffset:0;stroke-opacity:1;paint-order:fill markers stroke"
           d="m 118.85183,74.347598 c 0.28009,-0.760375 0.26294,-1.541641 -0.28562,-2.098291 -0.29068,-0.28593 -0.69924,-0.452392 -1.11033,-0.452392 -0.41109,0 -0.81966,0.166462 -1.11033,0.452392 -0.29069,0.285929 -0.45992,0.687804 -0.45992,1.09217 0,-0.404366 -0.16922,-0.806241 -0.45991,-1.09217 -0.29068,-0.28593 -0.69924,-0.452392 -1.11033,-0.452392 -0.41108,0 -0.81964,0.166462 -1.11033,0.452392 -0.54855,0.55665 -0.5657,1.337916 -0.28563,2.098291 0.59668,1.360139 2.23412,1.530229 2.9662,2.849386 0.7321,-1.319157 2.36953,-1.489247 2.9662,-2.849386 z"
           id="path15033"
           sodipodi:nodetypes="ccsscsscccc"
           inkscape:label="top-heart" />
      </g>
      <path
         style="fill:#f0e9f1;fill-opacity:1;stroke-width:0.499999;stroke-linecap:round;stroke-linejoin:round;paint-order:fill markers stroke"
         d="m 123.4258,77.129811 c 0.0333,-0.0241 0.0636,-0.094 -0.005,-0.25793 -0.0636,-0.15244 -0.2316,-0.42216 -0.51757,-0.84278 -0.19792,-0.29111 -0.44996,-0.64965 -0.72132,-1.05099 -0.21169,-0.31308 -0.4426,-0.66454 -0.63805,-0.99889 -0.17301,-0.29597 -0.3203,-0.58196 -0.40764,-0.82484 -0.16218,-0.45026 -0.23231,-0.88682 -0.2129,-1.26496 0.009,-0.17206 0.036,-0.32418 0.0768,-0.45156 0.0396,-0.12364 0.0897,-0.21643 0.14137,-0.28064 0.0488,-0.0607 0.10284,-0.10052 0.15821,-0.12526 0.0552,-0.0247 0.11656,-0.0364 0.18103,-0.0341 0.0643,0.002 0.13015,0.0186 0.19144,0.0481 0.0612,0.0294 0.11531,0.0709 0.15756,0.1208 0.0423,0.05 0.0768,0.11375 0.0997,0.19219 0.0233,0.08 0.034,0.17365 0.0286,0.2786 -0.0114,0.22147 -0.0936,0.47479 -0.24918,0.72692 -0.0826,0.13389 -0.1868,0.26875 -0.30183,0.40286 -0.12194,0.14216 -0.25772,0.2853 -0.38942,0.42134 -0.24481,0.25287 -0.57333,0.57932 -0.81994,0.89851 -0.23817,0.30826 -0.42581,0.63817 -0.55153,0.96851 -0.11964,0.31435 -0.18312,0.62952 -0.17606,0.91659 0.004,0.14139 0.0242,0.28162 0.0697,0.41046 0.0229,0.0648 0.0524,0.12779 0.0898,0.18673 0.0376,0.0593 0.0831,0.11424 0.13736,0.16241 0.0546,0.0485 0.11656,0.0887 0.18519,0.11926 0.069,0.0307 0.14245,0.0505 0.21901,0.0603 0.15453,0.0197 0.31891,-0.002 0.48791,-0.0545 0.17143,-0.0533 0.35522,-0.14067 0.53437,-0.23963 0.18749,-0.10357 0.38099,-0.22602 0.56528,-0.34996 0.19382,-0.13036 0.38466,-0.26724 0.55511,-0.39246 0.17933,-0.13174 0.35487,-0.2645 0.48839,-0.36525 0.33256,-0.25094 0.52038,-0.39152 0.66405,-0.50658 0.16881,-0.13519 0.25776,-0.22088 0.29934,-0.28894 0.0453,-0.0742 0.0549,-0.15867 0.0391,-0.1851 -0.0158,-0.0264 -0.0963,-0.0565 -0.18309,-0.049 -0.0779,0.007 -0.20662,0.0512 -0.39822,0.15371 -0.16069,0.086 -0.38233,0.22126 -0.72353,0.4581 -0.14509,0.1007 -0.31328,0.22092 -0.49725,0.35047 -0.17026,0.11989 -0.35772,0.25023 -0.54451,0.37298 -0.17857,0.11735 -0.35901,0.22942 -0.52845,0.322 -0.16504,0.0902 -0.31246,0.15786 -0.43362,0.19565 -0.11635,0.0363 -0.20004,0.0423 -0.25742,0.0356 -0.0278,-0.003 -0.0496,-0.009 -0.0671,-0.0167 -0.0172,-0.007 -0.0324,-0.0165 -0.0461,-0.0281 -0.0139,-0.0117 -0.0278,-0.0269 -0.0413,-0.047 -0.0136,-0.0203 -0.0267,-0.0455 -0.0385,-0.0766 -0.0238,-0.063 -0.0401,-0.14506 -0.0445,-0.24516 -0.009,-0.2028 0.032,-0.45009 0.12967,-0.71864 0.10177,-0.27983 0.25968,-0.56798 0.46774,-0.84214 0.22212,-0.29267 0.52046,-0.59208 0.77818,-0.85751 0.13197,-0.13593 0.27788,-0.28715 0.41106,-0.43829 0.12568,-0.14263 0.25045,-0.29671 0.35539,-0.45813 0.19774,-0.30417 0.32592,-0.63558 0.35691,-0.96055 0.0148,-0.15545 0.007,-0.31061 -0.0271,-0.45857 -0.034,-0.14586 -0.0945,-0.28505 -0.18542,-0.40769 -0.0899,-0.12123 -0.20518,-0.22038 -0.33459,-0.29273 -0.12929,-0.0723 -0.27439,-0.11877 -0.42507,-0.133 -0.15221,-0.0144 -0.31038,0.004 -0.46189,0.0626 -0.15467,0.0597 -0.2959,0.15835 -0.41324,0.29458 -0.11854,0.13763 -0.20687,0.30652 -0.26857,0.489 -0.0642,0.18986 -0.10159,0.40015 -0.11377,0.62059 -0.0267,0.48257 0.0667,1.00925 0.2628,1.52391 0.11295,0.29678 0.29033,0.61864 0.47896,0.92194 0.21709,0.34907 0.46796,0.70349 0.69834,1.01279 0.29021,0.38963 0.57963,0.7502 0.79909,1.01317 0.32176,0.38554 0.54876,0.62981 0.67036,0.72707 0.13865,0.11091 0.21263,0.10062 0.24591,0.0765 z"
         id="path4807"
         sodipodi:nodetypes="zscsssscscssssssssssssssssssssssszssssssssssssssssssssssssssscssssz"
         inkscape:label="and" />
      <g
         id="g21871"
         inkscape:label="coffee"
         style="fill:#ad7fa8;stroke:none;stroke-width:0.516851;stroke-miterlimit:4;stroke-dasharray:none;stroke-opacity:1"
         transform="matrix(0.77391788,0,0,0.77391788,25.501451,17.235909)">
        <path
           id="path9337"
           style="color:#000000;fill:#ad7fa8;fill-rule:evenodd;stroke:none;stroke-width:1.51181;stroke-linejoin:round;stroke-miterlimit:4;stroke-dasharray:none;stroke-opacity:1;paint-order:fill markers stroke"
           d="m 168.75391,12.642578 c -0.47775,2.34e-4 -0.865,0.387481 -0.86524,0.865234 v 4.574219 c 0,2.749193 2.55313,5.111657 5.06641,6.226563 h -4.5957 c 0.0559,1.377777 1.02284,1.995507 2.16015,1.927734 h 14.45899 c 1.13731,0.06776 2.10428,-0.549957 2.16015,-1.927734 h -4.5957 c 1.71178,-0.760228 3.4404,-2.099683 4.36914,-3.746094 1.14004,-0.2923 2.34624,-0.629071 3.38086,-1.416016 1.12731,-0.857479 1.98012,-2.159003 1.93555,-3.568359 -0.0448,-1.409775 -0.97742,-2.685568 -2.33204,-2.855469 -0.67627,-0.08483 -1.28509,0.158375 -1.82617,0.464844 -0.15795,0.08951 -0.31268,0.185289 -0.46484,0.287109 -0.0175,-0.46373 -0.3992,-0.830776 -0.86328,-0.832031 z m 20.8789,1.548828 h 0.002 c 0.0284,-8.2e-5 0.0541,0.0027 0.0781,0.0059 0.39084,0.04902 1.01048,0.71337 1.0332,1.429687 0.0234,0.716735 -0.5436,1.727242 -1.35156,2.341797 -0.51071,0.38849 -1.14539,0.654489 -1.85351,0.876953 0.043,-0.251144 0.0664,-0.504981 0.0664,-0.763672 V 15.3125 c 0.42744,-0.329711 0.83642,-0.633756 1.19336,-0.835938 0.35044,-0.198457 0.63475,-0.283268 0.83203,-0.285156 z"
           transform="matrix(0.3418752,0,0,0.3418752,71.890143,67.931914)" />
        <g
           id="g21875"
           inkscape:label="smoke"
           style="fill:#ad7fa8;fill-opacity:1;stroke:none;stroke-width:0.516851;stroke-miterlimit:4;stroke-dasharray:none;stroke-opacity:1">
          <path
             style="color:#000000;fill:#ad7fa8;fill-opacity:1;stroke:none;stroke-width:0.516851;stroke-linejoin:round;stroke-miterlimit:4;stroke-dasharray:none;stroke-opacity:1;paint-order:fill markers stroke"
             d="m 131.75363,67.932356 a 0.04763785,0.06711826 0 0 0 -0.0321,0.110325 c 0,0 0.25153,0.413325 0.34258,0.719016 0.001,0.0042 0.001,0.0087 0.002,0.01281 a 0.04763785,0.06711826 0 0 0 -0.001,0.0072 c 0.0274,0.08633 0.0279,0.214754 -0.0632,0.460549 -0.0915,0.246721 -0.28517,0.595956 -0.33221,0.947081 -0.01,0.06955 -0.0121,0.144926 -0.006,0.225116 a 0.04763785,0.06711826 0 0 0 3e-4,0.0085 c 0.0814,0.448249 0.33069,0.614001 0.4863,0.677759 0.15974,0.06544 0.26486,0.07382 0.26486,0.07382 a 0.04763785,0.06711826 0 0 0 0.041,-0.108378 c 0,0 -0.0638,-0.113478 -0.1688,-0.278617 -0.0524,-0.08255 -0.10713,-0.165017 -0.14224,-0.238712 -0.0351,-0.0737 -0.0465,-0.129411 -0.0371,-0.165611 a 0.04763785,0.06711826 0 0 0 0.004,-0.02165 c 1.7e-4,-0.0059 0.002,-0.02719 0.005,-0.05289 l 6.1e-4,-0.002 c 0.025,-0.182706 0.17784,-0.469792 0.28837,-0.767805 0.12699,-0.342441 0.17984,-0.687522 0.075,-1.018536 a 0.04763785,0.06711826 0 0 0 -5.7e-4,-0.0032 l -0.009,-0.02394 c -0.0105,-0.02728 -0.0224,-0.05448 -0.0349,-0.07951 l -3e-4,-0.0016 c -0.25011,-0.516178 -0.68275,-0.479605 -0.68275,-0.479605 z"
             id="path11411"
             inkscape:label="fade-2" />
          <path
             style="color:#000000;fill:#ad7fa8;fill-opacity:1;stroke:none;stroke-width:0.516851;stroke-linejoin:round;stroke-miterlimit:4;stroke-dasharray:none;stroke-opacity:1;paint-order:fill markers stroke"
             d="m 132.87284,71.826333 a 0.03827591,0.05216061 0 0 1 -0.0292,-0.08369 c 0,0 0.18887,-0.335832 0.25235,-0.578508 6.2e-4,-0.0034 6.2e-4,-0.0068 0.001,-0.01008 a 0.03827591,0.05216061 0 0 1 -0.001,-0.0056 c 0.0192,-0.06863 0.0157,-0.16832 -0.0652,-0.353579 -0.0811,-0.185954 -0.24741,-0.445325 -0.29613,-0.714966 -0.0101,-0.05337 -0.0142,-0.111743 -0.0114,-0.17437 a 0.03827591,0.05216061 0 0 1 -3.2e-4,-0.0066 c 0.0513,-0.352719 0.24612,-0.496305 0.36897,-0.555123 0.1261,-0.06038 0.21018,-0.07318 0.21018,-0.07318 a 0.03827591,0.05216061 0 0 1 0.0362,0.08163 c 0,0 -0.0476,0.09189 -0.12671,0.226335 -0.0395,0.06721 -0.0808,0.134481 -0.10665,0.193776 -0.0259,0.05929 -0.0333,0.103206 -0.0246,0.130754 a 0.03827591,0.05216061 0 0 1 0.003,0.01658 c 5.9e-4,0.0046 0.002,0.02103 0.006,0.04074 l 0.001,0.0017 c 0.0259,0.14027 0.15736,0.353871 0.25536,0.578485 0.11259,0.258101 0.16578,0.5227 0.092,0.785853 a 0.03827591,0.05216061 0 0 1 -3.6e-4,0.0025 l -0.007,0.01918 c -0.008,0.02179 -0.0163,0.04361 -0.0255,0.06379 l -1.9e-4,0.0014 c -0.18452,0.415557 -0.53276,0.413153 -0.53276,0.413153 z"
             id="path12013"
             inkscape:label="fade-1" />
        </g>
      </g>
    </g>
    <g
       id="g21845"
       inkscape:label="made-with"
       style="fill:#f0e9f1;fill-opacity:1">
      <g
         id="g302"
         style="fill:#f0e9f1;fill-opacity:1"
         transform="rotate(18.478955,158.85099,176.36601)">
        <path
           id="path136"
           style="fill:#f0e9f1;fill-opacity:1;stroke-width:1.88976;stroke-linecap:round;stroke-linejoin:round;paint-order:fill markers stroke"
           d="m 181.96289,-39.203125 c -0.0215,1.27e-4 -0.0437,0.003 -0.0664,0.0078 -0.0933,0.0207 -0.18531,0.03921 -0.27539,0.05859 -0.65839,0.209913 -0.95024,3.774983 -1.10547,6.6875 -1.81076,-0.124533 -3.36634,-0.270607 -3.93164,-0.02734 -0.15798,0.06803 -0.21553,0.211704 -0.2246,0.269531 v 0.002 c -0.008,0.05783 0.004,0.212345 0.13476,0.324219 0.52362,0.445406 2.01121,1.049342 3.93359,1.302734 -0.0362,0.828953 -0.0655,1.499586 -0.0918,1.767578 -0.2738,2.546926 -1.00408,6.787154 -0.86524,7.828125 0.0386,0.289207 0.20702,0.424739 0.24805,0.509766 0.0759,-0.05487 0.2883,-0.09535 0.45703,-0.335938 0.72565,-1.034614 1.62602,-4.964876 2.03516,-7.763672 0.0497,-0.319436 0.12865,-1.034853 0.20898,-1.888672 1.88417,-0.03788 3.12152,-0.891703 3.82813,-1.4375 0.13077,-0.100913 0.1599,-0.235015 0.15234,-0.289062 -0.008,-0.05405 -0.0743,-0.175036 -0.22851,-0.234375 -0.72114,-0.277911 -2.16705,0.0854 -3.59766,0.07813 0.2088,-3.095175 0.26092,-6.864534 -0.61133,-6.859375 z"
           transform="matrix(0.25094145,-0.08386136,0.08386136,0.25094145,32.313212,118.97654)" />
      </g>
      <g
         id="g306"
         style="fill:#f0e9f1;fill-opacity:1"
         transform="rotate(24.579402,131.84522,103.17324)">
        <path
           id="path144"
           style="fill:#f0e9f1;fill-opacity:1;stroke-width:1.88976;stroke-linecap:round;stroke-linejoin:round;paint-order:fill markers stroke"
           d="m 296.46289,360.19531 c -0.0736,0.003 -0.15558,0.012 -0.24609,0.0293 -0.53115,0.10182 -1.50815,0.47176 -2.53516,1.39453 -0.79941,0.71828 -1.62541,1.77981 -2.08789,3.20313 -0.2444,0.66604 -0.43486,1.56788 -0.31055,2.54882 0.0559,0.44127 0.17777,0.89448 0.37696,1.32813 0.19342,0.42109 0.46066,0.82544 0.80859,1.17383 0.57282,0.57016 1.30594,0.93008 2.04492,1.07226 0.82456,0.15859 1.6085,0.0456 2.2461,-0.17578 0.66024,-0.22926 1.31696,-0.6281 1.86328,-1.20898 0.50517,-0.53709 0.883,-1.19397 1.09961,-1.90821 0.199,-0.66965 0.24724,-1.33874 0.21289,-1.96289 0.25,0.2263 0.49155,0.42349 0.72656,0.59571 0.0624,0.0457 0.128,0.0914 0.19531,0.13672 0.71665,0.48281 1.48669,0.76502 2.28906,0.88085 0.91185,0.13164 1.7168,0.0275 1.95313,-0.10937 0.13588,-0.0787 0.17608,-0.2393 0.21094,-0.28711 -0.0249,-0.0541 -0.0318,-0.22165 -0.14844,-0.32617 -0.24177,-0.21662 -0.93071,-0.38029 -1.66406,-0.66992 -0.61395,-0.24248 -1.11323,-0.52036 -1.58985,-0.91602 -0.0449,-0.0373 -0.0877,-0.0753 -0.13086,-0.11328 -0.19963,-0.17581 -0.41381,-0.3969 -0.64843,-0.66797 -0.26895,-0.31072 -0.53525,-0.65316 -0.81836,-1.02539 -0.65633,-0.86293 -1.28136,-1.72056 -1.73243,-1.95312 -0.34331,-0.17702 -0.71612,0.0652 -0.85937,0.0781 -0.0876,0.12451 -0.44224,0.38224 -0.52539,0.74609 -0.0562,0.24596 -0.032,0.59757 0.0469,1.01953 0.14121,0.61096 0.37818,1.43373 0.49219,2.13868 0.10416,0.64387 0.12788,1.28899 -0.0176,1.875 -0.10155,0.42698 -0.29441,0.82776 -0.5625,1.15625 -0.28994,0.35536 -0.65423,0.60659 -1.02148,0.74023 -0.35689,0.12989 -0.79112,0.17157 -1.21875,0.0664 -0.38228,-0.0941 -0.73813,-0.30167 -0.99805,-0.58789 -0.15744,-0.17114 -0.28577,-0.37746 -0.38476,-0.60742 -0.10226,-0.23755 -0.16976,-0.49336 -0.20313,-0.75 -0.0765,-0.58862 0.01,-1.18443 0.13086,-1.7168 0.29862,-1.06468 0.87293,-1.92096 1.43555,-2.54492 0.70916,-0.78649 1.4593,-1.26497 1.79297,-1.52149 0.52778,-0.40574 0.40454,-0.68027 0.50195,-0.8125 -0.0851,-0.0331 -0.20974,-0.33624 -0.72461,-0.31836 z"
           transform="scale(0.26458333)" />
      </g>
      <g
         id="g311"
         style="fill:#f0e9f1;fill-opacity:1"
         transform="rotate(29.793195,132.29371,131.13419)">
        <path
           id="path152"
           style="fill:#f0e9f1;fill-opacity:1;stroke-width:1.88976;stroke-linecap:round;stroke-linejoin:round;paint-order:fill markers stroke"
           d="m 194.09766,-36.425781 c -0.10447,0.03975 -0.38286,0.0073 -0.62696,0.238281 -0.46311,0.438196 -1.3046,2.089797 -2.00781,3.919922 -0.61987,1.613148 -1.03394,3.101027 -1.26953,4.472656 -0.23324,1.35789 -0.33962,2.758697 -0.26367,4.28711 0.0907,1.825661 0.42126,3.422837 0.77929,3.773437 0.17939,0.175653 0.49181,0.102672 0.58985,0.123047 0.12882,-0.03399 0.46523,0.04343 0.77344,-0.203125 0.3371,-0.269684 -0.40784,-4.771956 -0.19731,-5.162109 0.32379,-0.600039 0.96248,-0.903429 1.34766,-1.15625 0.40168,-0.263623 0.61322,-0.301001 0.76757,-0.259766 0.15459,0.04131 0.57525,0.341427 1.02539,0.886719 0.45015,0.545283 1.9734,2.864368 2.29288,3.220701 0.33118,0.369353 0.68173,0.714505 1.04493,1.019531 0.40664,0.341617 0.7918,0.601738 1.1621,0.802734 0.38196,0.207364 0.7981,0.37241 1.25,0.484375 0.42044,0.104228 0.83663,0.154637 1.23633,0.166016 0.93037,0.02651 1.74725,-0.156321 2.02539,-0.345703 0.18814,-0.128159 0.22831,-0.369858 0.27344,-0.443359 -0.05,-0.0713 -0.10552,-0.309912 -0.29883,-0.427735 -0.32187,-0.196049 -1.05288,-0.267479 -1.81836,-0.429687 -0.31873,-0.06751 -0.61828,-0.147066 -0.9082,-0.251954 -0.3075,-0.111166 -0.57654,-0.239993 -0.82031,-0.390624 -0.23729,-0.146314 -0.50296,-0.350432 -0.81055,-0.634766 -0.27861,-0.257466 -0.56031,-0.552177 -0.85742,-0.88086 -0.23829,-0.263613 -0.47171,-0.530539 -0.69336,-0.78125 -0.0153,-0.03019 -0.0323,-0.05953 -0.0508,-0.08789 -0.49962,-0.765045 -1.01079,-1.551953 -1.56445,-2.222656 -0.55367,-0.670708 -1.14057,-1.275739 -2.00196,-1.50586 -0.86162,-0.230211 -1.66914,0.09126 -2.29492,0.501953 -0.0325,0.02132 -0.0656,0.04249 -0.0977,0.06445 0.20644,-1.200673 0.57926,-2.481021 1.08594,-4.005859 0.60827,-1.830518 1.21227,-3.464066 1.19727,-4.15625 -0.007,-0.335647 -0.22453,-0.512719 -0.26953,-0.615234 z"
           transform="matrix(0.22961189,-0.13146376,0.13146376,0.22961189,41.673638,126.20332)"
           sodipodi:nodetypes="cssssscsssssscscscccscccsccssscsccc" />
      </g>
      <path
         id="path164"
         style="fill:#f0e9f1;fill-opacity:1;stroke-width:1.88976;stroke-linecap:round;stroke-linejoin:round;paint-order:fill markers stroke"
         d="m 323.9043,347.59961 c -0.46866,0.002 -0.99406,0.0568 -1.52149,0.21289 -0.33868,0.10023 -0.68089,0.24205 -1.00976,0.44336 -0.32791,0.20072 -0.63497,0.45547 -0.9043,0.76953 -0.5286,0.61754 -0.86194,1.36733 -1.03906,2.13672 -0.19792,0.85969 -0.20107,1.73436 -0.084,2.54297 0.11528,0.79614 0.24627,1.79989 0.86914,2.64258 2.02985,2.74622 7.11958,2.17706 7.57813,2.10156 0.49348,-0.0813 0.92338,-0.23683 1.29687,-0.42578 0.41577,-0.21033 0.76688,-0.46583 1.05274,-0.71289 0.92976,-0.80359 1.38904,-1.6488 1.39648,-1.87305 0.006,-0.18202 -0.32266,-0.57735 -0.59375,-0.55859 -0.68113,0.0471 -0.94039,0.61345 -1.77734,1.15234 -0.25013,0.16105 -0.51669,0.31103 -0.80274,0.42578 -0.25379,0.10182 -0.52902,0.17853 -0.83203,0.21289 -0.2862,0.0325 -3.97615,0.40044 -5.39694,-0.89569 -0.18639,-0.17003 -0.48501,-0.75524 -0.56985,-0.97342 0.33264,-0.0299 0.75454,-0.1097 1.1914,-0.23047 0.6472,-0.17892 1.23514,-0.42371 1.76563,-0.7207 0.0463,-0.0261 2.67473,-1.16657 3.16015,-2.82816 0.17801,-0.60934 -0.56383,-1.65267 -0.88867,-2.03906 -0.25809,-0.307 -0.60368,-0.63925 -1.0293,-0.90234 -0.19522,-0.12068 -0.41487,-0.23072 -0.65624,-0.31446 -0.23108,-0.0802 -0.48346,-0.13797 -0.75586,-0.15429 -0.14141,-0.009 -0.293,-0.0125 -0.44922,-0.0117 z m -0.17757,4.78502 c -0.52988,0.24129 -0.955,0.47223 -1.50793,0.74249 -0.35136,0.17174 -0.70159,0.33849 -0.97656,0.49024 -0.009,-0.0568 -0.0165,-0.11298 -0.0234,-0.16797 -0.0769,-0.60882 -0.0409,-1.23128 0.125,-1.79883 0.14923,-0.51066 0.38995,-0.92698 0.68359,-1.22266 0.13,-0.12985 0.27211,-0.23121 0.42578,-0.31054 0.15588,-0.0805 0.32754,-0.141 0.51368,-0.18555 0.29784,-0.0713 0.61881,-0.0981 1.25123,0.0267 0.63242,0.12478 0.83923,0.28295 0.99831,0.42635 0.6082,0.59252 -0.95982,1.75848 -1.4897,1.99977 z"
         transform="matrix(0.26458333,0,0,0.26458333,7.4277064,-18.415941)"
         sodipodi:nodetypes="ssscsssssssssssscscsssscssscsscsssccs" />
      <g
         id="g322"
         style="fill:#f0e9f1;fill-opacity:1"
         transform="translate(-10.980208,-16.007292)">
        <path
           id="path172"
           style="fill:#f0e9f1;fill-opacity:1;stroke-width:0.499999;stroke-linecap:round;stroke-linejoin:round;paint-order:fill markers stroke"
           d="m 93.655993,89.957383 c -0.14822,0.121773 -0.38139,0.718771 -0.533768,1.067918 -0.003,0.0067 -0.0058,0.0135 -0.0087,0.01997 -0.08143,0.18503 -0.186242,0.417252 -0.264362,0.622024 -0.05441,-0.141259 -0.126779,-0.303136 -0.185694,-0.468806 -0.0022,-0.0063 -0.0046,-0.01281 -0.0068,-0.01909 -0.05875,-0.168273 -0.128661,-0.413824 -0.204359,-0.653186 -0.07981,-0.25236 -0.164466,-0.48859 -0.249387,-0.590145 -0.07471,-0.08934 -0.190286,-0.121717 -0.231452,-0.1103 -0.06055,0.01679 -0.231624,0.18551 -0.371399,0.340321 -0.132096,0.146303 -0.255113,0.328348 -0.34267,0.540488 -0.06395,0.154912 -0.129674,0.342784 -0.189331,0.550292 -1.75e-4,-0.0012 -6.02e-4,-0.0024 -0.0011,-0.0036 -0.08637,-0.382194 -0.292683,-1.053469 -0.408036,-1.148515 -0.03151,-0.02595 -0.07465,-0.01125 -0.08964,-0.01349 -0.01284,0.0081 -0.05864,0.01182 -0.07715,0.04821 -0.06776,0.13322 0.0115,0.830589 0.08506,1.215452 0.06946,0.363463 0.207384,0.864096 0.329529,1.035931 0.05374,0.0756 0.125415,0.125078 0.168147,0.126066 0.07326,0.0017 0.177876,-0.04404 0.255042,-0.161942 0.08609,-0.131547 0.16132,-0.412228 0.229092,-0.71072 0.06593,-0.290134 0.123995,-0.582966 0.172822,-0.779628 0.03248,-0.130852 0.07775,-0.347997 0.108471,-0.49242 0.01517,0.09493 0.03619,0.198801 0.06094,0.304714 0.06082,0.260347 0.132296,0.494957 0.189861,0.685963 2.57e-4,9.19e-4 0.0056,0.01943 0.0058,0.02039 0.06272,0.208631 0.121278,0.40529 0.194502,0.568433 0.05344,0.119073 0.112134,0.212807 0.178336,0.26311 0.09109,0.06921 0.256079,0.08271 0.308389,0.07941 0.04457,-0.0027 0.155954,-0.03741 0.24507,-0.111382 0.181447,-0.150617 0.435455,-0.556395 0.603156,-0.899059 0.0033,-0.0068 0.0067,-0.01363 0.01,-0.02065 0.07642,-0.157031 0.163024,-0.351846 0.234657,-0.539308 0.05549,0.159426 0.122693,0.332687 0.194897,0.502247 0.07541,0.177075 0.153843,0.343805 0.231759,0.490902 0.08583,0.162048 0.165078,0.288724 0.238459,0.388718 0.07523,0.102527 0.15926,0.193513 0.254326,0.263441 0.0906,0.06664 0.182312,0.107926 0.272419,0.128017 0.0992,0.02212 0.185762,0.01627 0.249058,0.0014 0.06235,-0.0147 0.107095,-0.03907 0.131957,-0.06458 0.03419,-0.03509 0.05022,-0.0925 0.05331,-0.123392 0.0037,-0.0373 -0.03373,-0.08283 -0.07001,-0.113618 -0.02678,-0.02274 -0.06579,-0.03933 -0.107076,-0.05667 -0.04461,-0.01876 -0.08065,-0.03416 -0.120647,-0.0584 -0.03227,-0.01955 -0.06881,-0.04583 -0.108885,-0.08445 -0.04473,-0.04309 -0.09343,-0.100804 -0.146264,-0.179807 -0.05145,-0.07694 -0.111487,-0.184779 -0.184679,-0.335299 -0.067,-0.13778 -0.135964,-0.292121 -0.210668,-0.463907 -0.194093,-0.446335 -0.381323,-0.896937 -0.506894,-1.018784 -0.01909,-0.01853 -0.106097,-0.120698 -0.198936,-0.119594 -0.09284,0.0011 -0.129255,0.02979 -0.187167,0.07737 z"
           sodipodi:nodetypes="ssccsssssssccscssssssscsscsssscccsssssssssssssssscs" />
      </g>
      <g
         id="g330"
         style="fill:#f0e9f1;fill-opacity:1"
         transform="matrix(-0.87633447,0.48170313,0.48170313,0.87633447,112.69149,-54.207364)">
        <path
           id="path200"
           style="fill:#f0e9f1;fill-opacity:1;stroke-width:1.88976;stroke-linecap:round;stroke-linejoin:round;paint-order:fill markers stroke"
           d="m 302.83789,377.5332 c -0.11257,10e-4 -0.20705,0.0323 -0.25781,0.0273 -0.0419,0.0805 -0.24918,0.21498 -0.25,0.48242 -0.003,1.02778 2.33136,5.25222 3.21484,7.59375 0.87682,2.32389 1.42238,6.0207 2.19531,6.68945 0.25882,0.22393 0.69698,0.1839 0.83399,0.15039 0.13669,-0.0334 0.54272,-0.20069 0.66797,-0.51953 0.0979,-0.24913 0.13075,-0.87279 0.13075,-0.87279 2.158,0.51381 4.22246,0.0298 5.31686,-0.49029 1.09441,-0.52012 1.88241,-1.2838 2.32186,-2.08023 0.20781,-0.37663 0.36068,-0.79017 0.43555,-1.2207 0.0736,-0.42315 0.072,-0.86696 -0.0312,-1.30469 -0.10247,-0.43437 -0.29721,-0.82875 -0.54297,-1.17578 -0.24586,-0.34716 -0.54788,-0.65272 -0.87305,-0.91406 -0.66321,-0.53303 -1.45743,-0.90687 -2.2168,-1.09375 -0.80884,-0.19908 -1.57536,-0.18489 -2.25976,-0.0254 -0.0184,0.004 -0.0363,0.007 -0.0547,0.0117 -0.69952,0.17208 -1.3801,0.5135 -1.98437,1.03906 -0.55721,0.48504 -1.02563,1.10861 -1.36329,1.76758 -0.10844,0.21164 -0.20424,0.42761 -0.28515,0.64648 -0.17911,-0.45278 -0.36224,-0.89456 -0.53906,-1.31055 -1.05911,-2.49154 -3.23934,-6.71563 -4.17383,-7.32031 -0.0983,-0.0636 -0.1976,-0.081 -0.28516,-0.0801 z m 9.67383,6.91797 c 0.26345,-0.007 0.54397,0.0224 0.8418,0.0957 0.51792,0.12746 1.07392,0.38872 1.52343,0.75 0.21662,0.17409 0.39593,0.36165 0.53125,0.55273 0.13476,0.19028 0.22042,0.37568 0.26172,0.55078 0.0416,0.17638 0.0466,0.37427 0.01,0.58594 -0.0376,0.21615 -0.11916,0.44072 -0.24024,0.66015 -0.25892,0.46926 -0.67339,0.86496 -1.16211,1.10938 -0.26537,0.13275 -0.56907,0.22944 -0.88672,0.29883 -0.34612,0.0756 -0.70101,0.11532 -1.02929,0.13672 -0.37422,0.0244 -0.72615,0.024 -1.00781,0.0176 -0.34255,-0.008 -0.78772,-0.0695 -1.18937,-0.25234 -0.31472,-0.14324 -0.60984,-0.40031 -0.70103,-0.65162 -0.0662,-0.26796 -0.13436,-0.46524 -0.12726,-0.62738 0.007,-0.16456 0.0407,-0.3621 0.10547,-0.58203 0.0645,-0.21915 0.15719,-0.45097 0.27539,-0.68164 0.24503,-0.4782 0.57699,-0.91155 0.94336,-1.23047 0.38726,-0.33681 0.81171,-0.54593 1.23632,-0.65039 0.0113,-0.003 0.0239,-0.005 0.0352,-0.008 0.18128,-0.0422 0.37517,-0.069 0.58008,-0.0742 z"
           transform="scale(0.26458333)"
           sodipodi:nodetypes="scsssssccsssssssccscsssssssssssssssscsscssscs" />
      </g>
      <path
         style="fill:#f0e9f1;fill-opacity:1;stroke-width:0.499999;stroke-linecap:round;stroke-linejoin:round;paint-order:fill markers stroke"
         d="m 103.11146,73.755049 c -0.0153,-0.0023 -0.0563,8.43e-4 -0.0859,0.03554 -0.15468,0.181835 -0.38191,0.802689 -0.37636,1.546969 0.004,0.510303 0.23439,0.84429 0.38081,1.033848 0.0267,0.03462 0.0623,0.04213 0.0766,0.04007 0.0143,-0.0021 0.0463,-0.01951 0.062,-0.0603 0.0775,-0.201099 -0.0334,-0.615184 -0.0194,-1.013077 0.0234,-0.666607 0.11926,-1.325427 0.0339,-1.523787 -0.018,-0.04182 -0.0563,-0.05693 -0.0716,-0.05925 z"
         id="path212"
         sodipodi:nodetypes="zssszssszz"
         inkscape:transform-center-x="-0.7821214"
         inkscape:transform-center-y="-1.2348957" />
      <path
         style="fill:#f0e9f1;fill-opacity:1;stroke-width:0.481361;stroke-linecap:round;stroke-linejoin:round;paint-order:fill markers stroke"
         d="m 102.98971,72.232416 c -0.042,-4.4e-5 -0.095,0.0076 -0.15162,0.03377 -0.0409,0.01888 -0.0813,0.04644 -0.11729,0.08335 -0.0311,0.03189 -0.0592,0.0713 -0.0796,0.117281 -0.019,0.04298 -0.0317,0.09259 -0.0316,0.146729 7e-5,0.05246 0.0122,0.102234 0.0318,0.146467 0.0196,0.04414 0.0471,0.08378 0.0796,0.117101 0.0336,0.03445 0.0733,0.06301 0.11718,0.08331 0.0449,0.02078 0.0935,0.03259 0.14339,0.03369 0.003,6.1e-5 0.005,8.9e-5 0.008,8.6e-5 0.0521,-7e-5 0.10282,-0.01175 0.14975,-0.03157 0.0436,-0.0184 0.085,-0.04438 0.12145,-0.07632 0.0352,-0.03087 0.0678,-0.06912 0.0921,-0.11386 0.0245,-0.04491 0.042,-0.09907 0.0421,-0.15894 8e-5,-0.06158 -0.0181,-0.115409 -0.0418,-0.159225 -0.0253,-0.04651 -0.0586,-0.0846 -0.0922,-0.114021 -0.039,-0.03419 -0.0811,-0.05929 -0.12159,-0.07635 -0.0563,-0.02373 -0.10781,-0.03147 -0.14985,-0.03151 z m -3.7e-4,0.34924 c -1.1e-4,0 0.004,-3.21e-4 0.0145,0.0041 0.008,0.0034 0.0178,0.009 0.0271,0.01716 0.008,0.0073 0.0132,0.01398 0.0155,0.01807 0.002,0.0032 -5e-4,0.001 -4.9e-4,-0.0079 10e-6,-0.0086 0.002,-0.01095 4.3e-4,-0.0076 -0.002,0.0039 -0.007,0.01071 -0.0156,0.01824 -0.009,0.0077 -0.0184,0.01353 -0.0271,0.0172 -0.009,0.0037 -0.0146,0.0041 -0.0143,0.0041 2.5e-4,5e-6 -9.6e-4,1.22e-4 -0.005,-0.0015 -0.004,-0.0017 -0.009,-0.0049 -0.0137,-0.0101 -0.005,-0.0051 -0.008,-0.0105 -0.0105,-0.01509 -0.002,-0.0043 -0.002,-0.0064 -0.002,-0.0052 0,0.0014 -9e-5,-8.35e-4 0.002,-0.0049 0.002,-0.0047 0.006,-0.01009 0.0104,-0.01492 0.005,-0.0054 0.0104,-0.0085 0.0137,-0.01007 0.004,-0.002 0.005,-0.0016 0.005,-0.0016 z"
         id="path469"
         sodipodi:nodetypes="sssss" />
      <g
         id="g200"
         style="fill:#f0e9f1;fill-opacity:1"
         transform="matrix(1,0,0,-1,6.8130211,166.33324)">
        <path
           id="path198"
           style="fill:#f0e9f1;fill-opacity:1;stroke-width:0.499999;stroke-linecap:round;stroke-linejoin:round;paint-order:fill markers stroke"
           d="m 93.655993,89.957383 c -0.14822,0.121773 -0.38139,0.718771 -0.533768,1.067918 -0.003,0.0067 -0.0058,0.0135 -0.0087,0.01997 -0.08143,0.18503 -0.186242,0.417252 -0.264362,0.622024 -0.05441,-0.141259 -0.126779,-0.303136 -0.185694,-0.468806 -0.0022,-0.0063 -0.0046,-0.01281 -0.0068,-0.01909 -0.05875,-0.168273 -0.128661,-0.413824 -0.204359,-0.653186 -0.07981,-0.25236 -0.164466,-0.48859 -0.249387,-0.590145 -0.07471,-0.08934 -0.190286,-0.121717 -0.231452,-0.1103 -0.06055,0.01679 -0.218927,0.140155 -0.371399,0.340321 -0.152472,0.200166 -0.39094,0.811715 -0.466693,0.995241 -0.07575,0.183526 -0.34879,1.057692 -0.226645,1.229527 0.05374,0.0756 0.125415,0.125078 0.168147,0.126066 0.07326,0.0017 0.177876,-0.04404 0.255042,-0.161942 0.08609,-0.131547 0.16132,-0.412228 0.229092,-0.71072 0.06593,-0.290134 0.123995,-0.582966 0.172822,-0.779628 0.03248,-0.130852 0.07775,-0.347997 0.108471,-0.49242 0.01517,0.09493 0.03619,0.198801 0.06094,0.304714 0.06082,0.260347 0.132296,0.494957 0.189861,0.685963 2.57e-4,9.19e-4 0.0056,0.01943 0.0058,0.02039 0.06272,0.208631 0.121278,0.40529 0.194502,0.568433 0.05344,0.119073 0.112134,0.212807 0.178336,0.26311 0.09109,0.06921 0.256079,0.08271 0.308389,0.07941 0.04457,-0.0027 0.155954,-0.03741 0.24507,-0.111382 0.181447,-0.150617 0.435455,-0.556395 0.603156,-0.899059 0.0033,-0.0068 0.0067,-0.01363 0.01,-0.02065 0.07642,-0.157031 0.163024,-0.351846 0.234657,-0.539308 0.05549,0.159426 0.122693,0.332687 0.194897,0.502247 0.07541,0.177075 0.153843,0.343805 0.231759,0.490902 0.08583,0.162048 0.165078,0.288724 0.238459,0.388718 0.07523,0.102527 0.15926,0.193513 0.254326,0.263441 0.0906,0.06664 0.182312,0.107926 0.272419,0.128017 0.0992,0.02212 0.185762,0.01627 0.249058,0.0014 0.06235,-0.0147 0.107095,-0.03907 0.131957,-0.06458 0.03419,-0.03509 0.05022,-0.0925 0.05331,-0.123392 0.0037,-0.0373 -0.03373,-0.08283 -0.07001,-0.113618 -0.02678,-0.02274 -0.06579,-0.03933 -0.107076,-0.05667 -0.04461,-0.01876 -0.08065,-0.03416 -0.120647,-0.0584 -0.03227,-0.01955 -0.06881,-0.04583 -0.108885,-0.08445 -0.04473,-0.04309 -0.09343,-0.100804 -0.146264,-0.179807 -0.05145,-0.07694 -0.111487,-0.184779 -0.184679,-0.335299 -0.067,-0.13778 -0.135964,-0.292121 -0.210668,-0.463907 -0.194093,-0.446335 -0.381323,-0.896937 -0.506894,-1.018784 -0.01909,-0.01853 -0.106097,-0.120698 -0.198936,-0.119594 -0.09284,0.0011 -0.129255,0.02979 -0.187167,0.07737 z"
           sodipodi:nodetypes="ssccssssszzssssscsscsssscccsssssssssssssssscss" />
      </g>
    </g>
  </g>
</svg>
