<?xml version="1.0" encoding="UTF-8" standalone="no"?>
<!-- Created with Inkscape (http://www.inkscape.org/) -->

<svg
   width="378.99634mm"
   height="75.352165mm"
   viewBox="0 0 378.99634 75.352164"
   version="1.1"
   id="svg5"
   inkscape:version="1.1.1 (3bf5ae0d25, 2021-09-20)"
   sodipodi:docname="loveletter.svg"
   xmlns:inkscape="http://www.inkscape.org/namespaces/inkscape"
   xmlns:sodipodi="http://sodipodi.sourceforge.net/DTD/sodipodi-0.dtd"
   xmlns="http://www.w3.org/2000/svg"
   xmlns:svg="http://www.w3.org/2000/svg">
  <sodipodi:namedview
     id="namedview7"
     pagecolor="#ffffff"
     bordercolor="#999999"
     borderopacity="1"
     inkscape:pageshadow="0"
     inkscape:pageopacity="0"
     inkscape:pagecheckerboard="0"
     inkscape:document-units="mm"
     showgrid="false"
     inkscape:zoom="0.93859298"
     inkscape:cx="904.01273"
     inkscape:cy="44.215119"
     inkscape:window-width="1920"
     inkscape:window-height="1002"
     inkscape:window-x="1912"
     inkscape:window-y="-8"
     inkscape:window-maximized="1"
     inkscape:current-layer="layer1"
     showguides="true"
     inkscape:guide-bbox="true"
     inkscape:object-paths="true"
     inkscape:snap-intersection-paths="true"
     inkscape:snap-smooth-nodes="true"
     inkscape:snap-midpoints="true"
     fit-margin-top="0"
     fit-margin-left="0"
     fit-margin-right="0"
     fit-margin-bottom="0">
    <sodipodi:guide
       position="218.03655,0.00039498072"
       orientation="1,0"
       id="guide10159" />
    <sodipodi:guide
       position="160.33844,0.00040498072"
       orientation="1,0"
       id="guide10199" />
    <sodipodi:guide
       position="96.994342,81.910673"
       orientation="1,0"
       id="guide14172" />
  </sodipodi:namedview>
  <defs
     id="defs2">
    <inkscape:path-effect
       effect="fillet_chamfer"
       id="path-effect16795"
       is_visible="true"
       lpeversion="1"
       satellites_param="F,0,1,1,0,5.0270833,0,1 @ F,0,0,1,0,0,0,1 @ F,0,0,1,0,0,0,1 @ F,0,1,1,0,5.0270833,0,1"
       unit="px"
       method="auto"
       mode="F"
       radius="19"
       chamfer_steps="1"
       flexible="false"
       use_knot_distance="true"
       apply_no_radius="true"
       apply_with_radius="true"
       only_selected="true"
       hide_knots="false" />
    <linearGradient
       id="linearGradient15124"
       inkscape:swatch="solid">
      <stop
         style="stop-color:#000000;stop-opacity:1;"
         offset="0"
         id="stop15122" />
    </linearGradient>
    <inkscape:path-effect
       effect="spiro"
       id="path-effect14176"
       is_visible="true"
       lpeversion="1" />
    <inkscape:path-effect
       effect="fillet_chamfer"
       id="path-effect2695"
       is_visible="true"
       lpeversion="1"
       satellites_param="F,0,1,1,0,1.3229167,0,1 @ F,0,1,1,0,1.3229167,0,1 @ F,0,0,1,0,0,0,1 @ F,0,0,1,0,0,0,1"
       unit="px"
       method="auto"
       mode="F"
       radius="5"
       chamfer_steps="1"
       flexible="false"
       use_knot_distance="true"
       apply_no_radius="true"
       apply_with_radius="true"
       only_selected="true"
       hide_knots="false" />
    <inkscape:path-effect
       effect="fillet_chamfer"
       id="path-effect2693"
       is_visible="true"
       lpeversion="1"
       satellites_param="F,0,1,1,0,1.3229167,0,1 @ F,0,1,1,0,1.3229167,0,1 @ F,0,0,1,0,0,0,1 @ F,0,0,1,0,0,0,1"
       unit="px"
       method="auto"
       mode="F"
       radius="5"
       chamfer_steps="1"
       flexible="false"
       use_knot_distance="true"
       apply_no_radius="true"
       apply_with_radius="true"
       only_selected="true"
       hide_knots="false" />
    <inkscape:path-effect
       effect="fillet_chamfer"
       id="path-effect2615"
       is_visible="true"
       lpeversion="1"
       satellites_param="F,0,1,1,0,1.3229167,0,1 @ F,0,1,1,0,1.3229167,0,1 @ F,0,0,1,0,0,0,1 @ F,0,0,1,0,0,0,1"
       unit="px"
       method="auto"
       mode="F"
       radius="5"
       chamfer_steps="1"
       flexible="false"
       use_knot_distance="true"
       apply_no_radius="true"
       apply_with_radius="true"
       only_selected="true"
       hide_knots="false" />
    <inkscape:path-effect
       effect="fillet_chamfer"
       id="path-effect2537"
       is_visible="true"
       lpeversion="1"
       satellites_param="F,0,0,1,0,1.3229167,0,1 @ F,0,0,1,0,1.3229167,0,1 @ F,0,0,1,0,1.3229167,0,1 @ F,0,0,1,0,1.3229167,0,1 @ F,0,0,1,0,1.3229167,0,1 @ F,0,0,1,0,1.3229167,0,1"
       unit="px"
       method="auto"
       mode="F"
       radius="5"
       chamfer_steps="1"
       flexible="false"
       use_knot_distance="true"
       apply_no_radius="true"
       apply_with_radius="true"
       only_selected="false"
       hide_knots="false" />
    <inkscape:path-effect
       effect="fillet_chamfer"
       id="path-effect1822"
       is_visible="true"
       lpeversion="1"
       satellites_param="F,0,0,1,0,0,0,1 @ F,0,0,1,0,0,0,1 @ F,0,1,1,0,59.562698,0,1"
       unit="px"
       method="auto"
       mode="F"
       radius="83"
       chamfer_steps="1"
       flexible="false"
       use_knot_distance="true"
       apply_no_radius="true"
       apply_with_radius="true"
       only_selected="true"
       hide_knots="false" />
    <inkscape:path-effect
       effect="fillet_chamfer"
       id="path-effect1800"
       is_visible="true"
       lpeversion="1"
       satellites_param="F,0,0,1,0,0,0,1 @ F,0,0,1,0,0,0,1 @ F,0,0,1,0,0,0,1"
       unit="px"
       method="auto"
       mode="F"
       radius="0"
       chamfer_steps="1"
       flexible="false"
       use_knot_distance="true"
       apply_no_radius="true"
       apply_with_radius="true"
       only_selected="false"
       hide_knots="false" />
    <inkscape:path-effect
       effect="fillet_chamfer"
       id="path-effect1570"
       is_visible="true"
       lpeversion="1"
       satellites_param="F,0,0,1,0,0,0,1 @ F,0,0,1,0,0,0,1 @ F,0,1,1,0,5.2916667,0,1 @ F,0,1,1,0,5.2916667,0,1"
       unit="px"
       method="auto"
       mode="F"
       radius="20"
       chamfer_steps="1"
       flexible="false"
       use_knot_distance="true"
       apply_no_radius="true"
       apply_with_radius="true"
       only_selected="true"
       hide_knots="false" />
    <inkscape:path-effect
       effect="spiro"
       id="path-effect859"
       is_visible="true"
       lpeversion="1" />
  </defs>
  <g
     inkscape:label="Ebene 1"
     inkscape:groupmode="layer"
     id="layer1"
     transform="translate(169.58194,-21.81599)">
    <path
       style="fill:none;fill-opacity:0.917647;fill-rule:evenodd;stroke:#ad7fa8;stroke-width:1;stroke-linecap:round;stroke-linejoin:round;stroke-miterlimit:4;stroke-dasharray:4, 4;stroke-dashoffset:0;stroke-opacity:1;paint-order:fill markers stroke"
       d="m -169.08194,64.177467 c 7.83128,7.653636 16.43336,14.518154 25.63387,20.455987 8.74919,5.646565 18.50606,10.578024 28.91906,10.619079 5.2065,0.02052 10.47536,-1.24156 14.874652,-4.02621 4.39929,-2.784649 7.868048,-7.151152 9.151685,-12.196972 0.883829,-3.474225 0.712959,-7.232156 -0.623606,-10.558561 -1.336568,-3.326405 -3.856168,-6.190158 -7.054971,-7.808506 -3.1988,-1.618348 -7.0586,-1.942958 -10.43687,-0.74349 -3.37826,1.199468 -6.20418,3.943237 -7.36887,7.333648 -0.6992,2.035362 -0.80758,4.254847 -0.42333,6.372373 0.38426,2.117528 1.25143,4.13412 2.42746,5.936489 2.35206,3.604738 5.8717,6.300568 9.58359,8.47961 7.904642,4.640378 16.949927,7.221068 26.091487,7.890673 9.14156,0.669604 18.376773,-0.542087 27.172173,-3.122288 14.069355,-4.127356 27.085138,-11.795016 37.51505,-22.100294"
       id="path857"
       sodipodi:nodetypes="csssssc"
       inkscape:label="line" />
    <g
       id="g2919"
       transform="matrix(0.94709427,0,0,1,-9.8446223,-95.13717)"
       inkscape:label="mail">
      <path
         id="path1661"
         inkscape:transform-center-y="-5.4769602"
         d="M 67.470312,153.10056 H -5.2797086 c -0.4764069,0 -0.7010666,-0.57269 -0.3459747,-0.88194 l 28.4436373,-19.4795 c 3.678822,-3.20384 12.529752,-2.75647 16.554699,0 l 28.443634,19.4795 c 0.355092,0.30925 0.130432,0.88194 -0.345975,0.88194 z"
         style="display:inline;fill:#ebbf7a;fill-opacity:1;fill-rule:evenodd;stroke:none;stroke-width:1.00732;stroke-linecap:round;stroke-linejoin:round;stroke-miterlimit:4;stroke-dasharray:none;stroke-dashoffset:0;stroke-opacity:1;paint-order:fill markers stroke"
         sodipodi:nodetypes="ccccscc"
         inkscape:label="top" />
      <path
         id="rect1529"
         style="opacity:1;fill:#e9b96e;fill-opacity:0.917647;fill-rule:evenodd;stroke:none;stroke-width:1;stroke-miterlimit:4;stroke-dasharray:none;stroke-opacity:1;stop-color:#000000;stop-opacity:1"
         d="M -4.6569489,151.8886 H 66.847555 a 1.3229167,1.3229167 45 0 1 1.322917,1.32292 v 32.47882 c 0,0.73063 0.01652,1.92606 -0.163239,2.63227 -0.476097,1.8704 -1.948508,3.34287 -3.818885,3.81903 -0.706312,0.17982 -1.901833,0.16329 -2.63246,0.16329 H 0.6347178 c -0.73062672,0 -1.9260549,0.0165 -2.6322688,-0.16324 -1.8704045,-0.4761 -3.3428622,-1.94851 -3.8190269,-3.81889 -0.1798146,-0.70631 -0.1632877,-1.90183 -0.1632877,-2.63246 v -32.47882 a 1.3229167,1.3229167 135 0 1 1.3229167,-1.32292 z"
         sodipodi:nodetypes="ccssssc"
         inkscape:label="mail-body" />
      <g
         id="g2928"
         inkscape:label="open"
         style="display:inline">
        <path
           id="path2171"
           inkscape:transform-center-y="-5.4769603"
           d="m 65.177861,191.77576 c -0.923045,0.50473 -1.663495,0.52917 -3.621973,0.52917 -20.306061,0 -40.616282,-0.16643 -60.9215832,4e-5 -2.0461496,0 -2.637545,-0.0523 -3.6215619,-0.52917 -0.4529749,-0.24186 -0.7820447,-0.59352 -0.4193123,-0.9462 L 23.681101,166.65181 c 3.2952,-3.20384 11.533204,-3.20384 14.828404,0 l 27.087669,24.17775 c 0.362732,0.35268 0.195066,0.60182 -0.419313,0.9462 z"
           style="fill:#f7cf90;fill-opacity:1;fill-rule:evenodd;stroke:none;stroke-width:1.00069;stroke-linecap:round;stroke-linejoin:round;stroke-miterlimit:4;stroke-dasharray:none;stroke-dashoffset:0;stroke-opacity:1;paint-order:fill markers stroke"
           inkscape:label="open-lower"
           sodipodi:nodetypes="csccccccc" />
        <path
           id="path2516"
           style="fill:#d6af72;fill-opacity:1;fill-rule:evenodd;stroke:none;stroke-width:1.0585;stroke-linecap:round;stroke-linejoin:round;stroke-miterlimit:4;stroke-dasharray:none;stroke-dashoffset:0;stroke-opacity:1;paint-order:fill markers stroke"
           inkscape:transform-center-y="5.4769573"
           d="m -4.8042094,151.8886 c -0.475627,1.1e-4 -0.6997841,0.57191 -0.3451987,0.88057 l 22.5070501,20.04322 6.323645,-6.14846 c 3.2952,-3.20384 11.532835,-3.20384 14.828036,0 l 6.323645,6.14846 22.507046,-20.04322 c 0.354586,-0.30866 0.13043,-0.88046 -0.345198,-0.88057 z"
           inkscape:label="open-upper"
           sodipodi:nodetypes="ccccccccc" />
      </g>
      <g
         id="g3073"
         inkscape:label="closed"
         style="display:inline">
        <path
           id="path2171-1"
           style="display:inline;fill:#d6af72;fill-opacity:1;fill-rule:evenodd;stroke:none;stroke-width:3.68073;stroke-linecap:round;stroke-linejoin:round;stroke-miterlimit:4;stroke-dasharray:none;stroke-dashoffset:0;stroke-opacity:1;paint-order:fill markers stroke"
           inkscape:label="closed-lower"
           inkscape:transform-center-y="-5.4769603"
           d="m 25.875,293.68359 -70.103516,69.91407 c -1.298729,1.33332 -0.129878,3.0336 3.501954,3.57617 H 193.27539 c 1.85741,-8.8e-4 2.79807,-2.24353 1.5,-3.57617 l -70.10156,-69.91211 -19.87891,18.3457 c -13.120482,12.109 -45.92053,12.109 -59.041014,0 z"
           transform="matrix(0.27936325,0,0,0.26458333,10.394554,95.13717)"
           sodipodi:nodetypes="ccccccccc" />
        <path
           id="path2921"
           inkscape:transform-center-y="5.4769603"
           d="m -4.8724469,157.83263 c 7.7543985,7.07274 28.0487589,19.86271 28.0487589,19.86271 3.66538,3.20384 12.828837,3.20384 16.494217,0 L 67.072136,157.7658 c 2.045873,-1.87688 2.017847,-6.14313 -0.753416,-6.16444 -13.446623,-0.10343 -56.882,0.0397 -70.3388341,0.0977 -2.7763468,0.012 -2.8959526,4.26961 -0.8523328,6.13358 z"
           style="fill:#f7cf90;fill-opacity:1;fill-rule:evenodd;stroke:none;stroke-width:1.0554;stroke-linecap:round;stroke-linejoin:round;stroke-miterlimit:4;stroke-dasharray:none;stroke-dashoffset:0;stroke-opacity:1;paint-order:fill markers stroke"
           inkscape:label="closed-upper"
           sodipodi:nodetypes="cccccccc" />
      </g>
    </g>
    <g
       id="g15576"
       inkscape:label="hearts"
       style="display:inline">
      <path
         style="fill:#ad7fa8;fill-opacity:1;fill-rule:evenodd;stroke:none;stroke-width:0.499999;stroke-linecap:round;stroke-linejoin:round;stroke-miterlimit:4;stroke-dasharray:none;stroke-dashoffset:0;stroke-opacity:1;paint-order:fill markers stroke"
         d="m 28.325216,56.75143 c 0.823346,-2.272423 0.772922,-4.607279 -0.839637,-6.270859 -0.854515,-0.854516 -2.055541,-1.351998 -3.264009,-1.351998 -1.208468,0 -2.409495,0.497481 -3.26401,1.351997 -0.854516,0.854516 -1.351998,2.055542 -1.351999,3.26401 -1e-6,-1.208468 -0.497483,-2.409494 -1.351999,-3.26401 -0.854515,-0.854516 -2.055542,-1.351997 -3.26401,-1.351997 -1.208468,0 -2.409494,0.497482 -3.264009,1.351998 -1.612559,1.66358 -1.662983,3.998436 -0.839637,6.270859 1.754054,4.064847 6.567553,4.573174 8.719655,8.51555 2.152102,-3.942376 6.965601,-4.450703 8.719655,-8.51555 z"
         id="path14642"
         sodipodi:nodetypes="ccsscsscccc"
         inkscape:label="bottom-heart" />
      <path
         style="fill:#7d5879;fill-opacity:1;fill-rule:evenodd;stroke:none;stroke-width:0.363975;stroke-linecap:round;stroke-linejoin:round;stroke-miterlimit:4;stroke-dasharray:none;stroke-dashoffset:0;stroke-opacity:1;paint-order:fill markers stroke"
         d="m 35.640993,37.200384 c 0.599354,-1.654212 0.562648,-3.353874 -0.611215,-4.564878 -0.622046,-0.622046 -1.496333,-0.984188 -2.376039,-0.984188 -0.879705,0 -1.753994,0.362142 -2.37604,0.984187 -0.622045,0.622047 -0.984187,1.496334 -0.984188,2.37604 -10e-7,-0.879706 -0.362143,-1.753993 -0.984188,-2.37604 -0.622046,-0.622045 -1.496335,-0.984187 -2.37604,-0.984187 -0.879706,0 -1.753993,0.362142 -2.376039,0.984188 -1.173863,1.211004 -1.210569,2.910666 -0.611215,4.564878 1.276865,2.95901 4.780857,3.329046 6.347482,6.198903 1.566625,-2.869857 5.070617,-3.239893 6.347482,-6.198903 z"
         id="path15031"
         sodipodi:nodetypes="ccsscsscccc"
         inkscape:label="middle-heart" />
      <path
         style="fill:#ad7fa8;fill-opacity:1;fill-rule:evenodd;stroke:none;stroke-width:0.240463;stroke-linecap:round;stroke-linejoin:round;stroke-miterlimit:4;stroke-dasharray:none;stroke-dashoffset:0;stroke-opacity:1;paint-order:fill markers stroke"
         d="m 19.413842,25.482025 c 0.395969,-1.092868 0.371719,-2.215763 -0.403804,-3.015824 -0.410959,-0.410959 -0.988565,-0.650211 -1.56975,-0.650211 -0.581184,0 -1.15879,0.239252 -1.56975,0.650211 -0.410959,0.41096 -0.650211,0.988565 -0.650212,1.56975 -10e-7,-0.581185 -0.239253,-1.15879 -0.650213,-1.56975 -0.410959,-0.410959 -0.988565,-0.650211 -1.569749,-0.650211 -0.581185,0 -1.158791,0.239252 -1.56975,0.650211 -0.775523,0.800061 -0.799773,1.922956 -0.403804,3.015824 0.843572,1.954895 3.158512,2.199363 4.193516,4.095356 1.035004,-1.895993 3.349944,-2.140461 4.193516,-4.095356 z"
         id="path15033"
         sodipodi:nodetypes="ccsscsscccc"
         inkscape:label="top-heart" />
    </g>
  </g>
</svg>
