<?xml version="1.0" encoding="UTF-8" standalone="no"?>
<!-- Created with Inkscape (http://www.inkscape.org/) -->

<svg
   width="14.500128mm"
   height="12.188991mm"
   viewBox="0 0 14.500129 12.188991"
   version="1.1"
   id="svg5"
   inkscape:version="1.1.1 (3bf5ae0d25, 2021-09-20)"
   sodipodi:docname="morph-objects.svg"
   xmlns:inkscape="http://www.inkscape.org/namespaces/inkscape"
   xmlns:sodipodi="http://sodipodi.sourceforge.net/DTD/sodipodi-0.dtd"
   xmlns="http://www.w3.org/2000/svg"
   xmlns:svg="http://www.w3.org/2000/svg">
  <sodipodi:namedview
     id="namedview7"
     pagecolor="#ffffff"
     bordercolor="#999999"
     borderopacity="1"
     inkscape:pageshadow="0"
     inkscape:pageopacity="0"
     inkscape:pagecheckerboard="0"
     inkscape:document-units="mm"
     showgrid="false"
     inkscape:zoom="10.618967"
     inkscape:cx="47.132645"
     inkscape:cy="19.634678"
     inkscape:window-width="1920"
     inkscape:window-height="1002"
     inkscape:window-x="-8"
     inkscape:window-y="-8"
     inkscape:window-maximized="1"
     inkscape:current-layer="g11187"
     fit-margin-top="0"
     fit-margin-left="0"
     fit-margin-right="0"
     fit-margin-bottom="0"
     inkscape:object-paths="true"
     inkscape:snap-intersection-paths="true"
     inkscape:snap-smooth-nodes="true"
     inkscape:snap-midpoints="true" />
  <defs
     id="defs2" />
  <g
     inkscape:label="Ebene 1"
     id="layer1"
     transform="translate(-50.156647,-204.04903)">
    <g
       id="g11187"
       inkscape:label="fishtail">
      <path
         style="display:inline;fill:none;fill-rule:evenodd;stroke:#2b1100;stroke-width:0.1;stroke-miterlimit:4;stroke-dasharray:none;stroke-opacity:1;stop-color:#000000"
         d="m 58.156985,212.40374 c 0.142944,-1.50551 1.992996,-1.25914 3.657861,-2.79324 1.740499,-1.60379 1.822769,-2.91917 1.32409,-3.85098 -0.09305,-0.17379 -0.245965,-0.10883 -0.27792,0.0253 -0.0345,0.14491 -0.09388,0.54252 -0.416099,0.72186 -0.322145,0.17943 -1.12568,0.004 -1.431893,0.002 -1.056698,-0.006 -3.606097,0.32675 -3.606256,1.82239 0.756664,1.43108 0.768593,3.42485 0.750217,4.07267 z"
         id="path9232"
         sodipodi:nodetypes="cscccccc"
         inkscape:label="re-o" />
      <path
         style="display:inline;fill:none;fill-rule:evenodd;stroke:#2b1100;stroke-width:0.1;stroke-miterlimit:4;stroke-dasharray:none;stroke-opacity:1;stop-color:#000000"
         d="m 58.156913,212.40374 c 0.01272,0.1997 0.02881,0.40056 0.04986,0.5987 0.08184,0.77051 0.181038,1.16712 0.313914,1.52862"
         id="path132"
         inkscape:label="bod-re-u" />
      <path
         style="display:inline;fill:none;fill-rule:evenodd;stroke:#2b1100;stroke-width:0.1;stroke-miterlimit:4;stroke-dasharray:none;stroke-opacity:1;stop-color:#000000"
         d="m 57.40677,208.33116 c 0.756662,1.43099 0.768591,3.42476 0.750143,4.07258"
         id="path10405"
         inkscape:label="bod-re-o" />
      <path
         style="display:inline;fill:none;fill-rule:evenodd;stroke:#2b1100;stroke-width:0.1;stroke-miterlimit:4;stroke-dasharray:none;stroke-opacity:1;stop-color:#000000"
         d="m 53.800379,206.50869 c -0.306196,0.002 -1.109741,0.17743 -1.431895,-0.002 -0.322137,-0.17934 -0.381585,-0.57695 -0.416082,-0.72186 -0.01802,-0.0755 -0.07419,-0.12912 -0.136545,-0.1305 l 10e-7,-1.4e-4 c -0.0484,-0.001 -0.100663,0.0292 -0.141379,0.10532 -0.498666,0.93182 -0.416405,2.24721 1.324101,3.85099 1.664872,1.53411 3.515077,1.28769 3.657934,2.79325 -0.01829,-0.64799 -0.0063,-2.64171 0.750254,-4.07268 -1.31e-4,-1.49563 -2.549681,-1.82894 -3.606389,-1.82238 z"
         id="path10411"
         sodipodi:nodetypes="cccccccccc"
         inkscape:label="li-o" />
      <path
         style="display:inline;fill:none;fill-rule:evenodd;stroke:#2b1100;stroke-width:0.1;stroke-miterlimit:4;stroke-dasharray:none;stroke-opacity:1;stop-color:#000000"
         d="m 56.656515,212.40375 c -0.01829,-0.64799 -0.0063,-2.64171 0.750256,-4.07259"
         id="path155"
         inkscape:label="body-li-o" />
      <path
         style="display:inline;fill:none;fill-rule:evenodd;stroke:#2b1100;stroke-width:0.1;stroke-miterlimit:4;stroke-dasharray:none;stroke-opacity:1;stop-color:#000000"
         d="m 56.292741,214.53107 c 0.132876,-0.3615 0.232071,-0.75811 0.313914,-1.52862 0.02104,-0.19814 0.03714,-0.399 0.04986,-0.5987"
         id="path11698"
         inkscape:label="bod-li-u" />
      <path
         style="fill:#000000;fill-opacity:0.7;fill-rule:evenodd;stroke:#2b1100;stroke-width:0.1;stroke-linecap:round;stroke-linejoin:round;paint-order:markers stroke fill;stop-color:#000000"
         d="m 57.40677,208.33116 v -0.27064"
         id="path269"
         inkscape:label="fake-body" />
    </g>
    <g
       id="g9226"
       inkscape:label="shell"
       style="display:none">
      <path
         style="display:inline;fill:none;fill-rule:evenodd;stroke:#2b1100;stroke-width:0.1;stroke-miterlimit:4;stroke-dasharray:none;stroke-opacity:1"
         d="m 58.917719,213.41241 c -0.476163,0.59093 -0.86285,1.13178 -1.052898,1.58379 -0.02318,0.0107 -0.04677,0.0206 -0.07063,0.0297 0.49552,-1.61244 1.479881,-3.47428 2.254334,-5.07145 0.401266,-0.82753 0.745786,-1.58364 0.936306,-2.20451 0.09523,-0.31041 0.152857,-0.58707 0.15668,-0.82582 0.0014,-0.0476 -0.0019,-0.0926 -0.0058,-0.13743 l -1.44e-4,-5e-5 c 0.706772,0.38623 1.253462,0.91308 1.368127,1.72607 -5.46e-4,0.0834 -0.01807,0.17751 -0.05066,0.28262 -0.06612,0.21346 -0.195244,0.46578 -0.296378,0.78989 0.254834,-0.23719 0.391215,-0.50034 0.464741,-0.73787 0.0058,-0.0213 0.0091,-0.0418 0.01548,-0.063 l 6.1e-5,7e-5 c 0.55066,0.37606 0.499493,1.73207 0.127424,2.51726 -0.535369,1.12985 -2.301199,1.14175 -3.267322,2.09031 -0.6125,0.60137 -0.970867,1.12478 -1.352537,1.42759 0.202656,-0.37436 0.526499,-0.82008 0.910525,-1.29671 0.509278,-0.63205 1.123346,-1.32171 1.632902,-2.05155 -0.641901,0.61339 -1.256836,1.3039 -1.770211,1.94109 z"
         id="path8197"
         sodipodi:nodetypes="cccccccccccccccccccc"
         inkscape:label="teil-6" />
      <path
         style="display:inline;fill:none;fill-rule:evenodd;stroke:#2b1100;stroke-width:0.1;stroke-miterlimit:4;stroke-dasharray:none;stroke-opacity:1"
         d="m 58.812459,205.55341 c 0.694902,0.0478 1.538713,0.13099 2.104967,1.04579 0.03252,0.0886 0.04998,0.19385 0.04771,0.32178 -0.0038,0.21247 -0.0563,0.47625 -0.148665,0.77728 -0.184746,0.60209 -0.526612,1.35419 -0.92673,2.17937 -0.788969,1.62712 -1.804085,3.53823 -2.296578,5.2027 -0.03195,0.005 -0.06465,0.009 -0.09815,0.0125 8.01e-4,-1.71477 0.551847,-3.99176 0.964451,-5.93162 0.206457,-0.97061 0.378098,-1.85715 0.427259,-2.55435 0.0245,-0.34859 0.0191,-0.64975 -0.03147,-0.89468 -0.01147,-0.0557 -0.02627,-0.10808 -0.04292,-0.15821 z"
         id="path8195"
         inkscape:label="teil-5" />
      <path
         style="display:inline;fill:none;fill-rule:evenodd;stroke:#2b1100;stroke-width:0.1;stroke-miterlimit:4;stroke-dasharray:none;stroke-opacity:1"
         d="m 57.406708,205.09242 c 0.86907,6e-5 1.194168,0.41044 1.194168,0.41044 0,0 0.06167,0.14749 0.08159,0.24429 0.04513,0.21901 0.05239,0.50737 0.02906,0.84675 -0.0478,0.67881 -0.218033,1.56118 -0.424067,2.52986 -0.31231,1.46831 -0.707262,3.13454 -0.880284,4.61841 -0.173118,-1.48387 -0.568248,-3.1501 -0.880571,-4.61841 -0.206029,-0.96866 -0.375842,-1.85106 -0.423715,-2.52985 -0.02393,-0.3394 -0.0175,-0.62775 0.02821,-0.84679 0.02,-0.0966 0.0816,-0.24418 0.0816,-0.24418 0,0 0.325354,-0.41054 1.19441,-0.41053 z"
         id="path8193"
         inkscape:label="teil-4" />
      <path
         style="display:inline;fill:none;fill-rule:evenodd;stroke:#2b1100;stroke-width:0.1;stroke-miterlimit:4;stroke-dasharray:none;stroke-opacity:1"
         d="m 59.546731,213.53486 c 0.371594,-0.43419 1.161425,-0.72584 1.161425,-0.72584 0,0 0.05847,0.42239 0.07111,0.89919 0.0125,0.48335 0.04566,1.07543 -0.368846,1.22962 -0.313244,0.11656 -0.49506,-0.26167 -1.176921,-0.26789 -0.303016,-0.003 -1.038161,0.25211 -1.038161,0.25211 0.309328,-0.14847 1.028751,-1.01029 1.351346,-1.38719 z"
         id="path8191"
         inkscape:label="teil-7" />
      <path
         style="display:inline;fill:none;fill-rule:evenodd;stroke:#2b1100;stroke-width:0.1;stroke-miterlimit:4;stroke-dasharray:none;stroke-opacity:1"
         d="m 55.266667,213.53491 c -0.371582,-0.43417 -1.16141,-0.72587 -1.16141,-0.72587 0,0 -0.05822,0.4224 -0.07118,0.8992 -0.01306,0.48334 -0.04557,1.07543 0.368893,1.22962 0.31325,0.11644 0.495062,-0.26167 1.176919,-0.26786 0.303022,-0.002 1.038145,0.25205 1.038145,0.25205 -0.309288,-0.14849 -1.028729,-1.01029 -1.35133,-1.38718 z"
         id="path8189"
         inkscape:label="teil-1" />
      <path
         style="display:inline;fill:none;fill-rule:evenodd;stroke:#2b1100;stroke-width:0.1;stroke-miterlimit:4;stroke-dasharray:none;stroke-opacity:1"
         d="m 52.58241,209.63261 c -0.180443,-0.28453 -0.316854,-0.54768 -0.390367,-0.78521 -0.0068,-0.0213 -0.0099,-0.0418 -0.01556,-0.063 l -5e-6,6e-5 c -0.550654,0.37609 -0.499483,1.73209 -0.127425,2.51728 0.535372,1.12984 2.301185,1.14173 3.267321,2.09029 0.612516,0.60136 0.970882,1.12479 1.352547,1.42761 -0.202655,-0.37438 -0.526491,-0.82009 -0.910527,-1.29671 -0.509275,-0.63205 -1.123338,-1.32172 -1.632935,-2.05156 0.6419,0.61338 1.256807,1.3039 1.770208,1.94107 0.47615,0.59094 0.862806,1.13178 1.052894,1.58378 0.02319,0.0109 0.04686,0.0206 0.07052,0.0296 -0.495489,-1.61247 -1.479876,-3.4743 -2.254329,-5.07146 -0.401259,-0.82754 -0.745788,-1.58369 -0.936302,-2.20451 -0.09521,-0.31041 -0.152562,-0.58715 -0.156656,-0.82583 -7.52e-4,-0.0475 0.0016,-0.0928 0.0056,-0.13741 l 4.47e-4,8e-5 c -0.706776,0.38625 -1.25347,0.91308 -1.368125,1.72607 0.0015,0.0835 0.01804,0.17754 0.05058,0.28263 0.06603,0.21344 0.195242,0.46577 0.370775,0.74257"
         id="path8187"
         sodipodi:nodetypes="cccccccscscccccccccc"
         inkscape:label="teil-2" />
      <path
         style="display:inline;fill:none;fill-rule:evenodd;stroke:#2b1100;stroke-width:0.1;stroke-miterlimit:4;stroke-dasharray:none;stroke-opacity:1"
         d="m 56.000958,205.55347 c -0.694914,0.0479 -1.538723,0.13108 -2.104968,1.04578 -0.03248,0.0886 -0.04973,0.19392 -0.0477,0.32181 0.0041,0.21245 0.05633,0.47623 0.148643,0.77727 0.184746,0.60209 0.526607,1.35417 0.926745,2.17936 0.788965,1.62713 1.804088,3.53822 2.296584,5.2027 0.03206,0.006 0.0646,0.01 0.09823,0.012 -7.19e-4,-1.71477 -0.551824,-3.99178 -0.96445,-5.93162 -0.206455,-0.97061 -0.378091,-1.85716 -0.427276,-2.55436 -0.02453,-0.34859 -0.01929,-0.64975 0.03125,-0.89468 0.01134,-0.0558 0.02593,-0.10807 0.04298,-0.15822 z"
         id="path11684"
         inkscape:label="teil-3" />
    </g>
    <g
       id="g8159"
       inkscape:label="monstera"
       style="display:none">
      <path
         style="display:inline;fill:none;stroke:#2b1100;stroke-width:0.0999998;stroke-miterlimit:4;stroke-dasharray:none;stroke-opacity:1"
         d="m 57.406426,205.6054 c 7e-5,0.0228 5.56e-4,0.0457 5.66e-4,0.0685 0.02115,0.039 0.0446,0.0781 0.07111,0.11726 0.190593,0.2819 0.425078,0.52821 0.680731,0.75183 0.50734,0.44381 1.075261,0.80862 1.60075,1.22912 0.898319,0.71883 1.706842,1.70959 2.117508,2.81507 0.08669,-0.31872 0.116561,-0.48634 0.135539,-0.66419 -0.220827,-0.69497 -0.764164,-1.30932 -1.199951,-1.92842 -0.425029,-0.60383 -1.857461,-1.12679 -1.375827,-1.73629 0.549285,-0.75201 1.740202,0.56456 2.032326,1.05266 0.426514,0.69271 0.513663,1.50114 0.609914,2.24578 0.07326,-0.20773 0.248407,-0.51167 0.303145,-0.71178 0.06605,-0.27152 0.111575,-0.56789 0.130312,-0.87403 -0.171471,-0.22076 -0.315599,-0.46997 -0.457546,-0.68523 -0.356752,-0.53946 -0.77499,-1.09832 -1.307771,-1.47711 -0.976595,-0.69439 -2.323441,-0.91912 -3.34067,-0.20316 z"
         id="path8014"
         inkscape:label="blatt-6" />
      <path
         style="display:inline;fill:none;stroke:#2b1100;stroke-width:0.0999998;stroke-miterlimit:4;stroke-dasharray:none;stroke-opacity:1"
         d="m 57.392926,204.89565 c 0.0049,0.1161 0.0087,0.23213 0.01044,0.34828 9.97e-4,0.0642 9.29e-4,0.12848 0.0014,0.19271 1.022484,-0.66766 2.39269,-0.47502 3.36665,0.21738 0.8852,0.49712 1.583087,1.7718 1.7495,2.09037 0.01591,-0.99094 -0.262527,-2.04721 -1.062531,-2.69114 -1.183769,-0.96398 -3.274513,-1.41573 -4.060729,-0.165 -0.0015,0.003 -0.0036,0.005 -0.0052,0.007 z"
         id="path8012"
         inkscape:label="blatt-7" />
      <path
         style="display:inline;fill:none;stroke:#2b1100;stroke-width:0.0999998;stroke-miterlimit:4;stroke-dasharray:none;stroke-opacity:1"
         d="m 57.361876,208.05827 c 0.0017,0.005 0.0034,0.009 0.0051,0.0141 0.20846,0.52714 0.672669,0.94428 1.037712,1.36291 0.537776,0.61672 0.991901,1.29494 1.32489,2.04408 0.209751,0.47187 0.397764,0.98031 0.461173,1.4986 0.217789,-0.25684 0.428646,-0.53632 0.629213,-0.83093 0.116347,-0.17084 0.229054,-0.34692 0.337681,-0.52647 -0.01433,-0.22285 -0.06042,-0.60753 -0.15164,-0.82875 -0.259699,-0.62985 -1.100794,-1.51482 -0.913639,-1.75951 0.264308,-0.34556 1.129242,1.25927 1.257845,2.38568 0.215042,-0.24519 0.360435,-0.49184 0.472493,-0.76447 -0.46979,-1.20434 -1.313148,-2.207 -2.37102,-2.94508 -0.562128,-0.39215 -1.160806,-0.75653 -1.644145,-1.24828 -0.147944,-0.15059 -0.290345,-0.31057 -0.402107,-0.48961 -0.0051,0.69583 -0.02768,1.39208 -0.04368,2.08775 z"
         id="path8010"
         inkscape:label="blatt-5" />
      <path
         style="display:inline;fill:none;stroke:#2b1100;stroke-width:0.0999998;stroke-miterlimit:4;stroke-dasharray:none;stroke-opacity:1"
         d="m 53.994496,204.92481 c 0.09669,-0.009 0.193849,-0.0157 0.291683,-0.0167 0.404166,-0.004 0.792964,0.0511 1.188341,0.12799 0.413032,0.0802 0.829269,0.17678 1.220411,0.33449 0.19429,0.0933 0.365628,0.1514 0.502241,0.29081 0.0034,-0.14487 -0.0028,-0.34682 -0.0093,-0.4368 -0.536474,-1.02464 -2.412683,-0.77438 -3.193093,-0.29981 z"
         id="path8004"
         inkscape:label="blatt-1" />
      <path
         style="display:inline;fill:none;stroke:#2b1100;stroke-width:0.0999998;stroke-miterlimit:4;stroke-dasharray:none;stroke-opacity:1"
         d="m 53.768263,212.02046 c 0.400268,0.51697 0.898009,1.10681 1.191097,1.38454 -0.5682,-1.92904 0.428467,-3.76405 1.509337,-3.87615 0.253009,-0.0263 0.394091,0.37804 -0.08591,0.98954 -0.308859,0.42962 -0.58109,0.92916 -0.782022,1.46246 -0.140661,0.45227 -0.227095,1.00727 -0.214916,1.54604 0.672845,0.47636 1.429093,0.88238 1.969779,1.488 0.238459,0.29415 0.385212,0.6839 0.583506,0.98983 l 0.0016,0.0215 c -3.69e-4,-0.007 -2.23e-4,-0.0131 -4.44e-4,-0.0197 0.01191,0.0184 0.02408,0.0366 0.0364,0.0543 l -0.02334,-0.33666 c 0.06178,-0.46014 0.315882,-0.84421 0.639665,-1.19299 0.08688,-0.71337 0.08514,-1.39839 -0.301691,-2.11068 -0.622323,-1.11641 0.331223,-1.06518 0.591629,-0.40008 0.175256,0.41377 0.76412,1.14882 0.11609,2.25565 0.215657,-0.19117 0.602291,-0.67209 0.794065,-0.8627 0.111766,-0.11279 0.222183,-0.23317 0.331152,-0.35857 -0.07814,-0.60539 -0.315674,-1.19591 -0.607449,-1.72149 -0.408324,-0.73538 -0.917131,-1.39197 -1.477117,-2.01651 -0.259186,-0.289 -0.518872,-0.56969 -0.684791,-0.90914 -0.0014,0.0762 -0.0031,0.15247 -0.0042,0.2287 -0.01644,1.12734 -0.05836,2.27008 0.01219,3.39596 0.06778,1.08188 0.305846,2.14598 0.474233,3.21486 0.0038,0.0232 -0.03054,0.0348 -0.03586,0.0107 -0.14717,-0.66612 -0.338729,-1.32264 -0.461609,-1.99416 -0.19861,-1.0856 -0.203716,-2.17626 -0.202431,-3.27653 l 0.0075,-2.43067 c -0.138756,0.216 -0.306936,0.41474 -0.500503,0.58249 -0.472533,0.40966 -1.04859,0.67253 -1.537192,1.06006 -0.552355,0.43819 -0.9495,1.03989 -1.14205,1.71801 -0.102431,0.36065 -0.161136,0.73069 -0.196627,1.10344 z"
         id="path8002"
         inkscape:label="blatt-4" />
      <path
         style="display:inline;fill:none;stroke:#2b1100;stroke-width:0.0999998;stroke-miterlimit:4;stroke-dasharray:none;stroke-opacity:1"
         d="m 52.308127,208.21644 c 0.468132,-0.76887 1.63787,-0.95918 2.520489,-1.11317 0.53182,-0.11173 1.090707,-0.2274 1.568537,-0.49789 0.268872,-0.15214 0.608925,-0.33814 0.788261,-0.60802 4.15e-4,-0.0497 0.0014,-0.0995 0.0025,-0.14918 -0.153889,-0.17212 -0.552599,-0.31158 -0.733987,-0.37323 -0.367673,-0.12508 -0.747881,-0.21308 -1.128989,-0.28603 -0.38108,-0.0729 -0.761958,-0.13106 -1.151624,-0.12349 -0.137768,0.003 -0.273466,0.0123 -0.407772,0.0271 -0.266253,0.21746 -0.839867,0.96669 -1.039018,1.26713 0.859611,-0.6583 2.14643,-0.52398 2.263782,-0.1528 0.260433,0.66509 -1.052016,0.32787 -1.369008,0.34523 -0.340516,0.0186 -0.706958,0.13301 -1.036841,0.2895 -0.149912,0.41422 -0.24238,0.94544 -0.276297,1.37481 z"
         id="path8000"
         inkscape:label="blatt-2" />
      <path
         style="display:inline;fill:none;stroke:#2b1100;stroke-width:0.0999998;stroke-miterlimit:4;stroke-dasharray:none;stroke-opacity:1"
         d="m 52.292597,208.39348 c -0.0054,0.29832 0.01973,0.59017 0.07793,0.86532 0.08477,0.40934 0.362414,1.47764 0.721508,1.78795 -0.08193,-0.56285 -0.17188,-1.23034 0.07749,-1.76314 0.355907,-0.76041 1.019939,-1.43288 1.861379,-1.69682 0.385825,-0.11365 0.689427,-0.15107 0.717008,0.2004 0.02881,0.36713 -0.628675,0.62435 -0.932644,0.75982 -0.814801,0.36311 -1.626465,1.67458 -1.528346,2.81362 0.08943,0.13572 0.215103,0.30998 0.359592,0.50094 0.02611,-0.31255 0.0768,-0.62266 0.161224,-0.92641 0.166956,-0.60072 0.44112,-1.2201 0.890999,-1.6636 0.434441,-0.42816 0.976994,-0.72007 1.483503,-1.05178 0.32632,-0.21373 0.73209,-0.49935 0.946287,-0.85893 l 0.05268,-1.19444 c -0.630084,0.78318 -1.874843,1.05294 -2.800271,1.2461 -0.524134,0.10941 -1.07852,0.21717 -1.544012,0.49527 -0.214096,0.12791 -0.398864,0.29254 -0.544324,0.4857 z"
         id="path11312"
         inkscape:label="blatt-3" />
    </g>
    <g
       id="g7995"
       inkscape:label="swallowtail"
       style="display:none">
      <path
         style="display:inline;fill:none;fill-opacity:1;fill-rule:evenodd;stroke:#2b1100;stroke-width:0.1;stroke-linecap:round;stroke-linejoin:round;stroke-miterlimit:4;stroke-dasharray:none;stroke-opacity:1;stop-color:#000000"
         d="m 57.388963,211.37631 -0.0099,0.17472 c -0.01055,0.18701 -0.110395,0.2915 -0.135319,0.59161 -0.02114,0.25457 0.04055,0.70135 -0.05037,0.82917 -0.0079,0.0108 -0.01582,0.0212 -0.024,0.0296 -0.0984,0.10441 -0.170496,-0.0288 -0.281225,0.0128 -0.145501,0.0547 -0.11389,0.20025 -0.192097,0.29567 -0.117488,0.14335 -0.244262,0.11921 -0.401673,0.13254 -0.157159,0.0133 -0.371686,0.22152 -0.471526,0.54971 -0.02067,0.0679 -0.03652,0.14195 -0.0457,0.22051 -0.03647,0.31196 0.138185,0.68928 0.132643,0.9504 -0.0041,0.19523 -0.02379,0.41319 -0.194271,0.3524 -0.13082,-0.0466 -0.169673,-0.64206 -0.120306,-1.23187 0.02783,-0.33252 0.161938,-0.61492 0.210677,-0.89095 0.008,-0.0454 0.01364,-0.0892 0.01638,-0.13304 0.01317,-0.21121 -0.05493,-0.32141 -0.119083,-0.38099 -0.131041,-0.12172 -0.29052,-0.18664 -0.385466,-0.26583 -0.153675,-0.12817 -0.03778,-0.25415 -0.246773,-0.50839 -0.184339,-0.22424 -0.356394,-0.14906 -0.491252,-0.24652 -0.189705,-0.1371 -0.09134,-0.30521 -0.342345,-0.41542 -0.112817,-0.0495 -0.250587,-0.085 -0.328588,-0.17796 -0.140998,-0.16799 -0.0626,-0.27537 -0.0626,-0.27537 0.849381,0.11859 1.565557,-0.0415 1.769915,-0.81224 0.343556,-1.29579 1.337705,-2.90397 1.428875,-2.98434 -0.06875,0.57308 -0.139838,1.02731 -0.146124,1.37858 -0.0078,0.43791 0.03058,0.91044 0.121591,1.43259 0.05182,0.29733 0.217255,0.75852 0.386232,0.75852 z"
         id="path1095"
         sodipodi:nodetypes="ccscccscccccscccccccccsccccc"
         inkscape:label="fluegel-li-u" />
      <path
         style="display:inline;fill:none;fill-opacity:1;fill-rule:evenodd;stroke:#2b1100;stroke-width:0.1;stroke-linecap:round;stroke-linejoin:round;stroke-miterlimit:4;stroke-dasharray:none;stroke-opacity:1;stop-color:#000000"
         d="m 57.406672,205.66076 c -0.148691,0 -0.414252,0.71459 -0.328329,1.45949 -0.102138,0.64535 -0.173224,1.09958 -0.17951,1.45085 -0.0078,0.43791 0.03058,0.91044 0.121591,1.43259 0.05182,0.29733 0.217255,0.75852 0.386232,0.75852 0.168978,0 0.334409,-0.46119 0.386232,-0.75852 0.09101,-0.52215 0.129469,-0.99468 0.121632,-1.43259 -0.0063,-0.35127 -0.07739,-0.80551 -0.179712,-1.45015 0.08612,-0.7456 -0.179443,-1.46019 -0.328136,-1.46019 z"
         id="path1093"
         sodipodi:nodetypes="scccscccs"
         inkscape:label="body" />
      <path
         style="display:inline;fill:none;fill-opacity:1;fill-rule:evenodd;stroke:#2b1100;stroke-width:0.1;stroke-linecap:round;stroke-linejoin:round;stroke-miterlimit:4;stroke-dasharray:none;stroke-opacity:1;stop-color:#000000"
         d="m 57.969147,205.51576 c 0.06589,-0.0405 0.479264,-0.29253 0.705712,-0.45991 0.273382,-0.20208 0.467488,-0.37029 0.574914,-0.39449 0.106332,-0.024 0.254235,0.12574 0.176171,0.18544 -0.110993,0.0849 -0.143006,-0.12598 -0.247078,-0.0647 -0.129297,0.0761 -0.576766,0.40054 -0.770873,0.51979 -0.331702,0.2038 -0.840953,0.47813 -0.865846,0.48911 0,0 0.358255,-0.233 0.427,-0.27524 z"
         id="path1085"
         inkscape:label="fühler-re" />
      <path
         style="display:inline;fill:none;fill-opacity:1;fill-rule:evenodd;stroke:#2b1100;stroke-width:0.1;stroke-linecap:round;stroke-linejoin:round;stroke-miterlimit:4;stroke-dasharray:none;stroke-opacity:1;stop-color:#000000"
         d="m 56.844198,205.51576 c -0.06589,-0.0405 -0.479265,-0.29253 -0.705712,-0.45991 -0.273382,-0.20208 -0.467489,-0.37029 -0.574914,-0.39449 -0.106332,-0.024 -0.254236,0.12574 -0.176171,0.18544 0.110992,0.0849 0.143005,-0.12598 0.247077,-0.0647 0.129298,0.0761 0.576766,0.40054 0.770873,0.51979 0.331702,0.2038 0.839109,0.48121 0.864002,0.49219 0,0 -0.356411,-0.23608 -0.425155,-0.27832 z"
         id="path1083"
         inkscape:label="fühler-li" />
      <path
         style="display:inline;fill:none;fill-opacity:1;fill-rule:evenodd;stroke:#2b1100;stroke-width:0.1;stroke-linecap:round;stroke-linejoin:round;stroke-miterlimit:4;stroke-dasharray:none;stroke-opacity:1;stop-color:#000000"
         d="m 56.996586,206.62144 -3e-6,2e-5 v -2.3e-4 c -0.155625,-0.12397 -0.422072,-0.16826 -0.725218,-0.16677 v 0 c -0.505244,0.002 -1.112494,0.13209 -1.478887,0.23162 -0.586228,0.15925 -2.821275,0.60537 -4.18243,2.26673 -0.02861,0.0349 -0.424633,0.53758 -0.402439,0.86559 -0.0021,0.11593 0.102861,0.24039 0.290265,0.26954 0.360375,0.056 0.733311,0.0468 1.14908,0.22295 0.690269,0.29242 1.487853,0.57834 2.190232,0.67665 0.858362,0.12015 1.574538,-0.0399 1.778896,-0.81068 0.343556,-1.29579 1.337705,-2.90397 1.395488,-2.91207 l -0.01066,-0.10781 c -0.01216,-0.12358 -0.02275,-0.24719 -0.01947,-0.37037 0.0014,-0.051 0.0067,-0.10675 0.01514,-0.16517 z"
         id="path1073"
         sodipodi:nodetypes="cccsscccccssccccc"
         inkscape:label="fluegel-li-o" />
      <path
         style="display:inline;fill:none;fill-opacity:1;fill-rule:evenodd;stroke:#2b1100;stroke-width:0.1;stroke-linecap:round;stroke-linejoin:round;stroke-miterlimit:4;stroke-dasharray:none;stroke-opacity:1;stop-color:#000000"
         d="m 64.315548,210.08794 c -0.360374,0.056 -0.73331,0.0468 -1.149079,0.22295 -1.533832,0.64979 -3.59755,1.26746 -3.969128,-0.13403 -0.343557,-1.29579 -1.337705,-2.90397 -1.395488,-2.91207 l 0.01066,-0.10781 c 0.01216,-0.12358 0.02275,-0.24719 0.01947,-0.37021 -0.0014,-0.0509 -0.0067,-0.10659 -0.01514,-0.16501 l 4e-6,2e-5 v -2.3e-4 c 0.155626,-0.12397 0.422073,-0.16826 0.725218,-0.16677 v 0 c 0.505243,0.002 1.112494,0.13209 1.478886,0.23162 0.586228,0.15925 2.821276,0.60537 4.18243,2.26673 0.02861,0.0349 0.424633,0.53758 0.402439,0.86543 0.0021,0.11577 -0.10286,0.24023 -0.290265,0.26938 z"
         id="path1067"
         sodipodi:nodetypes="cccccccccsssccc"
         inkscape:label="fluegel-re-o" />
      <path
         style="display:inline;fill:none;fill-opacity:1;fill-rule:evenodd;stroke:#2b1100;stroke-width:0.1;stroke-linecap:round;stroke-linejoin:round;stroke-miterlimit:4;stroke-dasharray:none;stroke-opacity:1;stop-color:#000000"
         d="m 59.197341,210.17686 c -0.343557,-1.29579 -1.337701,-2.90399 -1.429011,-2.98399 0.0688,0.57272 0.13989,1.02696 0.14619,1.37823 0.0078,0.43791 -0.03062,0.91044 -0.121632,1.43259 -0.05182,0.29733 -0.217254,0.75852 -0.386232,0.75852 l 0.0178,0.61346 0.0099,0.17472 c 0.01055,0.18701 0.110396,0.2915 0.13532,0.59161 0.02114,0.25457 -0.04055,0.70135 0.05037,0.82917 0.0079,0.0108 0.01582,0.0212 0.024,0.0296 0.0984,0.10441 0.170494,-0.0288 0.281223,0.0128 0.145502,0.0547 0.113892,0.20025 0.192096,0.29567 0.117489,0.14335 0.244265,0.11921 0.401675,0.13254 0.157159,0.0133 0.371686,0.22152 0.471526,0.54971 0.02067,0.0679 0.03652,0.14195 0.0457,0.22051 0.03647,0.31196 -0.138184,0.68928 -0.132643,0.9504 0.0041,0.19523 0.02379,0.41319 0.194271,0.3524 0.13082,-0.0466 0.169672,-0.64206 0.120307,-1.23187 -0.02783,-0.33252 -0.161939,-0.61492 -0.210677,-0.89095 -0.008,-0.0454 -0.01364,-0.0892 -0.01638,-0.13304 -0.01318,-0.21121 0.05493,-0.32141 0.119082,-0.38099 0.131041,-0.12172 0.290521,-0.18664 0.385468,-0.26583 0.153674,-0.12817 0.03778,-0.25415 0.246771,-0.50839 0.184339,-0.22424 0.356395,-0.14906 0.491252,-0.24652 0.189706,-0.1371 0.09134,-0.30521 0.342345,-0.41542 0.112817,-0.0495 0.250588,-0.085 0.328588,-0.17796 0.140998,-0.16799 0.05654,-0.27421 0.05654,-0.27421 -0.850063,0.11654 -1.560458,-0.0456 -1.763851,-0.81276"
         id="path3577"
         sodipodi:nodetypes="cccccccscccscccccscccscscccc"
         inkscape:label="fluegel-re-u" />
    </g>
  </g>
</svg>
