<?xml version="1.0" encoding="UTF-8" standalone="no"?>
<!-- Created with Inkscape (http://www.inkscape.org/) -->

<svg
   width="114.66584mm"
   height="158.57526mm"
   viewBox="0 0 114.66584 158.57526"
   version="1.1"
   id="svg127"
   inkscape:version="1.1.1 (3bf5ae0d25, 2021-09-20)"
   sodipodi:docname="scroll.svg"
   xmlns:inkscape="http://www.inkscape.org/namespaces/inkscape"
   xmlns:sodipodi="http://sodipodi.sourceforge.net/DTD/sodipodi-0.dtd"
   xmlns="http://www.w3.org/2000/svg"
   xmlns:svg="http://www.w3.org/2000/svg">
  <sodipodi:namedview
     id="namedview129"
     pagecolor="#ffffff"
     bordercolor="#999999"
     borderopacity="1"
     inkscape:pageshadow="0"
     inkscape:pageopacity="0"
     inkscape:pagecheckerboard="0"
     inkscape:document-units="mm"
     showgrid="false"
     fit-margin-top="0"
     fit-margin-left="0"
     fit-margin-right="0"
     fit-margin-bottom="0"
     inkscape:zoom="0.66368547"
     inkscape:cx="858.08719"
     inkscape:cy="368.3974"
     inkscape:window-width="1920"
     inkscape:window-height="1002"
     inkscape:window-x="1912"
     inkscape:window-y="-8"
     inkscape:window-maximized="1"
     inkscape:current-layer="layer1" />
  <defs
     id="defs124">
    <inkscape:path-effect
       effect="taper_stroke"
       id="path-effect14329"
       is_visible="true"
       lpeversion="1"
       stroke_width="1"
       attach_start="3.7680356"
       end_offset="1.3532749"
       start_smoothing="0.5"
       end_smoothing="0.5"
       jointype="extrapolated"
       start_shape="center"
       end_shape="center"
       miter_limit="100" />
    <inkscape:path-effect
       effect="taper_stroke"
       id="path-effect14455"
       is_visible="true"
       lpeversion="1"
       stroke_width="1"
       attach_start="0.91021286"
       end_offset="0.98726013"
       start_smoothing="0.5"
       end_smoothing="0.5"
       jointype="extrapolated"
       start_shape="center"
       end_shape="center"
       miter_limit="100" />
  </defs>
  <g
     inkscape:label="Ebene 1"
     inkscape:groupmode="layer"
     id="layer1"
     transform="translate(121.91547,12.711786)">
    <path
       id="path6224"
       style="display:inline;fill:#aec896;fill-opacity:1;fill-rule:evenodd;stroke:none;stroke-width:0.218835px;stroke-linecap:butt;stroke-linejoin:miter;stroke-opacity:1"
       d="m -16.620519,46.575585 c -1.348071,2.805433 -11.50305,19.842542 -12.326519,20.840323 -0.82347,0.99778 -9.132978,14.819624 -9.748136,15.891385 -0.615155,1.071752 -9.443299,19.987497 -9.880325,20.887927 -8.226585,18.5429 -8.902433,21.98693 -8.902433,21.98693 0,0 2.725818,-4.59274 3.169645,-5.84262 0.443829,-1.24988 9.930914,-21.690997 9.930914,-21.690997 0,0 7.917096,-17.010734 8.814537,-18.216829 0.897445,-1.206103 7.680749,-12.051179 8.971436,-13.704092 1.290686,-1.65291 5.112984,-9.444272 5.839097,-10.828497 0.726113,-1.384223 4.352867,-6.312767 4.44724,-7.56945 0.09437,-1.256681 -0.315456,-1.75408 -0.315456,-1.75408 z m -4.471062,16.923214 c -0.445654,0.671118 -0.469403,0.621217 0.68179,0.53238 1.151193,-0.08884 1.524252,-0.205176 2.555351,0.160964 1.031101,0.36614 1.373198,0.57056 2.045666,0.311726 0.672468,-0.258831 1.771353,-0.200368 2.176429,-0.05653 0.405076,0.143841 1.439932,-0.318054 -0.330076,-0.82217 -1.770005,-0.504119 -2.038745,0.603036 -2.617276,0.48054 -0.578526,-0.122499 -3.792974,-1.346871 -4.511884,-0.606913 z m 5.46681,6.793049 c -1.243782,-0.234322 -1.809234,-0.393642 -1.656069,-0.0075 0.153163,0.386135 1.297143,0.667951 2.001623,0.669298 0.704485,0.0014 2.84409,-0.06825 -0.345554,-0.661794 z m -18.508577,18.723401 c 0.698651,0.914301 2.011246,0.175089 2.910526,0.328554 0.899281,0.153456 2.045664,0.311724 2.045664,0.311724 -1.360983,-1.194748 -5.654841,-1.55458 -4.95619,-0.640278 z m 10.26304,0.409831 c 0.81015,0.287681 1.370796,0.694102 1.293684,0.210574 -0.07711,-0.483536 -0.837357,-0.794969 -1.194936,-0.839001 -0.665844,-0.06052 -0.837507,0.366649 -0.09875,0.628427 z m -17.36435,7.560019 c -0.533458,0.482551 -0.370952,1.278203 0.75409,1.263018 1.12504,-0.01519 5.759801,0.946377 7.190789,0.770284 0.746046,-0.0918 2.195515,-0.40223 2.195515,-0.40223 0,0 -1.573704,-0.425074 -2.950021,-0.363301 -1.376315,0.06176 -6.656915,-1.750321 -7.190373,-1.267771 z m 3.814716,20.554461 c -0.171062,-0.10217 -4.343709,-3.53291 -6.429659,-4.3151 -2.085962,-0.78214 -4.685045,-1.87098 -4.444098,-0.91459 0.240944,0.9564 2.010949,1.46052 3.044454,1.70311 1.033503,0.24259 4.18738,1.40398 5.321742,2.18001 1.134363,0.77602 2.507561,1.34657 2.507561,1.34657 z m -23.477825,-7.9222 c -0.216167,0.32368 0.587855,0.9137 0.764764,1.34974 0.176913,0.43604 0.627083,0.80323 0.820822,0.37442 0.193743,-0.42882 -0.0045,-1.03831 -0.543815,-1.27129 -0.539312,-0.23293 -0.825603,-0.77655 -1.041771,-0.45287 z m 2.724293,-0.89869 c 0.0037,0.50259 -0.08567,0.5916 0.69592,1.07648 0.781596,0.48488 1.222146,1.34628 1.57386,1.05649 0.351715,-0.28979 0.516899,-0.52141 -0.04374,-0.92783 -0.179982,-0.27923 -2.231579,-1.96471 -2.226036,-1.20514 z m -5.998725,-2.9595 c -0.573718,-0.3696 -1.342235,-0.8913 -1.544247,-0.67276 -0.202009,0.21855 -0.624971,0.35864 0.08538,0.69381 0.446019,0.32636 2.146494,1.7184 2.759458,1.10432 -0.03202,-0.26017 -1.079652,-1.04687 -1.300603,-1.12533 z m 9.83517,-19.522529 c -0.474702,0.228951 -0.57161,0.792266 0.55208,1.481564 1.123692,0.689298 1.721159,1.108795 2.400546,1.764726 0.679387,0.655932 1.149548,1.901069 1.511936,1.698001 0.362387,-0.203068 0.445651,-0.671118 -0.17316,-1.264068 -0.893575,-0.762551 -3.289126,-4.163622 -4.291402,-3.680223 z m 7.612939,-11.395932 c 0.703133,0.705834 0.693516,1.200037 1.168781,0.912656 0.475266,-0.28739 0.250856,-0.823232 -0.23854,-1.079948 -0.791617,-0.346225 -1.634874,-0.545167 -0.930241,0.167292 z m -1.599769,-12.428037 c -0.124902,0.702082 0.765819,1.930675 1.315787,2.250379 0.549968,0.319705 0.937164,0.747459 1.447904,1.177638 0.51074,0.43018 1.141575,0.405369 0.990816,-0.104319 -0.150758,-0.509689 -1.1034,-1.096777 -1.479917,-1.437823 -0.376517,-0.341047 -2.156903,-2.217298 -2.27459,-1.885875 z m 8.145955,-4.488774 c -0.464593,0.374113 0.24681,1.290224 0.746878,1.633671 0.50007,0.343446 0.778135,0.0275 0.390945,-0.400267 -0.387191,-0.427768 -0.838414,-1.375896 -1.137823,-1.233404 z m 1.745323,-5.849313 c -0.31008,0.05576 0.242002,1.537327 0.631596,1.841544 0.389594,0.304217 0.71608,0.648864 0.94408,1.662228 0.375975,1.032811 3.886534,6.617285 2.617739,2.671224 -0.49872,-1.04793 -1.806241,-3.088024 -1.851333,-3.311379 -0.412477,-0.916691 -1.006002,-2.992656 -2.342082,-2.863617 z M -12.1948,38.210688 c 0,0 -6.163737,1.709311 -7.335219,2.205626 -1.171482,0.496316 -5.202513,1.003392 -7.50867,2.226971 -2.095726,1.11193 -4.976305,4.204381 -5.501473,4.515517 -0.525168,0.311136 -10.146823,5.685821 -11.011977,6.954407 -0.865155,1.268586 -4.914973,6.13371 -5.991461,6.829632 -1.076487,0.695919 -3.058706,3.475386 -3.058706,3.475386 0,0 7.323833,6.00108 8.093405,7.10372 0.769572,1.10264 4.786075,6.8416 4.786075,6.8416 0,0 -5.161831,-5.316294 -7.646697,-7.193904 -2.484867,-1.87761 -5.527972,-4.285191 -5.886604,-4.910166 -0.358634,-0.624967 -1.898955,2.311417 -2.585848,3.311555 -0.686892,1.000139 -3.101324,5.621705 -4.2954,8.593007 -0.719451,1.790271 -1.295916,4.350164 -1.714361,5.528561 -0.418447,1.178404 1.914312,3.25081 3.187708,3.868855 1.273395,0.618053 7.312107,5.333423 8.207635,6.314914 0.895528,0.981491 3.187708,3.868856 3.187708,3.868856 -4.878496,-1.235861 -6.723315,-4.887851 -12.363001,-7.458711 -1.178401,-0.418446 -3.703844,-1.481097 -3.79403,-1.927806 -0.09019,-0.446708 -1.512054,4.024598 -2.477013,5.340679 -0.964958,1.316083 -4.561737,9.576613 -4.315223,12.152253 0.246516,2.57564 -0.341148,6.00373 0.770212,8.69158 1.555273,3.76146 4.964613,6.47871 7.826774,9.37274 0.962158,0.97287 3.121452,2.66582 3.121452,2.66582 0,0 -4.05358,10.93657 -4.367415,11.82037 -0.313835,0.8838 -1.982809,5.35029 -1.602829,6.14872 0.379977,0.79843 0.17556,1.14052 1.111666,1.30706 0.936107,0.16653 1.649742,-3.47809 1.649742,-3.47809 0,0 2.632409,-9.51528 2.993739,-10.29927 0.361337,-0.784 1.652442,-4.88706 1.652442,-4.88706 0,0 0.130765,-0.36825 3.323867,0.68268 3.193107,1.05091 8.714746,1.85052 11.262124,0.51579 2.547378,-1.33473 5.294363,-2.76446 5.182832,-3.38462 -0.11153,-0.62016 -2.529667,-3.38637 -3.460964,-3.80001 -0.931297,-0.41364 -3.000416,-2.06068 -3.000416,-2.06068 0,0 2.155129,0.98466 3.456743,1.47629 1.301623,0.4916 3.299101,2.64753 4.24285,2.99948 0.943741,0.35197 0.88745,-0.4372 1.170321,-1.00024 0.282869,-0.56305 1.662353,-0.55009 2.767374,-1.91422 1.10502,-1.36412 2.240465,-5.21741 4.413853,-7.05808 0.939974,-0.75028 -0.696255,-3.06272 -3.114059,-3.8427 -2.4178,-0.78 -3.110514,-3.32777 -7.25769,-4.31886 -4.147175,-0.99109 -4.461692,-1.91607 -4.461692,-1.91607 0,0 8.256309,1.27305 9.339716,1.49189 1.083406,0.21883 1.665689,-0.48671 2.796593,-0.16806 1.130904,0.31864 3.672876,1.80185 5.072228,2.29875 1.399353,0.49691 1.729725,0.0337 2.238357,-0.69803 0.508628,-0.73169 6.351859,-13.917159 6.932025,-15.784563 0.580167,-1.867404 2.641118,-6.19856 2.394337,-7.443456 -0.264438,-1.333986 -1.795867,-1.715882 -3.290207,-2.412393 -1.494348,-0.696513 -2.355742,-0.255965 -4.287178,-1.356495 -1.931437,-1.10053 -4.809654,-2.454316 -5.446348,-2.763346 -0.636696,-0.309031 3.832497,-0.04901 5.110702,0.321932 1.278203,0.370943 3.637107,2.3697 5.114918,2.645657 1.477811,0.275957 2.000275,1.373791 2.967348,1.21957 0.967073,-0.154222 1.259557,-1.211472 2.177018,-2.627362 0.917459,-1.415882 1.8931866,-2.003964 2.4577761,-4.352269 0.5645884,-2.348301 2.1246292,-6.168871 1.6061161,-10.128522 -0.1328746,-0.793613 -0.2011333,-3.637704 -0.7118728,-4.067877 -0.5107398,-0.430172 -1.3647335,-0.829259 -2.5137184,-0.394991 -1.148981,0.43427 -2.792044,0.460594 -4.284013,0.38631 1.116971,-0.59822 4.240848,-1.908633 5.2751275,-1.776041 0.8624605,0.140382 1.4922306,-0.465355 1.3166667,-1.605877 -0.1755639,-1.140522 -0.328256,-3.426083 -0.7662798,-5.082438 -0.3070305,-1.161021 -1.2458714,-3.264345 -1.6834514,-4.951971 -0.689779,-2.660284 0.106082,-6.72168 -1.473639,-8.112002 z"
       inkscape:connector-curvature="0"
       sodipodi:nodetypes="cccccscszscccsscscccccccczcczcccczssczzcccscczcsczcscccccccccscsscsccccczzczcccccczccccczzazzczscscacszccscczaaczzsccccsczczzzzczzcscscsssssszzczcccczzazc"
       inkscape:label="leaf" />
    <path
       style="display:inline;fill:#e9b96e;fill-rule:evenodd;stroke:none;stroke-width:0.499999;stroke-linecap:round;stroke-linejoin:round;paint-order:stroke fill markers"
       d="M -57.402304,7.561074 C -61.494688,3.673306 -74.131789,1.158431 -78.6756,6.941464 c -4.543811,5.783033 -7.435328,11.772602 -4.543811,18.588318 2.891517,6.815716 -0.413073,23.545199 0,26.849789 0.413073,3.304591 4.956883,16.522951 18.381779,11.359529 13.424896,-5.163422 18.38178,-11.772601 22.512517,-21.273297 4.130737,-9.500696 -13.63143,-14.870653 -16.31641,-18.175242 -2.68498,-3.304589 5.331604,-12.84172 1.239221,-16.729487 z"
       id="path4186"
       sodipodi:nodetypes="zzzzzzzz"
       inkscape:label="orange" />
    <path
       style="display:inline;fill:#ad7fa8;fill-rule:evenodd;stroke:none;stroke-width:0.499999;stroke-linecap:round;stroke-linejoin:round;paint-order:stroke fill markers"
       d="m -87.556686,57.749531 c -3.885612,-2.914208 -6.609177,-0.61961 -9.08762,-2.478442 -2.478443,-1.858832 -12.185674,-14.870653 -16.522944,-13.218358 -4.33728,1.652295 -11.77261,17.349094 -7.43533,27.882474 4.33727,10.533379 7.43532,26.023639 12.39221,26.849789 4.95688,0.82615 12.598747,-4.33727 16.522948,-6.19611 3.924201,-1.85884 7.022253,-11.15298 4.956884,-16.109868 -2.065369,-4.956886 3.059464,-13.815277 -0.826148,-16.729485 z"
       id="path3997"
       sodipodi:nodetypes="zzzzzzzz"
       inkscape:label="purple" />
    <g
       id="g385"
       inkscape:label="face">
      <path
         style="display:inline;fill:#000000;fill-rule:nonzero;stroke:none;stroke-width:1;stroke-linecap:round;stroke-linejoin:round;stroke-miterlimit:4;stroke-dasharray:none;paint-order:stroke fill markers"
         d="m -93.072656,47.159657 c 0.334716,-0.399374 0.59675,-0.922707 0.633957,-1.527506 -0.01556,-0.713761 -0.465659,-1.260339 -1.045331,-1.470588 v 0 c -0.62178,-0.243314 -1.332903,-0.374156 -2.022835,-0.182053 v 0 c -0.553201,0.174544 -0.857406,0.701054 -0.776396,1.229434 v 0 c 0.220828,0.68802 0.860038,0.932781 1.305067,0.995325 v 0 c 0.254438,0.05265 0.508555,0.06467 0.749487,0.01639 v 0 c 0.188051,-0.0136 0.391687,-0.151236 0.454156,-0.372 v 0 c 0.0087,-0.449022 -0.437219,-0.622773 -0.623335,-0.683966 v 0 c -0.172189,-0.06536 -0.331849,-0.105055 -0.433369,-0.127862 v 0 c -0.06264,-0.01407 -0.112773,-0.0237 -0.147796,-0.03001 0,0 0,0 0,0 -0.04264,-0.0076 -0.06395,-0.01078 -0.06395,-0.01078 0,0 0.02022,0.0071 0.06029,0.02304 0,0 0,0 0,0 0.0329,0.01303 0.07996,0.03219 0.138319,0.0578 v 0 c 0.09414,0.04134 0.241753,0.109556 0.391932,0.200412 v 0 c 0.157677,0.105725 0.524643,0.349797 0.411628,0.518107 v 0 c 0.0083,0.05502 -0.112178,0.05642 -0.234837,0.08625 v 0 c -0.18413,0.0105 -0.375584,-0.03431 -0.588162,-0.106245 v 0 c -0.354875,-0.150626 -0.834632,-0.391147 -0.79903,-0.682788 v 0 c -0.04764,-0.159387 0.15136,-0.363583 0.346649,-0.384134 v 0 c 0.444309,-0.104492 0.945308,0.07622 1.501205,0.295564 v 0 c 0.24517,0.113678 0.4633,0.378653 0.402831,0.580033 -0.0078,0.306325 -0.207182,0.632752 -0.444094,0.954326 -0.148885,0.187797 -0.303477,0.330913 -0.432039,0.416621 -0.551302,0.367533 -1.411784,0.244555 -2.35692,-0.322528 -0.760657,-0.456392 -0.531856,-1.925692 -0.273882,-2.261346 0.53353,-0.694183 2.033512,-1.129596 3.901712,-0.07574 1.538387,0.867808 0.31541,2.565374 -1.416907,3.171685 -0.171089,0.05988 -0.372362,0.107232 -0.604131,0.142524 -0.207936,0.03166 -0.434504,0.05258 -0.675716,0.06395 -0.434974,0.0205 -0.90818,0.0095 -1.390191,-0.02226 -0.385261,-0.02541 -0.77327,-0.06393 -1.148371,-0.109525 0,0 -1.207492,-0.114451 -2.766575,-0.474296 a 23.996819,23.996819 0 0 1 -2.51018,-0.72535 11.723651,11.723651 0 0 0 2.14118,1.641706 c 2.431566,1.453576 5.086348,1.844283 5.086348,1.844283 2.660183,0.380026 5.354144,-1.268664 7.479113,-0.9306 2.621331,0.41703 2.786455,-1.363525 2.394296,-2.245885 -0.328395,-0.738893 -5.312236,-4.885003 -9.187635,-5.251594 -0.841838,-0.07963 -1.720436,0.04899 -2.569949,0.29171 -0.67961,0.194174 -1.353845,0.464943 -1.991953,0.769844 -1.27377,0.608626 -2.43423,1.36752 -3.27115,1.96993 -0.40047,0.288253 -0.78403,0.556018 -1.37081,1.064153 l 0.75817,0.124256 c -0.9954,-1.690306 -1.28063,-3.524225 -1.28063,-3.524225 -0.17302,-1.165891 -0.0111,-2.274663 0.84134,-2.96133 2.47422,-1.993127 7.972611,-1.980844 10.081126,-1.096629 2.268436,0.951281 5.791899,2.367336 7.323221,2.447932 1.738102,0.09148 3.223981,-2.02154 2.238803,-3.225648 -0.820012,-1.002237 -8.66252,-3.614087 -13.222696,-3.761189 -4.627544,-0.149276 -7.770524,4.028471 -8.445364,4.173082 0,0 0.38465,0.125714 0.38465,0.125714 -7e-5,-1.06e-4 -6.9e-4,-0.0011 -0.002,-0.0033 -10e-4,-0.0024 -0.003,-0.0058 -0.005,-0.01055 -0.003,-0.0052 -0.006,-0.01168 -0.009,-0.01952 -0.004,-0.0087 -0.008,-0.01879 -0.0125,-0.03041 -0.005,-0.01291 -0.0103,-0.02737 -0.0158,-0.04354 -0.006,-0.01796 -0.0125,-0.0377 -0.0191,-0.05933 -0.007,-0.02403 -0.0147,-0.05011 -0.0223,-0.07831 -0.74446,-2.777862 -0.7342,-18.416591 4.69267,-22.202782 6.236494,-4.351041 11.347846,-6.7295359 17.545716,-5.039208 6.155043,1.678648 8.968321,6.085658 8.395181,15.112602 -0.581323,9.155836 -3.542759,15.906323 -2.315593,19.894613 1.162205,3.777165 2.359169,11.11338 3.268524,12.659932 1.208687,2.055632 4.061647,5.133497 4.937329,6.141496 0.789657,0.908977 0.446465,3.009299 -0.294621,3.5857 0,0 -1.155346,0.860308 -2.493294,0.632017 l 0.32735,0.776972 c 1.18911,-1.722157 0.03601,-2.278411 0.03601,-2.278411 -0.138956,-0.06686 -0.294199,-0.100623 -0.450708,-0.111057 -1.444973,-0.09633 -2.686282,2.554657 -3.976437,2.554657 -1.167694,0 -1.829847,0.565565 -1.609415,1.626902 0.107716,0.518632 0.467945,1.223871 0.971865,1.994573 0.491822,0.752199 0.811176,1.317139 0.961887,1.768204 0.156377,0.468023 0.116216,0.554195 -0.306531,0.601167 -1.292298,0.143588 -1.684725,0.379919 -1.821246,0.584702 l -1.01142,1.51714 1.643812,-0.78903 c 0.99156,-0.475949 2.574383,-0.293297 2.58773,-0.291537 0.390887,0.05155 0.813995,0.148381 1.260297,0.310673 2.352971,0.855625 3.050865,2.055522 3.766732,2.476466 0.916382,0.538864 2.450746,0.969392 3.829769,1.128394 l -0.366727,-0.76171 c 0,0 0.176856,-0.157074 0.176856,-0.157074 0,0 0.0016,-5.82e-4 0.0016,-5.82e-4 0,0 -4.55e-4,1.5e-4 -0.0012,3.8e-4 -0.001,3.1e-4 -0.0026,7.63e-4 -0.0047,0.0013 -0.0024,6.5e-4 -0.0053,0.0014 -0.0088,0.0023 -0.004,9.74e-4 -0.0086,0.002 -0.01386,0.0032 -0.0059,0.0013 -0.01248,0.0026 -0.01985,0.004 -0.0082,0.0016 -0.01715,0.0032 -0.02698,0.0048 -1.195882,0.200841 -6.399189,-0.09763 -8.006662,0.03611 -1.883885,0.156762 -2.952375,0.109131 -4.238267,0.03559 -2.363145,-0.135188 -3.471584,2.325748 -0.958619,2.691725 1.290666,0.18796 2.738408,0.0029 3.939506,-0.214058 0.586487,-0.106063 1.16863,-0.246783 1.713638,-0.372777 0,0 0,0 0,0 2.763836,-0.640637 5.279071,-0.893746 5.279071,-0.893746 0,0 -2.497053,-0.457883 -5.451468,-0.01749 0,0 -10e-7,0 -10e-7,0 -0.58232,0.08679 -1.145052,0.196373 -1.719009,0.299937 -1.171168,0.211567 -2.476203,0.374794 -3.617624,0.208569 -0.773207,-0.112607 -0.547801,-0.261914 -0.444684,-0.355667 0.215996,-0.196381 0.6418,-0.380181 1.202086,-0.348129 1.296146,0.07412 2.421868,0.125392 4.378293,-0.03741 1.607469,-0.133749 6.893482,0.154359 8.089364,-0.04648 0.150314,-0.02524 0.441325,-0.09382 0.579315,-0.314605 l 0.419421,-0.671067 -0.786148,-0.09064 c -1.321911,-0.152418 -2.628867,-0.52153 -3.437425,-0.996989 -0.417151,-0.245293 -1.465407,-1.65735 -3.931875,-2.554247 -0.172743,-0.06282 -2.691744,-0.907628 -4.622502,0.01914 l 0.632392,0.72811 c 0,0 -0.09332,0.101166 -0.09332,0.101166 0.0019,-0.0011 0.0047,-0.0025 0.0082,-0.0043 0.004,-0.002 0.009,-0.0044 0.01512,-0.0072 0.0068,-0.0031 0.01497,-0.0066 0.0246,-0.01054 0.0107,-0.0044 0.02315,-0.0092 0.03752,-0.01441 0.150791,-0.05483 0.472358,-0.139709 1.10746,-0.210275 1.149221,-0.127692 1.481077,-0.904781 1.144558,-1.911952 -0.178763,-0.535021 -0.572102,-1.231898 -1.073376,-1.998553 -0.606863,-0.928142 -0.860943,-1.555489 -0.849883,-1.843046 0.0039,-0.100472 0.0385,-0.231179 0.650463,-0.231179 1.779552,0 3.168246,-2.606315 3.909918,-2.556871 0.01223,8.15e-4 0.02302,0.0019 0.0325,0.0031 0.0085,0.0011 0.0159,0.0023 0.02223,0.0035 0.0057,0.0011 0.01047,0.0022 0.01442,0.0032 0.03551,0.0091 -0.02612,-0.03417 -0.02612,-0.03417 0,0 -0.06434,0.383857 -0.384707,0.847844 a 2.8873478,2.8873478 0 0 1 -0.483566,0.540148 3.6765645,3.6765645 0 0 0 0.810916,0.236824 c 1.804731,0.307936 3.27543,-0.828419 3.27543,-0.828419 1.230502,-0.957057 1.599444,-3.691165 0.435597,-5.030872 -0.89703,-1.032575 -3.686166,-4.046832 -4.830217,-5.992538 -0.773579,-1.315636 -2.000279,-8.630053 -3.174772,-12.447156 -1.109532,-3.605978 1.770778,-10.291503 2.357803,-19.537163 0.59521,-9.37455 -2.433258,-14.314332 -9.130053,-16.1407299 -6.653968,-1.8147182 -12.057756,0.7722689 -18.381019,5.1838449 -5.8769,4.100164 -5.93237,20.12515 -5.0864,23.281771 0.0984,0.367268 0.31743,0.958011 0.87689,0.838128 1.37183,-0.293967 3.77703,-4.294196 8.203597,-4.151404 4.494528,0.144984 11.9866,2.790704 12.48098,3.394947 0.329214,0.402372 -0.375561,1.648355 -1.412287,1.593792 -1.243506,-0.06545 -4.730137,-1.424221 -6.989053,-2.371508 -2.418837,-1.014351 -8.311857,-1.002068 -11.095187,1.240069 -1.54253,1.242591 -1.42496,3.278961 -0.99384,4.877972 0,0 0.4033,1.542962 1.19876,2.893771 a 8.4655651,8.4655651 0 0 0 0.32607,0.510943 17.788613,17.788613 0 0 1 0.4321,-0.386687 c 1.99165,-1.724728 3.97294,-2.666192 3.97294,-2.666192 1.479358,-0.763928 3.077981,-1.322659 4.482113,-1.189835 3.765537,0.356199 8.285397,4.476323 8.367997,4.662175 0.01024,0.02305 0.579026,1.154821 -1.323369,0.852168 -2.418838,-0.384816 -5.094839,1.271082 -7.494806,0.92823 0,0 -2.47501,-0.373806 -4.714675,-1.712661 l -0.369,0.916356 c 1.599069,0.369071 2.812861,0.485562 2.870826,0.492607 0.389647,0.04736 0.796423,0.08783 1.203204,0.114662 0.508043,0.03351 1.020605,0.04606 1.503096,0.02332 0.26849,-0.01266 0.530543,-0.03637 0.779168,-0.07423 0.275522,-0.04195 0.54196,-0.102576 0.783945,-0.187271 2.393196,-0.837618 4.0595,-3.586632 1.577879,-4.986521 -2.159272,-1.218051 -4.271536,-0.85237 -5.18591,0.337335 -0.627834,0.816883 -0.746404,2.949023 0.552263,3.728221 1.120233,0.672142 2.428387,0.962236 3.426115,0.297085 0.230757,-0.153838 0.463266,-0.37807 0.660952,-0.627422 z"
         id="path14229"
         inkscape:original-d="m -95.043642,44.995879 c 0,0 1.239221,0.309806 1.135951,0.826148 -0.103267,0.516342 -1.910466,0.154903 -2.065369,-0.671245 -0.154903,-0.826148 0.877781,-1.135952 2.323542,-0.567976 1.445757,0.567976 0.413072,2.271906 -0.36144,2.788248 -0.774515,0.516342 -1.858833,0.309806 -2.891517,-0.309806 -1.032685,-0.619609 -0.858055,-2.415812 -0.413073,-2.994784 0.723952,-0.941944 2.530075,-1.342491 4.543811,-0.206537 2.013733,1.135952 0.567976,3.356224 -1.497393,4.079103 -2.06537,0.722878 -6.86261,-0.384348 -6.86261,-0.384348 0,0 2.370435,1.417032 4.90051,1.778472 2.530075,0.361439 5.215056,-1.290855 7.486959,-0.929415 2.271906,0.361439 2.06537,-1.084318 1.858833,-1.549027 -0.206536,-0.464709 -4.956884,-4.595445 -8.777816,-4.956884 -3.820933,-0.36144 -8.829456,3.975832 -8.829456,3.975832 0,0 -2.9509,-5.011017 -0.32211,-7.128649 2.62878,-2.117632 8.324484,-2.117632 10.58816,-1.168349 2.263676,0.949284 5.768723,2.336698 7.156137,2.40972 1.387414,0.07302 2.482741,-1.60648 1.825545,-2.40972 -0.657196,-0.80324 -8.324486,-3.432025 -12.851838,-3.578068 -4.527354,-0.146044 -7.302184,3.943177 -8.324484,4.162243 -1.02231,0.219065 -1.6795,-18.839626 4.60037,-23.220935 6.279877,-4.381308 11.537447,-6.864049 17.963366,-5.111526 6.425919,1.752523 9.346792,6.425919 8.762617,15.626666 -0.584174,9.200748 -3.505047,15.918754 -2.336698,19.715888 1.168349,3.797134 2.380181,11.12245 3.221648,12.553544 1.176369,2.000669 3.997417,5.04673 4.883773,6.067017 0.976752,1.124342 0.620685,3.541557 -0.365109,4.308286 -1.288868,1.002453 -2.884362,0.730218 -2.884362,0.730218 0,0 1.058817,-1.533458 -0.03651,-1.60648 -1.095328,-0.07302 -2.40972,2.555764 -3.943178,2.555764 -1.533458,0 -1.460436,0.949283 -0.219065,2.84785 1.24137,1.898567 1.606479,2.993894 0.292087,3.139938 -1.314393,0.146043 -1.460436,0.365109 -1.460436,0.365109 0,0 1.825545,-0.876262 4.235264,0 2.40972,0.876261 3.282795,2.182238 3.849306,2.515358 0.862468,0.50716 2.283128,0.90698 3.633595,1.06269 -0.223627,0.3578 -6.500063,-0.0208 -8.28614,0.12781 -1.920157,0.15978 -3.017263,0.11033 -4.308287,0.0365 -1.674629,-0.0958 -2.738319,1.42392 -0.858007,1.69776 1.880312,0.27383 4.143989,-0.29209 5.49489,-0.54767 1.350905,-0.25558 4.105642,-0.43813 5.36527,-0.43813"
         inkscape:path-effect="#path-effect14329" />
      <path
         style="display:inline;fill:#000000;fill-rule:nonzero;stroke:none;stroke-width:1;stroke-linecap:round;stroke-linejoin:round;stroke-miterlimit:4;stroke-dasharray:none;paint-order:stroke fill markers"
         d="m -103.68862,55.100853 c 1.49231,2.058948 3.06693,3.683581 4.778561,4.867931 1.091583,0.789335 1.994229,1.194911 2.792587,1.289679 0.724697,0.08602 1.12546,-0.101074 1.12546,-0.101074 0,0 -0.430135,0.108803 -1.089536,-0.07984 -0.77528,-0.221792 -1.42997,-0.706413 -2.469297,-1.571763 -1.551145,-1.35072 -2.833205,-2.941907 -4.328935,-4.992959 -0.29788,-0.409741 -0.59404,-0.835073 -0.88709,-1.274652 -1.34218,-2.013267 -2.83984,-3.619328 -4.25048,-4.357515 -2.36303,-1.236576 -4.32747,-0.03101 -4.92229,4.25635 -0.95223,6.86358 4.88618,20.705997 7.04936,26.474454 2.23038,5.947713 15.764908,17.066474 21.201238,19.889167 5.478204,2.844449 11.537954,-0.06991 12.357365,-0.889316 1.03808,-1.03809 -0.549838,-5.067131 -3.662806,-5.378421 -1.895993,-0.189601 -2.485319,-4.441699 -1.950736,-6.004956 0.09436,-0.275944 0.197707,-0.373301 0.197707,-0.373301 l -0.01095,-6.42e-4 c 1.543739,0.107488 5.310889,-0.05928 7.530352,-1.457171 2.165767,-1.364034 2.47619,-2.554225 4.808863,-3.919269 1.988642,-1.163715 6.267093,-1.762212 8.739111,2.220479 2.431309,3.917114 -6.227017,11.381382 -6.50025,16.064084 -0.173396,2.971682 1.010126,5.424872 2.958903,7.251862 7.823127,7.33426 27.416805,4.39246 23.000374,-14.347529 -2.766776,-11.740104 -7.797316,-12.240643 -11.743653,-8.576187 -3.670618,3.408432 -6.369456,10.467655 -4.652384,13.329437 3.324907,5.541509 13.352815,4.082489 12.012199,-1.112407 -0.01599,-0.06196 -0.0327,-0.123326 -0.05012,-0.184091 -0.630056,-2.208353 -2.378867,-3.670278 -4.105229,-4.121548 0,0 0,0 0,0 -0.832615,-0.222011 -1.574888,-0.190206 -2.16154,0.02316 -1.100837,0.396461 -1.031297,1.194458 -1.031297,1.194458 0,0 0.122525,-0.720828 1.111169,-0.911114 0.553126,-0.107162 1.171782,-0.01766 1.896651,0.264937 0,0 10e-7,0 10e-7,0 1.469046,0.583154 2.79859,1.98557 3.328958,3.825653 0.01497,0.05222 0.02935,0.10503 0.04313,0.158423 0.994797,3.854838 -7.379429,5.026368 -10.186429,0.348033 -0.515456,-0.859092 -0.510444,-2.393956 -0.0313,-4.236567 0.766636,-2.948179 2.670282,-6.345326 4.919604,-8.208278 3.126406,-2.589379 7.141648,-2.322228 9.676902,8.435475 4.229198,17.945515 -14.378704,19.917795 -21.343093,13.388615 -1.748277,-1.63903 -2.798506,-3.8255 -2.644546,-6.464082 0.237765,-4.07484 9.174664,-12.101402 6.351588,-16.649697 -2.785552,-4.487828 -7.666827,-3.976425 -10.093812,-2.556199 -2.423774,1.418355 -2.765953,2.631984 -4.836734,3.936194 -2.017071,1.270421 -5.473209,1.407037 -6.92796,1.305745 a 8.4757309,8.4757309 0 0 1 -0.0046,-3.19e-4 1.0861153,1.0861153 0 0 0 -0.0064,-3.23e-4 c -1.942377,-0.09247 -1.838538,5.140736 -0.184202,7.293149 0.445071,0.57907 1.025714,1.002567 1.790178,1.079014 2.726827,0.272676 3.180864,3.550613 3.055202,3.676276 -0.348942,0.348939 -5.92773,3.440972 -11.189443,0.708926 -5.303581,-2.753766 -18.618851,-13.734445 -20.725731,-19.352793 -2.1741,-5.797612 -7.89563,-19.495429 -6.99516,-25.98591 0.44735,-3.224436 1.5219,-4.030806 2.65095,-3.809853 1.31927,0.258181 3.07238,1.887995 4.69924,4.328297 0.30037,0.45055 0.60429,0.887042 0.91031,1.307977 z"
         id="path54"
         inkscape:original-d="m -94.992012,61.157389 c -2.168637,0.516343 -5.886298,-2.684979 -9.190888,-7.641863 -3.30459,-4.956885 -7.32624,-7.050884 -8.26148,-0.309805 -0.92635,6.677031 4.85362,20.447148 7.02226,26.230183 2.16863,5.78303 15.59353,16.83275 20.963486,19.62098 5.369958,2.788246 11.189227,-0.21495 11.773402,-0.79912 0.584174,-0.58418 -0.438131,-4.23527 -3.359003,-4.52735 -2.920873,-0.29209 -3.21296,-7.44821 -1.679502,-7.37521 1.499245,0.10439 5.110889,-0.0473 7.229159,-1.38146 2.118271,-1.33412 2.444572,-2.53603 4.822796,-3.92773 2.207813,-1.29197 6.787676,-1.84692 9.416461,2.38834 2.628785,4.23527 -6.170564,11.98059 -6.425919,16.35689 -0.818391,14.025656 30.377071,15.918746 24.973458,-7.0101 -5.403612,-22.928845 -18.547539,-0.73021 -15.480623,4.38131 3.066916,5.111526 12.267663,3.797136 11.099314,-0.73022 -1.168348,-4.52735 -6.425919,-5.40361 -6.864049,-3.21296"
         inkscape:path-effect="#path-effect14455" />
    </g>
    <g
       id="g9728"
       transform="rotate(-154.88291,22.581263,70.097027)"
       style="display:inline;stroke:#000000;stroke-opacity:1"
       inkscape:label="brush">
      <path
         style="fill:none;fill-opacity:1;fill-rule:evenodd;stroke:#000000;stroke-width:1;stroke-linecap:round;stroke-linejoin:round;stroke-miterlimit:4;stroke-dasharray:none;stroke-opacity:1;paint-order:stroke fill markers"
         d="m 107.48029,64.566702 c 0.0271,-0.744187 1.88394,-6.14229 1.14107,-9.350687 -0.74288,-3.208395 -1.48947,-5.528448 -3.67761,-7.614441 1.36084,4.563229 -2.70536,6.821963 -0.95583,13.249315 0.37822,1.418147 1.2677,3.840522 1.2677,3.840522"
         id="path7380"
         sodipodi:nodetypes="csccc" />
      <path
         style="fill:none;fill-rule:evenodd;stroke:#000000;stroke-width:1;stroke-linecap:round;stroke-linejoin:round;stroke-miterlimit:4;stroke-dasharray:none;stroke-opacity:1;paint-order:stroke fill markers"
         d="m 106.1737,121.76386 c -1.41767,-0.073 -2.09257,-5.12009 -2.3341,-6.58787 -0.38533,-2.34171 -0.96989,-36.202909 0.0889,-40.584216 1.05882,-4.381309 0.99055,-4.831556 0.20058,-5.604422 -0.37898,-0.37078 -1.40332,-0.330656 -0.93127,-2.391466 0.60917,-2.659442 1.66962,-1.752523 2.97587,-1.752523 1.30625,0 2.3667,-0.906919 2.97587,1.752523 0.47205,2.06081 -0.55229,2.020686 -0.93127,2.391466 -0.78997,0.772866 -0.85824,1.223113 0.20058,5.604422 1.05881,4.381307 0.47425,38.242506 0.0889,40.584216 -0.24153,1.46778 -0.91643,6.51485 -2.3341,6.58787"
         id="path6195"
         sodipodi:nodetypes="csssssssssc" />
    </g>
  </g>
</svg>
